<svg width="22" height="22" viewBox="0 0 22 22" fill="none" xmlns="http://www.w3.org/2000/svg">
<path d="M11 0.950195C8.22562 0.983667 5.57431 2.10066 3.61239 4.06258C1.65047 6.02451 0.533472 8.67582 0.5 11.4502C0.533472 14.2246 1.65047 16.8759 3.61239 18.8378C5.57431 20.7997 8.22562 21.9167 11 21.9502C13.7744 21.9167 16.4257 20.7997 18.3876 18.8378C20.3495 16.8759 21.4665 14.2246 21.5 11.4502C21.4665 8.67582 20.3495 6.02451 18.3876 4.06258C16.4257 2.10066 13.7744 0.983667 11 0.950195ZM17 12.2002H11.75V17.4502H10.25V12.2002H5V10.7002H10.25V5.4502H11.75V10.7002H17V12.2002Z" fill="white"/>
</svg>
