<svg width="13" height="14" viewBox="0 0 13 14" fill="none" xmlns="http://www.w3.org/2000/svg">
<path d="M6.01861 0.838593C5.58258 0.989412 5.28641 1.33218 5.20962 1.7819C5.12187 2.2892 5.3961 2.8157 5.86778 3.04604C6.03781 3.13105 6.05975 3.13379 6.37512 3.13379C6.67677 3.13379 6.71791 3.1283 6.866 3.05701C7.19234 2.90619 7.41172 2.65665 7.51319 2.32759C7.7079 1.70512 7.36236 1.03329 6.75082 0.844077C6.52869 0.775523 6.20783 0.77278 6.01861 0.838593Z" fill="#303030"/>
<path d="M9.96548 2.41815C9.91612 2.45654 9.91337 2.50589 9.90515 3.48211L9.89692 4.50494L9.44718 4.68866C9.20037 4.79286 8.97275 4.87513 8.94533 4.87513C8.9179 4.87513 8.1857 4.54059 7.31912 4.12926C5.61886 3.32306 5.60515 3.31758 5.32543 3.3971C5.13896 3.4492 4.95796 3.6439 4.766 3.99764C4.29157 4.87787 4.05847 5.84037 4.05847 6.92902C4.05847 7.41164 4.09686 7.75167 4.16817 7.89426C4.2285 8.01217 4.29706 8.0725 5.40222 9.02129C5.84648 9.40245 6.22766 9.75071 6.24686 9.79184C6.27703 9.85491 6.27703 10.0441 6.23863 10.9436C6.1783 12.449 6.1783 12.5724 6.23315 12.6958L6.27703 12.8H4.89214C3.58405 12.8 3.51 12.7973 3.53194 12.7506C3.54565 12.726 3.96797 11.9362 4.46982 10.9957C4.97167 10.0551 5.37205 9.27631 5.35834 9.26534C5.18283 9.1063 4.16268 8.24526 4.1572 8.25348C4.15445 8.25623 3.76504 9.1776 3.29336 10.2991C2.79699 11.4728 2.42678 12.3859 2.42129 12.4517C2.41307 12.5176 2.42678 12.619 2.44872 12.6848L2.48985 12.8H1.46696C0.572953 12.8 0.435835 12.8055 0.400185 12.8439C0.34808 12.8932 0.342596 12.9947 0.389216 13.0413C0.413897 13.066 1.80975 13.0742 6.50464 13.0742C12.4884 13.0742 12.5844 13.0742 12.6146 13.0221C12.653 12.9481 12.6502 12.8932 12.5981 12.8439C12.5597 12.8055 12.4117 12.8 11.3778 12.8H10.2013V9.1584V5.51406L10.5359 5.31114C10.9226 5.07531 10.9966 4.98756 10.9966 4.74899C10.9966 4.40622 10.6401 4.19781 10.3 4.34041L10.2013 4.38154V3.42726C10.2013 2.53606 10.1986 2.4675 10.152 2.42637C10.0889 2.36879 10.0368 2.36879 9.96548 2.41815ZM7.73047 5.86231C8.42702 6.09814 8.81918 6.21879 8.89597 6.21879C8.99469 6.21879 9.07696 6.1804 9.40878 5.98297C9.62543 5.85408 9.82562 5.73617 9.85304 5.72246C9.89692 5.69778 9.89966 5.87328 9.89966 9.24889V12.8H8.60802C7.5769 12.8 7.32186 12.7918 7.3438 12.7644C7.35751 12.7479 7.38493 12.6821 7.40139 12.6218C7.45075 12.4463 7.68385 9.58344 7.67288 9.30373C7.65643 8.92257 7.60158 8.83482 6.84195 7.92717L6.19201 7.15113L6.34833 6.39155C6.43334 5.972 6.51287 5.60181 6.52658 5.56616C6.54303 5.52777 6.57594 5.50583 6.61708 5.50583C6.65273 5.50583 7.15458 5.66488 7.73047 5.86231Z" fill="#303030"/>
<path d="M3.4564 2.65656C3.20136 2.70592 2.94358 2.86496 2.66112 3.14466C2.36494 3.44082 2.18943 3.70407 2.04135 4.06603C1.87681 4.47736 1.82744 4.72415 1.83019 5.17661C1.83019 5.52761 1.83841 5.5989 1.89874 5.78537C2.07425 6.31461 2.41705 6.60254 2.87502 6.60254C3.18216 6.60254 3.50302 6.48463 3.74708 6.28719L3.85678 6.1967L3.91985 5.82102C4.02955 5.14096 4.28184 4.4088 4.59173 3.85763L4.73707 3.59986L4.69868 3.46275C4.52042 2.85125 4.04326 2.54139 3.4564 2.65656Z" fill="#303030"/>
</svg>
