<svg width="14" height="14" viewBox="0 0 14 14" fill="none" xmlns="http://www.w3.org/2000/svg">
<path d="M5.60181 6.92033C5.60181 5.01668 5.60181 3.11263 5.60181 1.20898C5.60181 0.859016 5.7347 0.743838 6.07742 0.80787C7.99597 1.16468 9.91371 1.5239 11.8319 1.88192C12.2116 1.9528 12.5914 2.02287 12.9703 2.09617C13.249 2.15013 13.3187 2.23833 13.3187 2.52869C13.3187 4.28172 13.3187 6.03475 13.3187 7.78819C13.3187 9.40551 13.3187 11.0232 13.3187 12.6405C13.3187 12.9724 13.218 13.0743 12.8898 13.0743C10.5991 13.0743 8.30848 13.0743 6.01822 13.0743C5.70088 13.0743 5.60181 12.976 5.60181 12.6623C5.60181 10.7482 5.60181 8.83405 5.60181 6.92033ZM10.9938 5.86561C11.1339 5.86561 11.2745 5.86561 11.4146 5.86561C11.4247 5.86561 11.4348 5.86601 11.4448 5.86521C11.6442 5.85393 11.7614 5.74399 11.7727 5.54585C11.7799 5.41618 11.7795 5.28529 11.7731 5.15522C11.7634 4.95426 11.651 4.83546 11.4521 4.83062C11.1517 4.82338 10.8508 4.82338 10.5504 4.83062C10.3511 4.83546 10.2391 4.95386 10.2294 5.15522C10.2234 5.28006 10.2238 5.40571 10.229 5.53095C10.2379 5.7448 10.3567 5.85917 10.573 5.86481C10.7131 5.86843 10.8537 5.86521 10.9938 5.86561ZM7.91663 3.81296V3.81215C8.06685 3.81215 8.21746 3.81819 8.36727 3.81054C8.56823 3.80007 8.67817 3.68288 8.68301 3.48313C8.68623 3.35788 8.68582 3.23264 8.68301 3.10739C8.67858 2.90845 8.56783 2.7828 8.37009 2.77716C8.06483 2.76871 7.75877 2.7683 7.45351 2.77757C7.25819 2.78361 7.14784 2.91288 7.14341 3.11223C7.141 3.2274 7.1418 3.34258 7.14301 3.45776C7.14583 3.68932 7.2606 3.80611 7.49579 3.81215C7.63594 3.81618 7.77649 3.81296 7.91663 3.81296ZM7.8965 5.86561C8.04188 5.86561 8.18686 5.86561 8.33224 5.86561C8.34231 5.86561 8.35237 5.86561 8.36244 5.86521C8.56219 5.85232 8.67777 5.73795 8.68301 5.54142C8.68663 5.41134 8.68663 5.28086 8.68301 5.15079C8.67777 4.96554 8.57266 4.84029 8.39023 4.83425C8.0749 4.82378 7.75917 4.82378 7.44384 4.83385C7.25537 4.83989 7.14865 4.96755 7.14382 5.16085C7.141 5.28086 7.1414 5.40128 7.14341 5.52169C7.14704 5.73634 7.26302 5.85796 7.47606 5.86521C7.6158 5.86924 7.75635 5.86521 7.8965 5.86561ZM10.9922 12.0357C11.1376 12.0357 11.2826 12.0357 11.4279 12.0357C11.438 12.0357 11.4481 12.0357 11.4581 12.0349C11.6438 12.0228 11.7586 11.9197 11.7706 11.7352C11.7803 11.5907 11.7807 11.4445 11.7698 11.2999C11.7566 11.1183 11.6382 11.0067 11.4537 11.0031C11.1533 10.9975 10.8524 10.9975 10.552 11.0031C10.3611 11.0067 10.2427 11.1219 10.2307 11.3116C10.2222 11.4461 10.2226 11.5822 10.2298 11.7171C10.2403 11.9181 10.3547 12.0276 10.556 12.0345C10.7014 12.0393 10.8468 12.0353 10.9922 12.0357ZM11.0055 7.92954V7.93035C11.1456 7.93035 11.2862 7.93035 11.4263 7.93035C11.4364 7.93035 11.4465 7.92994 11.4565 7.92954C11.6422 7.91867 11.7578 7.81678 11.7706 7.63193C11.7807 7.48736 11.7807 7.34117 11.7706 7.19659C11.7578 7.01336 11.6386 6.90221 11.4561 6.89939C11.1557 6.89496 10.8549 6.89536 10.5544 6.89899C10.3635 6.9014 10.2435 7.01416 10.2319 7.20425C10.223 7.34399 10.223 7.48494 10.2323 7.62468C10.2447 7.81638 10.3603 7.92229 10.5552 7.92833C10.7047 7.93317 10.8553 7.92954 11.0055 7.92954ZM10.9978 9.9822C11.148 9.9822 11.2987 9.98623 11.4485 9.98139C11.6494 9.97495 11.7622 9.86501 11.7731 9.66244C11.7799 9.53276 11.7799 9.40188 11.7731 9.2718C11.7618 9.06642 11.6422 8.95285 11.4336 8.95003C11.1432 8.94641 10.8524 8.946 10.5621 8.95043C10.3563 8.95366 10.2391 9.07165 10.2298 9.27945C10.2242 9.4043 10.2242 9.52995 10.2298 9.65519C10.2395 9.86501 10.3531 9.97575 10.5621 9.9818C10.7071 9.98542 10.8524 9.9822 10.9978 9.9822ZM7.90616 7.92914V7.92833C8.06644 7.92833 8.22713 7.93397 8.38701 7.92672C8.56299 7.91867 8.67455 7.8047 8.6818 7.62952C8.68744 7.48937 8.68703 7.34882 8.6822 7.20868C8.67616 7.02786 8.55977 6.90382 8.38097 6.90019C8.07047 6.89415 7.75957 6.89415 7.44908 6.90019C7.27107 6.90342 7.15147 7.02866 7.14422 7.20747C7.13898 7.34238 7.13939 7.47809 7.14382 7.61301C7.14986 7.80309 7.26503 7.92028 7.45512 7.92753C7.60573 7.93357 7.75595 7.92914 7.90616 7.92914ZM7.9114 9.9822C8.06161 9.9822 8.21223 9.98623 8.36204 9.98139C8.56541 9.97455 8.67696 9.86219 8.6826 9.66204C8.68623 9.53196 8.68623 9.40148 8.6826 9.2714C8.67737 9.08212 8.56259 8.95607 8.37533 8.95204C8.07007 8.9452 7.764 8.9456 7.45874 8.95164C7.26544 8.95567 7.14824 9.08414 7.14341 9.28066C7.14019 9.40591 7.14019 9.53115 7.14341 9.6564C7.14865 9.85695 7.26101 9.97374 7.46035 9.98099C7.61057 9.98623 7.76118 9.9818 7.9114 9.9822Z" fill="#303030"/>
<path d="M4.56509 8.11985C4.56509 11.6251 4.56509 11.1032 4.56509 12.5945C4.56509 12.9968 4.48656 13.0741 4.0782 13.0741C3.17933 13.0741 2.28046 13.0745 1.38119 13.0741C1.07271 13.0741 0.966797 12.9674 0.966797 12.6565C0.966797 9.80402 0.966797 6.95117 0.966797 4.09871C0.966797 3.81882 1.05378 3.72016 1.33971 3.667C2.26194 3.49504 3.18376 3.32308 4.10558 3.14991C4.42011 3.09071 4.56468 3.20468 4.56468 3.52444C4.56589 5.05638 4.56509 6.58832 4.56509 8.11985ZM2.77259 5.86544C2.9228 5.86544 3.07342 5.87027 3.22323 5.86423C3.41532 5.85658 3.53413 5.74462 3.54581 5.55615C3.55426 5.41641 3.55426 5.27545 3.5454 5.13571C3.53372 4.95328 3.41975 4.8373 3.23571 4.83206C2.93045 4.82401 2.62439 4.82401 2.31913 4.83166C2.12582 4.83649 2.01548 4.95288 2.00581 5.14578C1.99896 5.27586 1.99977 5.40634 2.005 5.53642C2.01346 5.74462 2.12864 5.85819 2.33684 5.86463C2.48182 5.86946 2.6272 5.86544 2.77259 5.86544ZM2.78265 6.89841C2.63244 6.89841 2.48223 6.89559 2.33201 6.89922C2.13226 6.90405 2.01588 7.0152 2.00581 7.21575C1.99937 7.35066 1.99896 7.48638 2.00662 7.62129C2.01749 7.81621 2.12824 7.92494 2.32396 7.92856C2.62439 7.9338 2.92481 7.9338 3.22564 7.92856C3.41653 7.92534 3.53453 7.81137 3.54621 7.62169C3.55426 7.48678 3.55386 7.35107 3.54661 7.21615C3.53614 7.01882 3.41492 6.90405 3.21839 6.89922C3.07342 6.89559 2.92804 6.89841 2.78265 6.89841Z" fill="#303030"/>
</svg>
