<svg width="13" height="14" viewBox="0 0 13 14" fill="none" xmlns="http://www.w3.org/2000/svg">
<path d="M6.30314 0.842625C5.99117 0.974612 5.78959 1.21459 5.72959 1.52896C5.7152 1.60815 5.7056 2.30648 5.7056 3.36958V5.08061L3.25304 6.61406L0.798081 8.1475L0.790881 8.77624C0.786082 9.36898 0.788482 9.40498 0.826878 9.39298C0.930068 9.36178 5.51122 7.93393 5.60481 7.90273L5.7056 7.86913V9.54417V11.2216L5.09366 11.68L4.48172 12.1383V12.6063C4.48172 12.9662 4.48892 13.0742 4.51291 13.0742C4.52971 13.0742 5.01446 12.9398 5.59281 12.7742L6.6415 12.4743L7.6902 12.7742C8.26854 12.9398 8.75329 13.0742 8.77009 13.0742C8.79409 13.0742 8.80129 12.9662 8.80129 12.6063V12.1383L8.18935 11.68L7.57741 11.2216V9.54417V7.86913L7.6806 7.90273C7.77179 7.93393 12.3529 9.36178 12.4561 9.39298C12.4945 9.40498 12.4969 9.36898 12.4921 8.77624L12.4849 8.1475L10.0324 6.61406L7.57741 5.08061V3.36958C7.57741 2.30648 7.56781 1.60815 7.55341 1.52896C7.50062 1.24819 7.31344 1.00581 7.04946 0.876223C6.91268 0.809029 6.86708 0.79943 6.6655 0.792231C6.47112 0.787431 6.41833 0.794629 6.30314 0.842625Z" fill="#303030"/>
</svg>
