<svg width="29" height="29" viewBox="0 0 29 29" fill="none" xmlns="http://www.w3.org/2000/svg">
<path d="M13.1389 0.88097C11.5381 1.10659 10.0286 1.62766 8.64261 2.44419C5.22072 4.45327 2.99676 7.96111 2.64222 11.9094L2.60999 12.2425L2.92155 12.2049C3.45337 12.1297 5.23684 12.1566 5.55378 12.2371C5.70956 12.2747 5.84923 12.2962 5.86535 12.2801C5.88146 12.264 5.91907 12.076 5.94593 11.8557C6.37031 8.61111 8.56203 5.8231 11.6079 4.64666C12.6339 4.25451 13.5955 4.07724 14.7504 4.07724C15.9054 4.07724 16.867 4.25451 17.893 4.64666C20.9389 5.8231 23.1306 8.61111 23.555 11.8557C23.5818 12.076 23.6194 12.264 23.6355 12.2801C23.6517 12.2962 23.7913 12.2747 23.9471 12.2371C24.2641 12.1566 26.0475 12.1297 26.5793 12.2049L26.8909 12.2425L26.8587 11.9094C26.5041 7.96111 24.2802 4.45327 20.8583 2.44419C19.4508 1.61692 17.9467 1.09585 16.3083 0.875598C15.6046 0.784276 13.8319 0.784276 13.1389 0.88097Z" fill="white"/>
<path d="M2.62609 13.8541C1.90626 14.1119 1.35296 14.6706 1.10048 15.4012C1.00378 15.6805 0.998413 15.8793 0.998413 18.6082C0.998413 21.3532 1.00378 21.5358 1.10048 21.8206C1.35296 22.5565 1.91163 23.1152 2.65295 23.3677C2.9108 23.4536 3.10419 23.4697 4.13559 23.4697C5.44096 23.4697 5.50542 23.4536 5.73104 23.1152C5.82774 22.9648 5.83311 22.7821 5.83311 18.6082C5.83311 14.4342 5.82774 14.2516 5.73104 14.1012C5.50542 13.7574 5.44633 13.7466 4.11411 13.752C3.07733 13.752 2.86783 13.7681 2.62609 13.8541Z" fill="white"/>
<path d="M24.0277 13.8487C23.6731 14.0797 23.7 13.6714 23.6677 19.3334L23.6409 24.4635L23.5227 24.6516C23.4582 24.7536 23.3239 24.8879 23.2272 24.947C23.0607 25.0491 22.9372 25.0545 20.8905 25.0706L18.731 25.0867L18.6128 24.8557C18.2959 24.2164 17.7802 23.7652 17.157 23.5664C16.8669 23.4805 16.6306 23.4697 14.7558 23.4697C12.8326 23.4697 12.65 23.4751 12.3707 23.5718C11.35 23.9264 10.7215 24.8073 10.7215 25.8871C10.7215 26.9722 11.35 27.8478 12.376 28.2024C12.65 28.2937 12.8434 28.3044 14.7558 28.3044C16.6306 28.3044 16.8669 28.2937 17.157 28.2077C17.7748 28.009 18.2959 27.5578 18.6128 26.9239L18.7256 26.6929H21.0301C23.1682 26.6929 23.3508 26.6875 23.6301 26.5908C24.3661 26.3383 24.9248 25.7797 25.1772 25.0383C25.2578 24.8127 25.2793 24.5925 25.2793 24.1036V23.4697H25.9132C26.402 23.4697 26.6223 23.4483 26.8479 23.3677C27.5892 23.1152 28.1479 22.5565 28.4004 21.8206C28.4971 21.5359 28.5024 21.3532 28.5024 18.6082C28.5024 15.8632 28.4971 15.6805 28.4004 15.3958C28.1479 14.6599 27.5892 14.1012 26.8479 13.8487C26.59 13.7627 26.3967 13.7466 25.3653 13.7466C24.3016 13.7466 24.162 13.7574 24.0277 13.8487Z" fill="white"/>
</svg>
