<svg width="25" height="25" viewBox="0 0 25 25" fill="none" xmlns="http://www.w3.org/2000/svg">
<path d="M12.8029 12.5771C13.3529 12.5771 13.8239 12.3811 14.2159 11.9891C14.6072 11.5978 14.8029 11.1271 14.8029 10.5771C14.8029 10.0271 14.6072 9.55615 14.2159 9.16415C13.8239 8.77281 13.3529 8.57715 12.8029 8.57715C12.2529 8.57715 11.7822 8.77281 11.3909 9.16415C10.9989 9.55615 10.8029 10.0271 10.8029 10.5771C10.8029 11.1271 10.9989 11.5978 11.3909 11.9891C11.7822 12.3811 12.2529 12.5771 12.8029 12.5771ZM12.8029 22.2021C12.6695 22.2021 12.5362 22.1771 12.4029 22.1271C12.2695 22.0771 12.1529 22.0105 12.0529 21.9271C9.61952 19.7771 7.80286 17.7815 6.60286 15.9401C5.40286 14.0981 4.80286 12.3771 4.80286 10.7771C4.80286 8.27715 5.60719 6.28548 7.21586 4.80215C8.82386 3.31881 10.6862 2.57715 12.8029 2.57715C14.9195 2.57715 16.7819 3.31881 18.3899 4.80215C19.9985 6.28548 20.8029 8.27715 20.8029 10.7771C20.8029 12.3771 20.2029 14.0981 19.0029 15.9401C17.8029 17.7815 15.9862 19.7771 13.5529 21.9271C13.4529 22.0105 13.3362 22.0771 13.2029 22.1271C13.0695 22.1771 12.9362 22.2021 12.8029 22.2021Z" fill="#003556"/>
</svg>
