<svg width="30" height="30" viewBox="0 0 30 30" fill="none" xmlns="http://www.w3.org/2000/svg">
<g clip-path="url(#clip0_12910_583)">
<path d="M21.2417 7.55923H24.1417V27.8592H6.74165V7.55923H9.64165V6.10923C9.64165 5.3401 9.94719 4.60247 10.491 4.05862C11.0349 3.51476 11.7725 3.20923 12.5417 3.20923H18.3417C19.1108 3.20923 19.8484 3.51476 20.3923 4.05862C20.9361 4.60247 21.2417 5.3401 21.2417 6.10923V7.55923ZM25.5917 7.55923H27.0417C27.8108 7.55923 28.5484 7.86476 29.0923 8.40862C29.6361 8.95247 29.9417 9.6901 29.9417 10.4592V24.9592C29.9417 25.7284 29.6361 26.466 29.0923 27.0098C28.5484 27.5537 27.8108 27.8592 27.0417 27.8592H25.5917V7.55923ZM5.29165 7.55923V27.8592H3.84165C3.07252 27.8592 2.3349 27.5537 1.79104 27.0098C1.24719 26.466 0.94165 25.7284 0.94165 24.9592V10.4592C0.94165 8.86423 2.24665 7.55923 3.84165 7.55923H5.29165ZM12.5417 6.10923V7.55923H18.3417V6.10923H12.5417Z" fill="#003556"/>
</g>
<defs>
<clipPath id="clip0_12910_583">
<rect width="29" height="29" fill="white" transform="translate(0.94165 0.309204)"/>
</clipPath>
</defs>
</svg>
