<svg width="16" height="16" viewBox="0 0 16 16" fill="none" xmlns="http://www.w3.org/2000/svg">
<path d="M15.7653 7.50912C15.7653 7.82178 15.7653 8.13405 15.7653 8.44671C15.7434 8.62515 15.7246 8.80398 15.6996 8.98203C15.4895 10.4757 14.8956 11.7971 13.8964 12.9269C12.7383 14.2358 11.2962 15.0521 9.57352 15.362C9.29652 15.4117 9.0156 15.4399 8.73625 15.4782C8.42365 15.4782 8.11144 15.4782 7.79883 15.4782C7.75658 15.4696 7.71433 15.4587 7.67168 15.4528C7.36299 15.4098 7.05039 15.3847 6.74561 15.3221C2.9032 14.5336 0.293218 10.8529 0.836656 6.97693C1.11992 4.95539 2.0722 3.30287 3.68295 2.05027C5.25184 0.830933 7.04452 0.328484 9.01834 0.516707C10.631 0.670494 12.0493 1.3009 13.2559 2.38289C14.5454 3.53962 15.3479 4.97535 15.6507 6.68461C15.6992 6.95775 15.7278 7.23441 15.7653 7.50912ZM4.53195 4.78087C6.61532 2.42789 9.7128 2.86616 11.0696 3.98141C10.9061 3.99941 10.7496 4.01663 10.5876 4.03463C10.615 4.33007 10.6412 4.61025 10.6686 4.90491C11.3208 4.84504 11.9593 4.78674 12.588 4.72921C12.588 4.0722 12.588 3.43122 12.588 2.7926C12.2841 2.7926 12.0031 2.7926 11.7081 2.7926C11.7081 2.97143 11.7081 3.13774 11.7081 3.31383C8.99839 1.33338 5.53979 2.1841 3.87975 4.22168C4.09689 4.40834 4.31442 4.5946 4.53195 4.78087ZM4.82108 12.6369C7.53044 14.6091 10.9757 13.7882 12.6557 11.7338C12.4382 11.5475 12.2207 11.3612 12.0035 11.175C9.91585 13.5342 6.80938 13.0834 5.46781 11.9748C5.63095 11.9568 5.78667 11.9396 5.94786 11.9216C5.92008 11.625 5.89426 11.3448 5.86687 11.0525C5.21389 11.1123 4.57538 11.1706 3.94782 11.2282C3.94782 11.8852 3.94782 12.5258 3.94782 13.1636C4.25221 13.1636 4.53313 13.1636 4.82186 13.1636C4.82108 12.9864 4.82108 12.8228 4.82108 12.6369ZM4.47992 8.89867C4.47757 8.88654 4.47561 8.87441 4.47326 8.86189C4.63759 8.70928 4.80582 8.56058 4.96545 8.40327C5.08673 8.28392 5.21037 8.163 5.30974 8.02604C5.73229 7.44298 5.49285 6.75818 4.79995 6.56292C4.43805 6.46078 4.07498 6.47604 3.72247 6.60792C3.46073 6.70575 3.24867 6.8701 3.09374 7.12993C3.30736 7.24928 3.51276 7.36394 3.71503 7.47703C3.92787 7.24654 4.09415 7.16985 4.32224 7.19098C4.60003 7.2168 4.73227 7.42733 4.60785 7.67777C4.54682 7.80064 4.44862 7.911 4.34885 8.00804C4.01551 8.33009 3.67356 8.64275 3.33631 8.9605C3.30227 8.99259 3.25493 9.03368 3.25298 9.0732C3.24359 9.23677 3.24906 9.40112 3.24906 9.56821C4.04094 9.56821 4.81286 9.56821 5.5887 9.56821C5.5887 9.3436 5.5887 9.13112 5.5887 8.89946C5.2135 8.89867 4.84651 8.89867 4.47992 8.89867ZM8.29454 8.32462C8.29454 8.14109 8.29454 7.9783 8.29454 7.81982C8.02028 7.81982 7.76519 7.81982 7.49719 7.81982C7.49719 7.99122 7.49719 8.15048 7.49719 8.31405C7.29413 8.31405 7.10477 8.31405 6.8935 8.31405C7.30235 7.7263 7.69868 7.15693 8.11261 6.56213C7.84109 6.56213 7.6036 6.56644 7.36612 6.56018C7.26831 6.55744 7.20727 6.58796 7.14976 6.66974C6.77808 7.19528 6.41501 7.72747 6.01946 8.23461C5.82658 8.48193 5.89191 8.73354 5.88174 9.0059C6.42009 9.0059 6.94006 9.0059 7.47606 9.0059C7.47606 9.20077 7.47606 9.38312 7.47606 9.57056C7.75775 9.57056 8.02341 9.57056 8.3055 9.57056C8.3055 9.37843 8.3055 9.19529 8.3055 8.99807C8.46082 8.99807 8.59971 8.99807 8.74134 8.99807C8.74134 8.76719 8.74134 8.55158 8.74134 8.32501C8.59384 8.32462 8.45847 8.32462 8.29454 8.32462ZM11.4495 9.57956C11.734 9.57956 11.9875 9.57487 12.2406 9.58191C12.3439 9.58504 12.394 9.55217 12.4351 9.45473C12.7399 8.73158 13.0438 8.00804 13.3654 7.29233C13.4726 7.05402 13.4367 6.81923 13.4449 6.57035C12.608 6.57035 11.7852 6.57035 10.9577 6.57035C10.9577 6.94914 10.9577 7.32128 10.9577 7.69616C11.1983 7.69616 11.4261 7.69616 11.6706 7.69616C11.6706 7.54472 11.6706 7.40072 11.6706 7.25006C11.9401 7.25006 12.1933 7.25006 12.4605 7.25006C12.1225 8.02878 11.7915 8.79106 11.4495 9.57956ZM8.80903 10.0049C9.00621 10.0049 9.1901 9.99749 9.3732 10.0077C9.48901 10.0143 9.54339 9.97792 9.58251 9.86522C10.0176 8.60949 10.4585 7.35572 10.8971 6.10116C10.9124 6.05734 10.9237 6.01155 10.9413 5.9509C10.7382 5.9509 10.5532 5.95794 10.3689 5.94816C10.259 5.94229 10.2081 5.97673 10.1709 6.08395C9.73706 7.33498 9.29769 8.58406 8.85989 9.83392C8.84267 9.88401 8.82976 9.93527 8.80903 10.0049Z" fill="#F23844"/>
</svg>
