<svg width="16" height="16" viewBox="0 0 16 16" fill="none" xmlns="http://www.w3.org/2000/svg">
<path d="M6.93164 12.1514H8.43164V9.15137H11.4316V7.65137H8.43164V4.65137H6.93164V7.65137H3.93164V9.15137H6.93164V12.1514ZM7.68164 15.9014C6.64414 15.9014 5.66914 15.7044 4.75664 15.3104C3.84414 14.9169 3.05039 14.3826 2.37539 13.7076C1.70039 13.0326 1.16614 12.2389 0.772641 11.3264C0.378641 10.4139 0.181641 9.43887 0.181641 8.40137C0.181641 7.36387 0.378641 6.38887 0.772641 5.47637C1.16614 4.56387 1.70039 3.77012 2.37539 3.09512C3.05039 2.42012 3.84414 1.88562 4.75664 1.49162C5.66914 1.09812 6.64414 0.901367 7.68164 0.901367C8.71914 0.901367 9.69414 1.09812 10.6066 1.49162C11.5191 1.88562 12.3129 2.42012 12.9879 3.09512C13.6629 3.77012 14.1971 4.56387 14.5906 5.47637C14.9846 6.38887 15.1816 7.36387 15.1816 8.40137C15.1816 9.43887 14.9846 10.4139 14.5906 11.3264C14.1971 12.2389 13.6629 13.0326 12.9879 13.7076C12.3129 14.3826 11.5191 14.9169 10.6066 15.3104C9.69414 15.7044 8.71914 15.9014 7.68164 15.9014Z" fill="#003556"/>
</svg>
