<svg width="316" height="46" viewBox="0 0 316 46" fill="none" xmlns="http://www.w3.org/2000/svg">
<rect x="0.835938" y="-0.00012207" width="315" height="46" rx="12" fill="black"/>
<path d="M82.889 31.3707C81.909 32.3207 80.839 32.1707 79.809 31.7207C78.719 31.2607 77.719 31.2407 76.569 31.7207C75.129 32.3407 74.369 32.1607 73.509 31.3707C68.629 26.3407 69.349 18.6807 74.889 18.4007C76.239 18.4707 77.179 19.1407 77.969 19.2007C79.149 18.9607 80.279 18.2707 81.539 18.3607C83.049 18.4807 84.189 19.0807 84.939 20.1607C81.819 22.0307 82.559 26.1407 85.419 27.2907C84.849 28.7907 84.109 30.2807 82.879 31.3807L82.889 31.3707ZM77.869 18.3407C77.719 16.1107 79.529 14.2707 81.609 14.0907C81.899 16.6707 79.269 18.5907 77.869 18.3407Z" fill="white"/>
<path d="M104.952 29.1119C104.174 29.1119 103.47 28.9785 102.84 28.7119C102.222 28.4452 101.731 28.0612 101.368 27.5599C101.006 27.0585 100.819 26.4665 100.808 25.7839H103.208C103.24 26.2425 103.4 26.6052 103.688 26.8719C103.987 27.1385 104.392 27.2719 104.904 27.2719C105.427 27.2719 105.838 27.1492 106.136 26.9039C106.435 26.6479 106.584 26.3172 106.584 25.9119C106.584 25.5812 106.483 25.3092 106.28 25.0959C106.078 24.8825 105.822 24.7172 105.512 24.5999C105.214 24.4719 104.798 24.3332 104.264 24.1839C103.539 23.9705 102.947 23.7625 102.488 23.5599C102.04 23.3465 101.651 23.0319 101.32 22.6159C101 22.1892 100.84 21.6239 100.84 20.9199C100.84 20.2585 101.006 19.6825 101.336 19.1919C101.667 18.7012 102.131 18.3279 102.728 18.0719C103.326 17.8052 104.008 17.6719 104.776 17.6719C105.928 17.6719 106.862 17.9545 107.576 18.5199C108.302 19.0745 108.702 19.8532 108.776 20.8559H106.312C106.291 20.4719 106.126 20.1572 105.816 19.9119C105.518 19.6559 105.118 19.5279 104.616 19.5279C104.179 19.5279 103.827 19.6399 103.56 19.8639C103.304 20.0879 103.176 20.4132 103.176 20.8399C103.176 21.1385 103.272 21.3892 103.464 21.5919C103.667 21.7839 103.912 21.9439 104.2 22.0719C104.499 22.1892 104.915 22.3279 105.448 22.4879C106.174 22.7012 106.766 22.9145 107.224 23.1279C107.683 23.3412 108.078 23.6612 108.408 24.0879C108.739 24.5145 108.904 25.0745 108.904 25.7679C108.904 26.3652 108.75 26.9199 108.44 27.4319C108.131 27.9439 107.678 28.3545 107.08 28.6639C106.483 28.9625 105.774 29.1119 104.952 29.1119ZM111.982 19.0799C111.588 19.0799 111.257 18.9572 110.99 18.7119C110.734 18.4559 110.606 18.1412 110.606 17.7679C110.606 17.3945 110.734 17.0852 110.99 16.8399C111.257 16.5839 111.588 16.4559 111.982 16.4559C112.377 16.4559 112.702 16.5839 112.958 16.8399C113.225 17.0852 113.358 17.3945 113.358 17.7679C113.358 18.1412 113.225 18.4559 112.958 18.7119C112.702 18.9572 112.377 19.0799 111.982 19.0799ZM113.086 20.1359V28.9999H110.846V20.1359H113.086ZM118.771 19.9919C119.433 19.9919 120.014 20.1252 120.515 20.3919C121.017 20.6479 121.411 20.9839 121.699 21.3999V20.1359H123.955V29.0639C123.955 29.8852 123.79 30.6159 123.459 31.2559C123.129 31.9065 122.633 32.4185 121.971 32.7919C121.31 33.1759 120.51 33.3679 119.571 33.3679C118.313 33.3679 117.278 33.0745 116.467 32.4879C115.667 31.9012 115.214 31.1012 115.107 30.0879H117.331C117.449 30.4932 117.699 30.8132 118.083 31.0479C118.478 31.2932 118.953 31.4159 119.507 31.4159C120.158 31.4159 120.686 31.2185 121.091 30.8239C121.497 30.4399 121.699 29.8532 121.699 29.0639V27.6879C121.411 28.1039 121.011 28.4505 120.499 28.7279C119.998 29.0052 119.422 29.1439 118.771 29.1439C118.025 29.1439 117.342 28.9519 116.723 28.5679C116.105 28.1839 115.614 27.6452 115.251 26.9519C114.899 26.2479 114.723 25.4425 114.723 24.5359C114.723 23.6399 114.899 22.8452 115.251 22.1519C115.614 21.4585 116.099 20.9252 116.707 20.5519C117.326 20.1785 118.014 19.9919 118.771 19.9919ZM121.699 24.5679C121.699 24.0239 121.593 23.5599 121.379 23.1759C121.166 22.7812 120.878 22.4825 120.515 22.2799C120.153 22.0665 119.763 21.9599 119.347 21.9599C118.931 21.9599 118.547 22.0612 118.195 22.2639C117.843 22.4665 117.555 22.7652 117.331 23.1599C117.118 23.5439 117.011 24.0025 117.011 24.5359C117.011 25.0692 117.118 25.5385 117.331 25.9439C117.555 26.3385 117.843 26.6425 118.195 26.8559C118.558 27.0692 118.942 27.1759 119.347 27.1759C119.763 27.1759 120.153 27.0745 120.515 26.8719C120.878 26.6585 121.166 26.3599 121.379 25.9759C121.593 25.5812 121.699 25.1119 121.699 24.5679ZM131.055 20.0079C132.111 20.0079 132.964 20.3439 133.615 21.0159C134.266 21.6772 134.591 22.6052 134.591 23.7999V28.9999H132.351V24.1039C132.351 23.3999 132.175 22.8612 131.823 22.4879C131.471 22.1039 130.991 21.9119 130.383 21.9119C129.764 21.9119 129.274 22.1039 128.911 22.4879C128.559 22.8612 128.383 23.3999 128.383 24.1039V28.9999H126.143V20.1359H128.383V21.2399C128.682 20.8559 129.06 20.5572 129.519 20.3439C129.988 20.1199 130.5 20.0079 131.055 20.0079ZM148.902 20.1359V28.9999H146.646V27.8799C146.358 28.2639 145.979 28.5679 145.51 28.7919C145.051 29.0052 144.55 29.1119 144.006 29.1119C143.312 29.1119 142.699 28.9679 142.166 28.6799C141.632 28.3812 141.211 27.9492 140.902 27.3839C140.603 26.8079 140.454 26.1252 140.454 25.3359V20.1359H142.694V25.0159C142.694 25.7199 142.87 26.2639 143.222 26.6479C143.574 27.0212 144.054 27.2079 144.662 27.2079C145.28 27.2079 145.766 27.0212 146.118 26.6479C146.47 26.2639 146.646 25.7199 146.646 25.0159V20.1359H148.902ZM153.352 21.4159C153.64 21.0105 154.034 20.6745 154.536 20.4079C155.048 20.1305 155.629 19.9919 156.28 19.9919C157.037 19.9919 157.72 20.1785 158.328 20.5519C158.946 20.9252 159.432 21.4585 159.784 22.1519C160.146 22.8345 160.328 23.6292 160.328 24.5359C160.328 25.4425 160.146 26.2479 159.784 26.9519C159.432 27.6452 158.946 28.1839 158.328 28.5679C157.72 28.9519 157.037 29.1439 156.28 29.1439C155.629 29.1439 155.053 29.0105 154.552 28.7439C154.061 28.4772 153.661 28.1412 153.352 27.7359V33.2239H151.112V20.1359H153.352V21.4159ZM158.04 24.5359C158.04 24.0025 157.928 23.5439 157.704 23.1599C157.49 22.7652 157.202 22.4665 156.84 22.2639C156.488 22.0612 156.104 21.9599 155.688 21.9599C155.282 21.9599 154.898 22.0665 154.536 22.2799C154.184 22.4825 153.896 22.7812 153.672 23.1759C153.458 23.5705 153.352 24.0345 153.352 24.5679C153.352 25.1012 153.458 25.5652 153.672 25.9599C153.896 26.3545 154.184 26.6585 154.536 26.8719C154.898 27.0745 155.282 27.1759 155.688 27.1759C156.104 27.1759 156.488 27.0692 156.84 26.8559C157.202 26.6425 157.49 26.3385 157.704 25.9439C157.928 25.5492 158.04 25.0799 158.04 24.5359ZM178.056 20.1359L175.464 28.9999H173.048L171.432 22.8079L169.816 28.9999H167.384L164.776 20.1359H167.048L168.616 26.8879L170.312 20.1359H172.68L174.344 26.8719L175.912 20.1359H178.056ZM180.404 19.0799C180.009 19.0799 179.679 18.9572 179.412 18.7119C179.156 18.4559 179.028 18.1412 179.028 17.7679C179.028 17.3945 179.156 17.0852 179.412 16.8399C179.679 16.5839 180.009 16.4559 180.404 16.4559C180.799 16.4559 181.124 16.5839 181.38 16.8399C181.647 17.0852 181.78 17.3945 181.78 17.7679C181.78 18.1412 181.647 18.4559 181.38 18.7119C181.124 18.9572 180.799 19.0799 180.404 19.0799ZM181.508 20.1359V28.9999H179.268V20.1359H181.508ZM186.329 21.9759V26.2639C186.329 26.5625 186.399 26.7812 186.537 26.9199C186.687 27.0479 186.932 27.1119 187.273 27.1119H188.313V28.9999H186.905C185.017 28.9999 184.073 28.0825 184.073 26.2479V21.9759H183.017V20.1359H184.073V17.9439H186.329V20.1359H188.313V21.9759H186.329ZM194.916 20.0079C195.588 20.0079 196.186 20.1572 196.708 20.4559C197.231 20.7439 197.636 21.1759 197.924 21.7519C198.223 22.3172 198.372 22.9999 198.372 23.7999V28.9999H196.132V24.1039C196.132 23.3999 195.956 22.8612 195.604 22.4879C195.252 22.1039 194.772 21.9119 194.164 21.9119C193.546 21.9119 193.055 22.1039 192.692 22.4879C192.34 22.8612 192.164 23.3999 192.164 24.1039V28.9999H189.924V17.1599H192.164V21.2399C192.452 20.8559 192.836 20.5572 193.316 20.3439C193.796 20.1199 194.33 20.0079 194.916 20.0079ZM211.163 26.8719H206.715L205.979 28.9999H203.627L207.643 17.8159H210.251L214.267 28.9999H211.899L211.163 26.8719ZM210.555 25.0799L208.939 20.4079L207.323 25.0799H210.555ZM218.008 21.4159C218.296 21.0105 218.691 20.6745 219.192 20.4079C219.704 20.1305 220.285 19.9919 220.936 19.9919C221.693 19.9919 222.376 20.1785 222.984 20.5519C223.603 20.9252 224.088 21.4585 224.44 22.1519C224.803 22.8345 224.984 23.6292 224.984 24.5359C224.984 25.4425 224.803 26.2479 224.44 26.9519C224.088 27.6452 223.603 28.1839 222.984 28.5679C222.376 28.9519 221.693 29.1439 220.936 29.1439C220.285 29.1439 219.709 29.0105 219.208 28.7439C218.717 28.4772 218.317 28.1412 218.008 27.7359V33.2239H215.768V20.1359H218.008V21.4159ZM222.696 24.5359C222.696 24.0025 222.584 23.5439 222.36 23.1599C222.147 22.7652 221.859 22.4665 221.496 22.2639C221.144 22.0612 220.76 21.9599 220.344 21.9599C219.939 21.9599 219.555 22.0665 219.192 22.2799C218.84 22.4825 218.552 22.7812 218.328 23.1759C218.115 23.5705 218.008 24.0345 218.008 24.5679C218.008 25.1012 218.115 25.5652 218.328 25.9599C218.552 26.3545 218.84 26.6585 219.192 26.8719C219.555 27.0745 219.939 27.1759 220.344 27.1759C220.76 27.1759 221.144 27.0692 221.496 26.8559C221.859 26.6425 222.147 26.3385 222.36 25.9439C222.584 25.5492 222.696 25.0799 222.696 24.5359ZM228.852 21.4159C229.14 21.0105 229.534 20.6745 230.036 20.4079C230.548 20.1305 231.129 19.9919 231.78 19.9919C232.537 19.9919 233.22 20.1785 233.828 20.5519C234.446 20.9252 234.932 21.4585 235.284 22.1519C235.646 22.8345 235.828 23.6292 235.828 24.5359C235.828 25.4425 235.646 26.2479 235.284 26.9519C234.932 27.6452 234.446 28.1839 233.828 28.5679C233.22 28.9519 232.537 29.1439 231.78 29.1439C231.129 29.1439 230.553 29.0105 230.052 28.7439C229.561 28.4772 229.161 28.1412 228.852 27.7359V33.2239H226.612V20.1359H228.852V21.4159ZM233.54 24.5359C233.54 24.0025 233.428 23.5439 233.204 23.1599C232.99 22.7652 232.702 22.4665 232.34 22.2639C231.988 22.0612 231.604 21.9599 231.188 21.9599C230.782 21.9599 230.398 22.0665 230.036 22.2799C229.684 22.4825 229.396 22.7812 229.172 23.1759C228.958 23.5705 228.852 24.0345 228.852 24.5679C228.852 25.1012 228.958 25.5652 229.172 25.9599C229.396 26.3545 229.684 26.6585 230.036 26.8719C230.398 27.0745 230.782 27.1759 231.188 27.1759C231.604 27.1759 231.988 27.0692 232.34 26.8559C232.702 26.6425 232.99 26.3385 233.204 25.9439C233.428 25.5492 233.54 25.0799 233.54 24.5359ZM239.696 17.1599V28.9999H237.456V17.1599H239.696ZM250.149 24.3759C250.149 24.6959 250.127 24.9839 250.085 25.2399H243.605C243.658 25.8799 243.882 26.3812 244.277 26.7439C244.671 27.1065 245.157 27.2879 245.733 27.2879C246.565 27.2879 247.157 26.9305 247.509 26.2159H249.925C249.669 27.0692 249.178 27.7732 248.453 28.3279C247.727 28.8719 246.837 29.1439 245.781 29.1439C244.927 29.1439 244.159 28.9572 243.477 28.5839C242.805 28.1999 242.277 27.6612 241.893 26.9679C241.519 26.2745 241.333 25.4745 241.333 24.5679C241.333 23.6505 241.519 22.8452 241.893 22.1519C242.266 21.4585 242.789 20.9252 243.461 20.5519C244.133 20.1785 244.906 19.9919 245.781 19.9919C246.623 19.9919 247.375 20.1732 248.037 20.5359C248.709 20.8985 249.226 21.4159 249.589 22.0879C249.962 22.7492 250.149 23.5119 250.149 24.3759ZM247.829 23.7359C247.818 23.1599 247.61 22.7012 247.205 22.3599C246.799 22.0079 246.303 21.8319 245.717 21.8319C245.162 21.8319 244.693 22.0025 244.309 22.3439C243.935 22.6745 243.706 23.1385 243.621 23.7359H247.829Z" fill="white"/>
</svg>
