<svg width="186" height="63" viewBox="0 0 186 63" fill="none" xmlns="http://www.w3.org/2000/svg">
<rect x="0.775" y="1.04941" width="184.45" height="60.45" rx="10.075" fill="black"/>
<path d="M126.365 30.036V33.587H124.139V35.9158H126.365V43.8285C126.365 46.5304 127.587 47.6112 130.662 47.6112C131.203 47.6112 131.717 47.5469 132.168 47.4697V45.1666C131.782 45.2052 131.537 45.231 131.113 45.231C129.736 45.231 129.131 44.5877 129.131 43.1209V35.9158H132.168V33.587H129.131V30.036H126.365Z" fill="white"/>
<path d="M140.001 47.8042C144.093 47.8042 146.602 45.0637 146.602 40.5219C146.602 36.0059 144.08 33.2525 140.001 33.2525C135.91 33.2525 133.388 36.0059 133.388 40.5219C133.388 45.0637 135.897 47.8042 140.001 47.8042ZM140.001 45.3468C137.595 45.3468 136.244 43.5841 136.244 40.5219C136.244 37.4855 137.595 35.71 140.001 35.71C142.394 35.71 143.758 37.4855 143.758 40.5219C143.758 43.5712 142.394 45.3468 140.001 45.3468Z" fill="white"/>
<path d="M148.748 47.534H151.514V39.261C151.514 37.2925 152.994 35.9673 155.091 35.9673C155.58 35.9673 156.404 36.0574 156.635 36.1346V33.4069C156.339 33.3297 155.812 33.2911 155.4 33.2911C153.573 33.2911 152.016 34.2947 151.617 35.6714H151.411V33.5227H148.748V47.534Z" fill="white"/>
<path d="M163.504 35.607C165.549 35.607 166.887 37.0352 166.952 39.2353H159.875C160.03 37.0481 161.458 35.607 163.504 35.607ZM166.939 43.7513C166.424 44.845 165.279 45.4497 163.607 45.4497C161.394 45.4497 159.965 43.8929 159.875 41.4354V41.281H169.77V40.3161C169.77 35.9158 167.415 33.2525 163.517 33.2525C159.567 33.2525 157.058 36.096 157.058 40.5734C157.058 45.0508 159.515 47.8042 163.529 47.8042C166.733 47.8042 168.972 46.2603 169.602 43.7513H166.939Z" fill="white"/>
<path d="M108.225 42.3599C108.438 45.8004 111.305 48.0008 115.572 48.0008C120.133 48.0008 122.987 45.6937 122.987 42.0131C122.987 39.1193 121.36 37.5191 117.413 36.5989L115.292 36.0789C112.785 35.4921 111.772 34.7053 111.772 33.3318C111.772 31.5982 113.345 30.4646 115.706 30.4646C117.946 30.4646 119.493 31.5715 119.773 33.3451H122.68C122.507 30.1046 119.653 27.8242 115.746 27.8242C111.545 27.8242 108.745 30.1046 108.745 33.5318C108.745 36.3589 110.332 38.0392 113.812 38.8526L116.292 39.4527C118.84 40.0528 119.96 40.933 119.96 42.3999C119.96 44.1068 118.199 45.347 115.799 45.347C113.225 45.347 111.438 44.1868 111.185 42.3599H108.225Z" fill="white"/>
<path d="M79.5692 33.2911C77.665 33.2911 76.0181 34.2432 75.1689 35.8386H74.9631V33.5227H72.2998V52.1916H75.066V45.4111H75.2847C76.0181 46.8907 77.6007 47.7656 79.5949 47.7656C83.1331 47.7656 85.3847 44.9736 85.3847 40.5219C85.3847 36.0702 83.1331 33.2911 79.5692 33.2911ZM78.7843 45.2824C76.4684 45.2824 75.0145 43.4554 75.0145 40.5348C75.0145 37.6013 76.4684 35.7743 78.7972 35.7743C81.1389 35.7743 82.5413 37.5627 82.5413 40.5219C82.5413 43.494 81.1389 45.2824 78.7843 45.2824Z" fill="white"/>
<path d="M95.0642 33.2911C93.16 33.2911 91.5131 34.2432 90.664 35.8386H90.4581V33.5227H87.7948V52.1916H90.561V45.4111H90.7798C91.5131 46.8907 93.0957 47.7656 95.0899 47.7656C98.6282 47.7656 100.88 44.9736 100.88 40.5219C100.88 36.0702 98.6282 33.2911 95.0642 33.2911ZM94.2794 45.2824C91.9635 45.2824 90.5096 43.4554 90.5096 40.5348C90.5096 37.6013 91.9635 35.7743 94.2922 35.7743C96.6339 35.7743 98.0363 37.5627 98.0363 40.5219C98.0363 43.494 96.6339 45.2824 94.2794 45.2824Z" fill="white"/>
<path d="M67.3367 47.534H70.5105L63.5627 28.291H60.3489L53.4011 47.534H56.4683L58.2419 42.4265H65.5764L67.3367 47.534ZM61.8025 31.7848H62.0292L64.8163 39.9195H59.002L61.8025 31.7848Z" fill="white"/>
<path d="M55.2592 13.7763V23.0593H58.6109C61.3771 23.0593 62.9789 21.3545 62.9789 18.3889C62.9789 15.4682 61.3642 13.7763 58.6109 13.7763H55.2592ZM56.7002 15.0887H58.45C60.3735 15.0887 61.5122 16.311 61.5122 18.4082C61.5122 20.5375 60.3928 21.7469 58.45 21.7469H56.7002V15.0887Z" fill="white"/>
<path d="M67.8848 23.1944C69.9306 23.1944 71.185 21.8241 71.185 19.5533C71.185 17.2952 69.9241 15.9186 67.8848 15.9186C65.8391 15.9186 64.5782 17.2952 64.5782 19.5533C64.5782 21.8241 65.8327 23.1944 67.8848 23.1944ZM67.8848 21.9657C66.6818 21.9657 66.0064 21.0843 66.0064 19.5533C66.0064 18.035 66.6818 17.1473 67.8848 17.1473C69.0814 17.1473 69.7633 18.035 69.7633 19.5533C69.7633 21.0779 69.0814 21.9657 67.8848 21.9657Z" fill="white"/>
<path d="M81.8678 16.0536H80.4847L79.2367 21.3996H79.1273L77.6863 16.0536H76.3611L74.9201 21.3996H74.8171L73.5627 16.0536H72.1603L74.0902 23.0593H75.5119L76.9529 17.9H77.0623L78.5097 23.0593H79.9443L81.8678 16.0536Z" fill="white"/>
<path d="M83.4607 23.0593H84.8438V18.9614C84.8438 17.8678 85.4935 17.1859 86.5164 17.1859C87.5392 17.1859 88.0282 17.7456 88.0282 18.8713V23.0593H89.4113V18.524C89.4113 16.8578 88.5492 15.9186 86.986 15.9186C85.931 15.9186 85.2362 16.3882 84.8952 17.1666H84.7923V16.0536H83.4607V23.0593Z" fill="white"/>
<path d="M91.5895 23.0593H92.9727V13.3196H91.5895V23.0593Z" fill="white"/>
<path d="M98.1745 23.1944C100.22 23.1944 101.475 21.8241 101.475 19.5533C101.475 17.2952 100.214 15.9186 98.1745 15.9186C96.1287 15.9186 94.8678 17.2952 94.8678 19.5533C94.8678 21.8241 96.1223 23.1944 98.1745 23.1944ZM98.1745 21.9657C96.9715 21.9657 96.296 21.0843 96.296 19.5533C96.296 18.035 96.9715 17.1473 98.1745 17.1473C99.371 17.1473 100.053 18.035 100.053 19.5533C100.053 21.0779 99.371 21.9657 98.1745 21.9657Z" fill="white"/>
<path d="M105.596 22.0107C104.843 22.0107 104.296 21.644 104.296 21.0136C104.296 20.396 104.734 20.0679 105.699 20.0036L107.41 19.8942V20.4796C107.41 21.3481 106.638 22.0107 105.596 22.0107ZM105.242 23.1751C106.162 23.1751 106.927 22.7762 107.345 22.075H107.455V23.0593H108.787V18.2731C108.787 16.7935 107.796 15.9186 106.04 15.9186C104.451 15.9186 103.318 16.6905 103.177 17.8935H104.515C104.669 17.3982 105.203 17.1151 105.975 17.1151C106.921 17.1151 107.41 17.5333 107.41 18.2731V18.8778L105.512 18.9871C103.846 19.0901 102.907 19.817 102.907 21.0779C102.907 22.3581 103.891 23.1751 105.242 23.1751Z" fill="white"/>
<path d="M113.48 23.1751C114.445 23.1751 115.262 22.7183 115.68 21.9528H115.79V23.0593H117.115V13.3196H115.732V17.1666H115.629C115.249 16.3946 114.439 15.9379 113.48 15.9379C111.711 15.9379 110.572 17.3403 110.572 19.5533C110.572 21.7727 111.698 23.1751 113.48 23.1751ZM113.873 17.1794C115.03 17.1794 115.757 18.0994 115.757 19.5597C115.757 21.0264 115.037 21.9335 113.873 21.9335C112.702 21.9335 112 21.0393 112 19.5533C112 18.0801 112.708 17.1794 113.873 17.1794Z" fill="white"/>
<path d="M126.084 23.1944C128.13 23.1944 129.384 21.8241 129.384 19.5533C129.384 17.2952 128.123 15.9186 126.084 15.9186C124.038 15.9186 122.777 17.2952 122.777 19.5533C122.777 21.8241 124.032 23.1944 126.084 23.1944ZM126.084 21.9657C124.881 21.9657 124.205 21.0843 124.205 19.5533C124.205 18.035 124.881 17.1473 126.084 17.1473C127.28 17.1473 127.962 18.035 127.962 19.5533C127.962 21.0779 127.28 21.9657 126.084 21.9657Z" fill="white"/>
<path d="M131.215 23.0593H132.598V18.9614C132.598 17.8678 133.248 17.1859 134.271 17.1859C135.293 17.1859 135.782 17.7456 135.782 18.8713V23.0593H137.166V18.524C137.166 16.8578 136.303 15.9186 134.74 15.9186C133.685 15.9186 132.99 16.3882 132.649 17.1666H132.547V16.0536H131.215V23.0593Z" fill="white"/>
<path d="M143.536 14.3103V16.0858H142.423V17.2502H143.536V21.2066C143.536 22.5575 144.147 23.0979 145.684 23.0979C145.954 23.0979 146.212 23.0657 146.437 23.0271V21.8756C146.244 21.8949 146.122 21.9078 145.909 21.9078C145.221 21.9078 144.919 21.5861 144.919 20.8527V17.2502H146.437V16.0858H144.919V14.3103H143.536Z" fill="white"/>
<path d="M148.293 23.0593H149.677V18.9678C149.677 17.9064 150.307 17.1923 151.439 17.1923C152.417 17.1923 152.938 17.7584 152.938 18.8778V23.0593H154.321V18.5368C154.321 16.8707 153.401 15.925 151.909 15.925C150.854 15.925 150.114 16.3946 149.773 17.1794H149.664V13.3196H148.293V23.0593Z" fill="white"/>
<path d="M159.311 17.0958C160.334 17.0958 161.003 17.8099 161.035 18.9099H157.497C157.574 17.8163 158.288 17.0958 159.311 17.0958ZM161.028 21.168C160.771 21.7148 160.199 22.0171 159.362 22.0171C158.256 22.0171 157.542 21.2387 157.497 20.01V19.9328H162.444V19.4503C162.444 17.2502 161.266 15.9186 159.317 15.9186C157.342 15.9186 156.088 17.3403 156.088 19.579C156.088 21.8177 157.317 23.1944 159.324 23.1944C160.926 23.1944 162.045 22.4224 162.36 21.168H161.028Z" fill="white"/>
<path d="M38.392 31.7406C38.4255 29.135 39.8248 26.6696 42.0446 25.3049C40.6442 23.3049 38.2987 22.0368 35.8583 21.9605C33.2555 21.6873 30.7322 23.518 29.4058 23.518C28.0538 23.518 26.0117 21.9876 23.8126 22.0328C20.9463 22.1254 18.2742 23.7551 16.8796 26.261C13.8819 31.4511 16.1179 39.0787 18.9895 43.274C20.4262 45.3283 22.1053 47.623 24.3023 47.5416C26.4523 47.4524 27.2552 46.1706 29.8504 46.1706C32.4215 46.1706 33.1748 47.5416 35.4164 47.4898C37.7234 47.4524 39.1769 45.4264 40.5632 43.3527C41.5955 41.8889 42.3898 40.2711 42.9168 38.5593C40.2056 37.4126 38.3951 34.6842 38.392 31.7406Z" fill="white"/>
<path d="M34.1579 19.2015C35.4157 17.6915 36.0354 15.7506 35.8854 13.791C33.9636 13.9929 32.1885 14.9113 30.9136 16.3634C29.667 17.7822 29.0182 19.6889 29.1409 21.5736C31.0633 21.5934 32.9532 20.6998 34.1579 19.2015Z" fill="white"/>
<rect x="0.775" y="1.04941" width="184.45" height="60.45" rx="10.075" stroke="#A6A6A6" stroke-width="1.55"/>
</svg>
