<svg width="19" height="19" viewBox="0 0 19 19" fill="none" xmlns="http://www.w3.org/2000/svg">
<path d="M4.67725 8.9375H15.9272C16.0764 8.9375 16.2195 8.99676 16.325 9.10225C16.4305 9.20774 16.4897 9.35082 16.4897 9.5C16.4897 9.64918 16.4305 9.79226 16.325 9.89775C16.2195 10.0032 16.0764 10.0625 15.9272 10.0625H4.67725C4.52806 10.0625 4.38499 10.0032 4.2795 9.89775C4.17401 9.79226 4.11475 9.64918 4.11475 9.5C4.11475 9.35082 4.17401 9.20774 4.2795 9.10225C4.38499 8.99676 4.52806 8.9375 4.67725 8.9375Z" fill="white"/>
<path d="M4.91012 9.49973L9.57549 14.164C9.68112 14.2696 9.74045 14.4129 9.74045 14.5622C9.74045 14.7116 9.68112 14.8549 9.57549 14.9605C9.46987 15.0661 9.32662 15.1254 9.17724 15.1254C9.02787 15.1254 8.88462 15.0661 8.77899 14.9605L3.71649 9.89798C3.66411 9.84573 3.62255 9.78366 3.59419 9.71532C3.56584 9.64698 3.55124 9.57372 3.55124 9.49973C3.55124 9.42575 3.56584 9.35248 3.59419 9.28415C3.62255 9.21581 3.66411 9.15374 3.71649 9.10148L8.77899 4.03898C8.88462 3.93336 9.02787 3.87402 9.17724 3.87402C9.32662 3.87402 9.46987 3.93336 9.57549 4.03898C9.68112 4.14461 9.74045 4.28786 9.74045 4.43723C9.74045 4.58661 9.68112 4.72986 9.57549 4.83548L4.91012 9.49973Z" fill="white"/>
</svg>
