<svg width="20" height="21" viewBox="0 0 20 21" fill="none" xmlns="http://www.w3.org/2000/svg">
<path d="M6.4 15.1504L10 11.5504L13.6 15.1504L15 13.7504L11.4 10.1504L15 6.55039L13.6 5.15039L10 8.75039L6.4 5.15039L5 6.55039L8.6 10.1504L5 13.7504L6.4 15.1504ZM10 20.1504C8.61667 20.1504 7.31667 19.8877 6.1 19.3624C4.88333 18.8377 3.825 18.1254 2.925 17.2254C2.025 16.3254 1.31267 15.2671 0.788 14.0504C0.262667 12.8337 0 11.5337 0 10.1504C0 8.76706 0.262667 7.46706 0.788 6.25039C1.31267 5.03372 2.025 3.97539 2.925 3.07539C3.825 2.17539 4.88333 1.46272 6.1 0.937391C7.31667 0.412724 8.61667 0.150391 10 0.150391C11.3833 0.150391 12.6833 0.412724 13.9 0.937391C15.1167 1.46272 16.175 2.17539 17.075 3.07539C17.975 3.97539 18.6873 5.03372 19.212 6.25039C19.7373 7.46706 20 8.76706 20 10.1504C20 11.5337 19.7373 12.8337 19.212 14.0504C18.6873 15.2671 17.975 16.3254 17.075 17.2254C16.175 18.1254 15.1167 18.8377 13.9 19.3624C12.6833 19.8877 11.3833 20.1504 10 20.1504Z" fill="#003556"/>
</svg>
