<svg width="61" height="61" viewBox="0 0 61 61" fill="none" xmlns="http://www.w3.org/2000/svg">
<g clip-path="url(#clip0_7412_3607)">
<path d="M26.5293 1.06674C21.2441 1.74643 16.5449 3.64487 12.2324 6.84409C10.4746 8.15659 7.54492 11.0863 6.23242 12.8441C4.05273 15.7855 2.54102 18.7503 1.52148 22.1253C0.630859 25.055 0.291016 27.5277 0.291016 30.891C0.291016 34.2542 0.630859 36.7269 1.52148 39.6566C2.98633 44.473 5.37695 48.4222 9.05664 52.1136C12.7598 55.805 16.6973 58.1839 21.5371 59.6488C24.6191 60.5863 27.2676 60.9378 30.9238 60.8675C33.2207 60.8324 33.4199 60.8089 33.8887 60.5628C34.627 60.1644 35.084 59.391 35.084 58.5355C35.084 57.7035 34.9434 57.3167 34.4629 56.8128C33.8184 56.1331 33.5723 56.0863 30.8301 56.0863C27.6895 56.0863 26.2832 55.9222 23.7637 55.266C19.5566 54.1527 15.6777 51.9027 12.4785 48.6917C8.69336 44.9066 6.37305 40.4535 5.35352 34.9925C5.06055 33.3988 5.06055 28.3831 5.35352 26.7894C6.37305 21.3285 8.69336 16.8753 12.4785 13.0902C16.2402 9.31674 20.7754 6.96127 26.1191 5.9769C27.502 5.7308 31.3691 5.62534 32.9512 5.80112C39.2676 6.49252 45.3965 9.71518 49.4395 14.4847C49.9082 15.0355 50.6582 16.0316 51.127 16.7113L51.9707 17.9417L48.3613 18.0003C44.834 18.0589 44.7402 18.0706 44.3066 18.3285C42.8418 19.2425 42.9238 21.6097 44.4473 22.4183C44.9629 22.6878 44.9863 22.6878 49.4277 22.6878C54.3027 22.6878 54.584 22.6527 56.0254 21.9847C57.5605 21.2699 58.7559 20.098 59.5176 18.5511C60.2441 17.0394 60.2793 16.7933 60.2793 11.9769C60.2793 7.80502 60.2676 7.62924 60.0332 7.12534C59.8809 6.82065 59.5879 6.49252 59.3066 6.30502C58.8965 6.03549 58.709 5.98862 57.9355 5.98862C57.1621 5.98862 56.9746 6.03549 56.5645 6.30502C56.2832 6.49252 55.9902 6.82065 55.8379 7.12534C55.6035 7.61752 55.5918 7.81674 55.5918 11.1449V14.6488L55.0176 13.8167C53.4707 11.555 50.623 8.57846 48.5254 7.00815C44.5176 3.99643 40.2168 2.14487 35.1426 1.2308C33.3379 0.902679 28.4629 0.808929 26.5293 1.06674Z" fill="white"/>
<path d="M29.1302 10.0433C28.8372 10.1957 28.4857 10.5004 28.3099 10.7699L27.9935 11.2504L27.9583 20.5082L27.9349 29.7777L23.4935 34.2308C21.056 36.68 18.9583 38.8714 18.8411 39.0941C18.431 39.9261 18.6771 41.3441 19.3333 41.9183C20.1185 42.6097 21.349 42.7386 22.2044 42.223C22.9661 41.7777 32.2122 32.4613 32.4466 31.9222C32.599 31.5355 32.6224 30.2347 32.6224 21.4925C32.6224 11.5668 32.6224 11.5082 32.3763 10.9925C32.013 10.2425 31.3802 9.86754 30.4076 9.82066C29.7865 9.79723 29.5286 9.83238 29.1302 10.0433Z" fill="white"/>
<path d="M56.3174 34.7113C55.5206 35.1097 55.2393 35.6019 54.7589 37.4418C54.3604 39.0121 54.3604 39.4926 54.7354 40.2426C55.4854 41.684 57.7589 41.848 58.7315 40.5238C59.212 39.8558 59.8682 37.2894 59.7628 36.4691C59.5753 34.8168 57.8526 33.9379 56.3174 34.7113Z" fill="white"/>
<path d="M51.8072 45.1176C51.2447 45.3285 51.0572 45.4926 50.0845 46.6527C49.065 47.8715 48.9009 48.141 48.7838 48.7386C48.6314 49.5472 48.8658 50.2972 49.4283 50.8715C50.2134 51.6566 51.2681 51.7972 52.3111 51.2816C52.7916 51.0355 54.6314 48.8207 54.8423 48.2113C55.2525 47.098 54.7486 45.7855 53.7056 45.2465C53.2252 44.9886 52.3111 44.9301 51.8072 45.1176Z" fill="white"/>
<path d="M41.916 53.3206C39.9121 54.305 39.4199 54.8558 39.4199 56.1214C39.4199 57.4691 40.416 58.4651 41.7402 58.4651C42.3379 58.4651 42.584 58.3831 43.9668 57.68C45.8301 56.7308 46.123 56.4026 46.1934 55.2073C46.2871 53.7542 45.291 52.6878 43.8379 52.6878C43.3105 52.6878 42.9941 52.7933 41.916 53.3206Z" fill="white"/>
</g>
<defs>
<clipPath id="clip0_7412_3607">
<rect width="60" height="60" fill="white" transform="translate(0.279297 0.890991)"/>
</clipPath>
</defs>
</svg>
