<svg width="25" height="25" viewBox="0 0 25 25" fill="none" xmlns="http://www.w3.org/2000/svg">
<path fill-rule="evenodd" clip-rule="evenodd" d="M12.3151 19.99H10.4179C10.4179 20.0551 10.4183 20.1185 10.4187 20.1808C10.4196 20.3174 10.4205 20.4486 10.4169 20.5794C10.4144 20.6775 10.4124 20.7757 10.4105 20.874C10.4042 21.1848 10.398 21.4957 10.3746 21.8049C10.3391 22.2718 10.1362 22.5274 9.7198 22.6195C9.42813 22.6839 9.1276 22.726 8.83019 22.7311C8.7174 22.7332 8.6044 22.7361 8.49131 22.739C7.97924 22.7521 7.46524 22.7653 6.95965 22.7035C6.08621 22.597 5.45278 21.767 5.42304 20.7959C5.41621 20.5767 5.41683 20.3574 5.41745 20.138C5.41797 19.9551 5.41848 19.7722 5.41469 19.5893C5.41312 19.5128 5.38443 19.4178 5.33747 19.3654C4.9524 18.9377 4.7917 18.4214 4.79222 17.8261C4.79412 15.6794 4.79381 13.5326 4.7935 11.3858L4.79326 8.97055V8.68676C4.70224 8.73697 4.61235 8.78632 4.52343 8.83513L4.52339 8.83515L4.52336 8.83517C4.2086 9.00797 3.90588 9.17416 3.60728 9.34874C3.56554 9.37292 3.54624 9.47999 3.54571 9.54849C3.54363 10.0225 3.54363 10.4966 3.54363 10.9706C3.54363 11.4446 3.54363 11.9187 3.54154 12.3927C3.53945 12.8676 3.23057 13.1583 2.81315 13.0915C2.51992 13.0443 2.30182 12.8141 2.29921 12.4848C2.28929 11.2927 2.29138 10.1005 2.29764 8.90838C2.29921 8.61711 2.47504 8.44442 2.69836 8.32238C2.90297 8.21016 3.10721 8.09723 3.31144 7.98431C3.74621 7.74391 4.18091 7.50355 4.61899 7.27012C4.7583 7.19586 4.79848 7.10779 4.79692 6.94258C4.79637 6.87782 4.79554 6.81306 4.79471 6.7483V6.7483C4.78837 6.25411 4.78203 5.7603 4.90336 5.27323C5.2712 3.80018 6.46188 2.76173 7.84822 2.7577C9.33717 2.75307 10.8261 2.75019 12.3151 2.75C13.804 2.75019 15.293 2.75307 16.7819 2.7577C18.1683 2.76173 19.359 3.80018 19.7268 5.27323C19.8481 5.7603 19.8418 6.25411 19.8355 6.7483C19.8346 6.81306 19.8338 6.87783 19.8333 6.94258C19.8317 7.10779 19.8719 7.19586 20.0112 7.27012C20.4492 7.50352 20.8839 7.74386 21.3186 7.98423L21.3186 7.98426L21.3188 7.98433C21.523 8.09725 21.7272 8.21017 21.9318 8.32238C22.1551 8.44442 22.331 8.61711 22.3325 8.90838C22.3388 10.1005 22.3409 11.2927 22.331 12.4848C22.3283 12.8141 22.1102 13.0443 21.817 13.0915C21.3996 13.1583 21.0907 12.8676 21.0886 12.3927C21.0865 11.9187 21.0865 11.4447 21.0865 10.9708C21.0865 10.4967 21.0865 10.0226 21.0844 9.54849C21.0839 9.47999 21.0646 9.37292 21.0229 9.34874C20.7243 9.17414 20.4215 9.00794 20.1067 8.83513C20.0178 8.78632 19.9279 8.73697 19.8369 8.68676V8.97055L19.8367 11.3846C19.8364 13.5318 19.836 15.679 19.8379 17.8261C19.8385 18.4214 19.6778 18.9377 19.2927 19.3654C19.2457 19.4178 19.217 19.5128 19.2155 19.5893C19.2117 19.7722 19.2122 19.9551 19.2127 20.138V20.138V20.138C19.2133 20.3574 19.214 20.5767 19.2071 20.7959C19.1774 21.767 18.544 22.597 17.6705 22.7035C17.1649 22.7653 16.6509 22.7521 16.1389 22.739C16.0258 22.7361 15.9128 22.7332 15.8 22.7311C15.5026 22.726 15.202 22.6839 14.9104 22.6195C14.494 22.5274 14.291 22.2718 14.2555 21.8049C14.2321 21.4957 14.2259 21.1848 14.2197 20.8739L14.2197 20.8735C14.2177 20.7755 14.2158 20.6774 14.2133 20.5794C14.2097 20.4486 14.2105 20.3174 14.2114 20.1808C14.2118 20.1185 14.2122 20.0551 14.2122 19.99H12.3151ZM14.6685 15.8445C14.3491 15.9331 14.1858 16.1524 14.1832 16.4759C14.1796 16.9595 14.502 17.2467 14.9252 17.1356L15.1853 17.0676C15.9193 16.8756 16.6533 16.6837 17.3864 16.488C17.7657 16.3867 17.9707 16.0511 17.8883 15.6862C17.7928 15.2631 17.4834 15.0697 17.0863 15.1796C16.7259 15.2793 16.3653 15.378 16.0047 15.4768C15.5592 15.5987 15.1137 15.7207 14.6685 15.8445ZM10.228 16.4759C10.2254 16.1524 10.0621 15.9331 9.74277 15.8445C9.29771 15.7208 8.85234 15.5988 8.40699 15.4769L8.40697 15.4769L8.40694 15.4769L8.40654 15.4768L8.4058 15.4766L8.40506 15.4763L8.40447 15.4762C8.04452 15.3776 7.68461 15.2791 7.3249 15.1796C6.92783 15.0697 6.61842 15.2631 6.52294 15.6862C6.4405 16.0511 6.64555 16.3867 7.02488 16.488C7.75787 16.6836 8.49169 16.8756 9.2256 17.0675L9.22582 17.0676L9.22611 17.0676L9.48606 17.1356C9.90922 17.2467 10.2317 16.9595 10.228 16.4759ZM6.08716 11.8753C6.11844 11.8881 6.14787 11.9003 6.1777 11.9111C7.79205 12.4983 9.4471 12.8483 11.1449 12.9553C11.5289 12.9796 11.9113 12.9917 12.2923 12.9915C12.6733 12.9917 13.0557 12.9796 13.4397 12.9553C15.1375 12.8483 16.7926 12.4983 18.4069 11.9111C18.4367 11.9003 18.4662 11.8881 18.4975 11.8753C18.5176 11.8669 18.5385 11.8583 18.5608 11.8495C18.5608 11.4921 18.5609 11.1354 18.5609 10.7793C18.5611 9.18184 18.5612 7.59596 18.5582 6.00969C18.5577 5.87557 18.5321 5.73799 18.5024 5.60675C18.2984 4.70645 17.605 4.09167 16.7623 4.0675C16.5196 4.06047 16.2766 4.06175 16.0335 4.06303C15.938 4.06354 15.8425 4.06404 15.7469 4.06404L12.8418 4.06365L12.2923 4.06357L11.7428 4.06365L8.83768 4.06404C8.74215 4.06404 8.64663 4.06354 8.55112 4.06303C8.30804 4.06175 8.06504 4.06047 7.82231 4.0675C6.97966 4.09167 6.28623 4.70645 6.08221 5.60675C6.05247 5.73799 6.02691 5.87557 6.02639 6.00969C6.0234 7.59625 6.02355 9.18243 6.02371 10.7802C6.02374 11.136 6.02378 11.4924 6.02378 11.8495C6.04607 11.8583 6.06699 11.867 6.08716 11.8753Z" fill="#303030"/>
</svg>
