<svg width="19" height="19" viewBox="0 0 19 19" fill="none" xmlns="http://www.w3.org/2000/svg">
<path d="M16.4642 8.38647C16.4642 8.45357 16.4642 8.51083 16.4642 8.56852C16.4642 10.3014 16.4655 12.0343 16.4638 13.7671C16.4629 14.7816 15.8468 15.594 14.9003 15.8205C14.726 15.862 14.542 15.8761 14.3623 15.8761C11.2185 15.8795 8.07519 15.8795 4.93143 15.8778C3.85676 15.8769 3.03314 15.1915 2.85125 14.1505C2.83118 14.0359 2.82905 13.9171 2.82905 13.8C2.82777 12.0458 2.82819 10.2916 2.82819 8.53775C2.82819 8.49075 2.83246 8.44374 2.83545 8.38647C7.37411 8.38647 11.9059 8.38647 16.4642 8.38647Z" fill="#303030"/>
<path d="M13.7376 4.28014C13.9694 4.28014 14.1765 4.27885 14.3836 4.28014C15.5795 4.28825 16.4548 5.16601 16.4629 6.36471C16.4642 6.57197 16.4629 6.77923 16.4629 6.99674C11.9161 6.99674 7.38088 6.99674 2.8435 6.99674C2.76408 6.15146 2.84094 5.36045 3.54501 4.76688C3.89 4.47586 4.28494 4.30578 4.73667 4.28655C5.00139 4.27501 5.26696 4.28441 5.55218 4.28441C5.55218 4.04339 5.55218 3.8216 5.55218 3.59981C5.55218 3.38144 5.5509 3.16264 5.5526 2.94427C5.55559 2.53872 5.83611 2.24044 6.21825 2.23403C6.61234 2.22719 6.90822 2.51479 6.91676 2.92846C6.92488 3.31221 6.9189 3.69596 6.9189 4.07971C6.9189 4.13783 6.9189 4.19595 6.9189 4.26689C8.73778 4.26689 10.5447 4.26689 12.3704 4.26689C12.3704 4.13997 12.3704 4.01903 12.3704 3.89766C12.3704 3.57801 12.3661 3.25794 12.3717 2.93828C12.3794 2.52291 12.6689 2.23103 13.0612 2.2336C13.4515 2.23616 13.735 2.53487 13.7371 2.95025C13.7393 3.38656 13.7376 3.82288 13.7376 4.28014Z" fill="#303030"/>
</svg>
