<svg width="19" height="19" viewBox="0 0 19 19" fill="none" xmlns="http://www.w3.org/2000/svg">
<path d="M16.7025 8.59546C16.7025 8.66255 16.7025 8.71982 16.7025 8.77751C16.7025 10.5104 16.7038 12.2432 16.7021 13.9761C16.7012 14.9906 16.0851 15.803 15.1385 16.0295C14.9643 16.0709 14.7803 16.085 14.6006 16.085C11.4568 16.0885 8.31347 16.0885 5.16971 16.0868C4.09504 16.0859 3.27142 15.4004 3.08953 14.3594C3.06946 14.2449 3.06733 14.1261 3.06733 14.009C3.06605 12.2548 3.06647 10.5005 3.06647 8.74674C3.06647 8.69973 3.07074 8.65272 3.07373 8.59546C7.61239 8.59546 12.1442 8.59546 16.7025 8.59546Z" fill="#8F9098"/>
<path d="M13.9778 4.48918C14.2096 4.48918 14.4167 4.4879 14.6238 4.48918C15.8197 4.4973 16.695 5.37506 16.7031 6.57375C16.7044 6.78101 16.7031 6.98827 16.7031 7.20579C12.1564 7.20579 7.62111 7.20579 3.08373 7.20579C3.00432 6.36051 3.08117 5.5695 3.78524 4.97592C4.13023 4.6849 4.52517 4.51482 4.97691 4.49559C5.24162 4.48405 5.5072 4.49345 5.79241 4.49345C5.79241 4.25243 5.79241 4.03064 5.79241 3.80885C5.79241 3.59048 5.79113 3.37168 5.79284 3.15331C5.79583 2.74777 6.07634 2.44948 6.45848 2.44307C6.85257 2.43623 7.14846 2.72383 7.157 3.1375C7.16511 3.52125 7.15913 3.90501 7.15913 4.28876C7.15913 4.34688 7.15913 4.40499 7.15913 4.47593C8.97801 4.47593 10.7849 4.47593 12.6106 4.47593C12.6106 4.34901 12.6106 4.22808 12.6106 4.10671C12.6106 3.78706 12.6064 3.46698 12.6119 3.14733C12.6196 2.73195 12.9091 2.44008 13.3015 2.44264C13.6917 2.44521 13.9752 2.74392 13.9774 3.15929C13.9795 3.59561 13.9778 4.03193 13.9778 4.48918Z" fill="#8F9098"/>
</svg>
