<svg width="14" height="14" viewBox="0 0 14 14" fill="none" xmlns="http://www.w3.org/2000/svg">
<path d="M6.79968 13.906C6.55124 13.8719 6.30175 13.8434 6.05436 13.8034C3.45061 13.3796 1.22474 11.2651 0.70837 8.67731C0.209402 6.17655 0.905661 4.03976 2.75504 2.28154C2.82916 2.21125 2.90814 2.14618 3.00557 2.06059C2.5581 2.00492 2.13881 1.95272 1.70457 1.89879C1.73553 1.64165 1.76511 1.39356 1.79747 1.12459C2.70146 1.23524 3.59814 1.34519 4.51187 1.45689C4.40087 2.36296 4.29057 3.25964 4.17888 4.17094C3.91861 4.13927 3.67051 4.109 3.40502 4.07699C3.46313 3.59403 3.5202 3.11907 3.579 2.63228C2.12803 3.69354 0.956462 5.88984 1.43908 8.38294C1.92969 10.9174 4.19558 13.1075 7.21618 13.1308C7.21618 13.3886 7.21618 13.6475 7.21618 13.906C7.07734 13.906 6.93851 13.906 6.79968 13.906Z" fill="#303030"/>
<path d="M13.8848 7.65329C13.8511 7.89756 13.8253 8.14321 13.7818 8.38574C13.5014 9.95154 12.754 11.2529 11.556 12.2975C11.5205 12.3284 11.486 12.3601 11.4303 12.4102C11.875 12.4662 12.2964 12.5191 12.7289 12.5737C12.6969 12.8364 12.6666 13.0842 12.6343 13.3469C11.7299 13.2359 10.8364 13.1263 9.92092 13.0139C10.0312 12.1137 10.1412 11.2174 10.2532 10.3012C10.51 10.3319 10.7574 10.3611 11.0271 10.3931C10.9693 10.8761 10.9122 11.3534 10.8531 11.8468C12.4742 10.6255 13.4488 8.37565 12.9874 6.05931C12.4669 3.44582 10.0782 1.31807 7.22461 1.33964C7.22461 1.08633 7.22461 0.833367 7.22461 0.547348C7.58405 0.582492 7.9414 0.588059 8.28726 0.655562C11.0177 1.18759 12.8044 2.78957 13.6346 5.44169C13.7616 5.84706 13.7888 6.28374 13.8622 6.70616C13.8688 6.74408 13.8775 6.78201 13.8852 6.81994C13.8848 7.09761 13.8848 7.37562 13.8848 7.65329Z" fill="#303030"/>
<path d="M10.7331 7.23582C10.7334 9.17602 9.15092 10.7568 7.21072 10.7536C5.27643 10.7505 3.70054 9.17184 3.7002 7.23721C3.7002 5.29701 5.2827 3.7166 7.22255 3.71973C9.15753 3.72286 10.7327 5.30014 10.7331 7.23582ZM6.42155 8.61894C6.68565 8.3538 6.95636 8.0817 7.23542 7.8016C7.50196 8.06883 7.77093 8.33849 8.03224 8.6005C8.21631 8.41643 8.39655 8.23654 8.59454 8.0389C8.3287 7.77585 8.05625 7.50583 7.77928 7.23164C8.05381 6.9585 8.32383 6.69023 8.57853 6.43726C8.38681 6.24589 8.20448 6.06425 8.00371 5.86418C7.74866 6.12201 7.48073 6.39272 7.19715 6.67909C6.92992 6.40838 6.6606 6.13558 6.40624 5.8774C6.2187 6.0653 6.0388 6.24519 5.83073 6.45362C6.09413 6.71319 6.36727 6.98251 6.65503 7.26644C6.38954 7.52949 6.11953 7.79707 5.85961 8.05456C6.04089 8.23689 6.22044 8.41713 6.42155 8.61894Z" fill="#303030"/>
</svg>
