<svg width="21" height="21" viewBox="0 0 21 21" fill="none" xmlns="http://www.w3.org/2000/svg">
<path d="M10.1875 0.621582C4.6575 0.621582 0.1875 5.09158 0.1875 10.6216C0.1875 16.1516 4.6575 20.6216 10.1875 20.6216C15.7175 20.6216 20.1875 16.1516 20.1875 10.6216C20.1875 5.09158 15.7175 0.621582 10.1875 0.621582ZM14.4875 14.9216C14.395 15.0143 14.2851 15.0878 14.1641 15.138C14.0432 15.1882 13.9135 15.214 13.7825 15.214C13.6515 15.214 13.5218 15.1882 13.4009 15.138C13.2799 15.0878 13.17 15.0143 13.0775 14.9216L10.1875 12.0316L7.2975 14.9216C7.11052 15.1086 6.85693 15.2136 6.5925 15.2136C6.32807 15.2136 6.07448 15.1086 5.8875 14.9216C5.70052 14.7346 5.59548 14.481 5.59548 14.2166C5.59548 14.0857 5.62127 13.956 5.67137 13.835C5.72148 13.7141 5.79492 13.6042 5.8875 13.5116L8.7775 10.6216L5.8875 7.73158C5.70052 7.5446 5.59548 7.29101 5.59548 7.02658C5.59548 6.76216 5.70052 6.50856 5.8875 6.32158C6.07448 6.1346 6.32807 6.02956 6.5925 6.02956C6.85693 6.02956 7.11052 6.1346 7.2975 6.32158L10.1875 9.21158L13.0775 6.32158C13.1701 6.229 13.28 6.15556 13.401 6.10545C13.5219 6.05535 13.6516 6.02956 13.7825 6.02956C13.9134 6.02956 14.0431 6.05535 14.164 6.10545C14.285 6.15556 14.3949 6.229 14.4875 6.32158C14.5801 6.41416 14.6535 6.52407 14.7036 6.64504C14.7537 6.766 14.7795 6.89565 14.7795 7.02658C14.7795 7.15751 14.7537 7.28716 14.7036 7.40812C14.6535 7.52909 14.5801 7.639 14.4875 7.73158L11.5975 10.6216L14.4875 13.5116C14.8675 13.8916 14.8675 14.5316 14.4875 14.9216Z" fill="url(#paint0_linear_912_2684)"/>
<defs>
<linearGradient id="paint0_linear_912_2684" x1="-4.4572" y1="8.82136" x2="26.7102" y2="8.82136" gradientUnits="userSpaceOnUse">
<stop stop-color="#FF4949"/>
<stop offset="1" stop-color="#C20000"/>
</linearGradient>
</defs>
</svg>
