<svg width="21" height="20" viewBox="0 0 21 20" fill="none" xmlns="http://www.w3.org/2000/svg">
<path d="M15.8336 15.784C12.3153 15.784 8.80783 15.784 5.26861 15.784C5.26861 15.8707 5.26861 15.9498 5.26861 16.0288C5.26861 16.6111 5.27101 17.1941 5.26801 17.7765C5.26382 18.4876 4.79576 18.9772 4.09007 19.0077C3.88896 19.0167 3.68665 19.0161 3.48554 19.0065C2.80379 18.973 2.33213 18.4882 2.32375 17.8047C2.31657 17.2223 2.32196 16.6399 2.32196 16.0569C2.32196 15.9755 2.32196 15.8935 2.32196 15.7732C2.14898 15.7732 1.98857 15.7744 1.82876 15.7732C1.04047 15.7678 0.564622 15.2896 0.564023 14.4983C0.562826 12.9822 0.56103 11.466 0.564622 9.94991C0.567016 8.9647 1.21046 8.25721 2.18848 8.13271C2.26929 8.12254 2.36745 8.0166 2.40396 7.9322C3.0061 6.53519 3.59926 5.13519 4.19422 3.73518C4.55095 2.89602 5.08306 2.54467 5.99944 2.54407C6.72308 2.54407 7.44613 2.54407 8.20868 2.54407C8.20868 2.3693 8.20688 2.20888 8.20868 2.04847C8.21766 1.26557 8.68333 0.788529 9.46204 0.78015C10.1941 0.772369 10.9261 0.772967 11.6581 0.78015C12.4374 0.787931 12.9049 1.26378 12.9145 2.04548C12.9163 2.2017 12.9145 2.35792 12.9145 2.54407C13.0114 2.54407 13.091 2.54407 13.1706 2.54407C13.8278 2.54407 14.4851 2.54347 15.1429 2.54407C16.0395 2.54467 16.5734 2.90021 16.9277 3.73219C17.5233 5.13159 18.12 6.531 18.7108 7.9322C18.7689 8.06927 18.8323 8.1369 18.9969 8.15007C19.8265 8.21591 20.5424 8.95452 20.5513 9.7895C20.5681 11.4098 20.5633 13.0306 20.5543 14.6515C20.5507 15.2501 20.0516 15.7415 19.4536 15.7678C19.2465 15.7768 19.0382 15.769 18.8006 15.769C18.8006 15.8725 18.8006 15.9515 18.8006 16.0312C18.8006 16.6064 18.803 17.1816 18.8 17.7562C18.7958 18.5038 18.32 18.9892 17.573 19.0089C17.3862 19.0137 17.1995 19.0149 17.0127 19.0053C16.3316 18.97 15.8605 18.4816 15.8545 17.8005C15.8491 17.151 15.8521 16.501 15.8509 15.851C15.8497 15.8384 15.8432 15.8235 15.8336 15.784ZM17.5179 8.11895C17.4808 8.02677 17.4545 7.95914 17.4257 7.8921C16.8912 6.66148 16.3501 5.43386 15.8258 4.19966C15.6804 3.85788 15.4559 3.71304 15.0866 3.71363C12.0549 3.72022 9.0239 3.71723 5.99226 3.71723C5.54215 3.71723 5.40688 3.80761 5.2303 4.22839C4.73351 5.40992 4.23731 6.59205 3.74112 7.77418C3.69623 7.88132 3.65253 7.98966 3.59926 8.11895C8.24759 8.11895 12.8654 8.11895 17.5179 8.11895ZM3.7884 11.6564V11.657C4.06433 11.657 4.34026 11.657 4.6156 11.657C4.63774 11.657 4.66049 11.6558 4.68263 11.6546C5.0262 11.6312 5.24886 11.4128 5.26562 11.0698C5.2746 10.8836 5.2728 10.6969 5.26682 10.5107C5.25484 10.1373 5.01662 9.90023 4.64193 9.89664C4.07511 9.89185 3.50888 9.89125 2.94205 9.89664C2.57814 9.90023 2.34231 10.1313 2.32375 10.4952C2.31418 10.6813 2.31478 10.8681 2.32316 11.0542C2.34051 11.4205 2.56736 11.6438 2.93787 11.6546C3.22158 11.6636 3.50469 11.6564 3.7884 11.6564ZM17.3078 11.657C17.5987 11.657 17.8896 11.6636 18.1799 11.6552C18.5612 11.6444 18.7838 11.4175 18.7982 11.0351C18.8048 10.8567 18.8066 10.6771 18.797 10.4988C18.7784 10.1325 18.545 9.90083 18.1817 9.89723C17.6077 9.89125 17.0337 9.89125 16.4597 9.89783C16.1101 9.90202 15.8713 10.1379 15.8551 10.4856C15.8462 10.6718 15.8479 10.8585 15.8539 11.0447C15.8653 11.4116 16.0904 11.642 16.4579 11.6546C16.741 11.6636 17.0241 11.6564 17.3078 11.657Z" fill="#303030"/>
</svg>
