<svg width="19" height="19" viewBox="0 0 19 19" fill="none" xmlns="http://www.w3.org/2000/svg">
<path d="M17.1407 7.75784C17.1407 9.41953 17.1407 11.0812 17.1407 12.7433C17.1329 12.7596 17.1208 12.7751 17.1173 12.7925C16.9607 13.5795 16.3162 14.099 15.4759 14.0994C11.5846 14.1016 7.69335 14.1019 3.80246 14.099C2.86006 14.0982 2.14505 13.4189 2.1427 12.5272C2.13879 10.981 2.14153 9.4347 2.14192 7.88808C2.14192 7.71307 2.18106 7.67496 2.36265 7.67496C7.2155 7.67459 12.0687 7.67422 16.9216 7.67829C16.9948 7.67829 17.0676 7.73009 17.1407 7.75784ZM5.89153 11.2237C5.93575 10.7034 5.70563 10.5477 5.19609 10.5462C4.64701 10.5447 4.47638 10.7168 4.47599 11.2222C4.47559 11.7158 4.65092 11.893 5.18787 11.8934C5.72599 11.8938 5.9338 11.7173 5.89153 11.2237Z" fill="#303030"/>
<path d="M17.1405 6.70554C17.0677 6.73329 16.9945 6.78509 16.9217 6.78509C12.0688 6.78879 7.2156 6.78842 2.36275 6.78842C2.18194 6.78842 2.13654 6.74957 2.1432 6.57493C2.15689 6.2212 2.13185 5.85823 2.2066 5.5156C2.35218 4.84478 3.00458 4.37303 3.72937 4.35268C3.79277 4.35083 3.85617 4.3512 3.91957 4.3512C7.72789 4.3512 11.5362 4.3512 15.3441 4.3512C16.3249 4.3512 16.8998 4.78225 17.124 5.68617C17.126 5.69431 17.1346 5.70097 17.1405 5.70837C17.1405 6.04064 17.1405 6.3729 17.1405 6.70554Z" fill="#303030"/>
</svg>
