<svg width="19" height="19" viewBox="0 0 19 19" fill="none" xmlns="http://www.w3.org/2000/svg">
<path d="M7.02165 1.90661C6.88608 1.98864 6.80474 2.12926 6.80474 2.2904C6.80474 2.46032 6.89211 2.59509 7.08491 2.71227C7.16023 2.75915 7.22651 2.80602 7.22651 2.81481C7.22651 2.8236 7.12107 2.86755 6.99152 2.91442C6.42514 3.1195 5.66897 3.54137 5.13573 3.95739C3.97888 4.85387 3.10521 6.15759 2.72562 7.56091C2.54185 8.23766 2.51172 8.48083 2.51172 9.34802C2.51172 10.0629 2.52076 10.1918 2.58101 10.5052C2.72562 11.2523 2.90336 11.7826 3.21969 12.4095C4.16867 14.2933 5.98229 15.6703 8.08813 16.1039C8.3924 16.1654 8.47676 16.1742 8.57617 16.1478C8.70873 16.1127 8.87141 15.9574 8.90154 15.8343C8.93167 15.723 8.89551 15.5297 8.82924 15.4447C8.74488 15.3334 8.61534 15.2836 8.12428 15.1693C5.68705 14.6097 3.83126 12.6088 3.47577 10.1654C3.4125 9.72887 3.4125 8.96716 3.47577 8.53063C3.78004 6.43591 5.20201 4.63122 7.18433 3.82555L7.50066 3.69372L7.40727 3.85778C7.3199 4.00134 7.31086 4.03942 7.32291 4.19469C7.33496 4.34997 7.35003 4.38219 7.44342 4.47594C7.53681 4.56676 7.57899 4.58434 7.71757 4.59606C7.94954 4.61364 8.07306 4.54919 8.20261 4.34118C8.55509 3.76403 8.8925 3.14587 8.90455 3.04919C8.94372 2.76794 8.86539 2.68884 8.07306 2.22887C7.47053 1.87731 7.41028 1.84801 7.2717 1.84801C7.17529 1.84801 7.08491 1.86852 7.02165 1.90661Z" fill="#303030"/>
<path d="M10.5566 2.55115C10.2945 2.63025 10.1619 2.94666 10.2915 3.19275C10.3698 3.34802 10.4662 3.3949 10.8398 3.47693C13.1625 3.97791 14.949 5.6449 15.5395 7.87146C15.7896 8.80603 15.7896 9.89001 15.5395 10.8246C15.422 11.2728 15.3226 11.5277 15.1027 11.9701C14.4459 13.2885 13.3162 14.3285 11.9454 14.8822L11.6502 15.0023L11.7466 14.8383C11.8309 14.6947 11.84 14.6566 11.8279 14.5013C11.8159 14.349 11.8008 14.3138 11.7074 14.223C11.5387 14.056 11.2284 14.0472 11.0687 14.2054C10.9422 14.3285 10.2644 15.5179 10.2463 15.6498C10.2071 15.9281 10.2855 16.0072 11.0778 16.4672C11.6803 16.8187 11.7406 16.848 11.8792 16.848C12.1533 16.848 12.3461 16.6664 12.3461 16.4056C12.3461 16.2357 12.2587 16.101 12.0659 15.9838C11.9906 15.934 11.9243 15.8871 11.9243 15.8783C11.9243 15.8666 11.9605 15.849 12.0087 15.8373C12.1382 15.808 12.7287 15.5472 13.0059 15.3978C15.0183 14.3138 16.3529 12.3597 16.6271 10.101C16.6813 9.65564 16.6482 8.59509 16.5668 8.17615C16.4222 7.43201 16.2204 6.84314 15.901 6.22205C14.9279 4.34998 13.1143 2.99939 11.0085 2.58044C10.6831 2.51599 10.6831 2.51599 10.5566 2.55115Z" fill="#303030"/>
<path d="M8.98246 5.11755C7.92502 5.34021 7.06943 6.18396 6.85252 7.21521C6.8254 7.34412 6.80431 7.58435 6.80431 7.77771V8.11462L6.63862 8.22009C6.36748 8.39587 6.17768 8.68591 6.1114 9.02576C6.07224 9.22498 6.07224 11.9701 6.1114 12.1986C6.17467 12.5853 6.43978 12.934 6.8013 13.1068L7.00013 13.2006H9.57595H12.1518L12.3506 13.1068C12.7121 12.934 12.9772 12.5853 13.0405 12.1986C13.0797 11.9701 13.0797 9.22498 13.0405 9.02576C12.9742 8.68591 12.7844 8.39587 12.5133 8.22009L12.3476 8.11462V7.77771C12.3476 6.98376 12.0584 6.32751 11.4649 5.78552C11.0883 5.43982 10.6484 5.21716 10.1393 5.11169C9.88324 5.05896 9.23853 5.06189 8.98246 5.11755ZM9.98265 6.01404C10.067 6.02869 10.2478 6.09607 10.3863 6.16052C10.5882 6.25427 10.6876 6.32458 10.8684 6.5033C11.2359 6.86072 11.4137 7.27087 11.4137 7.7572V8.00037H9.57595H7.73823V7.7572C7.73823 7.27087 7.91598 6.85779 8.28051 6.50623C8.75048 6.04919 9.33192 5.8822 9.98265 6.01404ZM9.79888 9.96033C9.97964 10.0775 9.99772 10.139 9.99772 10.6283C9.99772 11.0648 9.99772 11.0736 9.91939 11.1644C9.71453 11.3988 9.43737 11.3988 9.23251 11.1644C9.15418 11.0736 9.15418 11.0648 9.15418 10.6283C9.15418 10.139 9.17225 10.0775 9.35301 9.96033C9.46749 9.88708 9.6844 9.88708 9.79888 9.96033Z" fill="#303030"/>
</svg>
