<svg width="12" height="14" viewBox="0 0 12 14" fill="none" xmlns="http://www.w3.org/2000/svg">
<path d="M1.99148 12.8248C1.99148 12.7397 1.99148 12.6725 1.99148 12.6053C1.99148 9.12272 1.99103 5.63966 1.99193 2.15706C1.99237 1.32989 2.47175 0.672931 3.21854 0.481549C3.36298 0.444744 3.51592 0.430023 3.66483 0.429563C5.40481 0.425882 7.14479 0.425882 8.88522 0.427722C9.86097 0.428643 10.5595 1.14725 10.5599 2.15476C10.5617 5.63736 10.5604 9.12042 10.5604 12.603C10.5604 12.6706 10.5604 12.7383 10.5604 12.8243C10.7115 12.8243 10.8492 12.8243 10.987 12.8243C11.3859 12.8248 11.6336 13.0387 11.6309 13.38C11.6282 13.7145 11.3823 13.9261 10.9946 13.9261C8.31194 13.9261 5.6293 13.9261 2.94666 13.9261C2.46683 13.9261 1.98746 13.9271 1.50763 13.9257C1.16598 13.9252 0.924059 13.6993 0.920928 13.3814C0.917798 13.0548 1.16017 12.8271 1.513 12.8248C1.66325 12.8238 1.81395 12.8248 1.99148 12.8248ZM7.34603 12.9182C7.34603 12.2796 7.35631 11.6604 7.342 11.0411C7.33306 10.6602 6.99678 10.3524 6.61846 10.3455C6.40113 10.3414 6.18335 10.3437 5.96602 10.3451C5.52779 10.3474 5.20716 10.6763 5.20537 11.1281C5.20358 11.5757 5.20492 12.0234 5.20492 12.4705C5.20492 12.6177 5.20492 12.765 5.20492 12.9182C5.92623 12.9182 6.62651 12.9182 7.34603 12.9182ZM4.65578 3.73182C4.76177 3.73182 4.8682 3.7378 4.97328 3.73044C5.25411 3.71066 5.47144 3.46913 5.47189 3.18298C5.47234 2.89683 5.25501 2.64978 4.97507 2.6346C4.77473 2.62355 4.5735 2.62493 4.37317 2.63368C4.0901 2.6461 3.87098 2.88486 3.86651 3.17194C3.86159 3.46453 4.08339 3.7125 4.37138 3.7309C4.46573 3.73734 4.56098 3.73228 4.65578 3.73182ZM7.88756 3.73182C7.98773 3.73182 8.08879 3.7378 8.18852 3.73044C8.4689 3.70974 8.68578 3.46729 8.68578 3.1816C8.68533 2.89591 8.46756 2.64932 8.18762 2.6346C7.98728 2.62401 7.78605 2.62493 7.58571 2.63414C7.3031 2.64702 7.08442 2.8867 7.0804 3.17378C7.07638 3.46637 7.29862 3.71342 7.58661 3.73136C7.68633 3.73734 7.78695 3.73228 7.88756 3.73182ZM4.65713 6.21151C4.76311 6.21151 4.86954 6.21795 4.97462 6.21013C5.25501 6.18988 5.47234 5.94743 5.47189 5.66128C5.47189 5.37559 5.25411 5.129 4.97373 5.11382C4.77339 5.10324 4.57216 5.10416 4.37182 5.11336C4.08876 5.12624 3.87053 5.36547 3.86651 5.65254C3.86249 5.94513 4.08473 6.19218 4.37272 6.21059C4.46707 6.21657 4.56232 6.21151 4.65713 6.21151ZM7.88309 6.21151C7.98326 6.21151 8.08432 6.21703 8.18404 6.21059C8.46532 6.19172 8.68354 5.95158 8.68533 5.66588C8.68712 5.37329 8.46353 5.12578 8.17465 5.11336C7.97968 5.10508 7.78426 5.10508 7.58929 5.11336C7.29907 5.12578 7.07772 5.37191 7.07995 5.66634C7.08219 5.95158 7.30131 6.19218 7.58214 6.21059C7.68186 6.21703 7.78292 6.21151 7.88309 6.21151ZM4.65713 8.69073C4.76311 8.69073 4.86954 8.69717 4.97462 8.68935C5.25501 8.66911 5.47234 8.42666 5.47189 8.14051C5.47189 7.85481 5.25411 7.60823 4.97373 7.59304C4.77339 7.58246 4.57216 7.58338 4.37182 7.59258C4.08876 7.60546 3.87053 7.84469 3.86651 8.13177C3.86249 8.42436 4.08473 8.67187 4.37272 8.68981C4.46707 8.69625 4.56232 8.69119 4.65713 8.69073ZM7.88533 8.69165C7.98013 8.69165 8.07493 8.69579 8.16973 8.69073C8.4604 8.67601 8.68489 8.43586 8.68578 8.14281C8.68667 7.85021 8.46219 7.60408 8.17286 7.59258C7.97789 7.58476 7.78247 7.5843 7.5875 7.59304C7.30444 7.60547 7.08532 7.84377 7.0804 8.13085C7.07548 8.42344 7.29728 8.67187 7.58482 8.69027C7.68409 8.69625 7.78471 8.69119 7.88533 8.69165Z" fill="#8F9098"/>
</svg>
