<svg width="24" height="24" viewBox="0 0 24 24" fill="none" xmlns="http://www.w3.org/2000/svg">
<path fill-rule="evenodd" clip-rule="evenodd" d="M12.0535 23.8068C18.5984 23.8068 23.904 18.5012 23.904 11.9564C23.904 5.41157 18.5984 0.105957 12.0535 0.105957C5.50874 0.105957 0.203125 5.41157 0.203125 11.9564C0.203125 18.5012 5.50874 23.8068 12.0535 23.8068ZM19.3694 8.10152C19.6396 7.83133 19.6396 7.39328 19.3694 7.12309C19.0992 6.8529 18.6611 6.8529 18.3909 7.12309L10.176 15.338L5.69975 11.1415C5.42099 10.8802 4.98316 10.8943 4.72183 11.1731C4.46049 11.4519 4.47462 11.8897 4.75337 12.151L9.71833 16.8057L10.207 17.2638L10.6807 16.7902L19.3694 8.10152Z" fill="white"/>
</svg>
