<svg width="24" height="25" viewBox="0 0 24 25" fill="none" xmlns="http://www.w3.org/2000/svg">
<path d="M14 8.00586H4C2.897 8.00586 2 8.90286 2 10.0059V20.0059C2 21.1089 2.897 22.0059 4 22.0059H14C15.103 22.0059 16 21.1089 16 20.0059V10.0059C16 8.90286 15.103 8.00586 14 8.00586Z" fill="#003556"/>
<path d="M20 2.00586H10C9.46957 2.00586 8.96086 2.21657 8.58579 2.59165C8.21071 2.96672 8 3.47543 8 4.00586V6.00586H16C16.5304 6.00586 17.0391 6.21657 17.4142 6.59165C17.7893 6.96672 18 7.47543 18 8.00586V16.0059H20C20.5304 16.0059 21.0391 15.7951 21.4142 15.4201C21.7893 15.045 22 14.5363 22 14.0059V4.00586C22 3.47543 21.7893 2.96672 21.4142 2.59165C21.0391 2.21657 20.5304 2.00586 20 2.00586Z" fill="#003556"/>
</svg>
