<svg width="55" height="51" viewBox="0 0 55 51" fill="none" xmlns="http://www.w3.org/2000/svg">
<path d="M21.6891 17.6893L21.9367 18.8911H20.7096H5.21349C4.18446 18.8911 3.19357 19.3077 2.45989 20.0558C1.72557 20.8045 1.30964 21.8241 1.30964 22.8911V27.8911C1.30964 28.4047 1.40458 28.8792 1.5812 29.3439L8.97966 46.9538L8.97971 46.9538L8.98341 46.9628C9.57208 48.4033 10.9579 49.3911 12.5693 49.3911H34.6366C35.6656 49.3911 36.6565 48.9745 37.3902 48.2264C38.1245 47.4777 38.5404 46.4582 38.5404 45.3911V20.3911C38.5404 19.2844 38.1082 18.284 37.3798 17.5413L21.9567 1.81582L20.075 3.71632C20.0745 3.71686 20.074 3.7174 20.0734 3.71794C19.5897 4.21203 19.2822 4.91226 19.2822 5.66611C19.2822 5.88294 19.3017 6.09134 19.3363 6.26956C19.3366 6.27092 19.3368 6.27227 19.3371 6.27363L21.6891 17.6893ZM45.4443 21.3911V49.3911H53.252V21.3911H45.4443Z" fill="white" stroke="#1A2B30" stroke-width="2"/>
</svg>
