<svg width="28" height="28" viewBox="0 0 28 28" fill="none" xmlns="http://www.w3.org/2000/svg">
<g filter="url(#filter0_d_926_7164)">
<rect x="4.10156" y="0.333984" width="19.0552" height="19.0552" rx="9.52759" fill="white"/>
</g>
<path d="M16.3197 8.7518L14.7208 7.17172L15.2475 6.64503C15.3917 6.50082 15.5689 6.42871 15.7791 6.42871C15.989 6.42871 16.1661 6.50082 16.3103 6.64503L16.837 7.17172C16.9812 7.31594 17.0564 7.48999 17.0627 7.6939C17.069 7.89755 17 8.07149 16.8558 8.2157L16.3197 8.7518ZM10.5637 13.2945C10.4571 13.2945 10.3678 13.2584 10.2958 13.1862C10.2236 13.1142 10.1875 13.0249 10.1875 12.9183V11.8555C10.1875 11.8054 10.1969 11.7568 10.2157 11.7099C10.2345 11.6628 10.2627 11.6204 10.3004 11.5828L14.1753 7.70782L15.7742 9.3067L11.8992 13.1817C11.8616 13.2193 11.8194 13.2475 11.7725 13.2663C11.7253 13.2851 11.6767 13.2945 11.6265 13.2945H10.5637Z" fill="#003556"/>
<defs>
<filter id="filter0_d_926_7164" x="0.101562" y="0.333984" width="27.0547" height="27.0552" filterUnits="userSpaceOnUse" color-interpolation-filters="sRGB">
<feFlood flood-opacity="0" result="BackgroundImageFix"/>
<feColorMatrix in="SourceAlpha" type="matrix" values="0 0 0 0 0 0 0 0 0 0 0 0 0 0 0 0 0 0 127 0" result="hardAlpha"/>
<feOffset dy="4"/>
<feGaussianBlur stdDeviation="2"/>
<feComposite in2="hardAlpha" operator="out"/>
<feColorMatrix type="matrix" values="0 0 0 0 0 0 0 0 0 0 0 0 0 0 0 0 0 0 0.25 0"/>
<feBlend mode="normal" in2="BackgroundImageFix" result="effect1_dropShadow_926_7164"/>
<feBlend mode="normal" in="SourceGraphic" in2="effect1_dropShadow_926_7164" result="shape"/>
</filter>
</defs>
</svg>
