<svg width="16" height="13" viewBox="0 0 16 13" fill="none" xmlns="http://www.w3.org/2000/svg">
<path d="M15.3359 4.03127C15.3359 6.32632 15.3359 8.62098 15.3359 10.916C15.3305 10.9239 15.3218 10.9309 15.3195 10.9395C15.1207 11.734 14.6377 12.1117 13.8186 12.1117C9.82962 12.1117 5.84107 12.1117 1.85213 12.1117C1.8032 12.1117 1.75428 12.1125 1.70575 12.1105C0.919078 12.0827 0.338271 11.491 0.337488 10.7043C0.334749 8.51687 0.336314 6.32984 0.337097 4.14242C0.337097 4.1072 0.344142 4.07236 0.348838 4.03049C0.375061 4.04497 0.388368 4.05084 0.4005 4.05906C2.42628 5.40971 4.45167 6.76036 6.47745 8.11101C7.38623 8.71687 8.28602 8.71804 9.19558 8.11179C11.0065 6.90556 12.8162 5.69816 14.6271 4.49192C14.8616 4.33615 15.0995 4.18469 15.3359 4.03127Z" fill="#8F9098"/>
<path d="M15.3352 2.44933C15.2792 2.59883 15.2495 2.76595 15.1614 2.89315C15.0416 3.06614 14.9003 3.24265 14.7285 3.3585C12.6922 4.72794 10.6508 6.08955 8.60501 7.44529C8.10052 7.77952 7.56824 7.77835 7.06376 7.44411C5.01449 6.08524 2.96993 4.71933 0.925358 3.35302C0.434568 3.02505 0.231442 2.45676 0.387603 1.89004C0.546894 1.3108 1.04316 0.91551 1.66115 0.875589C1.7046 0.872849 1.74882 0.872458 1.79266 0.872458C5.82073 0.872458 9.84842 0.872067 13.8765 0.872458C14.5438 0.872458 15.0651 1.2294 15.2624 1.81803C15.2898 1.90022 15.3113 1.98476 15.3352 2.06812C15.3352 2.19532 15.3352 2.32213 15.3352 2.44933Z" fill="#8F9098"/>
</svg>
