<svg width="16" height="16" viewBox="0 0 16 16" fill="none" xmlns="http://www.w3.org/2000/svg">
<path d="M15.1405 8.23393C15.1318 12.3764 11.7559 15.7408 7.62139 15.7261C3.47462 15.7119 0.128774 12.3455 0.140657 8.19986C0.15254 4.06137 3.52374 0.709227 7.65585 0.726261C11.8022 0.743691 15.1493 4.10059 15.1405 8.23393ZM8.36487 9.73689C8.33239 9.11574 8.62194 8.67087 9.06913 8.29414C9.31392 8.08775 9.5393 7.85641 9.75518 7.61951C10.0669 7.27764 10.2503 6.87279 10.2721 6.40415C10.3192 5.38409 9.88272 4.56527 8.83741 4.22973C8.11453 3.9976 7.377 3.99284 6.6454 4.18616C6.01402 4.35293 5.52404 4.71461 5.23568 5.31556C5.06932 5.66218 4.99763 6.0298 5.00872 6.41643C5.64406 6.41643 6.26396 6.41643 6.85137 6.41643C6.92505 6.20965 6.96545 6.00643 7.06447 5.83767C7.23796 5.54175 7.52593 5.47362 7.85033 5.53423C8.13196 5.58691 8.28842 5.76874 8.34942 6.03693C8.43577 6.41525 8.37873 6.76939 8.11097 7.06175C7.9149 7.27606 7.70536 7.48007 7.48751 7.67299C6.86088 8.2268 6.75195 8.9553 6.75789 9.73768C7.29579 9.73689 7.81746 9.73689 8.36487 9.73689ZM7.56237 12.3843C7.61149 12.3843 7.6614 12.3875 7.71012 12.3839C8.3205 12.3364 8.7166 11.8198 8.5954 11.2303C8.51063 10.8176 8.11968 10.5256 7.61703 10.4995C6.99278 10.467 6.50597 10.9019 6.52301 11.4767C6.53964 12.0044 6.97377 12.3859 7.56237 12.3843Z" fill="#303030"/>
</svg>
