<svg width="19" height="19" viewBox="0 0 19 19" fill="none" xmlns="http://www.w3.org/2000/svg">
<g clip-path="url(#clip0_582_876)">
<path d="M18.9242 9.60852C18.9242 4.63799 14.8947 0.608521 9.92419 0.608521C4.95366 0.608521 0.924194 4.63792 0.924194 9.60852C0.924194 14.1006 4.21538 17.824 8.51794 18.4992V12.2101H6.23279V9.60852H8.51794V7.62571C8.51794 5.37008 9.86162 4.12415 11.9173 4.12415C12.9021 4.12415 13.932 4.29993 13.932 4.29993V6.51477H12.7972C11.6791 6.51477 11.3304 7.20854 11.3304 7.92032V9.60852H13.8265L13.4275 12.2101H11.3304V18.4992C15.633 17.824 18.9242 14.1007 18.9242 9.60852Z" fill="#1877F2"/>
<path d="M13.4275 12.2101L13.8265 9.60852H11.3304V7.92032C11.3304 7.20847 11.6791 6.51477 12.7972 6.51477H13.932V4.29993C13.932 4.29993 12.9021 4.12415 11.9173 4.12415C9.86162 4.12415 8.51794 5.37008 8.51794 7.62571V9.60852H6.23279V12.2101H8.51794V18.4992C8.98314 18.5721 9.45332 18.6086 9.92419 18.6085C10.3951 18.6087 10.8652 18.5721 11.3304 18.4992V12.2101H13.4275Z" fill="white"/>
</g>
<defs>
<clipPath id="clip0_582_876">
<rect width="18" height="18" fill="white" transform="translate(0.924194 0.608521)"/>
</clipPath>
</defs>
</svg>
