<svg width="12" height="16" viewBox="0 0 12 16" fill="none" xmlns="http://www.w3.org/2000/svg">
<path d="M5.64408 15.8071C5.53857 15.7601 5.42449 15.726 5.32871 15.6638C5.07875 15.5014 4.95338 15.2607 4.94715 14.9624C4.94208 14.7049 4.94598 14.4469 4.94598 14.1698C4.69602 14.1698 4.45929 14.1784 4.22335 14.1678C3.86982 14.1518 3.61519 13.9721 3.48281 13.6445C3.35316 13.3232 3.40766 13.0202 3.63738 12.7588C3.80791 12.565 4.02984 12.4797 4.28603 12.4805C4.4994 12.4809 4.71237 12.4805 4.93547 12.4805C4.93547 12.1309 4.93547 11.7912 4.93547 11.4452C3.31266 11.1368 2.0504 10.2894 1.20123 8.85758C0.55647 7.77024 0.34116 6.58701 0.531552 5.33724C0.929076 2.73358 3.17639 0.792188 5.81812 0.807061C8.3956 0.821543 10.6293 2.7238 11.0338 5.248C11.2678 6.70874 10.9723 8.05558 10.1169 9.26034C9.26151 10.4643 8.0884 11.179 6.63925 11.4432C6.63925 11.7857 6.63925 12.1212 6.63925 12.4801C6.86507 12.4801 7.08583 12.4766 7.30698 12.4809C7.71775 12.4887 8.03156 12.7314 8.13396 13.1138C8.27062 13.6253 7.89723 14.1459 7.37123 14.1674C7.13411 14.1772 6.89622 14.169 6.63419 14.169C6.63419 14.2645 6.63419 14.3498 6.63419 14.4352C6.63419 14.6109 6.63692 14.7867 6.63341 14.9624C6.62524 15.3511 6.38695 15.6626 6.01629 15.7761C5.98904 15.7844 5.96295 15.7969 5.93648 15.8071C5.83836 15.8071 5.74142 15.8071 5.64408 15.8071Z" fill="#003556"/>
</svg>
