<svg width="33" height="33" viewBox="0 0 33 33" fill="none" xmlns="http://www.w3.org/2000/svg">
<rect x="0.0449219" y="0.0551758" width="32.45" height="32.4453" rx="16.2226" fill="#003556"/>
<path d="M17.7704 16.2778V22.1878C17.8004 22.4128 17.7254 22.6528 17.5529 22.8103C17.4835 22.8799 17.4011 22.935 17.3103 22.9727C17.2196 23.0103 17.1223 23.0297 17.0241 23.0297C16.9259 23.0297 16.8286 23.0103 16.7379 22.9727C16.6472 22.935 16.5647 22.8799 16.4954 22.8103L14.9879 21.3028C14.9061 21.2229 14.8439 21.1251 14.8061 21.0171C14.7684 20.9091 14.7562 20.7938 14.7704 20.6803V16.2778H14.7479L10.4279 10.7428C10.3061 10.5865 10.2511 10.3883 10.275 10.1915C10.2989 9.99478 10.3997 9.81549 10.5554 9.69283C10.6979 9.58783 10.8554 9.52783 11.0204 9.52783H21.5204C21.6854 9.52783 21.8429 9.58783 21.9854 9.69283C22.141 9.81549 22.2418 9.99478 22.2657 10.1915C22.2896 10.3883 22.2347 10.5865 22.1129 10.7428L17.7929 16.2778H17.7704Z" fill="white"/>
</svg>
