<svg width="19" height="19" viewBox="0 0 19 19" fill="none" xmlns="http://www.w3.org/2000/svg">
<path d="M10.8608 9.90576V15.8158C10.8908 16.0408 10.8158 16.2808 10.6433 16.4383C10.574 16.5078 10.4915 16.5629 10.4008 16.6006C10.3101 16.6382 10.2128 16.6576 10.1146 16.6576C10.0164 16.6576 9.91911 16.6382 9.82838 16.6006C9.73765 16.5629 9.65523 16.5078 9.58585 16.4383L8.07835 14.9308C7.99655 14.8508 7.93435 14.753 7.89662 14.645C7.85889 14.537 7.84665 14.4218 7.86085 14.3083V9.90576H7.83835L3.51835 4.37076C3.39655 4.21441 3.3416 4.01621 3.36549 3.81946C3.38938 3.62271 3.49017 3.44342 3.64585 3.32076C3.78835 3.21576 3.94585 3.15576 4.11085 3.15576H14.6108C14.7758 3.15576 14.9333 3.21576 15.0758 3.32076C15.2315 3.44342 15.3323 3.62271 15.3562 3.81946C15.3801 4.01621 15.3251 4.21441 15.2033 4.37076L10.8833 9.90576H10.8608Z" fill="black"/>
</svg>
