<svg width="10" height="14" viewBox="0 0 10 14" fill="none" xmlns="http://www.w3.org/2000/svg">
<path d="M0.740726 13.9248C0.509402 13.837 0.433269 13.6619 0.433595 13.4195C0.436848 9.25387 0.435872 5.08821 0.435872 0.922552C0.435872 0.650764 0.52144 0.505788 0.716 0.444363C0.945372 0.37171 1.18288 0.528905 1.21053 0.770971C1.21118 0.775264 1.21249 0.779888 1.21151 0.784181C1.13993 1.09031 1.35954 1.15504 1.56875 1.22836C2.09126 1.41164 2.62679 1.43839 3.17012 1.35979C3.95682 1.24553 4.70415 0.97473 5.4658 0.760073C6.15522 0.565892 6.8492 0.400111 7.57213 0.427851C8.20656 0.452289 8.79772 0.627977 9.34659 0.952934C9.51187 1.05069 9.56718 1.19995 9.56685 1.38423C9.56555 1.99055 9.56621 2.59687 9.56621 3.20353C9.56621 4.31974 9.5662 5.43563 9.56588 6.55184C9.56588 6.60864 9.56588 6.66644 9.55774 6.72258C9.51577 7.01517 9.25322 7.15519 8.9874 7.03102C8.76812 6.92832 8.55339 6.80976 8.32531 6.73314C7.68925 6.52014 7.04083 6.55845 6.40314 6.71564C5.74007 6.87911 5.08644 7.08089 4.42826 7.2645C3.91062 7.40915 3.38843 7.53299 2.84998 7.56238C2.33527 7.59045 1.83065 7.5353 1.34198 7.3606C1.30684 7.34805 1.26942 7.34112 1.21541 7.32692C1.21541 7.39627 1.21541 7.45175 1.21541 7.50723C1.21541 9.4758 1.21281 11.4444 1.21867 13.4129C1.21932 13.6563 1.14742 13.829 0.922598 13.9248C0.862082 13.9248 0.801567 13.9248 0.740726 13.9248Z" fill="#8F9098"/>
</svg>
