<svg width="10" height="14" viewBox="0 0 10 14" fill="none" xmlns="http://www.w3.org/2000/svg">
<path d="M2.69567 13.5973C2.68003 13.59 2.66544 13.5803 2.6491 13.5761C2.16982 13.4555 1.88934 13.1013 1.88934 12.6074C1.88829 10.7339 1.88899 8.86034 1.88899 6.98681C1.88899 6.93502 1.88899 6.88323 1.88899 6.83074C1.71278 6.76157 1.53413 6.70735 1.37113 6.62323C1.19909 6.53459 1.03052 6.43171 0.880374 6.31005C0.596418 6.07959 0.455309 5.77927 0.457047 5.40283C0.463303 3.8981 0.45948 2.39302 0.460523 0.888287C0.460523 0.806602 0.467474 0.72318 0.483462 0.643234C0.525169 0.43294 0.714936 0.278956 0.928337 0.273742C1.14278 0.268528 1.34124 0.412084 1.39233 0.61925C1.41075 0.693982 1.41422 0.773581 1.41457 0.851094C1.41596 2.07393 1.41457 3.29711 1.41596 4.51994C1.41631 4.87831 1.70548 5.10738 2.02732 5.0097C2.22126 4.95096 2.35472 4.78307 2.36028 4.57625C2.36584 4.37256 2.36271 4.16853 2.36271 3.96484C2.36271 2.93283 2.36202 1.90048 2.36376 0.868474C2.36376 0.782271 2.36932 0.693635 2.39052 0.610907C2.44196 0.410694 2.63972 0.270614 2.84825 0.273394C3.05748 0.276523 3.24586 0.421469 3.29348 0.625854C3.3119 0.705105 3.31711 0.788875 3.31711 0.87056C3.3185 2.08922 3.3178 3.30788 3.3185 4.52655C3.31885 4.78029 3.45301 4.95826 3.68135 5.01596C3.95245 5.08478 4.22737 4.89812 4.26004 4.62074C4.26699 4.56061 4.26664 4.49943 4.26664 4.43895C4.26699 3.25922 4.26664 2.07984 4.26734 0.900105C4.26734 0.826763 4.27046 0.752378 4.2802 0.679731C4.30939 0.459357 4.48908 0.290774 4.70665 0.27409C4.93187 0.25671 5.13693 0.399223 5.19497 0.619945C5.21235 0.685988 5.2186 0.756897 5.21895 0.825373C5.22034 2.37355 5.21895 3.92173 5.22069 5.47026C5.22104 5.82863 5.05143 6.09871 4.79145 6.32326C4.54121 6.53911 4.24718 6.67467 3.93542 6.77548C3.89058 6.78973 3.84575 6.80363 3.79083 6.82101C3.79083 6.87419 3.79083 6.92564 3.79083 6.97708C3.79083 8.80299 3.77971 10.6289 3.79744 12.4545C3.803 13.0266 3.56527 13.459 2.98172 13.5973C2.88648 13.5973 2.79125 13.5973 2.69567 13.5973Z" fill="#303030"/>
<path d="M8.88976 13.5971C8.82372 13.5766 8.75664 13.5596 8.69235 13.5353C8.30656 13.3896 8.07856 13.0452 8.07856 12.6006C8.07751 11.0872 8.07821 9.5741 8.07821 8.06068C8.07821 8.00958 8.07821 7.95849 8.07821 7.8921C7.60796 7.8921 7.15057 7.8921 6.68485 7.8921C6.6765 7.77948 6.66608 7.68146 6.66225 7.58309C6.60491 6.10477 6.7335 4.64766 7.17282 3.22809C7.40985 2.46199 7.72613 1.73274 8.24365 1.10812C8.55332 0.734454 8.91652 0.427529 9.40345 0.31769C9.58522 0.276674 9.77742 0.28154 9.98109 0.26416C9.98109 0.349321 9.98109 0.395898 9.98109 0.442128C9.98109 4.47908 9.98109 8.51603 9.98109 12.553C9.98109 13.1074 9.73468 13.4303 9.197 13.5825C9.18936 13.5846 9.1831 13.5923 9.17615 13.5975C9.08057 13.5971 8.98499 13.5971 8.88976 13.5971Z" fill="#303030"/>
</svg>
