<svg width="315" height="47" viewBox="0 0 315 47" fill="none" xmlns="http://www.w3.org/2000/svg">
<rect x="0.851562" y="0.379333" width="314" height="46" rx="12" fill="#EDEDED"/>
<path d="M80.9445 23.579C80.9445 22.8334 80.8826 22.2893 80.7486 21.7251H72.0352V25.0903H77.1498C77.0467 25.9266 76.4898 27.1861 75.2524 28.0324L75.2351 28.145L77.9901 30.2304L78.181 30.2491C79.9339 28.6672 80.9445 26.3397 80.9445 23.579Z" fill="#4285F4"/>
<path d="M72.0348 32.4455C74.5406 32.4455 76.6441 31.6394 78.1806 30.249L75.2521 28.0324C74.4684 28.5664 73.4166 28.9392 72.0348 28.9392C69.5806 28.9392 67.4977 27.3573 66.7552 25.1709L66.6463 25.18L63.7816 27.3462L63.7441 27.448C65.2703 30.4102 68.4051 32.4455 72.0348 32.4455Z" fill="#34A853"/>
<path d="M66.7548 25.1709C66.5589 24.6067 66.4455 24.0021 66.4455 23.3775C66.4455 22.7527 66.5589 22.1482 66.7445 21.584L66.7393 21.4638L63.8387 19.2628L63.7438 19.3069C63.1148 20.5361 62.7539 21.9165 62.7539 23.3775C62.7539 24.8384 63.1148 26.2187 63.7438 27.448L66.7548 25.1709Z" fill="#FBBC05"/>
<path d="M72.0348 17.8157C73.7775 17.8157 74.953 18.5512 75.6233 19.1659L78.2425 16.6671C76.6339 15.2061 74.5406 14.3094 72.0348 14.3094C68.4051 14.3094 65.2703 16.3447 63.7441 19.3069L66.7449 21.584C67.4977 19.3976 69.5806 17.8157 72.0348 17.8157Z" fill="#EB4335"/>
<path d="M99.2725 29.4913C98.4938 29.4913 97.7898 29.358 97.1605 29.0913C96.5418 28.8247 96.0512 28.4407 95.6885 27.9393C95.3258 27.438 95.1392 26.846 95.1285 26.1633H97.5285C97.5605 26.622 97.7205 26.9847 98.0085 27.2513C98.3072 27.518 98.7125 27.6513 99.2245 27.6513C99.7472 27.6513 100.158 27.5287 100.457 27.2833C100.755 27.0273 100.905 26.6967 100.905 26.2913C100.905 25.9607 100.803 25.6887 100.601 25.4753C100.398 25.262 100.142 25.0967 99.8325 24.9793C99.5338 24.8513 99.1178 24.7127 98.5845 24.5633C97.8592 24.35 97.2672 24.142 96.8085 23.9393C96.3605 23.726 95.9712 23.4113 95.6405 22.9953C95.3205 22.5687 95.1605 22.0033 95.1605 21.2993C95.1605 20.638 95.3258 20.062 95.6565 19.5713C95.9872 19.0807 96.4512 18.7073 97.0485 18.4513C97.6458 18.1847 98.3285 18.0513 99.0965 18.0513C100.249 18.0513 101.182 18.334 101.897 18.8993C102.622 19.454 103.022 20.2327 103.097 21.2353H100.633C100.611 20.8513 100.446 20.5367 100.137 20.2913C99.8378 20.0353 99.4378 19.9073 98.9365 19.9073C98.4992 19.9073 98.1472 20.0193 97.8805 20.2433C97.6245 20.4673 97.4965 20.7927 97.4965 21.2193C97.4965 21.518 97.5925 21.7687 97.7845 21.9713C97.9872 22.1633 98.2325 22.3233 98.5205 22.4513C98.8192 22.5687 99.2352 22.7073 99.7685 22.8673C100.494 23.0807 101.086 23.294 101.545 23.5073C102.003 23.7207 102.398 24.0407 102.729 24.4673C103.059 24.894 103.225 25.454 103.225 26.1473C103.225 26.7447 103.07 27.2993 102.76 27.8113C102.451 28.3233 101.998 28.734 101.401 29.0433C100.803 29.342 100.094 29.4913 99.2725 29.4913ZM106.303 19.4593C105.908 19.4593 105.577 19.3367 105.311 19.0913C105.055 18.8353 104.927 18.5207 104.927 18.1473C104.927 17.774 105.055 17.4647 105.311 17.2193C105.577 16.9633 105.908 16.8353 106.303 16.8353C106.697 16.8353 107.023 16.9633 107.279 17.2193C107.545 17.4647 107.679 17.774 107.679 18.1473C107.679 18.5207 107.545 18.8353 107.279 19.0913C107.023 19.3367 106.697 19.4593 106.303 19.4593ZM107.407 20.5153V29.3793H105.167V20.5153H107.407ZM113.092 20.3713C113.753 20.3713 114.334 20.5047 114.836 20.7713C115.337 21.0273 115.732 21.3633 116.02 21.7793V20.5153H118.276V29.4433C118.276 30.2647 118.11 30.9953 117.78 31.6353C117.449 32.286 116.953 32.798 116.292 33.1713C115.63 33.5553 114.83 33.7473 113.892 33.7473C112.633 33.7473 111.598 33.454 110.788 32.8673C109.988 32.2807 109.534 31.4807 109.428 30.4673H111.652C111.769 30.8727 112.02 31.1927 112.404 31.4273C112.798 31.6727 113.273 31.7953 113.828 31.7953C114.478 31.7953 115.006 31.598 115.412 31.2033C115.817 30.8193 116.02 30.2327 116.02 29.4433V28.0673C115.732 28.4833 115.332 28.83 114.82 29.1073C114.318 29.3847 113.742 29.5233 113.092 29.5233C112.345 29.5233 111.662 29.3313 111.044 28.9473C110.425 28.5633 109.934 28.0247 109.572 27.3313C109.22 26.6273 109.044 25.822 109.044 24.9153C109.044 24.0193 109.22 23.2247 109.572 22.5313C109.934 21.838 110.42 21.3047 111.028 20.9313C111.646 20.558 112.334 20.3713 113.092 20.3713ZM116.02 24.9473C116.02 24.4033 115.913 23.9393 115.7 23.5553C115.486 23.1607 115.198 22.862 114.836 22.6593C114.473 22.446 114.084 22.3393 113.668 22.3393C113.252 22.3393 112.868 22.4407 112.516 22.6433C112.164 22.846 111.876 23.1447 111.652 23.5393C111.438 23.9233 111.332 24.382 111.332 24.9153C111.332 25.4487 111.438 25.918 111.652 26.3233C111.876 26.718 112.164 27.022 112.516 27.2353C112.878 27.4487 113.262 27.5553 113.668 27.5553C114.084 27.5553 114.473 27.454 114.836 27.2513C115.198 27.038 115.486 26.7393 115.7 26.3553C115.913 25.9607 116.02 25.4913 116.02 24.9473ZM125.375 20.3873C126.431 20.3873 127.285 20.7233 127.935 21.3953C128.586 22.0567 128.911 22.9847 128.911 24.1793V29.3793H126.671V24.4833C126.671 23.7793 126.495 23.2407 126.143 22.8673C125.791 22.4833 125.311 22.2913 124.703 22.2913C124.085 22.2913 123.594 22.4833 123.231 22.8673C122.879 23.2407 122.703 23.7793 122.703 24.4833V29.3793H120.463V20.5153H122.703V21.6193C123.002 21.2353 123.381 20.9367 123.839 20.7233C124.309 20.4993 124.821 20.3873 125.375 20.3873ZM143.222 20.5153V29.3793H140.966V28.2593C140.678 28.6433 140.299 28.9473 139.83 29.1713C139.371 29.3847 138.87 29.4913 138.326 29.4913C137.633 29.4913 137.019 29.3473 136.486 29.0593C135.953 28.7607 135.531 28.3287 135.222 27.7633C134.923 27.1873 134.774 26.5047 134.774 25.7153V20.5153H137.014V25.3953C137.014 26.0993 137.19 26.6433 137.542 27.0273C137.894 27.4007 138.374 27.5873 138.982 27.5873C139.601 27.5873 140.086 27.4007 140.438 27.0273C140.79 26.6433 140.966 26.0993 140.966 25.3953V20.5153H143.222ZM147.672 21.7953C147.96 21.39 148.355 21.054 148.856 20.7873C149.368 20.51 149.949 20.3713 150.6 20.3713C151.357 20.3713 152.04 20.558 152.648 20.9313C153.267 21.3047 153.752 21.838 154.104 22.5313C154.467 23.214 154.648 24.0087 154.648 24.9153C154.648 25.822 154.467 26.6273 154.104 27.3313C153.752 28.0247 153.267 28.5633 152.648 28.9473C152.04 29.3313 151.357 29.5233 150.6 29.5233C149.949 29.5233 149.373 29.39 148.872 29.1233C148.381 28.8567 147.981 28.5207 147.672 28.1153V33.6033H145.432V20.5153H147.672V21.7953ZM152.36 24.9153C152.36 24.382 152.248 23.9233 152.024 23.5393C151.811 23.1447 151.523 22.846 151.16 22.6433C150.808 22.4407 150.424 22.3393 150.008 22.3393C149.603 22.3393 149.219 22.446 148.856 22.6593C148.504 22.862 148.216 23.1607 147.992 23.5553C147.779 23.95 147.672 24.414 147.672 24.9473C147.672 25.4807 147.779 25.9447 147.992 26.3393C148.216 26.734 148.504 27.038 148.856 27.2513C149.219 27.454 149.603 27.5553 150.008 27.5553C150.424 27.5553 150.808 27.4487 151.16 27.2353C151.523 27.022 151.811 26.718 152.024 26.3233C152.248 25.9287 152.36 25.4593 152.36 24.9153ZM172.376 20.5153L169.784 29.3793H167.368L165.752 23.1873L164.136 29.3793H161.704L159.096 20.5153H161.368L162.936 27.2673L164.632 20.5153H167L168.664 27.2513L170.232 20.5153H172.376ZM174.724 19.4593C174.33 19.4593 173.999 19.3367 173.732 19.0913C173.476 18.8353 173.348 18.5207 173.348 18.1473C173.348 17.774 173.476 17.4647 173.732 17.2193C173.999 16.9633 174.33 16.8353 174.724 16.8353C175.119 16.8353 175.444 16.9633 175.7 17.2193C175.967 17.4647 176.1 17.774 176.1 18.1473C176.1 18.5207 175.967 18.8353 175.7 19.0913C175.444 19.3367 175.119 19.4593 174.724 19.4593ZM175.828 20.5153V29.3793H173.588V20.5153H175.828ZM180.65 22.3553V26.6433C180.65 26.942 180.719 27.1607 180.858 27.2993C181.007 27.4273 181.252 27.4913 181.594 27.4913H182.634V29.3793H181.226C179.338 29.3793 178.394 28.462 178.394 26.6273V22.3553H177.338V20.5153H178.394V18.3233H180.65V20.5153H182.634V22.3553H180.65ZM189.237 20.3873C189.909 20.3873 190.506 20.5367 191.029 20.8353C191.551 21.1233 191.957 21.5553 192.245 22.1313C192.543 22.6967 192.693 23.3793 192.693 24.1793V29.3793H190.453V24.4833C190.453 23.7793 190.277 23.2407 189.925 22.8673C189.573 22.4833 189.093 22.2913 188.485 22.2913C187.866 22.2913 187.375 22.4833 187.013 22.8673C186.661 23.2407 186.485 23.7793 186.485 24.4833V29.3793H184.245V17.5393H186.485V21.6193C186.773 21.2353 187.157 20.9367 187.637 20.7233C188.117 20.4993 188.65 20.3873 189.237 20.3873ZM206.411 21.5713C206.155 21.102 205.803 20.7447 205.355 20.4993C204.907 20.254 204.385 20.1313 203.787 20.1313C203.126 20.1313 202.539 20.2807 202.027 20.5793C201.515 20.878 201.115 21.3047 200.827 21.8593C200.539 22.414 200.395 23.054 200.395 23.7793C200.395 24.526 200.539 25.1767 200.827 25.7313C201.126 26.286 201.537 26.7127 202.059 27.0113C202.582 27.31 203.19 27.4593 203.883 27.4593C204.737 27.4593 205.435 27.2353 205.979 26.7873C206.523 26.3287 206.881 25.694 207.051 24.8833H203.211V23.1713H209.259V25.1233C209.11 25.902 208.79 26.622 208.299 27.2833C207.809 27.9447 207.174 28.478 206.395 28.8833C205.627 29.278 204.763 29.4753 203.803 29.4753C202.726 29.4753 201.75 29.2353 200.875 28.7553C200.011 28.2647 199.329 27.5873 198.827 26.7233C198.337 25.8593 198.091 24.878 198.091 23.7793C198.091 22.6807 198.337 21.6993 198.827 20.8353C199.329 19.9607 200.011 19.2833 200.875 18.8033C201.75 18.3127 202.721 18.0673 203.787 18.0673C205.046 18.0673 206.139 18.3767 207.067 18.9953C207.995 19.6033 208.635 20.462 208.987 21.5713H206.411ZM214.853 29.5233C213.999 29.5233 213.231 29.3367 212.549 28.9633C211.866 28.5793 211.327 28.0407 210.933 27.3473C210.549 26.654 210.357 25.854 210.357 24.9473C210.357 24.0407 210.554 23.2407 210.949 22.5473C211.354 21.854 211.903 21.3207 212.597 20.9473C213.29 20.5633 214.063 20.3713 214.917 20.3713C215.77 20.3713 216.543 20.5633 217.237 20.9473C217.93 21.3207 218.474 21.854 218.869 22.5473C219.274 23.2407 219.477 24.0407 219.477 24.9473C219.477 25.854 219.269 26.654 218.852 27.3473C218.447 28.0407 217.893 28.5793 217.189 28.9633C216.495 29.3367 215.717 29.5233 214.853 29.5233ZM214.853 27.5713C215.258 27.5713 215.637 27.4753 215.989 27.2833C216.351 27.0807 216.639 26.782 216.853 26.3873C217.066 25.9927 217.173 25.5127 217.173 24.9473C217.173 24.1047 216.949 23.4593 216.501 23.0113C216.063 22.5527 215.525 22.3233 214.885 22.3233C214.245 22.3233 213.706 22.5527 213.269 23.0113C212.842 23.4593 212.629 24.1047 212.629 24.9473C212.629 25.79 212.837 26.4407 213.253 26.8993C213.679 27.3473 214.213 27.5713 214.853 27.5713ZM225.056 29.5233C224.202 29.5233 223.434 29.3367 222.752 28.9633C222.069 28.5793 221.53 28.0407 221.136 27.3473C220.752 26.654 220.56 25.854 220.56 24.9473C220.56 24.0407 220.757 23.2407 221.152 22.5473C221.557 21.854 222.106 21.3207 222.8 20.9473C223.493 20.5633 224.266 20.3713 225.12 20.3713C225.973 20.3713 226.746 20.5633 227.44 20.9473C228.133 21.3207 228.677 21.854 229.072 22.5473C229.477 23.2407 229.68 24.0407 229.68 24.9473C229.68 25.854 229.472 26.654 229.056 27.3473C228.65 28.0407 228.096 28.5793 227.392 28.9633C226.698 29.3367 225.92 29.5233 225.056 29.5233ZM225.056 27.5713C225.461 27.5713 225.84 27.4753 226.192 27.2833C226.554 27.0807 226.842 26.782 227.056 26.3873C227.269 25.9927 227.376 25.5127 227.376 24.9473C227.376 24.1047 227.152 23.4593 226.704 23.0113C226.266 22.5527 225.728 22.3233 225.088 22.3233C224.448 22.3233 223.909 22.5527 223.472 23.0113C223.045 23.4593 222.832 24.1047 222.832 24.9473C222.832 25.79 223.04 26.4407 223.456 26.8993C223.882 27.3473 224.416 27.5713 225.056 27.5713ZM234.795 20.3713C235.456 20.3713 236.037 20.5047 236.539 20.7713C237.04 21.0273 237.435 21.3633 237.723 21.7793V20.5153H239.979V29.4433C239.979 30.2647 239.813 30.9953 239.483 31.6353C239.152 32.286 238.656 32.798 237.995 33.1713C237.333 33.5553 236.533 33.7473 235.595 33.7473C234.336 33.7473 233.301 33.454 232.491 32.8673C231.691 32.2807 231.237 31.4807 231.131 30.4673H233.355C233.472 30.8727 233.723 31.1927 234.107 31.4273C234.501 31.6727 234.976 31.7953 235.531 31.7953C236.181 31.7953 236.709 31.598 237.115 31.2033C237.52 30.8193 237.723 30.2327 237.723 29.4433V28.0673C237.435 28.4833 237.035 28.83 236.523 29.1073C236.021 29.3847 235.445 29.5233 234.795 29.5233C234.048 29.5233 233.365 29.3313 232.747 28.9473C232.128 28.5633 231.637 28.0247 231.275 27.3313C230.923 26.6273 230.747 25.822 230.747 24.9153C230.747 24.0193 230.923 23.2247 231.275 22.5313C231.637 21.838 232.123 21.3047 232.731 20.9313C233.349 20.558 234.037 20.3713 234.795 20.3713ZM237.723 24.9473C237.723 24.4033 237.616 23.9393 237.403 23.5553C237.189 23.1607 236.901 22.862 236.539 22.6593C236.176 22.446 235.787 22.3393 235.371 22.3393C234.955 22.3393 234.571 22.4407 234.219 22.6433C233.867 22.846 233.579 23.1447 233.355 23.5393C233.141 23.9233 233.035 24.382 233.035 24.9153C233.035 25.4487 233.141 25.918 233.355 26.3233C233.579 26.718 233.867 27.022 234.219 27.2353C234.581 27.4487 234.965 27.5553 235.371 27.5553C235.787 27.5553 236.176 27.454 236.539 27.2513C236.901 27.038 237.189 26.7393 237.403 26.3553C237.616 25.9607 237.723 25.4913 237.723 24.9473ZM244.407 17.5393V29.3793H242.167V17.5393H244.407ZM254.86 24.7553C254.86 25.0753 254.838 25.3633 254.796 25.6193H248.316C248.369 26.2593 248.593 26.7607 248.988 27.1233C249.382 27.486 249.868 27.6673 250.444 27.6673C251.276 27.6673 251.868 27.31 252.22 26.5953H254.636C254.38 27.4487 253.889 28.1527 253.164 28.7073C252.438 29.2513 251.548 29.5233 250.492 29.5233C249.638 29.5233 248.87 29.3367 248.188 28.9633C247.516 28.5793 246.988 28.0407 246.604 27.3473C246.23 26.654 246.044 25.854 246.044 24.9473C246.044 24.03 246.23 23.2247 246.604 22.5313C246.977 21.838 247.5 21.3047 248.172 20.9313C248.844 20.558 249.617 20.3713 250.492 20.3713C251.334 20.3713 252.086 20.5527 252.748 20.9153C253.42 21.278 253.937 21.7953 254.3 22.4673C254.673 23.1287 254.86 23.8913 254.86 24.7553ZM252.54 24.1153C252.529 23.5393 252.321 23.0807 251.916 22.7393C251.51 22.3873 251.014 22.2113 250.428 22.2113C249.873 22.2113 249.404 22.382 249.02 22.7233C248.646 23.054 248.417 23.518 248.332 24.1153H252.54Z" fill="#303030"/>
</svg>
