<svg width="16" height="14" viewBox="0 0 16 14" fill="none" xmlns="http://www.w3.org/2000/svg">
<path d="M0.1875 6.88717C0.293116 6.67448 0.395932 6.46023 0.504748 6.24949C1.00962 5.2744 1.69693 4.44201 2.55826 3.74569C2.60347 3.70933 2.64747 3.67179 2.69188 3.63426C2.69908 3.628 2.70468 3.62018 2.71228 3.61119C2.09659 3.01065 1.4805 2.40973 0.875604 1.81974C1.18045 1.52182 1.46209 1.24618 1.72733 0.986576C5.73234 4.89672 9.75615 8.82523 13.7708 12.7448C13.5075 13.0075 13.2255 13.289 12.9206 13.5932C12.8894 13.5521 12.8626 13.5052 12.8254 13.4688C12.1401 12.7964 11.4524 12.1262 10.7687 11.4518C10.6967 11.381 10.6399 11.3662 10.5423 11.4029C9.4085 11.8283 8.23352 11.9941 7.02494 11.892C5.32908 11.7489 3.82125 11.1465 2.51545 10.0756C1.5225 9.26156 0.772789 8.27005 0.267112 7.10299C0.247109 7.05724 0.215104 7.01619 0.1883 6.97319C0.1875 6.94425 0.1875 6.91571 0.1875 6.88717ZM4.64418 5.47028C3.97768 6.69325 4.25292 8.29742 5.28227 9.28658C6.32683 10.2902 7.93788 10.5471 9.16406 9.89807C9.13006 9.8621 9.09885 9.82691 9.06565 9.79407C8.79001 9.5243 8.51076 9.25765 8.24032 8.98319C8.16031 8.90226 8.0823 8.88935 7.97148 8.89287C7.72544 8.9003 7.4694 8.91868 7.23337 8.86589C6.15841 8.62584 5.50711 7.66951 5.66673 6.6045C5.67393 6.55719 5.67953 6.48799 5.65273 6.46062C5.32308 6.13024 4.98783 5.80573 4.64418 5.47028Z" fill="#8F9098"/>
<path d="M4.98047 2.39996C5.47854 2.22519 5.97582 2.09422 6.4883 2.02189C8.13215 1.78887 9.70679 2.01798 11.1998 2.72721C12.5324 3.3598 13.6142 4.28524 14.4139 5.50548C14.6883 5.9246 14.8984 6.384 15.132 6.82814C15.1568 6.87545 15.1648 6.95052 15.1448 6.99861C14.6455 8.1946 13.8906 9.21035 12.8853 10.0486C12.8745 10.0576 12.8609 10.0639 12.8393 10.0775C12.8089 10.0513 12.7753 10.0255 12.7452 9.99621C12.1412 9.40623 11.5387 8.81508 10.9322 8.22744C10.8678 8.16528 10.8522 8.11445 10.8834 8.03039C11.5327 6.28469 10.5649 4.33763 8.71303 3.75508C8.00453 3.53222 7.29122 3.54043 6.58791 3.78675C6.4731 3.82702 6.40588 3.80747 6.32387 3.72497C5.88421 3.28513 5.43894 2.85115 4.98047 2.39996Z" fill="#8F9098"/>
<path d="M9.72572 6.98843C9.02121 6.30031 8.32471 5.61963 7.625 4.9362C8.18549 4.91313 8.68036 5.10158 9.09522 5.48826C9.53289 5.89644 9.72972 6.40431 9.72572 6.98843Z" fill="#8F9098"/>
</svg>
