<svg width="21" height="21" viewBox="0 0 21 21" fill="none" xmlns="http://www.w3.org/2000/svg">
<path d="M8.05273 10.8767C8.05273 7.77709 8.05273 4.67685 8.05273 1.57727C8.05273 1.00745 8.26912 0.819913 8.82714 0.924172C11.951 1.50514 15.0735 2.09004 18.1967 2.67298C18.8151 2.78838 19.4334 2.90248 20.0504 3.02182C20.5042 3.10968 20.6176 3.25329 20.6176 3.72606C20.6176 6.58041 20.6176 9.43475 20.6176 12.2898C20.6176 14.9231 20.6176 17.5571 20.6176 20.1905C20.6176 20.7308 20.4537 20.8967 19.9193 20.8967C16.1896 20.8967 12.4598 20.8967 8.73075 20.8967C8.21404 20.8967 8.05273 20.7367 8.05273 20.2259C8.05273 17.1093 8.05273 13.9927 8.05273 10.8767ZM16.8322 9.15935C17.0604 9.15935 17.2892 9.15935 17.5174 9.15935C17.5338 9.15935 17.5502 9.16001 17.5666 9.1587C17.8911 9.14034 18.082 8.96132 18.1003 8.63871C18.1121 8.42757 18.1115 8.21446 18.101 8.00266C18.0852 7.67546 17.9023 7.48202 17.5784 7.47415C17.0892 7.46235 16.5994 7.46235 16.1102 7.47415C15.7856 7.48202 15.6033 7.6748 15.5876 8.00266C15.5778 8.20594 15.5784 8.41052 15.587 8.61445C15.6014 8.96264 15.7948 9.14886 16.1469 9.15804C16.3751 9.16394 16.604 9.1587 16.8322 9.15935ZM11.8218 5.81715V5.81584C12.0664 5.81584 12.3116 5.82567 12.5556 5.81322C12.8828 5.79617 13.0618 5.60535 13.0696 5.28012C13.0749 5.07619 13.0742 4.87226 13.0696 4.66833C13.0624 4.3444 12.8821 4.13982 12.5601 4.13064C12.0631 4.11687 11.5648 4.11621 11.0677 4.1313C10.7497 4.14113 10.57 4.35162 10.5628 4.6762C10.5589 4.86373 10.5602 5.05127 10.5622 5.23881C10.5668 5.61584 10.7536 5.806 11.1366 5.81584C11.3648 5.8224 11.5936 5.81715 11.8218 5.81715ZM11.789 9.15935C12.0257 9.15935 12.2618 9.15935 12.4985 9.15935C12.5149 9.15935 12.5313 9.15935 12.5477 9.1587C12.8729 9.13771 13.0611 8.95149 13.0696 8.6315C13.0755 8.4197 13.0755 8.20725 13.0696 7.99545C13.0611 7.69382 12.89 7.48989 12.5929 7.48005C12.0795 7.46301 11.5654 7.46301 11.052 7.4794C10.7451 7.48923 10.5714 7.6971 10.5635 8.01184C10.5589 8.20725 10.5595 8.40331 10.5628 8.59937C10.5687 8.94887 10.7576 9.14689 11.1045 9.1587C11.332 9.16525 11.5608 9.1587 11.789 9.15935ZM16.8295 19.2056C17.0663 19.2056 17.3023 19.2056 17.539 19.2056C17.5554 19.2056 17.5718 19.2056 17.5882 19.2043C17.8905 19.1846 18.0774 19.0168 18.097 18.7165C18.1128 18.4811 18.1134 18.243 18.0957 18.0076C18.0741 17.7119 17.8813 17.5303 17.581 17.5244C17.0918 17.5152 16.602 17.5152 16.1128 17.5244C15.802 17.5303 15.6092 17.7178 15.5896 18.0266C15.5758 18.2457 15.5765 18.4673 15.5883 18.687C15.6053 19.0142 15.7915 19.1925 16.1194 19.2037C16.3561 19.2115 16.5928 19.205 16.8295 19.2056ZM16.8512 12.5199V12.5212C17.0794 12.5212 17.3082 12.5212 17.5364 12.5212C17.5528 12.5212 17.5692 12.5206 17.5856 12.5199C17.8879 12.5022 18.0761 12.3363 18.097 12.0353C18.1134 11.7999 18.1134 11.5619 18.097 11.3265C18.0761 11.0282 17.882 10.8472 17.5849 10.8426C17.0958 10.8354 16.6059 10.836 16.1168 10.8419C15.806 10.8459 15.6106 11.0295 15.5915 11.339C15.5771 11.5665 15.5771 11.796 15.5922 12.0235C15.6125 12.3357 15.8007 12.5081 16.1181 12.5179C16.3614 12.5258 16.6066 12.5199 16.8512 12.5199ZM16.8387 15.8621C17.0833 15.8621 17.3285 15.8687 17.5725 15.8608C17.8997 15.8503 18.0833 15.6713 18.101 15.3415C18.1121 15.1303 18.1121 14.9172 18.101 14.7054C18.0826 14.371 17.8879 14.1861 17.5482 14.1815C17.0754 14.1756 16.602 14.1749 16.1292 14.1822C15.7942 14.1874 15.6033 14.3795 15.5883 14.7179C15.5791 14.9212 15.5791 15.1257 15.5883 15.3297C15.604 15.6713 15.7889 15.8516 16.1292 15.8615C16.3653 15.8674 16.602 15.8621 16.8387 15.8621ZM11.8048 12.5193V12.5179C12.0657 12.5179 12.3274 12.5271 12.5877 12.5153C12.8742 12.5022 13.0559 12.3166 13.0677 12.0314C13.0769 11.8032 13.0762 11.5744 13.0683 11.3462C13.0585 11.0518 12.869 10.8498 12.5779 10.8439C12.0723 10.8341 11.5661 10.8341 11.0605 10.8439C10.7707 10.8491 10.5759 11.0531 10.5641 11.3442C10.5556 11.5639 10.5563 11.7849 10.5635 12.0045C10.5733 12.314 10.7609 12.5048 11.0704 12.5166C11.3156 12.5265 11.5602 12.5193 11.8048 12.5193ZM11.8133 15.8621C12.0579 15.8621 12.3031 15.8687 12.547 15.8608C12.8782 15.8497 13.0598 15.6667 13.069 15.3408C13.0749 15.129 13.0749 14.9166 13.069 14.7048C13.0605 14.3966 12.8736 14.1913 12.5687 14.1848C12.0716 14.1736 11.5733 14.1743 11.0763 14.1841C10.7615 14.1907 10.5707 14.3999 10.5628 14.7199C10.5576 14.9238 10.5576 15.1277 10.5628 15.3316C10.5714 15.6582 10.7543 15.8483 11.0789 15.8601C11.3235 15.8687 11.5687 15.8615 11.8133 15.8621Z" fill="#303030"/>
<path d="M6.36471 12.8294C6.36471 18.5368 6.36471 17.687 6.36471 20.1151C6.36471 20.7702 6.23685 20.8961 5.57195 20.8961C4.10838 20.8961 2.64482 20.8967 1.18059 20.8961C0.678314 20.8961 0.505859 20.7223 0.505859 20.2161C0.505859 15.5716 0.505859 10.9265 0.505859 6.28204C0.505859 5.82631 0.647495 5.66566 1.11306 5.57911C2.61465 5.29911 4.11559 5.01912 5.61654 4.73716C6.12865 4.64077 6.36406 4.82634 6.36406 5.34698C6.36602 7.84134 6.36471 10.3357 6.36471 12.8294ZM3.44611 9.15868C3.69069 9.15868 3.93593 9.16655 4.17985 9.15671C4.49263 9.14425 4.68607 8.96196 4.70509 8.65509C4.71886 8.42755 4.71886 8.19805 4.70443 7.97051C4.68541 7.67347 4.49985 7.48463 4.20018 7.4761C3.70315 7.46299 3.2048 7.46299 2.70777 7.47545C2.39302 7.48332 2.21335 7.67282 2.19762 7.98691C2.18647 8.1987 2.18778 8.41116 2.1963 8.62296C2.21007 8.96196 2.39761 9.14688 2.73662 9.15737C2.97268 9.16524 3.20939 9.15868 3.44611 9.15868ZM3.4625 10.8406C3.21791 10.8406 2.97333 10.836 2.72875 10.8419C2.40351 10.8498 2.21401 11.0308 2.19762 11.3573C2.18712 11.577 2.18647 11.7979 2.19893 12.0176C2.21663 12.335 2.39695 12.512 2.71563 12.5179C3.2048 12.5265 3.69397 12.5265 4.18379 12.5179C4.4946 12.5127 4.68673 12.3271 4.70574 12.0183C4.71886 11.7986 4.7182 11.5776 4.7064 11.358C4.68935 11.0367 4.49198 10.8498 4.17199 10.8419C3.93593 10.836 3.69921 10.8406 3.4625 10.8406Z" fill="#303030"/>
</svg>
