<svg width="16" height="16" viewBox="0 0 16 16" fill="none" xmlns="http://www.w3.org/2000/svg">
<path d="M7.67969 12.0371C7.89219 12.0371 8.07044 11.9651 8.21444 11.8211C8.35794 11.6776 8.42969 11.4996 8.42969 11.2871V8.26836C8.42969 8.05586 8.35794 7.88086 8.21444 7.74336C8.07044 7.60586 7.89219 7.53711 7.67969 7.53711C7.46719 7.53711 7.28919 7.60886 7.14569 7.75236C7.00169 7.89636 6.92969 8.07461 6.92969 8.28711V11.3059C6.92969 11.5184 7.00169 11.6934 7.14569 11.8309C7.28919 11.9684 7.46719 12.0371 7.67969 12.0371ZM7.67969 6.03711C7.89219 6.03711 8.07044 5.96511 8.21444 5.82111C8.35794 5.67761 8.42969 5.49961 8.42969 5.28711C8.42969 5.07461 8.35794 4.89636 8.21444 4.75236C8.07044 4.60886 7.89219 4.53711 7.67969 4.53711C7.46719 4.53711 7.28919 4.60886 7.14569 4.75236C7.00169 4.89636 6.92969 5.07461 6.92969 5.28711C6.92969 5.49961 7.00169 5.67761 7.14569 5.82111C7.28919 5.96511 7.46719 6.03711 7.67969 6.03711ZM7.67969 15.7871C6.64219 15.7871 5.66719 15.5901 4.75469 15.1961C3.84219 14.8026 3.04844 14.2684 2.37344 13.5934C1.69844 12.9184 1.16419 12.1246 0.770688 11.2121C0.376688 10.2996 0.179688 9.32461 0.179688 8.28711C0.179688 7.24961 0.376688 6.27461 0.770688 5.36211C1.16419 4.44961 1.69844 3.65586 2.37344 2.98086C3.04844 2.30586 3.84219 1.77136 4.75469 1.37736C5.66719 0.983859 6.64219 0.787109 7.67969 0.787109C8.71719 0.787109 9.69219 0.983859 10.6047 1.37736C11.5172 1.77136 12.3109 2.30586 12.9859 2.98086C13.6609 3.65586 14.1952 4.44961 14.5887 5.36211C14.9827 6.27461 15.1797 7.24961 15.1797 8.28711C15.1797 9.32461 14.9827 10.2996 14.5887 11.2121C14.1952 12.1246 13.6609 12.9184 12.9859 13.5934C12.3109 14.2684 11.5172 14.8026 10.6047 15.1961C9.69219 15.5901 8.71719 15.7871 7.67969 15.7871Z" fill="#003556"/>
</svg>
