<svg width="31" height="31" viewBox="0 0 31 31" fill="none" xmlns="http://www.w3.org/2000/svg">
<path d="M6.85352 15.0641C7.11112 14.6122 7.36633 14.1603 7.62393 13.7107C7.73604 13.5137 7.83622 13.4743 8.06758 13.5299C9.01927 13.7594 9.96858 13.9934 10.9227 14.2182C11.0133 14.2391 11.1302 14.2321 11.2137 14.195C11.736 13.9656 12.2536 13.7223 12.7712 13.4836C12.8141 13.4627 12.8571 13.4395 12.9167 13.4094C12.8523 13.3654 12.7998 13.3306 12.7497 13.2959C11.7694 12.6446 10.7915 11.9888 9.80877 11.3422C9.63465 11.2286 9.55833 11.0942 9.58933 10.8926C9.6919 10.2599 10.1642 9.78253 11.0109 10.0004C11.5261 10.1325 12.0222 10.3387 12.5231 10.5264C13.699 10.9668 14.8749 11.4164 16.0484 11.866C16.1629 11.91 16.256 11.9077 16.3681 11.8544C17.7658 11.2171 19.1659 10.5867 20.5612 9.94707C21.0955 9.70373 21.6465 9.59249 22.2333 9.66202C23.3161 9.7918 23.8337 10.8185 23.2923 11.7547C23.0347 12.1997 22.6578 12.5311 22.1879 12.7489C20.9667 13.3167 19.7383 13.8706 18.5123 14.4314C18.3979 14.4847 18.281 14.5357 18.1331 14.6029C18.281 14.1788 18.4169 13.7872 18.5529 13.3955C18.5767 13.326 18.6268 13.2518 18.6149 13.1869C18.6006 13.1035 18.5577 13.0015 18.4909 12.9598C18.3979 12.8996 18.2881 12.939 18.2261 13.0386C18.1903 13.0966 18.1713 13.1638 18.1474 13.2287C17.377 15.4581 16.6066 17.6875 15.8338 19.9146C15.7431 20.1742 15.6334 20.4268 15.4187 20.6192C15.2613 20.7628 15.0323 20.7907 14.8487 20.6794C14.8105 20.6562 14.7771 20.5867 14.7819 20.5427C14.8391 19.8868 14.9035 19.231 14.9679 18.5751C15.061 17.6203 15.154 16.6655 15.247 15.713C15.2804 15.3723 15.321 15.0317 15.34 14.691C15.3448 14.6122 15.2947 14.501 15.2303 14.4523C15.1063 14.3573 14.9393 14.4523 14.9202 14.6261C14.8725 15.0456 14.8248 15.465 14.7962 15.8845C14.7843 16.056 14.727 16.1487 14.5577 16.2252C12.9906 16.9297 11.4259 17.6458 9.86363 18.3573C9.57264 18.4894 9.44384 18.443 9.30788 18.1626C9.11707 17.7663 8.92864 17.37 8.7402 16.9737C8.62094 16.7234 8.66865 16.6006 8.92864 16.4824C9.04551 16.4291 9.16238 16.3735 9.31027 16.3086C9.2411 16.2762 9.19101 16.253 9.14092 16.2321C8.48976 15.9703 7.8386 15.713 7.19221 15.4442C7.06818 15.3955 6.96562 15.2982 6.85352 15.224C6.85352 15.1707 6.85352 15.1174 6.85352 15.0641Z" fill="#003556"/>
<circle cx="15.1817" cy="15.1944" r="14.7419" stroke="#003556" stroke-width="0.832773"/>
</svg>
