<svg width="32" height="31" viewBox="0 0 32 31" fill="none" xmlns="http://www.w3.org/2000/svg">
<path d="M20.5279 20.0981C17.598 20.0981 14.677 20.0981 11.7297 20.0981C11.7297 20.1703 11.7297 20.2361 11.7297 20.3019C11.7297 20.7869 11.7317 21.2724 11.7292 21.7574C11.7257 22.3496 11.3359 22.7573 10.7482 22.7828C10.5807 22.7902 10.4123 22.7897 10.2448 22.7818C9.67703 22.7538 9.28425 22.3501 9.27727 21.7809C9.27129 21.2959 9.27578 20.8109 9.27578 20.3254C9.27578 20.2576 9.27578 20.1893 9.27578 20.0891C9.13172 20.0891 8.99814 20.0901 8.86505 20.0891C8.20859 20.0846 7.81231 19.6863 7.81182 19.0274C7.81082 17.7648 7.80932 16.5022 7.81231 15.2396C7.81431 14.4192 8.35015 13.83 9.16462 13.7263C9.23191 13.7179 9.31366 13.6296 9.34407 13.5593C9.84551 12.396 10.3395 11.2301 10.8349 10.0642C11.132 9.36535 11.5751 9.07275 12.3383 9.07225C12.9409 9.07225 13.543 9.07225 14.1781 9.07225C14.1781 8.92671 14.1766 8.79312 14.1781 8.65953C14.1856 8.00755 14.5734 7.61029 15.2218 7.60331C15.8315 7.59683 16.4411 7.59733 17.0507 7.60331C17.6997 7.60979 18.089 8.00606 18.0969 8.65704C18.0984 8.78714 18.0969 8.91723 18.0969 9.07225C18.1777 9.07225 18.244 9.07225 18.3103 9.07225C18.8576 9.07225 19.4049 9.07176 19.9527 9.07225C20.6994 9.07275 21.144 9.36883 21.4391 10.0617C21.935 11.2271 22.432 12.3925 22.924 13.5593C22.9723 13.6735 23.0252 13.7298 23.1622 13.7408C23.8531 13.7956 24.4492 14.4107 24.4567 15.106C24.4707 16.4554 24.4667 17.8052 24.4592 19.155C24.4562 19.6535 24.0405 20.0627 23.5426 20.0846C23.3701 20.0921 23.1966 20.0856 22.9987 20.0856C22.9987 20.1718 22.9987 20.2376 22.9987 20.3039C22.9987 20.783 23.0007 21.262 22.9982 21.7405C22.9947 22.3631 22.5985 22.7673 21.9764 22.7837C21.8209 22.7877 21.6654 22.7887 21.5099 22.7808C20.9426 22.7513 20.5503 22.3446 20.5453 21.7774C20.5409 21.2365 20.5433 20.6952 20.5424 20.1539C20.5414 20.1434 20.5359 20.131 20.5279 20.0981ZM21.9305 13.7149C21.8996 13.6381 21.8777 13.5818 21.8538 13.5259C21.4087 12.5011 20.9581 11.4788 20.5214 10.451C20.4003 10.1664 20.2134 10.0457 19.9058 10.0462C17.3812 10.0517 14.857 10.0492 12.3323 10.0492C11.9575 10.0492 11.8448 10.1245 11.6978 10.4749C11.2841 11.4589 10.8708 12.4433 10.4576 13.4278C10.4202 13.517 10.3838 13.6072 10.3395 13.7149C14.2105 13.7149 18.0561 13.7149 21.9305 13.7149ZM10.497 16.6607V16.6612C10.7268 16.6612 10.9566 16.6612 11.1859 16.6612C11.2043 16.6612 11.2232 16.6602 11.2417 16.6592C11.5278 16.6398 11.7132 16.4579 11.7272 16.1722C11.7347 16.0172 11.7332 15.8617 11.7282 15.7067C11.7182 15.3957 11.5198 15.1983 11.2078 15.1953C10.7358 15.1913 10.2642 15.1908 9.79218 15.1953C9.48912 15.1983 9.29272 15.3907 9.27727 15.6937C9.2693 15.8487 9.2698 16.0043 9.27677 16.1593C9.29123 16.4643 9.48014 16.6503 9.78869 16.6592C10.025 16.6667 10.2607 16.6607 10.497 16.6607ZM21.7556 16.6612C21.9978 16.6612 22.2401 16.6667 22.4818 16.6597C22.7994 16.6508 22.9848 16.4618 22.9967 16.1433C23.0022 15.9948 23.0037 15.8453 22.9957 15.6967C22.9803 15.3917 22.7859 15.1988 22.4833 15.1958C22.0053 15.1908 21.5273 15.1908 21.0493 15.1963C20.7582 15.1998 20.5593 15.3961 20.5458 15.6858C20.5384 15.8408 20.5399 15.9963 20.5448 16.1513C20.5543 16.4569 20.7417 16.6488 21.0478 16.6592C21.2836 16.6667 21.5193 16.6607 21.7556 16.6612Z" fill="#003556"/>
<circle cx="16.1368" cy="15.1944" r="14.7419" stroke="#003556" stroke-width="0.832773"/>
</svg>
