<svg width="32" height="31" viewBox="0 0 32 31" fill="none" xmlns="http://www.w3.org/2000/svg">
<path d="M14.1241 6.86719C15.4355 6.86719 16.747 6.86719 18.0584 6.86719C18.9246 7.04186 19.2726 7.68429 19.2455 8.46193C19.2158 9.34454 19.2387 10.2288 19.2387 11.1123C19.2387 11.1702 19.2387 11.2282 19.2387 11.2995C19.563 11.2995 19.8694 11.2853 20.1725 11.3046C20.3757 11.318 20.5925 11.3432 20.7737 11.4264C21.2486 11.6447 21.4434 12.0453 21.4434 12.5584C21.4408 15.4203 21.4417 18.2815 21.4417 21.1434C21.4417 21.1921 21.44 21.2409 21.4374 21.2896C21.4036 21.8883 20.9549 22.3401 20.3486 22.3863C20.275 22.3922 20.2013 22.3989 20.1192 22.4065C20.1192 22.6777 20.1226 22.9322 20.1184 23.1866C20.1141 23.405 20.0091 23.5167 19.8009 23.5192C19.375 23.5234 18.9483 23.5242 18.5224 23.5192C18.3251 23.5167 18.2244 23.4108 18.2151 23.2143C18.2108 23.1329 18.2134 23.0514 18.2134 22.9708C18.2134 22.7835 18.2134 22.5971 18.2134 22.4081C16.7842 22.4081 15.383 22.4081 13.9666 22.4081C13.9666 22.6626 13.9674 22.9061 13.9666 23.1488C13.9649 23.4276 13.8726 23.5209 13.5949 23.5217C13.2181 23.5225 12.8405 23.5225 12.4638 23.5217C12.1573 23.5217 12.0633 23.4285 12.0625 23.1236C12.0616 22.8868 12.0625 22.65 12.0625 22.4073C11.9625 22.3989 11.8821 22.3914 11.8008 22.3863C11.5697 22.372 11.3665 22.2864 11.187 22.1453C10.8585 21.8824 10.7374 21.5365 10.7383 21.1266C10.7417 18.2756 10.74 15.4245 10.7408 12.5743C10.7408 12.5206 10.7417 12.466 10.7451 12.4123C10.773 11.9017 11.0896 11.4902 11.59 11.3575C11.7814 11.3071 11.9888 11.3079 12.1894 11.3012C12.4375 11.292 12.6864 11.2987 12.9438 11.2987C12.9438 11.2139 12.9438 11.1551 12.9438 11.0955C12.9438 10.1524 12.9447 9.20933 12.9438 8.26626C12.9438 7.88752 13.059 7.55329 13.324 7.27532C13.5416 7.04606 13.8226 6.93689 14.1241 6.86719ZM13.8421 11.2886C15.3449 11.2886 16.8367 11.2886 18.3404 11.2886C18.3429 11.2265 18.3472 11.1736 18.3472 11.1207C18.3472 10.1835 18.348 9.24712 18.3472 8.30993C18.3472 7.91187 18.1838 7.75148 17.7782 7.75148C16.6539 7.75148 15.5286 7.75148 14.4043 7.75148C13.9996 7.75148 13.8345 7.91271 13.8345 8.30993C13.8336 9.24712 13.8345 10.1835 13.8345 11.1207C13.8345 11.1736 13.8396 11.2265 13.8421 11.2886Z" fill="#003556"/>
<circle cx="16.086" cy="15.1944" r="14.7419" stroke="#003556" stroke-width="0.832773"/>
</svg>
