<svg width="31" height="31" viewBox="0 0 31 31" fill="none" xmlns="http://www.w3.org/2000/svg">
<path fill-rule="evenodd" clip-rule="evenodd" d="M15.6084 21.2242H14.0285C14.0285 21.2784 14.0288 21.3312 14.0292 21.3831V21.3831V21.3831C14.0299 21.4969 14.0306 21.6061 14.0276 21.715C14.0255 21.7967 14.0239 21.8784 14.0223 21.9601L14.0222 21.9603V21.9603C14.0171 22.2192 14.0119 22.4781 13.9924 22.7356C13.9629 23.1244 13.7938 23.3372 13.4471 23.4139C13.2042 23.4676 12.9539 23.5026 12.7062 23.5069C12.6123 23.5087 12.5183 23.5111 12.4241 23.5135H12.4241H12.424C11.9976 23.5244 11.5696 23.5354 11.1485 23.4839C10.4211 23.3953 9.89363 22.704 9.86886 21.8953C9.86318 21.7128 9.86369 21.5301 9.86421 21.3474V21.3474V21.3474C9.86464 21.1951 9.86507 21.0428 9.86191 20.8905C9.86061 20.8268 9.83671 20.7477 9.7976 20.704C9.47693 20.3479 9.3431 19.9179 9.34354 19.4222C9.34512 17.6344 9.34486 15.8466 9.3446 14.0587L9.3444 12.0475V11.8112C9.26861 11.853 9.19375 11.8941 9.1197 11.9347L9.11967 11.9347L9.1196 11.9348C8.85749 12.0787 8.60541 12.2171 8.35675 12.3624C8.32199 12.3826 8.30591 12.4717 8.30548 12.5288C8.30374 12.9235 8.30374 13.3183 8.30374 13.7131V13.7132C8.30374 14.1079 8.30374 14.5026 8.302 14.8974C8.30027 15.2929 8.04303 15.5349 7.69542 15.4793C7.45122 15.44 7.2696 15.2483 7.26742 14.9741C7.25917 13.9813 7.26091 12.9885 7.26612 11.9957C7.26742 11.7532 7.41385 11.6093 7.59983 11.5077C7.7702 11.4143 7.94027 11.3202 8.11032 11.2262L8.11034 11.2262L8.11037 11.2262L8.11038 11.2262L8.11039 11.2262C8.47245 11.026 8.83446 10.8258 9.19928 10.6314C9.31529 10.5696 9.34875 10.4962 9.34745 10.3587C9.34699 10.3047 9.3463 10.2508 9.34561 10.1969C9.34033 9.78532 9.33505 9.37408 9.43609 8.96847C9.74242 7.74175 10.734 6.87696 11.8885 6.8736C13.1285 6.86975 14.3684 6.86734 15.6084 6.86719C16.8483 6.86734 18.0883 6.86975 19.3283 6.8736C20.4828 6.87696 21.4743 7.74175 21.7807 8.96847C21.8817 9.37408 21.8764 9.78531 21.8711 10.1969C21.8704 10.2508 21.8698 10.3047 21.8693 10.3587C21.868 10.4962 21.9015 10.5696 22.0175 10.6314C22.3823 10.8258 22.7443 11.026 23.1064 11.2262C23.2764 11.3202 23.4465 11.4143 23.6169 11.5077C23.8029 11.6093 23.9493 11.7532 23.9506 11.9957C23.9558 12.9885 23.9576 13.9813 23.9493 14.9741C23.9472 15.2483 23.7655 15.44 23.5213 15.4793C23.1737 15.5349 22.9165 15.2929 22.9147 14.8974C22.913 14.5026 22.913 14.1078 22.913 13.7131C22.913 13.3183 22.913 12.9236 22.9113 12.5288C22.9108 12.4717 22.8948 12.3826 22.86 12.3624C22.6113 12.217 22.3592 12.0786 22.097 11.9347C22.023 11.8941 21.9481 11.853 21.8723 11.8112V12.0475L21.8721 14.0578C21.8719 15.846 21.8716 17.6341 21.8732 19.4222C21.8736 19.9179 21.7398 20.3479 21.4191 20.704C21.38 20.7477 21.3561 20.8268 21.3548 20.8905C21.3517 21.0428 21.3521 21.1951 21.3525 21.3474V21.3475V21.3475C21.3531 21.5302 21.3536 21.7128 21.3479 21.8953C21.3231 22.704 20.7956 23.3953 20.0682 23.4839C19.6472 23.5354 19.2192 23.5244 18.7927 23.5135C18.6985 23.5111 18.6044 23.5087 18.5105 23.5069C18.2628 23.5026 18.0125 23.4676 17.7697 23.4139C17.4229 23.3372 17.2539 23.1244 17.2243 22.7356C17.2049 22.4781 17.1997 22.2191 17.1945 21.9603C17.1929 21.8785 17.1912 21.7968 17.1891 21.715C17.1862 21.6061 17.1869 21.4969 17.1876 21.3831C17.1879 21.3312 17.1883 21.2784 17.1883 21.2242H15.6084ZM17.5682 17.7723C17.3023 17.8461 17.1663 18.0288 17.1641 18.2982C17.161 18.7009 17.4296 18.9401 17.782 18.8475L17.9977 18.7911L17.998 18.791L17.9984 18.7909L17.9987 18.7909L17.999 18.7908C18.6101 18.6309 19.2212 18.4711 19.8316 18.3082C20.1475 18.2239 20.3182 17.9444 20.2496 17.6405C20.1701 17.2881 19.9124 17.1271 19.5817 17.2186C19.2819 17.3015 18.9818 17.3837 18.6818 17.4659L18.681 17.4661L18.6808 17.4661L18.6807 17.4662L18.6805 17.4662L18.6804 17.4662C18.3096 17.5678 17.9387 17.6693 17.5682 17.7723ZM13.8711 18.2982C13.8689 18.0288 13.7329 17.8461 13.467 17.7723C13.0962 17.6692 12.7252 17.5677 12.3542 17.4661C12.0539 17.3838 11.7536 17.3016 11.4534 17.2186C11.1228 17.1271 10.8651 17.2881 10.7856 17.6405C10.7169 17.9444 10.8877 18.2239 11.2036 18.3082C11.8144 18.4712 12.4258 18.6312 13.0374 18.7911L13.2532 18.8475C13.6056 18.9401 13.8741 18.7009 13.8711 18.2982ZM10.422 14.4656C10.4481 14.4764 10.4726 14.4865 10.4974 14.4955C11.8418 14.9845 13.2201 15.2759 14.634 15.3651C14.9538 15.3853 15.2723 15.3953 15.5895 15.3952C15.9068 15.3953 16.2253 15.3853 16.545 15.3651C17.9589 15.2759 19.3372 14.9845 20.6816 14.4955C20.7064 14.4865 20.731 14.4764 20.757 14.4656C20.7738 14.4587 20.7912 14.4515 20.8098 14.4442C20.8098 14.1469 20.8098 13.8502 20.8098 13.5539C20.81 12.2233 20.8101 10.9023 20.8076 9.58095C20.8072 9.46925 20.7859 9.35468 20.7611 9.24539C20.5912 8.49564 20.0138 7.98367 19.312 7.96354C19.1099 7.95769 18.9075 7.95876 18.7051 7.95982C18.6255 7.96024 18.546 7.96066 18.4664 7.96066L16.0471 7.96034L15.5895 7.96027L15.1319 7.96034L12.7126 7.96066C12.633 7.96066 12.5535 7.96024 12.474 7.95982C12.2715 7.95876 12.0692 7.95769 11.867 7.96354C11.1653 7.98367 10.5878 8.49564 10.4179 9.24539C10.3932 9.35468 10.3719 9.46925 10.3714 9.58095C10.3689 10.9022 10.3691 12.2231 10.3692 13.5537C10.3692 13.85 10.3693 14.1468 10.3693 14.4442C10.3878 14.4515 10.4052 14.4587 10.422 14.4656Z" fill="#003556"/>
<circle cx="15.6114" cy="15.1944" r="14.7419" stroke="#003556" stroke-width="0.832773"/>
</svg>
