<svg width="31" height="31" viewBox="0 0 31 31" fill="none" xmlns="http://www.w3.org/2000/svg">
<path d="M13.5684 15.1782C13.5684 12.597 13.5684 10.0152 13.5684 7.43392C13.5684 6.95939 13.7486 6.80322 14.2133 6.89004C16.8147 7.37386 19.4151 7.86095 22.016 8.3464C22.5309 8.44251 23.0459 8.53752 23.5597 8.6369C23.9376 8.71008 24.0321 8.82967 24.0321 9.22338C24.0321 11.6004 24.0321 13.9774 24.0321 16.355C24.0321 18.548 24.0321 20.7415 24.0321 22.9345C24.0321 23.3845 23.8955 23.5226 23.4505 23.5226C20.3445 23.5226 17.2385 23.5226 14.133 23.5226C13.7027 23.5226 13.5684 23.3894 13.5684 22.964C13.5684 20.3686 13.5684 17.7731 13.5684 15.1782ZM20.8796 13.7481C21.0697 13.7481 21.2602 13.7481 21.4503 13.7481C21.4639 13.7481 21.4776 13.7486 21.4912 13.7475C21.7615 13.7322 21.9204 13.5832 21.9357 13.3145C21.9455 13.1387 21.945 12.9612 21.9363 12.7848C21.9232 12.5123 21.7708 12.3512 21.501 12.3447C21.0937 12.3349 20.6858 12.3349 20.2784 12.3447C20.0081 12.3512 19.8563 12.5118 19.8432 12.7848C19.835 12.9541 19.8356 13.1245 19.8427 13.2943C19.8547 13.5843 20.0158 13.7393 20.309 13.747C20.499 13.7519 20.6896 13.7475 20.8796 13.7481ZM16.7071 10.9648V10.9637C16.9108 10.9637 17.1151 10.9719 17.3182 10.9615C17.5907 10.9473 17.7398 10.7884 17.7463 10.5176C17.7507 10.3477 17.7501 10.1779 17.7463 10.0081C17.7403 9.73832 17.5901 9.56795 17.322 9.5603C16.9081 9.54883 16.4931 9.54829 16.0792 9.56085C15.8143 9.56904 15.6647 9.74433 15.6587 10.0146C15.6554 10.1708 15.6565 10.327 15.6582 10.4832C15.662 10.7971 15.8176 10.9555 16.1365 10.9637C16.3265 10.9692 16.5171 10.9648 16.7071 10.9648ZM16.6798 13.7481C16.877 13.7481 17.0736 13.7481 17.2707 13.7481C17.2843 13.7481 17.298 13.7481 17.3116 13.7475C17.5825 13.7301 17.7392 13.575 17.7463 13.3085C17.7512 13.1321 17.7512 12.9552 17.7463 12.7788C17.7392 12.5276 17.5967 12.3578 17.3493 12.3496C16.9217 12.3354 16.4936 12.3354 16.0661 12.3491C15.8105 12.3572 15.6658 12.5304 15.6592 12.7925C15.6554 12.9552 15.656 13.1185 15.6587 13.2817C15.6636 13.5728 15.8209 13.7377 16.1097 13.7475C16.2992 13.753 16.4898 13.7475 16.6798 13.7481ZM20.8774 22.1143C21.0746 22.1143 21.2712 22.1143 21.4683 22.1143C21.4819 22.1143 21.4956 22.1143 21.5092 22.1133C21.761 22.0969 21.9166 21.9571 21.933 21.707C21.9461 21.5109 21.9466 21.3127 21.9319 21.1167C21.9139 20.8704 21.7533 20.7191 21.5032 20.7142C21.0959 20.7066 20.688 20.7066 20.2806 20.7142C20.0218 20.7191 19.8612 20.8753 19.8448 21.1325C19.8334 21.3149 19.8339 21.4995 19.8437 21.6824C19.8579 21.9549 20.013 22.1034 20.2861 22.1127C20.4832 22.1193 20.6803 22.1138 20.8774 22.1143ZM20.8955 16.5467V16.5478C21.0855 16.5478 21.2761 16.5478 21.4661 16.5478C21.4798 16.5478 21.4934 16.5472 21.5071 16.5467C21.7588 16.5319 21.9155 16.3938 21.933 16.1431C21.9466 15.9471 21.9466 15.7489 21.933 15.5528C21.9155 15.3044 21.7539 15.1536 21.5065 15.1498C21.0991 15.1438 20.6912 15.1444 20.2839 15.1493C20.025 15.1526 19.8623 15.3055 19.8465 15.5632C19.8345 15.7527 19.8345 15.9438 19.847 16.1333C19.8639 16.3932 20.0207 16.5368 20.285 16.545C20.4876 16.5516 20.6918 16.5467 20.8955 16.5467ZM20.8851 19.33C21.0888 19.33 21.293 19.3354 21.4961 19.3289C21.7686 19.3201 21.9215 19.1711 21.9363 18.8964C21.9455 18.7205 21.9455 18.5431 21.9363 18.3667C21.921 18.0882 21.7588 17.9342 21.4759 17.9304C21.0822 17.9255 20.688 17.9249 20.2942 17.9309C20.0152 17.9353 19.8563 18.0953 19.8437 18.3771C19.8361 18.5464 19.8361 18.7167 19.8437 18.8866C19.8568 19.1711 20.0108 19.3212 20.2942 19.3294C20.4908 19.3343 20.688 19.33 20.8851 19.33ZM16.6929 16.5461V16.545C16.9103 16.545 17.1282 16.5527 17.3449 16.5428C17.5836 16.5319 17.7348 16.3774 17.7447 16.1398C17.7523 15.9498 17.7518 15.7592 17.7452 15.5692C17.737 15.324 17.5792 15.1558 17.3368 15.1509C16.9157 15.1427 16.4942 15.1427 16.0732 15.1509C15.8318 15.1553 15.6696 15.3251 15.6598 15.5676C15.6527 15.7505 15.6532 15.9345 15.6592 16.1175C15.6674 16.3752 15.8236 16.5341 16.0814 16.5439C16.2856 16.5521 16.4893 16.5461 16.6929 16.5461ZM16.7 19.33C16.9037 19.33 17.108 19.3354 17.3111 19.3289C17.5869 19.3196 17.7381 19.1672 17.7458 18.8958C17.7507 18.7195 17.7507 18.5425 17.7458 18.3662C17.7387 18.1095 17.583 17.9386 17.3291 17.9331C16.9152 17.9238 16.5002 17.9244 16.0863 17.9326C15.8242 17.938 15.6653 18.1122 15.6587 18.3787C15.6543 18.5485 15.6543 18.7184 15.6587 18.8882C15.6658 19.1601 15.8181 19.3185 16.0885 19.3283C16.2921 19.3354 16.4964 19.3294 16.7 19.33Z" fill="#003556"/>
<path d="M12.1623 16.8043C12.1623 21.5572 12.1623 20.8495 12.1623 22.8716C12.1623 23.4171 12.0558 23.522 11.5021 23.522C10.2833 23.522 9.06447 23.5225 7.8451 23.522C7.42682 23.522 7.2832 23.3773 7.2832 22.9557C7.2832 19.0879 7.2832 15.2196 7.2832 11.3518C7.2832 10.9723 7.40115 10.8385 7.78886 10.7664C9.03935 10.5333 10.2893 10.3001 11.5392 10.0653C11.9657 9.98502 12.1618 10.1396 12.1618 10.5731C12.1634 12.6504 12.1623 14.7276 12.1623 16.8043ZM9.73176 13.7474C9.93544 13.7474 10.1397 13.754 10.3428 13.7458C10.6033 13.7354 10.7644 13.5836 10.7802 13.328C10.7917 13.1385 10.7917 12.9474 10.7797 12.7579C10.7638 12.5106 10.6093 12.3533 10.3597 12.3462C9.94582 12.3353 9.53081 12.3353 9.11689 12.3457C8.85478 12.3522 8.70516 12.51 8.69205 12.7716C8.68277 12.948 8.68386 13.1249 8.69096 13.3013C8.70243 13.5836 8.8586 13.7376 9.14092 13.7463C9.3375 13.7529 9.53463 13.7474 9.73176 13.7474ZM9.74541 15.1481C9.54173 15.1481 9.33805 15.1442 9.13436 15.1492C8.86352 15.1557 8.7057 15.3064 8.69205 15.5784C8.68331 15.7613 8.68277 15.9453 8.69314 16.1283C8.70789 16.3925 8.85806 16.54 9.12344 16.5449C9.53081 16.552 9.93817 16.552 10.3461 16.5449C10.6049 16.5405 10.7649 16.386 10.7808 16.1288C10.7917 15.9459 10.7911 15.7618 10.7813 15.5789C10.7671 15.3113 10.6027 15.1557 10.3363 15.1492C10.1397 15.1442 9.94254 15.1481 9.74541 15.1481Z" fill="#003556"/>
<circle cx="15.6583" cy="15.1944" r="14.7419" stroke="#003556" stroke-width="0.832773"/>
</svg>
