<svg width="12" height="16" viewBox="0 0 12 16" fill="none" xmlns="http://www.w3.org/2000/svg">
<path d="M5.95312 7.42285C5.45584 7.42285 4.97893 7.22531 4.6273 6.87368C4.27567 6.52205 4.07812 6.04513 4.07812 5.54785C4.07812 5.05057 4.27567 4.57366 4.6273 4.22203C4.97893 3.8704 5.45584 3.67285 5.95312 3.67285C6.45041 3.67285 6.92732 3.8704 7.27895 4.22203C7.63058 4.57366 7.82812 5.05057 7.82812 5.54785C7.82812 5.79408 7.77963 6.0379 7.6854 6.26538C7.59117 6.49287 7.45306 6.69957 7.27895 6.87368C7.10484 7.04779 6.89814 7.1859 6.67066 7.28013C6.44317 7.37435 6.19935 7.42285 5.95312 7.42285ZM5.95312 0.297852C4.56074 0.297852 3.22538 0.850975 2.24081 1.83554C1.25625 2.82011 0.703125 4.15547 0.703125 5.54785C0.703125 9.48535 5.95312 15.2979 5.95312 15.2979C5.95312 15.2979 11.2031 9.48535 11.2031 5.54785C11.2031 4.15547 10.65 2.82011 9.66544 1.83554C8.68087 0.850975 7.34551 0.297852 5.95312 0.297852Z" fill="#8F9098"/>
</svg>
