<svg width="13" height="16" viewBox="0 0 13 16" fill="none" xmlns="http://www.w3.org/2000/svg">
<path d="M6.17413 15.7839C4.45668 15.7839 2.73883 15.7753 1.02138 15.7895C0.547747 15.7934 0.166397 15.4677 0.169946 14.9361C0.184144 12.7513 0.175862 10.5665 0.175862 8.38174C0.175862 7.82647 0.465719 7.53741 1.02217 7.53662C1.1945 7.53622 1.36684 7.52991 1.53878 7.53898C1.65315 7.5449 1.67839 7.50152 1.67799 7.39465C1.67523 6.64181 1.66537 5.88857 1.68273 5.13613C1.7336 2.89496 3.50902 1.01069 5.74664 0.808379C8.13964 0.592268 10.2696 2.25451 10.6237 4.62148C10.662 4.87821 10.6679 5.14086 10.6703 5.40114C10.6766 6.06051 10.675 6.71989 10.6699 7.37927C10.6691 7.49758 10.6959 7.54608 10.8237 7.53938C11.0201 7.52912 11.2173 7.53307 11.414 7.5378C11.864 7.54845 12.1708 7.85684 12.1712 8.3076C12.1732 10.5417 12.1732 12.7753 12.1712 15.0094C12.1708 15.4692 11.8502 15.7828 11.3856 15.7832C9.64887 15.7843 7.91131 15.7836 6.17413 15.7839ZM6.16349 7.53662C7.11311 7.53662 8.06274 7.53425 9.01237 7.53938C9.13935 7.54017 9.18076 7.51098 9.17918 7.3769C9.17209 6.6982 9.18116 6.01911 9.17287 5.34001C9.17011 5.11996 9.15473 4.89556 9.10859 4.68103C8.7726 3.11028 7.35289 2.11491 5.75019 2.31682C4.39752 2.48758 3.26452 3.66476 3.19353 5.02452C3.15173 5.82429 3.17776 6.62761 3.16948 7.42935C3.16829 7.54687 3.2381 7.53622 3.31381 7.53622C4.26423 7.53622 5.21386 7.53662 6.16349 7.53662Z" fill="#8F9098"/>
</svg>
