<svg width="176" height="18" viewBox="0 0 176 18" fill="none" xmlns="http://www.w3.org/2000/svg">
<path d="M0.6875 9H68.3344" stroke="#003556"/>
<path d="M108.334 9H175.981" stroke="#003556"/>
<path d="M87.6865 13.108C87.0705 13.108 86.5105 12.968 86.0065 12.688C85.5105 12.408 85.1185 12.012 84.8305 11.5C84.5505 10.98 84.4105 10.38 84.4105 9.7C84.4105 9.028 84.5545 8.436 84.8425 7.924C85.1385 7.404 85.5385 7.008 86.0425 6.736C86.5465 6.456 87.1105 6.316 87.7345 6.316C88.3585 6.316 88.9225 6.456 89.4265 6.736C89.9305 7.008 90.3265 7.4 90.6145 7.912C90.9105 8.424 91.0585 9.02 91.0585 9.7C91.0585 10.38 90.9065 10.98 90.6025 11.5C90.3065 12.012 89.9025 12.408 89.3905 12.688C88.8785 12.968 88.3105 13.108 87.6865 13.108ZM87.6865 12.148C88.0785 12.148 88.4465 12.056 88.7905 11.872C89.1345 11.688 89.4105 11.412 89.6185 11.044C89.8345 10.676 89.9425 10.228 89.9425 9.7C89.9425 9.172 89.8385 8.724 89.6305 8.356C89.4225 7.988 89.1505 7.716 88.8145 7.54C88.4785 7.356 88.1145 7.264 87.7225 7.264C87.3225 7.264 86.9545 7.356 86.6185 7.54C86.2905 7.716 86.0265 7.988 85.8265 8.356C85.6265 8.724 85.5265 9.172 85.5265 9.7C85.5265 10.236 85.6225 10.688 85.8145 11.056C86.0145 11.424 86.2785 11.7 86.6065 11.884C86.9345 12.06 87.2945 12.148 87.6865 12.148ZM93.5863 7.492C93.7783 7.116 94.0503 6.824 94.4023 6.616C94.7623 6.408 95.1983 6.304 95.7103 6.304V7.432H95.4223C94.1983 7.432 93.5863 8.096 93.5863 9.424V13H92.4943V6.424H93.5863V7.492Z" fill="#003556"/>
</svg>
