<svg width="20" height="20" viewBox="0 0 19 19" fill="none" xmlns="http://www.w3.org/2000/svg">
<path d="M7.57676 11.7682C7.57676 11.8584 7.57676 11.9274 7.57676 11.9965C7.57676 13.3739 7.57676 14.7509 7.57676 16.1283C7.57676 16.4671 7.4889 16.5558 7.15206 16.5558C6.38441 16.5563 5.6163 16.5563 4.84865 16.5558C4.50852 16.5558 4.4202 16.4685 4.4202 16.1316C4.41973 14.7542 4.4202 13.3772 4.4202 11.9998C4.4202 11.9302 4.4202 11.8612 4.4202 11.7672C4.30275 11.7672 4.1994 11.7696 4.09604 11.7668C3.57504 11.7541 3.14752 11.3529 3.14424 10.8314C3.13437 9.36046 3.1339 7.88953 3.14471 6.4186C3.14799 5.86471 3.59195 5.45928 4.16792 5.45411C4.89469 5.448 5.62147 5.45223 6.34824 5.45223C6.8232 5.45223 7.2977 5.45082 7.77266 5.4527C8.44259 5.45552 8.85883 5.86753 8.86024 6.5384C8.86306 7.92758 8.86259 9.3163 8.86024 10.7055C8.8593 11.3665 8.45621 11.7658 7.79803 11.7677C7.73461 11.7682 7.67071 11.7682 7.57676 11.7682Z" fill="#303030"/>
<path d="M11.4873 16.0156C11.2035 16.0179 10.9625 15.962 10.7689 15.7741C10.6008 15.6111 10.5087 15.41 10.5077 15.1784C10.504 14.2346 10.5068 13.2912 10.5082 12.3474C10.5082 12.3362 10.5143 12.3253 10.5303 12.269C10.9954 12.1764 11.4779 12.0566 11.9679 11.9876C13.2607 11.8062 14.5386 11.9011 15.7986 12.2478C15.9325 12.2845 15.971 12.3394 15.97 12.4743C15.9639 13.3298 15.9677 14.1857 15.9668 15.0417C15.9663 15.659 15.6745 15.9696 15.0591 16.0132C15.0366 16.0147 15.015 16.0217 14.9844 16.0278C14.9623 16.2519 15.0258 16.5361 14.6725 16.5507C14.4709 16.5591 14.4033 16.4379 14.3624 16.0245C13.6164 16.0245 12.8689 16.0245 12.1055 16.0245C12.0745 16.2425 12.1487 16.5591 11.7842 16.5465C11.4548 16.5357 11.4981 16.2533 11.4873 16.0156Z" fill="#303030"/>
<path d="M15.9485 11.6709C14.1328 11.1805 12.3288 11.1809 10.5215 11.6756C10.5215 11.1401 10.4947 10.6303 10.5299 10.1244C10.5595 9.70015 10.9194 9.41499 11.3478 9.40653C11.5921 9.40183 11.8364 9.40559 12.091 9.40559C12.091 8.69197 12.091 7.99808 12.091 7.28916C12.0117 7.28305 11.937 7.28117 11.8637 7.27131C11.7124 7.25064 11.6048 7.13319 11.5992 6.98896C11.5935 6.84661 11.6941 6.71977 11.8439 6.6897C11.9064 6.67702 11.9717 6.67655 12.0361 6.67655C12.8385 6.67561 13.6414 6.67561 14.4438 6.67655C14.5138 6.67655 14.5861 6.67749 14.6524 6.69534C14.8022 6.7348 14.8774 6.84098 14.8699 6.99413C14.8624 7.14775 14.7764 7.24359 14.6232 7.26943C14.5495 7.28211 14.4734 7.28164 14.3855 7.28775C14.3855 7.98775 14.3855 8.68163 14.3855 9.40606C14.6303 9.40606 14.8793 9.4023 15.1283 9.407C15.4538 9.41358 15.6991 9.56297 15.8597 9.84485C15.8997 9.91485 15.9434 9.99612 15.9443 10.0727C15.9523 10.597 15.9485 11.1222 15.9485 11.6709ZM12.7093 9.38962C13.0673 9.38962 13.4145 9.38962 13.7602 9.38962C13.7602 8.6821 13.7602 7.98775 13.7602 7.28822C13.4055 7.28822 13.0626 7.28822 12.7093 7.28822C12.7093 7.99338 12.7093 8.68727 12.7093 9.38962Z" fill="#303030"/>
<path d="M6.00585 1.55623C6.98725 1.56046 7.78497 2.36099 7.78027 3.33582C7.77557 4.31252 6.97316 5.11211 5.99833 5.11258C5.01881 5.11305 4.20231 4.29185 4.21499 3.31937C4.22767 2.33703 5.02492 1.552 6.00585 1.55623Z" fill="#303030"/>
</svg>
