<svg width="16" height="16" viewBox="0 0 16 16" fill="none" xmlns="http://www.w3.org/2000/svg">
<path d="M9.84502 5.36709C10.8257 4.38546 11.7984 3.41181 12.7799 2.42934C12.7282 2.42682 12.6736 2.42219 12.6194 2.42219C11.8749 2.42177 11.1303 2.42513 10.3862 2.42051C9.88116 2.41757 9.52443 2.05996 9.53998 1.58596C9.55258 1.19515 9.83704 0.876205 10.2236 0.821576C10.2858 0.812752 10.3488 0.807289 10.4114 0.807289C11.8476 0.806869 13.2841 0.806448 14.7207 0.80855C14.8194 0.80855 14.9211 0.817374 15.0161 0.842587C15.3526 0.932514 15.5653 1.21448 15.5657 1.57713C15.5678 3.05546 15.5678 4.5338 15.5648 6.01213C15.564 6.47479 15.2896 6.79794 14.8631 6.85971C14.4846 6.91476 14.1089 6.68154 13.9967 6.31007C13.964 6.20165 13.9539 6.08315 13.953 5.96927C13.9493 5.23514 13.9509 4.50144 13.9509 3.76732C13.9509 3.71101 13.9509 3.65428 13.9509 3.61226C12.9804 4.58506 12.0098 5.55829 11.0265 6.54413C12.1266 8.07583 12.4581 9.79705 11.9253 11.6586C11.5371 13.0155 10.7307 14.0829 9.55258 14.8599C7.18701 16.4206 3.99832 16.0155 2.07057 13.9169C0.178951 11.8574 0.0541595 8.66288 1.79451 6.43025C2.76511 5.18514 4.05168 4.46068 5.61556 4.26528C7.1702 4.07114 8.58702 4.45984 9.84502 5.36709Z" fill="white"/>
</svg>
