<svg width="16" height="13" viewBox="0 0 16 13" fill="none" xmlns="http://www.w3.org/2000/svg">
<path d="M6.42828 5.37348C6.83645 5.73167 7.10884 6.16971 7.27154 6.6821C7.29152 6.74501 7.27888 6.82423 7.26563 6.89244C7.06276 7.93819 7.28724 8.87951 7.91336 9.71768C9.02412 11.2047 11.213 11.4186 12.5762 10.178C14.0244 8.86003 14.1398 6.6641 12.7909 5.23156C11.8587 4.24152 10.7123 3.96997 9.43209 4.38217C9.21108 4.45334 9.00271 4.56603 8.79455 4.65711C8.51462 4.32688 8.22918 3.99009 7.94436 3.65414C9.29203 2.59844 11.8595 2.39403 13.6451 4.19301C15.3133 5.87359 15.5245 8.65012 13.9989 10.5986C12.4708 12.5501 9.70734 12.9162 7.76698 11.4311C5.81764 9.93861 5.41579 7.24999 6.42828 5.37348Z" fill="#8F9098"/>
<path d="M7.10265 11.5671C5.04506 12.9996 1.99067 12.4616 0.606916 9.89645C-0.646764 7.57236 0.203023 4.63083 2.48489 3.39084C2.78847 3.72594 3.09552 4.06506 3.41745 4.42049C2.34115 4.9117 1.64917 5.72848 1.40166 6.91403C1.231 7.73081 1.36312 8.51073 1.74561 9.2451C2.45675 10.6103 4.32963 11.6137 6.23696 10.5469C6.52668 10.8884 6.81456 11.2277 7.10265 11.5671Z" fill="#8F9098"/>
<path d="M4.61217 0.847522C5.07865 0.847522 5.54534 0.851758 6.01183 0.845403C6.21327 0.84265 6.35395 0.925471 6.45793 1.1017C6.61553 1.36923 6.78271 1.63062 6.94236 1.89666C7.08161 2.12903 7.06835 2.31119 6.88853 2.51052C6.23264 3.23811 5.57531 3.96423 4.91494 4.68738C4.72186 4.89878 4.48066 4.89941 4.28738 4.68738C3.62394 3.95978 2.96336 3.22922 2.30523 2.49632C2.13763 2.3095 2.12601 2.12882 2.2567 1.90916C2.42368 1.62829 2.59698 1.35144 2.76723 1.07269C2.86346 0.91488 2.99925 0.844132 3.1805 0.845615C3.65799 0.850487 4.13508 0.847522 4.61217 0.847522Z" fill="#8F9098"/>
<path d="M6.71408 3.39587C8.79472 4.49395 9.88794 7.35859 8.65689 9.78223C8.37859 9.55092 8.18572 9.25586 8.00039 8.94808C7.80201 8.61892 7.80771 8.28212 7.84788 7.9108C7.99998 6.50305 7.24418 5.13618 6.00987 4.53101C5.94381 4.49861 5.87796 4.46599 5.78906 4.42214C6.10488 4.07179 6.4103 3.73288 6.71408 3.39587Z" fill="#8F9098"/>
</svg>
