<svg width="16" height="16" viewBox="0 0 16 16" fill="none" xmlns="http://www.w3.org/2000/svg">
<path d="M0.5 10.9355L1.625 10.9355L2.75 9.43555L6.875 9.43555L5 15.8105L6.5 15.8105L10.25 9.43555L14.375 9.43555C14.6875 9.43555 14.953 9.32605 15.1715 9.10705C15.3905 8.88855 15.5 8.62305 15.5 8.31055C15.5 7.99805 15.3905 7.73255 15.1715 7.51405C14.953 7.29505 14.6875 7.18555 14.375 7.18555L10.25 7.18555L6.5 0.810547L5 0.810547L6.875 7.18555L2.75 7.18555L1.625 5.68555L0.5 5.68555L1.25 8.31055L0.5 10.9355Z" fill="white"/>
</svg>
