<svg width="16" height="16" viewBox="0 0 16 16" fill="none" xmlns="http://www.w3.org/2000/svg">
<path d="M15.9687 10.9355L14.8437 10.9355L13.7187 9.43555L9.59375 9.43555L11.4688 15.8105L9.96875 15.8105L6.21875 9.43555L2.09375 9.43555C1.78125 9.43555 1.51575 9.32605 1.29725 9.10705C1.07825 8.88855 0.96875 8.62305 0.96875 8.31055C0.96875 7.99805 1.07825 7.73255 1.29725 7.51405C1.51575 7.29505 1.78125 7.18555 2.09375 7.18555L6.21875 7.18555L9.96875 0.810547L11.4687 0.810547L9.59375 7.18555L13.7187 7.18555L14.8437 5.68555L15.9687 5.68555L15.2187 8.31055L15.9687 10.9355Z" fill="white"/>
</svg>
