<svg width="20" height="20" viewBox="0 0 19 19" fill="none" xmlns="http://www.w3.org/2000/svg">
<path d="M5.97181 16.5562C5.74156 16.517 5.50557 16.4979 5.28191 16.4347C4.25221 16.1445 3.5884 15.3229 3.53593 14.2257C3.48001 13.0553 3.6056 11.9028 4.03973 10.8065C4.31558 10.1099 4.71702 9.50583 5.38886 9.13571C5.81038 8.90351 6.26314 8.78843 6.73856 8.80366C6.8871 8.80834 7.04251 8.88301 7.17785 8.95768C7.39148 9.07598 7.58962 9.22326 7.79665 9.35473C9.02993 10.1371 10.2638 10.1363 11.4959 9.3521C11.6298 9.26689 11.7703 9.18929 11.8919 9.08827C12.2779 8.76823 12.7077 8.75652 13.1671 8.86017C14.0299 9.0546 14.6312 9.58166 15.0427 10.3614C15.5043 11.2361 15.6792 12.1874 15.7369 13.1631C15.7641 13.6234 15.7779 14.096 15.7068 14.5481C15.5344 15.6423 14.6988 16.3943 13.5957 16.5187C13.5011 16.5295 13.4068 16.5433 13.3124 16.5556C10.8657 16.5562 8.41859 16.5562 5.97181 16.5562Z" fill="#303030"/>
<path d="M9.55114 8.77352C7.58781 8.77235 6.01072 7.15953 6.0176 5.15961C6.02448 3.14944 7.59899 1.54834 9.56089 1.55624C11.5231 1.56415 13.0844 3.16028 13.0878 5.16195C13.091 7.16333 11.5133 8.77469 9.55114 8.77352Z" fill="#303030"/>
</svg>
