<svg width="16" height="14" viewBox="0 0 16 14" fill="none" xmlns="http://www.w3.org/2000/svg">
<path d="M11.9599 11.7433C11.3761 11.5654 11.0054 11.2227 10.8743 10.6708C10.8445 10.5453 10.843 10.4118 10.8424 10.2823C10.8398 9.49929 10.8654 8.71527 10.8341 7.93374C10.8028 7.14873 11.2257 6.52759 12.0956 6.34429C12.1285 5.98017 12.0648 5.62104 11.9703 5.26788C11.4628 3.3716 9.62739 2.0287 7.60246 2.06606C5.49295 2.10491 3.71344 3.48965 3.28109 5.43973C3.2247 5.69327 3.21791 5.95676 3.18711 6.21528C3.17614 6.30793 3.20225 6.35475 3.31295 6.38115C4.02151 6.5515 4.44446 7.05957 4.44968 7.75542C4.45647 8.61913 4.45699 9.48285 4.44968 10.3466C4.44237 11.2402 3.71814 11.8543 2.78609 11.7697C1.46347 11.6496 0.417586 10.7575 0.188359 9.55209C-0.0455668 8.32525 0.594075 7.14674 1.80443 6.59384C1.93863 6.53257 1.93445 6.4469 1.9355 6.3403C1.95012 4.6587 2.60803 3.24358 3.96042 2.17066C5.62767 0.847199 7.54189 0.505499 9.57987 1.20783C11.633 1.91563 12.858 3.35865 13.2715 5.40885C13.3363 5.72963 13.3363 6.06286 13.354 6.39111C13.3592 6.49023 13.3864 6.54353 13.4835 6.58936C14.5743 7.10191 15.1581 7.9452 15.1393 9.1013C15.1215 10.233 14.5226 11.0464 13.4532 11.5435C13.3843 11.5754 13.3143 11.6546 13.2945 11.7243C12.9681 12.8819 12.0089 13.5937 10.7516 13.5987C10.1522 13.6012 9.55272 13.6042 8.95381 13.5972C8.45724 13.5912 8.15073 13.1514 8.35594 12.7469C8.47603 12.5103 8.68437 12.4057 8.95694 12.4062C9.56943 12.4072 10.1814 12.4107 10.7939 12.4047C11.3025 12.3998 11.6899 12.1881 11.9599 11.7433Z" fill="#303030"/>
</svg>
