<svg width="99" height="8" viewBox="0 0 99 8" fill="none" xmlns="http://www.w3.org/2000/svg">
<path fill-rule="evenodd" clip-rule="evenodd" d="M0.925781 4.02057C0.925781 3.74443 1.14964 3.52057 1.42578 3.52057H2.43469V4.52057H1.42578C1.14964 4.52057 0.925781 4.29671 0.925781 4.02057ZM6.47034 4.52057H4.45251V3.52057H6.47034V4.52057ZM10.506 4.52057H8.48816V3.52057H10.506V4.52057ZM14.5416 4.52057H12.5238V3.52057H14.5416V4.52057ZM18.5773 4.52057H16.5594V3.52057H18.5773V4.52057ZM22.6129 4.52057H20.5951V3.52057H22.6129V4.52057ZM26.6486 4.52057H24.6307V3.52057H26.6486V4.52057ZM30.6842 4.52057H28.6664V3.52057H30.6842V4.52057ZM34.7198 4.52057H32.702V3.52057H34.7198V4.52057ZM38.7555 4.52057H36.7377V3.52057H38.7555V4.52057ZM42.7911 4.52057H40.7733V3.52057H42.7911V4.52057ZM46.8268 4.52057H44.809V3.52057H46.8268V4.52057ZM50.8624 4.52057H48.8446V3.52057H50.8624V4.52057ZM54.8981 4.52057H52.8802V3.52057H54.8981V4.52057ZM58.9337 4.52057H56.9159V3.52057H58.9337V4.52057ZM62.9694 4.52057H60.9515V3.52057H62.9694V4.52057ZM67.005 4.52057H64.9872V3.52057H67.005V4.52057ZM71.0406 4.52057H69.0228V3.52057H71.0406V4.52057ZM75.0763 4.52057H73.0585V3.52057H75.0763V4.52057ZM79.1119 4.52057H77.0941V3.52057H79.1119V4.52057ZM83.1476 4.52057H81.1298V3.52057H83.1476V4.52057ZM87.1832 4.52057H85.1654V3.52057H87.1832V4.52057ZM91.2189 4.52057H89.201V3.52057H91.2189V4.52057ZM95.2545 4.52057H93.2367V3.52057H95.2545V4.52057ZM98.2812 4.52057H97.2723V3.52057H98.2812C98.5574 3.52057 98.7812 3.74443 98.7812 4.02057C98.7812 4.29671 98.5574 4.52057 98.2812 4.52057Z" fill="#003556"/>
<path d="M50.9591 4.02058C50.9591 5.72312 49.579 7.1033 47.8764 7.1033C46.1739 7.1033 44.7937 5.72312 44.7937 4.02058C44.7937 2.31805 46.1739 0.937866 47.8764 0.937866C49.579 0.937866 50.9591 2.31805 50.9591 4.02058Z" fill="#003556"/>
</svg>
