<svg width="19" height="19" viewBox="0 0 19 19" fill="none" xmlns="http://www.w3.org/2000/svg">
<path fill-rule="evenodd" clip-rule="evenodd" d="M10.7435 6.7082C10.4528 6.99908 10.2011 7.25096 10.0165 7.43568C8.88726 6.62128 7.61544 6.27235 6.21991 6.44663C4.81608 6.62203 3.66118 7.27235 2.78992 8.39003C1.22768 10.3942 1.3397 13.2617 3.03772 15.1105C4.76818 16.9943 7.63053 17.3579 9.754 15.9569C10.8116 15.2595 11.5354 14.3013 11.8839 13.0833C12.3621 11.4123 12.0645 9.8672 11.0771 8.49225C11.262 8.30686 11.5138 8.05459 11.8044 7.76356C11.8357 7.79468 11.8596 7.8185 11.8746 7.83351C11.9364 7.89534 11.9929 7.95317 12.0472 8.0088C12.1528 8.1169 12.2502 8.21667 12.363 8.32128C12.742 8.67289 13.3317 8.60175 13.5615 8.18213C13.7331 7.8683 13.6692 7.49634 13.3889 7.20613C13.2866 7.10008 13.177 6.99158 13.0681 6.88379C13.0165 6.83271 12.9651 6.78179 12.9147 6.73137C12.9054 6.72211 12.892 6.70867 12.8749 6.69157C13.0393 6.52693 13.2055 6.36054 13.3703 6.19553C14.1189 5.44601 14.8391 4.72487 15.2378 4.32527V4.46446C15.2378 4.61957 15.2377 4.77466 15.2377 4.92974C15.2374 5.43351 15.2371 5.93718 15.2397 6.44106C15.2405 6.54328 15.2495 6.64966 15.2789 6.74698C15.3796 7.08044 15.7168 7.28979 16.0567 7.24037C16.4395 7.18492 16.6858 6.89485 16.6865 6.47954C16.6892 5.1525 16.6892 3.82547 16.6873 2.49843C16.6869 2.1729 16.4961 1.91979 16.194 1.83906C16.1087 1.81643 16.0174 1.80851 15.9288 1.80851C14.6393 1.80662 13.3497 1.807 12.0605 1.80738C12.0043 1.80738 11.9478 1.81228 11.8919 1.8202C11.5449 1.86924 11.2896 2.15554 11.2783 2.50635C11.2643 2.93185 11.5846 3.25286 12.0379 3.2555C12.4912 3.25831 12.9446 3.25783 13.3981 3.25734C13.6129 3.25711 13.8277 3.25688 14.0426 3.25701C14.0769 3.25701 14.1113 3.25907 14.145 3.26108C14.159 3.26192 14.173 3.26275 14.1867 3.26342C13.7462 3.70434 12.9238 4.52702 12.1015 5.34963C12.0065 5.44464 11.9116 5.53965 11.8172 5.63407C11.5605 5.37741 11.346 5.16285 11.2914 5.10805C11.114 4.92965 10.9057 4.82969 10.6643 4.83425C10.3388 4.84069 10.1086 4.99513 9.99471 5.28914C9.87869 5.58901 9.94148 5.87987 10.1768 6.13556C10.2362 6.2 10.4683 6.43338 10.7435 6.7082Z" fill="#003556"/>
</svg>
