<svg width="17" height="11" viewBox="0 0 17 11" fill="none" xmlns="http://www.w3.org/2000/svg">
<path d="M2.09929 0.476499C1.83934 0.504285 1.49379 0.655564 1.28773 0.831543C1.10387 0.988997 0.916829 1.26995 0.840746 1.51693C0.780514 1.70835 0.777344 1.81023 0.777344 5.32053C0.777344 8.83084 0.780514 8.93272 0.840746 9.12413C1.02144 9.69838 1.52232 10.0997 2.14367 10.1677C2.50506 10.2078 15.0081 10.2078 15.3282 10.1677C15.9401 10.0905 16.4568 9.64898 16.6153 9.07165C16.6502 8.94815 16.6597 8.22572 16.6597 5.33288C16.6597 1.8411 16.6565 1.73922 16.5963 1.5478C16.4188 0.988997 15.902 0.556769 15.3124 0.473412C15.0461 0.436363 2.42581 0.439451 2.09929 0.476499ZM12.9855 1.47988C13.2645 1.56015 13.5054 1.70217 13.7051 1.90594C14.3106 2.51723 14.3043 3.40638 13.6925 4.0115C13.1757 4.52091 12.38 4.61662 11.7745 4.23996C11.15 3.84787 10.8742 3.09765 11.1183 2.45239C11.4036 1.70217 12.2405 1.26686 12.9855 1.47988ZM7.9672 3.11926L7.95769 3.45269L5.51035 3.46195L3.05984 3.46813V3.12852V2.78892H5.51669H7.97671L7.9672 3.11926ZM13.5847 4.94388C14.3518 5.20321 14.9098 5.74658 15.1792 6.50607L15.2775 6.78702L15.2902 7.60207C15.2997 8.2288 15.2934 8.43566 15.2617 8.49123C15.1697 8.65794 15.2426 8.65486 12.5892 8.65486H10.1292L10.0278 8.56532L9.92317 8.47579L9.91366 7.8151C9.90098 7.05253 9.93268 6.77467 10.0785 6.4011C10.3226 5.76202 10.8774 5.21865 11.5336 4.97475C11.8665 4.85126 12.0535 4.82965 12.6812 4.83582C13.2677 4.84508 13.2898 4.84817 13.5847 4.94388ZM7.97354 5.25879V5.59839H5.51669H3.05984V5.25879V4.91918H5.51669H7.97354V5.25879ZM7.97354 7.38905V7.72866H5.51669H3.05984V7.38905V7.04944H5.51669H7.97354V7.38905Z" fill="#8F9098"/>
</svg>
