<svg width="13" height="16" viewBox="0 0 13 16" fill="none" xmlns="http://www.w3.org/2000/svg">
<path d="M2.38281 0.948242C1.98499 0.948242 1.60346 1.10628 1.32215 1.38758C1.04085 1.66889 0.882813 2.05042 0.882812 2.44824V14.4482C0.882813 14.8461 1.04085 15.2276 1.32215 15.5089C1.60346 15.7902 1.98499 15.9482 2.38281 15.9482H11.3828C11.7806 15.9482 12.1622 15.7902 12.4435 15.5089C12.7248 15.2276 12.8828 14.8461 12.8828 14.4482V2.44824C12.8828 2.05042 12.7248 1.66889 12.4435 1.38758C12.1622 1.10628 11.7806 0.948242 11.3828 0.948242H2.38281ZM6.88281 4.53785C7.87737 4.53785 8.8312 4.93294 9.53446 5.6362C10.2377 6.33946 10.6328 7.29329 10.6328 8.28785C10.6328 9.28242 10.2377 10.2362 9.53446 10.9395C8.8312 11.6428 7.87737 12.0379 6.88281 12.0379C5.88825 12.0379 4.93442 11.6428 4.23116 10.9395C3.5279 10.2362 3.13281 9.28242 3.13281 8.28785C3.13281 7.29329 3.5279 6.33946 4.23116 5.6362C4.93442 4.93294 5.88825 4.53785 6.88281 4.53785ZM6.88281 5.28785C6.57531 5.75285 6.32031 6.25535 6.16281 6.78785H7.60281C7.44141 6.25379 7.19855 5.74784 6.88281 5.28785ZM5.90781 5.45285C5.21781 5.68535 4.63281 6.16535 4.28781 6.78785H5.38281C5.51781 6.32285 5.68281 5.87285 5.90781 5.45285ZM7.85031 5.45285C8.07531 5.87285 8.24781 6.32285 8.38281 6.78785H9.47781C9.13281 6.16535 8.54031 5.69285 7.85031 5.45285ZM3.98031 7.53785C3.92031 7.77785 3.88281 8.02535 3.88281 8.28785C3.88281 8.55035 3.92031 8.79785 3.98031 9.03785H5.24781C5.21781 8.79035 5.19531 8.54285 5.19531 8.28785C5.19531 8.03285 5.21781 7.78535 5.24781 7.53785H3.98031ZM6.00531 7.53785C5.96781 7.77785 5.94531 8.03285 5.94531 8.28785C5.94531 8.54285 5.96781 8.79035 6.00531 9.03785H7.76031C7.79031 8.79035 7.82031 8.54285 7.82031 8.28785C7.82031 8.03285 7.79031 7.77785 7.76031 7.53785H6.00531ZM8.51781 7.53785C8.54781 7.78535 8.57031 8.03285 8.57031 8.28785C8.57031 8.54285 8.54781 8.79035 8.51781 9.03785H9.78531C9.84531 8.79785 9.88281 8.55035 9.88281 8.28785C9.88281 8.02535 9.84531 7.77785 9.78531 7.53785H8.51781ZM4.28781 9.78785C4.63281 10.4104 5.21781 10.8829 5.90781 11.1229C5.68281 10.7029 5.51781 10.2604 5.38281 9.78785H4.28781ZM6.16281 9.78785C6.32031 10.3279 6.57531 10.8229 6.88281 11.2879C7.19781 10.8229 7.44531 10.3279 7.60281 9.78785H6.16281ZM8.38281 9.78785C8.24781 10.2604 8.07531 10.7029 7.85031 11.1229C8.54031 10.8829 9.13281 10.4104 9.47781 9.78785H8.38281Z" fill="#8F9098"/>
</svg>
