<svg width="16" height="11" viewBox="0 0 16 11" fill="none" xmlns="http://www.w3.org/2000/svg">
<path d="M15.1407 3.75784C15.1407 5.41953 15.1407 7.08122 15.1407 8.74328C15.1329 8.75956 15.1208 8.7751 15.1173 8.79249C14.9607 9.57949 14.3162 10.099 13.4759 10.0994C9.58463 10.1016 5.69335 10.1019 1.80246 10.099C0.860065 10.0982 0.145052 9.41891 0.142704 8.5272C0.138791 6.98095 0.14153 5.4347 0.141921 3.88808C0.141921 3.71307 0.181057 3.67496 0.362648 3.67496C5.2155 3.67459 10.0687 3.67422 14.9216 3.67829C14.9948 3.67829 15.0676 3.73009 15.1407 3.75784ZM3.89153 7.22367C3.93575 6.70345 3.70563 6.54767 3.19609 6.5462C2.64701 6.54471 2.47638 6.71677 2.47599 7.22219C2.47559 7.71578 2.65092 7.89301 3.18787 7.89338C3.72599 7.89375 3.9338 7.71726 3.89153 7.22367Z" fill="#303030"/>
<path d="M15.1424 2.70554C15.0696 2.73329 14.9964 2.78509 14.9236 2.78509C10.0708 2.78879 5.21755 2.78842 0.364701 2.78842C0.183893 2.78842 0.138496 2.74957 0.145149 2.57493C0.158846 2.2212 0.133799 1.85823 0.208549 1.5156C0.354134 0.844783 1.00653 0.373026 1.73133 0.352676C1.79473 0.350826 1.85813 0.351196 1.92153 0.351196C5.72984 0.351196 9.53815 0.351196 13.3461 0.351196C14.3268 0.351196 14.9017 0.782252 15.126 1.68617C15.1279 1.69431 15.1365 1.70097 15.1424 1.70837C15.1424 2.04064 15.1424 2.3729 15.1424 2.70554Z" fill="#303030"/>
</svg>
