<svg width="19" height="19" viewBox="0 0 19 19" fill="none" xmlns="http://www.w3.org/2000/svg">
<path d="M3.20264 17.1199C2.94287 17 2.87373 16.7937 2.8792 16.5164C2.93115 13.8301 4.97957 11.4422 7.62485 11.009C7.95493 10.9551 8.29242 10.9321 8.62719 10.9247C9.22132 10.9118 9.81624 10.9032 10.41 10.9251C12.6639 11.0083 14.3138 12.0774 15.3939 14.0375C15.8189 14.809 16.0037 15.6516 16.0408 16.5305C16.0525 16.8043 15.9697 17.0023 15.7177 17.1195C11.5455 17.1199 7.37407 17.1199 3.20264 17.1199Z" fill="#8F9098"/>
<path d="M9.457 10.0437C7.28007 10.0426 5.50704 8.26407 5.51173 6.08714C5.5172 3.91529 7.28944 2.14812 9.46129 2.14929C11.6394 2.15046 13.4116 3.92779 13.4066 6.1055C13.4011 8.27774 11.6288 10.0449 9.457 10.0437Z" fill="#8F9098"/>
</svg>
