<svg width="14" height="16" viewBox="0 0 14 16" fill="none" xmlns="http://www.w3.org/2000/svg">
<path d="M1.07178 15.52C0.812013 15.4001 0.742873 15.1938 0.748342 14.9165C0.800295 12.2302 2.84871 9.8423 5.49399 9.4091C5.82407 9.35519 6.16157 9.33215 6.49633 9.32472C7.09046 9.31183 7.68538 9.30324 8.27912 9.32512C10.533 9.40832 12.183 10.4774 13.2631 12.4376C13.688 13.2091 13.8728 14.0516 13.9099 14.9305C13.9216 15.2043 13.8388 15.4024 13.5869 15.5196C9.41465 15.52 5.24322 15.52 1.07178 15.52Z" fill="#003556"/>
<path d="M7.32712 8.44382C5.15019 8.44265 3.37716 6.66416 3.38185 4.48723C3.38731 2.31537 5.15956 0.548206 7.33141 0.549378C9.50951 0.55055 11.2818 2.32787 11.2767 4.50559C11.2712 6.67783 9.49897 8.445 7.32712 8.44382Z" fill="#003556"/>
</svg>
