<svg width="12" height="15" viewBox="0 0 12 15" fill="none" xmlns="http://www.w3.org/2000/svg">
<path d="M3.07018 0.656707C3.464 0.537967 3.88662 0.557693 4.26767 0.712603C4.64872 0.867512 4.96522 1.14826 5.16448 1.50811L5.23108 1.64221L5.82688 2.96611C6.0077 3.36794 6.06639 3.81407 5.99566 4.249C5.92494 4.68393 5.72791 5.08847 5.42908 5.41231L5.30938 5.53111L4.37068 6.40681C4.20148 6.56701 4.32838 7.18711 4.94038 8.24731C5.49118 9.20131 5.93938 9.64681 6.15988 9.67111H6.19858L6.24628 9.66211L8.09128 9.09781C8.33924 9.02176 8.60386 9.01875 8.85348 9.08914C9.10311 9.15953 9.32717 9.30033 9.49888 9.49471L9.58078 9.59821L10.8021 11.2902C11.0414 11.6219 11.1607 12.0251 11.1403 12.4336C11.1198 12.8421 10.9609 13.2314 10.6896 13.5375L10.5798 13.6509L10.092 14.1135C9.65395 14.5283 9.106 14.8087 8.51329 14.9211C7.92058 15.0336 7.30803 14.9735 6.74848 14.748C5.00698 14.046 3.42478 12.4422 1.98748 9.95281C0.547479 7.45711 -0.0510204 5.28181 0.21628 3.41881C0.297166 2.85565 0.529066 2.32491 0.887351 1.88295C1.24564 1.441 1.71693 1.10433 2.25118 0.908707L2.42488 0.851107L3.07018 0.656707Z" fill="#8F9098"/>
</svg>
