<svg width="187" height="56" viewBox="0 0 187 56" fill="none" xmlns="http://www.w3.org/2000/svg">
<rect x="0.692593" y="1.26339" width="185.615" height="54.0222" rx="6.23333" fill="black"/>
<path d="M94.381 30.7002C91.123 30.7002 88.4676 33.1783 88.4676 36.5914C88.4676 39.9837 91.123 42.4826 94.381 42.4826C97.6403 42.4826 100.296 39.9837 100.296 36.5914C100.294 33.1783 97.6389 30.7002 94.381 30.7002ZM94.381 40.1638C92.5955 40.1638 91.0565 38.6914 91.0565 36.5928C91.0565 34.4721 92.5969 33.0218 94.381 33.0218C96.1665 33.0218 97.7054 34.4721 97.7054 36.5928C97.7054 38.69 96.1665 40.1638 94.381 40.1638ZM81.4794 30.7002C78.2214 30.7002 75.566 33.1783 75.566 36.5914C75.566 39.9837 78.2214 42.4826 81.4794 42.4826C84.7387 42.4826 87.3941 39.9837 87.3941 36.5914C87.3941 33.1783 84.7387 30.7002 81.4794 30.7002ZM81.4794 40.1638C79.6939 40.1638 78.1549 38.6914 78.1549 36.5928C78.1549 34.4721 79.6952 33.0218 81.4794 33.0218C83.2649 33.0218 84.8038 34.4721 84.8038 36.5928C84.8052 38.69 83.2649 40.1638 81.4794 40.1638ZM66.1343 32.5093V35.0082H72.1155C71.9368 36.4141 71.4686 37.4405 70.7539 38.1539C69.884 39.0238 68.5223 39.9837 66.1343 39.9837C62.4525 39.9837 59.574 37.0153 59.574 33.3335C59.574 29.6517 62.4525 26.6832 66.1343 26.6832C68.1206 26.6832 69.5709 27.4644 70.6417 28.4687L72.405 26.7054C70.909 25.2772 68.924 24.1843 66.1343 24.1843C61.0908 24.1843 56.8508 28.29 56.8508 33.3335C56.8508 38.3769 61.0908 42.4826 66.1343 42.4826C68.8562 42.4826 70.9104 41.5892 72.5158 39.9159C74.167 38.2647 74.6809 35.9432 74.6809 34.069C74.6809 33.49 74.6365 32.9539 74.5465 32.5079H66.1343V32.5093ZM128.894 34.4499C128.404 33.134 126.908 30.7002 123.851 30.7002C120.816 30.7002 118.293 33.0883 118.293 36.5914C118.293 39.8937 120.794 42.4826 124.14 42.4826C126.84 42.4826 128.403 40.8315 129.051 39.8715L127.042 38.5321C126.373 39.5142 125.458 40.1611 124.14 40.1611C122.824 40.1611 121.887 39.5585 121.284 38.3755L129.162 35.1176L128.894 34.4499ZM120.86 36.4141C120.794 34.1369 122.624 32.9775 123.941 32.9775C124.967 32.9775 125.837 33.4914 126.128 34.2269L120.86 36.4141ZM114.456 42.1266H117.044V24.8104H114.456V42.1266ZM110.215 32.0175H110.126C109.546 31.325 108.43 30.7002 107.025 30.7002C104.079 30.7002 101.379 33.2891 101.379 36.615C101.379 39.9173 104.079 42.484 107.025 42.484C108.431 42.484 109.546 41.8593 110.126 41.1459H110.215V41.9937C110.215 44.2473 109.01 45.4525 107.069 45.4525C105.485 45.4525 104.503 44.3152 104.101 43.3553L101.847 44.2931C102.494 45.8542 104.212 47.774 107.069 47.774C110.104 47.774 112.671 45.9885 112.671 41.6363V31.059H110.216V32.0175H110.215ZM107.248 40.1638C105.462 40.1638 103.968 38.6678 103.968 36.615C103.968 34.5386 105.462 33.0218 107.248 33.0218C109.01 33.0218 110.394 34.5386 110.394 36.615C110.394 38.6678 109.01 40.1638 107.248 40.1638ZM141.02 24.8104H134.827V42.1266H137.41V35.5664H141.019C143.883 35.5664 146.701 33.4928 146.701 30.1891C146.701 26.8854 143.885 24.8104 141.02 24.8104ZM141.087 33.1562H137.41V27.2207H141.087C143.019 27.2207 144.116 28.8205 144.116 30.1891C144.116 31.53 143.019 33.1562 141.087 33.1562ZM157.061 30.6698C155.189 30.6698 153.251 31.494 152.449 33.321L154.743 34.2782C155.234 33.321 156.148 33.008 157.105 33.008C158.442 33.008 159.8 33.81 159.823 35.2353V35.414C159.354 35.1467 158.352 34.7464 157.127 34.7464C154.655 34.7464 152.136 36.1052 152.136 38.6443C152.136 40.9617 154.164 42.4535 156.436 42.4535C158.173 42.4535 159.131 41.6737 159.733 40.7595H159.821V42.0962H162.317V35.457C162.319 32.3846 160.022 30.6698 157.061 30.6698ZM156.748 40.1597C155.903 40.1597 154.721 39.7358 154.721 38.6886C154.721 37.3519 156.192 36.8394 157.462 36.8394C158.597 36.8394 159.133 37.0846 159.823 37.4184C159.622 39.0238 158.241 40.1597 156.748 40.1597ZM171.407 31.0479L168.444 38.5556H168.355L165.28 31.0479H162.496L167.107 41.5407L164.478 47.3779H167.174L174.281 31.0479H171.407ZM148.128 42.1266H150.711V24.8104H148.128V42.1266Z" fill="white"/>
<path d="M65.6828 14.7592C65.6828 15.92 65.3393 16.8439 64.6508 17.5337C63.8696 18.3537 62.8501 18.7637 61.5979 18.7637C60.3983 18.7637 59.3774 18.3482 58.5394 17.5171C57.7 16.6846 57.2803 15.654 57.2803 14.424C57.2803 13.1925 57.7 12.1619 58.5394 11.3308C59.3774 10.4983 60.3983 10.0828 61.5979 10.0828C62.1935 10.0828 62.7628 10.1991 63.3031 10.4305C63.8447 10.6632 64.2782 10.9721 64.6024 11.3585L63.8724 12.0899C63.3224 11.432 62.5648 11.1037 61.5965 11.1037C60.7211 11.1037 59.9648 11.4112 59.3262 12.0262C58.6876 12.6412 58.369 13.4405 58.369 14.4226C58.369 15.4047 58.6876 16.2039 59.3262 16.8189C59.9648 17.434 60.7211 17.7415 61.5965 17.7415C62.5246 17.7415 63.2989 17.4326 63.9181 16.8134C64.3198 16.4103 64.5525 15.8493 64.6148 15.1304H61.5965V14.1317H65.6232C65.6648 14.3492 65.6828 14.5583 65.6828 14.7592Z" fill="white"/>
<path d="M72.0686 11.288H68.2843V13.9226H71.6974V14.9213H68.2843V17.5559H72.0686V18.5782H67.2163V10.2671H72.0686V11.288Z" fill="white"/>
<path d="M76.5717 18.5782H75.5037V11.288H73.1822V10.2671H78.8933V11.288H76.5717V18.5782Z" fill="white"/>
<path d="M83.0252 18.5782V10.2671H84.0932V18.5782H83.0252Z" fill="white"/>
<path d="M88.8294 18.5782H87.7614V11.288H85.4398V10.2671H91.151V11.288H88.8294V18.5782Z" fill="white"/>
<path d="M101.962 17.5047C101.145 18.3441 100.129 18.7638 98.9146 18.7638C97.6998 18.7638 96.6845 18.3441 95.8686 17.5047C95.0513 16.6652 94.6441 15.6374 94.6441 14.4226C94.6441 13.2078 95.0513 12.18 95.8686 11.3406C96.6845 10.5012 97.6998 10.0801 98.9146 10.0801C100.122 10.0801 101.136 10.5026 101.956 11.3461C102.777 12.1897 103.187 13.2148 103.187 14.4226C103.187 15.6374 102.778 16.6652 101.962 17.5047ZM96.6568 16.8079C97.2718 17.4313 98.0239 17.7415 98.9146 17.7415C99.8053 17.7415 100.559 17.4299 101.172 16.8079C101.787 16.1846 102.096 15.3895 102.096 14.4226C102.096 13.4558 101.787 12.6607 101.172 12.0373C100.559 11.414 99.8053 11.1037 98.9146 11.1037C98.0239 11.1037 97.2718 11.4154 96.6568 12.0373C96.0431 12.6607 95.7342 13.4558 95.7342 14.4226C95.7342 15.3895 96.0431 16.1846 96.6568 16.8079Z" fill="white"/>
<path d="M104.685 18.5782V10.2671H105.985L110.024 16.7318H110.07L110.024 15.1305V10.2671H111.092V18.5782H109.977L105.751 11.7991H105.705L105.751 13.4004V18.5782H104.685Z" fill="white"/>
<path d="M65.6828 14.7592C65.6828 15.92 65.3393 16.8439 64.6508 17.5337C63.8696 18.3537 62.8501 18.7637 61.5979 18.7637C60.3983 18.7637 59.3774 18.3482 58.5394 17.5171C57.7 16.6846 57.2803 15.654 57.2803 14.424C57.2803 13.1925 57.7 12.1619 58.5394 11.3308C59.3774 10.4983 60.3983 10.0828 61.5979 10.0828C62.1935 10.0828 62.7628 10.1991 63.3031 10.4305C63.8447 10.6632 64.2782 10.9721 64.6024 11.3585L63.8724 12.0899C63.3224 11.432 62.5648 11.1037 61.5965 11.1037C60.7211 11.1037 59.9648 11.4112 59.3262 12.0262C58.6876 12.6412 58.369 13.4405 58.369 14.4226C58.369 15.4047 58.6876 16.2039 59.3262 16.8189C59.9648 17.434 60.7211 17.7415 61.5965 17.7415C62.5246 17.7415 63.2989 17.4326 63.9181 16.8134C64.3198 16.4103 64.5525 15.8493 64.6148 15.1304H61.5965V14.1317H65.6232C65.6648 14.3492 65.6828 14.5583 65.6828 14.7592Z" stroke="white" stroke-width="0.277037" stroke-miterlimit="10"/>
<path d="M72.0686 11.288H68.2843V13.9226H71.6974V14.9213H68.2843V17.5559H72.0686V18.5782H67.2163V10.2671H72.0686V11.288Z" stroke="white" stroke-width="0.277037" stroke-miterlimit="10"/>
<path d="M76.5717 18.5782H75.5037V11.288H73.1822V10.2671H78.8933V11.288H76.5717V18.5782Z" stroke="white" stroke-width="0.277037" stroke-miterlimit="10"/>
<path d="M83.0252 18.5782V10.2671H84.0932V18.5782H83.0252Z" stroke="white" stroke-width="0.277037" stroke-miterlimit="10"/>
<path d="M88.8294 18.5782H87.7614V11.288H85.4398V10.2671H91.151V11.288H88.8294V18.5782Z" stroke="white" stroke-width="0.277037" stroke-miterlimit="10"/>
<path d="M101.962 17.5047C101.145 18.3441 100.129 18.7638 98.9146 18.7638C97.6998 18.7638 96.6845 18.3441 95.8686 17.5047C95.0513 16.6652 94.6441 15.6374 94.6441 14.4226C94.6441 13.2078 95.0513 12.18 95.8686 11.3406C96.6845 10.5012 97.6998 10.0801 98.9146 10.0801C100.122 10.0801 101.136 10.5026 101.956 11.3461C102.777 12.1897 103.187 13.2148 103.187 14.4226C103.187 15.6374 102.778 16.6652 101.962 17.5047ZM96.6568 16.8079C97.2718 17.4313 98.0239 17.7415 98.9146 17.7415C99.8053 17.7415 100.559 17.4299 101.172 16.8079C101.787 16.1846 102.096 15.3895 102.096 14.4226C102.096 13.4558 101.787 12.6607 101.172 12.0373C100.559 11.414 99.8053 11.1037 98.9146 11.1037C98.0239 11.1037 97.2718 11.4154 96.6568 12.0373C96.0431 12.6607 95.7342 13.4558 95.7342 14.4226C95.7342 15.3895 96.0431 16.1846 96.6568 16.8079Z" stroke="white" stroke-width="0.277037" stroke-miterlimit="10"/>
<path d="M104.685 18.5782V10.2671H105.985L110.024 16.7318H110.07L110.024 15.1305V10.2671H111.092V18.5782H109.977L105.751 11.7991H105.705L105.751 13.4004V18.5782H104.685Z" stroke="white" stroke-width="0.277037" stroke-miterlimit="10"/>
<g filter="url(#filter0_ii_223_29947)">
<path d="M14.4558 11.0123C14.0527 11.4389 13.8145 12.101 13.8145 12.9584V43.5932C13.8145 44.452 14.0527 45.1127 14.4558 45.5394L14.5583 45.6391L31.7194 28.4781V28.2758V28.0736L14.5583 10.9111L14.4558 11.0123Z" fill="url(#paint0_linear_223_29947)"/>
<path d="M37.4389 34.2003L31.7194 28.4781V28.2758V28.0736L37.4402 22.3528L37.5691 22.4262L44.3468 26.277C46.2819 27.3769 46.2819 29.1762 44.3468 30.2774L37.5691 34.1282L37.4389 34.2003Z" fill="url(#paint1_linear_223_29947)"/>
<g filter="url(#filter1_i_223_29947)">
<path d="M37.569 34.1267L31.718 28.2756L14.4558 45.5392C15.093 46.2152 16.1471 46.2983 17.3342 45.6251L37.569 34.1267Z" fill="url(#paint2_linear_223_29947)"/>
</g>
<path d="M37.569 22.4247L17.3342 10.9277C16.1471 10.2531 15.093 10.3376 14.4558 11.0136L31.7194 28.2771L37.569 22.4247Z" fill="url(#paint3_linear_223_29947)"/>
</g>
<rect x="0.692593" y="1.26339" width="185.615" height="54.0222" rx="6.23333" stroke="#A6A6A6" stroke-width="1.38519"/>
<defs>
<filter id="filter0_ii_223_29947" x="13.8145" y="10.4622" width="31.9836" height="35.6279" filterUnits="userSpaceOnUse" color-interpolation-filters="sRGB">
<feFlood flood-opacity="0" result="BackgroundImageFix"/>
<feBlend mode="normal" in="SourceGraphic" in2="BackgroundImageFix" result="shape"/>
<feColorMatrix in="SourceAlpha" type="matrix" values="0 0 0 0 0 0 0 0 0 0 0 0 0 0 0 0 0 0 127 0" result="hardAlpha"/>
<feOffset dy="-0.207778"/>
<feComposite in2="hardAlpha" operator="arithmetic" k2="-1" k3="1"/>
<feColorMatrix type="matrix" values="0 0 0 0 0 0 0 0 0 0 0 0 0 0 0 0 0 0 0.12 0"/>
<feBlend mode="normal" in2="shape" result="effect1_innerShadow_223_29947"/>
<feColorMatrix in="SourceAlpha" type="matrix" values="0 0 0 0 0 0 0 0 0 0 0 0 0 0 0 0 0 0 127 0" result="hardAlpha"/>
<feOffset dy="0.207778"/>
<feComposite in2="hardAlpha" operator="arithmetic" k2="-1" k3="1"/>
<feColorMatrix type="matrix" values="0 0 0 0 1 0 0 0 0 1 0 0 0 0 1 0 0 0 0.25 0"/>
<feBlend mode="normal" in2="effect1_innerShadow_223_29947" result="effect2_innerShadow_223_29947"/>
</filter>
<filter id="filter1_i_223_29947" x="14.4558" y="28.2756" width="23.1132" height="17.8145" filterUnits="userSpaceOnUse" color-interpolation-filters="sRGB">
<feFlood flood-opacity="0" result="BackgroundImageFix"/>
<feBlend mode="normal" in="SourceGraphic" in2="BackgroundImageFix" result="shape"/>
<feColorMatrix in="SourceAlpha" type="matrix" values="0 0 0 0 0 0 0 0 0 0 0 0 0 0 0 0 0 0 127 0" result="hardAlpha"/>
<feOffset dy="-0.207778"/>
<feComposite in2="hardAlpha" operator="arithmetic" k2="-1" k3="1"/>
<feColorMatrix type="matrix" values="0 0 0 0 0 0 0 0 0 0 0 0 0 0 0 0 0 0 0.08 0"/>
<feBlend mode="normal" in2="shape" result="effect1_innerShadow_223_29947"/>
</filter>
<linearGradient id="paint0_linear_223_29947" x1="30.1981" y1="12.6343" x2="6.95197" y2="35.8805" gradientUnits="userSpaceOnUse">
<stop stop-color="#00A0FF"/>
<stop offset="0.0066" stop-color="#00A1FF"/>
<stop offset="0.2601" stop-color="#00BEFF"/>
<stop offset="0.5122" stop-color="#00D2FF"/>
<stop offset="0.7604" stop-color="#00DFFF"/>
<stop offset="1" stop-color="#00E3FF"/>
</linearGradient>
<linearGradient id="paint1_linear_223_29947" x1="46.8657" y1="28.2758" x2="13.3499" y2="28.2758" gradientUnits="userSpaceOnUse">
<stop stop-color="#FFE000"/>
<stop offset="0.4087" stop-color="#FFBD00"/>
<stop offset="0.7754" stop-color="#FFA500"/>
<stop offset="1" stop-color="#FF9C00"/>
</linearGradient>
<linearGradient id="paint2_linear_223_29947" x1="34.3915" y1="31.4531" x2="2.8668" y2="62.9778" gradientUnits="userSpaceOnUse">
<stop stop-color="#FF3A44"/>
<stop offset="1" stop-color="#C31162"/>
</linearGradient>
<linearGradient id="paint3_linear_223_29947" x1="10.1083" y1="0.815557" x2="24.1849" y2="14.8922" gradientUnits="userSpaceOnUse">
<stop stop-color="#32A071"/>
<stop offset="0.0685" stop-color="#2DA771"/>
<stop offset="0.4762" stop-color="#15CF74"/>
<stop offset="0.8009" stop-color="#06E775"/>
<stop offset="1" stop-color="#00F076"/>
</linearGradient>
</defs>
</svg>
