<svg width="19" height="19" viewBox="0 0 19 19" fill="none" xmlns="http://www.w3.org/2000/svg">
<path d="M4.41429 2.18721C3.97573 2.41803 3.67566 2.8566 3.57563 3.41057C3.52177 3.68756 3.49869 5.9881 3.51408 9.98903L3.53716 16.1366L3.72951 16.5059C3.84493 16.7214 4.06036 16.9753 4.25271 17.1215L4.59125 17.36H9.41546H14.2397L14.5628 17.1522C14.7321 17.0368 14.9783 16.7752 15.0937 16.5752L15.3091 16.2059L15.3322 11.0277L15.3553 5.8573H13.5087C11.9391 5.8573 11.6467 5.84191 11.5467 5.73419C11.439 5.63417 11.4236 5.34949 11.4236 3.81067V2.01025H8.09207H4.75283L4.41429 2.18721ZM11.0389 7.92701C12.2777 8.35019 12.5547 8.47329 12.6316 8.63487C12.747 8.8503 12.7624 10.7277 12.6624 11.4355C12.4623 12.8051 11.4467 14.0823 9.95405 14.8594C9.33852 15.1749 9.26927 15.1595 8.35367 14.5516C7.21494 13.7899 6.43015 12.7743 6.19932 11.7818C6.0993 11.3586 6.0916 8.70412 6.18393 8.55793C6.26087 8.44252 9.12308 7.41151 9.38468 7.40381C9.46932 7.40381 10.2156 7.63464 11.0389 7.92701Z" fill="#303030"/>
<path d="M10.4927 9.62744C10.4234 9.66591 10.1156 10.0275 9.80788 10.4353C9.50011 10.8354 9.22312 11.1663 9.20004 11.1663C9.16927 11.1663 9.01538 11.0585 8.85381 10.92C8.31522 10.4815 7.73047 10.6508 7.73047 11.2509C7.73047 11.5125 7.78433 11.5817 8.29214 12.0357C9.28468 12.9205 9.40778 12.9128 10.1618 11.9511C11.5544 10.1737 11.5929 10.0968 11.2313 9.74285C11.0389 9.5428 10.7158 9.49664 10.4927 9.62744Z" fill="#303030"/>
<path d="M12.27 3.62605V5.01099H13.6703H15.0784L13.6934 3.62605C12.9317 2.86433 12.3008 2.24111 12.2931 2.24111C12.2777 2.24111 12.27 2.86433 12.27 3.62605Z" fill="#303030"/>
</svg>
