<svg width="107" height="108" viewBox="0 0 107 108" fill="none" xmlns="http://www.w3.org/2000/svg">
<circle cx="53.5" cy="53.6357" r="53.5" fill="#EEF7FD"/>
<path d="M40.9853 68.6065C40.4658 68.3666 40.3275 67.9541 40.3385 67.3995C40.4424 62.0269 44.5392 57.2511 49.8298 56.3847C50.4899 56.2769 51.1649 56.2308 51.8345 56.216C53.0227 56.1902 54.2126 56.173 55.4 56.2168C59.9078 56.3832 63.2078 58.5214 65.3679 62.4417C66.2179 63.9846 66.5874 65.6698 66.6616 67.4276C66.6851 67.9752 66.5194 68.3713 66.0155 68.6057C57.6711 68.6065 49.3282 68.6065 40.9853 68.6065Z" fill="#003556"/>
<path d="M53.496 54.4539C49.1422 54.4516 45.5961 50.8946 45.6055 46.5407C45.6164 42.197 49.1609 38.6627 53.5046 38.665C57.8608 38.6674 61.4053 42.222 61.3952 46.5775C61.3842 50.9219 57.8397 54.4563 53.496 54.4539Z" fill="#003556"/>
</svg>
