<svg width="13" height="16" viewBox="0 0 13 16" fill="none" xmlns="http://www.w3.org/2000/svg">
<path d="M6.38237 15.4783C6.30586 15.4783 6.22972 15.4783 6.15321 15.4783C5.701 15.2515 5.2243 15.0646 4.80002 14.792C1.9318 12.9507 0.495586 10.2371 0.25915 6.82544C0.203293 6.01817 0.241169 5.20385 0.2339 4.39305C0.231604 4.15412 0.336814 3.99117 0.536905 3.86975C2.33351 2.77968 4.12973 1.68804 5.92175 0.589738C6.16392 0.441287 6.37281 0.441287 6.61384 0.588955C8.40203 1.68451 10.1929 2.77459 11.9861 3.86113C12.2083 3.99588 12.3051 4.17644 12.3024 4.43692C12.2959 5.02798 12.3009 5.61943 12.3002 6.21049C12.299 7.6997 12.0228 9.13172 11.4237 10.4917C10.5824 12.4015 9.29803 13.908 7.50104 14.933C7.14104 15.1383 6.75616 15.2977 6.38237 15.4783ZM5.28819 8.94566C5.03454 8.68323 4.81379 8.43999 4.57582 8.21594C4.4863 8.13173 4.36272 8.06279 4.24451 8.03773C4.04595 7.99542 3.85313 8.1192 3.76207 8.30329C3.66719 8.49522 3.69818 8.72122 3.85542 8.88456C4.18329 9.22611 4.51576 9.56258 4.84669 9.90139C5.14778 10.2096 5.39608 10.2112 5.69449 9.90609C6.66663 8.91119 7.63877 7.9163 8.61053 6.92102C8.65109 6.8795 8.6924 6.83837 8.72684 6.79176C8.8573 6.61628 8.85577 6.36482 8.72645 6.19169C8.53822 5.93944 8.20002 5.92652 7.96359 6.1678C7.10507 7.0444 6.24847 7.92218 5.39187 8.80074C5.35553 8.83795 5.32989 8.88652 5.28819 8.94566Z" fill="#F23844"/>
</svg>
