<svg width="16" height="16" viewBox="0 0 16 16" fill="none" xmlns="http://www.w3.org/2000/svg">
<path d="M10.5893 15.2728L8.98281 13.6663C8.84582 13.5293 8.77733 13.355 8.77733 13.1433C8.77733 12.9316 8.84582 12.7572 8.98281 12.6202C9.1198 12.4833 9.29414 12.4148 9.50585 12.4148C9.71756 12.4148 9.8919 12.4833 10.0289 12.6202L11.0936 13.685L13.7462 11.0324C13.8832 10.8955 14.0575 10.827 14.2692 10.827C14.4809 10.827 14.6553 10.9017 14.7923 11.0511C14.9417 11.2006 15.0164 11.3749 15.0164 11.5742C15.0164 11.7734 14.9417 11.9478 14.7923 12.0972L11.6354 15.2728C11.4984 15.4098 11.324 15.4783 11.1123 15.4783C10.9006 15.4783 10.7263 15.4098 10.5893 15.2728ZM5.47098 10.4907L4.7985 11.1632C4.66152 11.3002 4.48717 11.3687 4.27546 11.3687C4.06376 11.3687 3.88941 11.3002 3.75243 11.1632C3.61544 11.0262 3.54695 10.8519 3.54695 10.6402C3.54695 10.4285 3.61544 10.2541 3.75243 10.1171L4.4249 9.44465L3.75243 8.77217C3.61544 8.63518 3.54695 8.46084 3.54695 8.24913C3.54695 8.03742 3.61544 7.86308 3.75243 7.72609C3.88941 7.58911 4.06376 7.52061 4.27546 7.52061C4.48717 7.52061 4.66152 7.58911 4.7985 7.72609L5.47098 8.39857L6.14346 7.72609C6.28044 7.58911 6.45479 7.52061 6.6665 7.52061C6.8782 7.52061 7.05255 7.58911 7.18954 7.72609C7.32652 7.86308 7.39502 8.03742 7.39502 8.24913C7.39502 8.46084 7.32652 8.63518 7.18954 8.77217L6.51706 9.44465L7.18954 10.1171C7.32652 10.2541 7.39502 10.4285 7.39502 10.6402C7.39502 10.8519 7.32652 11.0262 7.18954 11.1632C7.05255 11.3002 6.8782 11.3687 6.6665 11.3687C6.45479 11.3687 6.28044 11.3002 6.14346 11.1632L5.47098 10.4907ZM2.48219 15.4222C2.07123 15.4222 1.7193 15.276 1.4264 14.9836C1.13399 14.6907 0.987793 14.3388 0.987793 13.9278V3.46706C0.987793 3.0561 1.13399 2.70442 1.4264 2.41202C1.7193 2.11912 2.07123 1.97267 2.48219 1.97267H3.22939V1.22547C3.22939 1.01376 3.30087 0.836179 3.44383 0.692717C3.58729 0.549753 3.76488 0.478271 3.97658 0.478271C4.18829 0.478271 4.36587 0.549753 4.50934 0.692717C4.6523 0.836179 4.72378 1.01376 4.72378 1.22547V1.97267H10.7014V1.22547C10.7014 1.01376 10.7731 0.836179 10.9166 0.692717C11.0595 0.549753 11.2369 0.478271 11.4486 0.478271C11.6603 0.478271 11.8376 0.549753 11.9806 0.692717C12.124 0.836179 12.1958 1.01376 12.1958 1.22547V1.97267H12.943C13.3539 1.97267 13.7058 2.11912 13.9988 2.41202C14.2912 2.70442 14.4374 3.0561 14.4374 3.46706V8.21177L12.943 9.72485V6.45586H2.48219V13.9278H7.15218L8.62789 15.4222H2.48219Z" fill="#F23844"/>
</svg>
