<svg width="12" height="14" viewBox="0 0 12 14" fill="none" xmlns="http://www.w3.org/2000/svg">
<path d="M11.1312 5.59736C10.8815 5.51416 10.6504 5.40767 10.4077 5.36149C9.51215 5.1901 8.66879 5.56949 8.20443 6.34074C7.50249 7.50593 6.80658 8.67445 6.10766 9.84172C5.99469 10.0302 5.89294 10.2257 5.76747 10.4062C5.42555 10.8979 5.2449 11.4316 5.24188 12.0278C5.24015 12.4005 5.19316 12.7732 5.17893 13.1464C5.17203 13.3265 5.19488 13.5078 5.20566 13.7104C5.16211 13.7104 5.11037 13.7104 5.05863 13.7104C4.11179 13.7104 3.16538 13.7129 2.21854 13.7096C1.00782 13.7054 0.111854 12.8394 0.110992 11.6683C0.108836 8.60165 0.108836 5.53496 0.110992 2.46869C0.111423 1.43662 0.806033 0.633338 1.84946 0.451965C1.97018 0.431166 2.09565 0.428254 2.21897 0.428254C4.48906 0.427006 6.75872 0.425342 9.02882 0.428254C10.0671 0.429502 10.888 1.07221 11.0924 2.03772C11.1191 2.16419 11.1329 2.29481 11.1333 2.42376C11.1368 3.45625 11.1355 4.48874 11.1351 5.52165C11.1355 5.54703 11.1325 5.57282 11.1312 5.59736ZM4.94567 3.08228C4.26873 3.08228 3.59137 3.08145 2.91444 3.08269C2.48888 3.08353 2.17757 3.36598 2.17757 3.74662C2.17757 4.12475 2.48931 4.41179 2.91487 4.41262C4.25839 4.41511 5.6019 4.41511 6.94542 4.41262C7.38391 4.41179 7.69306 4.12683 7.68832 3.7383C7.68401 3.35642 7.37529 3.08311 6.94456 3.08228C6.2784 3.08145 5.61225 3.08228 4.94567 3.08228ZM4.36661 7.06872C4.85038 7.06872 5.33415 7.06997 5.81749 7.06831C6.24305 7.06706 6.55478 6.78418 6.55435 6.40355C6.55392 6.02542 6.24219 5.73963 5.81619 5.73838C4.84865 5.73547 3.88155 5.73547 2.91401 5.73838C2.48888 5.73963 2.17714 6.02708 2.17757 6.4048C2.17844 6.78543 2.48931 7.06706 2.9153 7.06831C3.39907 7.06997 3.88284 7.06872 4.36661 7.06872ZM3.62716 8.40031C3.3801 8.40031 3.13261 8.3974 2.88555 8.40114C2.48025 8.40738 2.17973 8.68859 2.17757 9.05882C2.17542 9.42822 2.47637 9.71817 2.87951 9.72233C3.36846 9.72732 3.85783 9.72691 4.34678 9.72275C4.75638 9.719 5.04915 9.44112 5.05044 9.06506C5.05173 8.68776 4.76026 8.40821 4.35281 8.40156C4.11093 8.39698 3.86904 8.40031 3.62716 8.40031Z" fill="#8F9098"/>
<path d="M6.55373 13.1888C6.58822 12.6659 6.61237 12.2099 6.65161 11.7552C6.66152 11.6404 6.6986 11.5185 6.7581 11.4187C7.63208 9.9486 8.51123 8.4814 9.39167 7.01503C9.61415 6.64397 9.99832 6.54538 10.3851 6.7567C10.7593 6.96095 11.1319 7.16728 11.5022 7.37777C11.8937 7.59991 11.9981 7.97139 11.773 8.34828C10.8986 9.81215 10.0233 11.2756 9.14203 12.7357C9.07433 12.8476 8.96913 12.9496 8.85789 13.024C8.4832 13.2757 8.09558 13.5095 7.71788 13.7578C7.45789 13.9288 7.18927 13.9949 6.90341 13.8373C6.61797 13.6796 6.52527 13.4267 6.55373 13.1888Z" fill="#8F9098"/>
</svg>
