<svg width="19" height="19" viewBox="0 0 19 19" fill="none" xmlns="http://www.w3.org/2000/svg">
<path d="M9.20546 16.6572C8.94775 16.6207 8.68849 16.5909 8.43196 16.5463C7.12789 16.321 5.9863 15.7579 5.00991 14.8706C3.89785 13.8596 3.1916 12.6147 2.88103 11.1426C2.26068 8.20116 3.73538 5.08323 6.41542 3.69839C6.68556 3.55878 6.96775 3.44127 7.24994 3.32648C7.53641 3.21014 7.78284 3.30632 7.87613 3.55451C7.96864 3.79999 7.84192 4.03035 7.55351 4.14087C5.85764 4.79082 4.67174 5.9616 4.01096 7.64582C3.10453 9.95518 3.79213 12.671 5.67574 14.2927C6.89818 15.3449 8.31924 15.8478 9.92959 15.778C12.6225 15.6613 14.922 13.7262 15.5163 11.1008C16.2443 7.88316 14.227 4.66944 11.0113 3.9237C10.9596 3.91168 10.9072 3.90392 10.8551 3.89423C10.8415 3.90858 10.8275 3.92254 10.8139 3.93688C10.8881 3.99389 10.9693 4.04392 11.0346 4.10946C11.2263 4.30297 11.2313 4.56784 11.0537 4.74351C10.8761 4.91958 10.6114 4.91337 10.4174 4.7218C10.0625 4.37122 9.70959 4.01871 9.35821 3.66465C9.15104 3.45601 9.15182 3.2082 9.35977 2.99879C9.70765 2.64822 10.0579 2.2992 10.4088 1.95173C10.6098 1.75278 10.8764 1.74348 11.056 1.9238C11.2356 2.10452 11.2236 2.36629 11.0242 2.56988C10.9005 2.69592 10.7754 2.82002 10.6448 2.9507C10.9756 3.0302 11.2908 3.0845 11.592 3.18183C14.1605 4.01289 15.7989 5.7359 16.3807 8.36442C17.2094 12.1086 14.7393 15.7928 10.9666 16.5296C10.7105 16.5796 10.4485 16.5982 10.1892 16.6324C10.1519 16.6374 10.1154 16.6486 10.0781 16.6572C9.78733 16.6572 9.4962 16.6572 9.20546 16.6572Z" fill="#303030"/>
<path fill-rule="evenodd" clip-rule="evenodd" d="M14.1981 9.87283C14.2068 7.36168 12.1665 5.31617 9.64799 5.31184C7.13699 5.30711 5.09191 7.33763 5.08401 9.84405C5.0761 12.3548 7.11763 14.4015 9.63416 14.405C12.1464 14.4086 14.1895 12.3796 14.1981 9.87283ZM10.5857 8.49431V8.38756V7.81567H11.4702V7.18278H7.32207V7.81567H9.76978V8.38756V8.49431H7.32207V9.11958H9.73165C9.69099 9.35851 9.60457 9.53134 9.4724 9.6381C9.34531 9.74485 9.14959 9.81602 8.88525 9.8516C8.62091 9.8821 8.2066 9.89735 7.64233 9.89735V10.942C7.64233 11.4554 7.77705 11.8545 8.04647 12.1392C8.32098 12.4238 8.71495 12.5662 9.22839 12.5662C9.74182 12.5662 10.1333 12.4366 10.4027 12.1773C10.6772 11.913 10.817 11.5241 10.8221 11.0106H10.0214C10.0214 11.5952 9.76216 11.8875 9.24364 11.8875C8.95896 11.8875 8.75562 11.8062 8.63362 11.6435C8.5167 11.4809 8.45824 11.2597 8.45824 10.9801V10.4997C8.91067 10.4997 9.27922 10.4565 9.5639 10.3701C9.84857 10.2786 10.0672 10.1337 10.2197 9.93548C10.3773 9.73214 10.484 9.46018 10.5399 9.11958H11.4702V8.49431H10.5857Z" fill="#303030"/>
</svg>
