<svg width="16" height="16" viewBox="0 0 16 16" fill="none" xmlns="http://www.w3.org/2000/svg">
<path fill-rule="evenodd" clip-rule="evenodd" d="M7.20893 0.728455C6.19237 0.728541 5.19058 0.971728 4.28712 1.43773C3.38367 1.90372 2.60475 2.57902 2.01536 3.40727C1.42596 4.23552 1.04319 5.19271 0.898962 6.19899C0.754735 7.20526 0.853242 8.23143 1.18626 9.19189C1.51929 10.1524 2.07717 11.0192 2.81336 11.7202C3.54955 12.4213 4.44271 12.936 5.41832 13.2217C6.39392 13.5073 7.42369 13.5554 8.4217 13.3621C9.4197 13.1688 10.357 12.7397 11.1554 12.1105L13.8944 14.8495C14.0359 14.9861 14.2253 15.0617 14.422 15.06C14.6186 15.0583 14.8067 14.9794 14.9458 14.8403C15.0849 14.7013 15.1637 14.5132 15.1654 14.3165C15.1671 14.1199 15.0915 13.9304 14.9549 13.789L12.2159 11.05C12.9569 10.1099 13.4183 8.98026 13.5473 7.79025C13.6762 6.60024 13.4675 5.39797 12.9451 4.32102C12.4227 3.24408 11.6076 2.33597 10.5932 1.70063C9.57872 1.06528 8.4059 0.728374 7.20893 0.728455ZM2.33393 7.10345C2.33393 5.81052 2.84754 4.57055 3.76178 3.65631C4.67602 2.74207 5.916 2.22845 7.20893 2.22845C8.50186 2.22845 9.74184 2.74207 10.6561 3.65631C11.5703 4.57055 12.0839 5.81052 12.0839 7.10345C12.0839 8.39639 11.5703 9.63636 10.6561 10.5506C9.74184 11.4648 8.50186 11.9785 7.20893 11.9785C5.916 11.9785 4.67602 11.4648 3.76178 10.5506C2.84754 9.63636 2.33393 8.39639 2.33393 7.10345Z" fill="#8F9098"/>
</svg>
