<svg width="12" height="14" viewBox="0 0 12 14" fill="none" xmlns="http://www.w3.org/2000/svg">
<path d="M2.13585 13.7453C1.8686 13.6809 1.60924 13.5978 1.3946 13.4138C0.988104 13.0657 0.777402 12.6271 0.847167 12.0845C0.904555 11.6384 1.27729 11.3254 1.72148 11.324C2.60789 11.3211 3.49458 11.3231 4.38098 11.3231C6.43652 11.3231 8.49261 11.3431 10.5479 11.3123C11.2489 11.3018 11.8242 11.8452 11.5189 12.7165C11.3229 13.2762 10.9268 13.6137 10.3462 13.7231C10.3259 13.7268 10.3071 13.7379 10.2877 13.7456C7.5702 13.7453 4.85302 13.7453 2.13585 13.7453Z" fill="#303030"/>
<path d="M3.33666 10.7115C2.90851 10.7115 2.48598 10.7115 2.06739 10.7115C2.06739 10.5366 2.06008 10.3651 2.06852 10.1945C2.12394 9.0854 2.18273 7.97656 2.24068 6.86772C2.27106 6.28724 2.28879 5.70562 2.33548 5.12656C2.41341 4.1647 3.14003 3.47798 4.09311 3.4438C4.1955 3.44009 4.29818 3.44323 4.41127 3.44323C4.41127 3.241 4.41127 3.04874 4.41127 2.83683C4.23995 2.83683 4.0661 2.83683 3.89225 2.83683C3.46325 2.83654 3.21711 2.59415 3.22302 2.16178C3.22695 1.88094 3.2157 1.59326 3.27168 1.32125C3.38055 0.795173 3.85681 0.420054 4.38905 0.417206C5.60599 0.410939 6.82294 0.4098 8.03989 0.41749C8.67283 0.421478 9.18763 0.947842 9.20535 1.58728C9.21126 1.80404 9.21042 2.02108 9.2062 2.23812C9.19945 2.57877 8.94289 2.83227 8.60419 2.83626C8.41178 2.83853 8.21936 2.83654 8.01851 2.83654C8.01851 3.03877 8.01851 3.2316 8.01851 3.43269C8.17604 3.44038 8.32935 3.44152 8.48154 3.45604C9.37667 3.54064 10.0645 4.28888 10.107 5.19549C10.1753 6.65581 10.256 8.11527 10.3314 9.57502C10.3494 9.92166 10.3677 10.268 10.3854 10.6146C10.3869 10.644 10.3857 10.6733 10.3857 10.7103C9.9497 10.7103 9.52295 10.7103 9.07651 10.7103C9.06104 10.4927 9.04416 10.2746 9.02982 10.0561C8.94542 8.75329 8.86244 7.45048 8.7772 6.14768C8.76482 5.95769 8.76229 5.76373 8.72066 5.57973C8.59716 5.03485 8.12766 4.66087 7.57516 4.65859C6.66681 4.65489 5.75818 4.65432 4.84983 4.65859C4.22082 4.66172 3.71728 5.15419 3.6748 5.78822C3.56706 7.40235 3.4565 9.01618 3.34679 10.6303C3.3451 10.6557 3.3406 10.6804 3.33666 10.7115ZM5.02452 3.43155C5.82232 3.43155 6.61196 3.43155 7.40103 3.43155C7.40103 3.22932 7.40103 3.03678 7.40103 2.84366C6.60464 2.84366 5.81782 2.84366 5.02452 2.84366C5.02452 3.03962 5.02452 3.22875 5.02452 3.43155Z" fill="#303030"/>
<path d="M8.46398 10.7111C6.95644 10.7111 5.45903 10.7111 3.94727 10.7111C3.95514 10.5647 3.96105 10.4237 3.97033 10.283C4.03644 9.29211 4.10311 8.30147 4.16978 7.31084C4.20354 6.80897 4.23505 6.30682 4.27246 5.80523C4.29468 5.50759 4.54421 5.26577 4.84971 5.26349C5.75806 5.25722 6.66613 5.25722 7.57448 5.26349C7.89714 5.26577 8.13822 5.51157 8.1596 5.83913C8.23696 7.02487 8.31179 8.21061 8.38774 9.39635C8.41306 9.79027 8.43866 10.1839 8.4637 10.5778C8.46623 10.6197 8.46398 10.6618 8.46398 10.7111Z" fill="#303030"/>
</svg>
