<svg width="12" height="16" viewBox="0 0 12 16" fill="none" xmlns="http://www.w3.org/2000/svg">
<path d="M3.87415 15.1376C3.59222 15.0391 3.37676 14.8728 3.31946 14.5532C3.30341 14.4636 3.3057 14.3706 3.29883 14.2681C5.70938 14.2681 8.10695 14.2681 10.5038 14.2681C10.563 14.7023 10.3976 14.9542 9.93874 15.1372C7.91709 15.1376 5.89543 15.1376 3.87415 15.1376Z" fill="white"/>
<path d="M4.45686 11.7133C3.9843 10.9548 3.07433 10.9466 2.54102 11.495C2.52612 11.452 2.51084 11.4141 2.499 11.3749C1.93858 9.51299 1.37777 7.65104 0.818107 5.78908C0.615253 5.11393 0.798623 4.60307 1.38235 4.19899C1.41177 4.17865 1.44042 4.13327 1.44157 4.09846C1.44768 3.9283 1.44424 3.75775 1.44424 3.58838C1.35332 3.55122 1.26736 3.52266 1.18752 3.48237C0.785635 3.27818 0.56177 2.84555 0.617927 2.36481C0.667972 1.93883 0.723747 1.51363 0.785253 1.08921C0.865859 0.535711 1.27539 0.160973 1.80678 0.144544C2.30875 0.128898 2.75839 0.480948 2.85122 1.00003C2.88714 1.20069 2.85887 1.41701 2.83785 1.62394C2.80385 1.95839 2.75457 2.29127 2.7072 2.62415C2.62774 3.18078 2.2866 3.52188 1.74069 3.59659C1.72235 3.59894 1.7044 3.60324 1.68071 3.60755C1.68071 3.7601 1.68071 3.90953 1.68071 4.05504C1.84804 4.05504 2.01269 4.03001 2.16741 4.05973C2.61666 4.14579 2.90853 4.42626 3.01931 4.88079C3.14462 5.39596 3.23363 5.92052 3.37268 6.43138C3.63704 7.4046 4.05497 8.31172 4.5772 9.16759C4.80603 9.54311 4.9512 9.94367 4.97832 10.3872C5.00621 10.8465 4.89351 11.2564 4.58369 11.5995C4.55771 11.628 4.52983 11.6546 4.50156 11.6808C4.4878 11.6934 4.47176 11.7024 4.45686 11.7133Z" fill="white"/>
<path d="M3.30664 14.0236C3.30664 13.8515 3.30664 13.7012 3.30664 13.5444C3.43347 13.5291 3.56145 13.5248 3.68408 13.4974C4.30792 13.3566 4.70904 12.7151 4.57266 12.0756C4.55394 11.9875 4.57304 11.9394 4.63226 11.8737C4.76329 11.7274 4.88745 11.5717 4.99136 11.4051C5.04751 11.3147 5.09909 11.2647 5.20452 11.2506C6.02167 11.1434 6.83843 11.0311 7.65519 10.9197C8.33519 10.827 9.01595 10.7413 9.69404 10.638C10.5295 10.5109 11.2072 11.0194 11.2974 11.8784C11.3577 12.4566 11.2993 13.0202 10.9708 13.5209C10.9154 13.6054 10.85 13.6844 10.7828 13.7595C10.6185 13.9426 10.4306 14.0314 10.1693 14.0298C7.94323 14.0181 5.71681 14.0232 3.49039 14.0232C3.43385 14.0236 3.37731 14.0236 3.30664 14.0236Z" fill="white"/>
<path d="M2.46876 12.3057C2.47144 11.7682 2.90503 11.3297 3.4284 11.336C3.95368 11.3423 4.37696 11.7851 4.37161 12.3233C4.36626 12.8635 3.93802 13.2954 3.41121 13.2914C2.88631 13.2875 2.46609 12.8483 2.46876 12.3057Z" fill="white"/>
</svg>
