<svg width="17" height="17" viewBox="0 0 17 17" fill="none" xmlns="http://www.w3.org/2000/svg">
<path d="M1.55176 6.18259C1.61077 5.94799 1.68413 5.72025 1.8439 5.5262C2.108 5.20549 2.451 5.01768 2.87519 4.99397C3.19896 4.97588 3.52468 4.99023 3.85986 4.99023C3.85986 7.74995 3.85986 10.5075 3.85986 13.2822C3.68966 13.2822 3.51784 13.2865 3.34601 13.2812C3.12136 13.2744 2.88921 13.2909 2.67337 13.2425C2.06789 13.1062 1.70076 12.7312 1.57458 12.1447C1.57034 12.1251 1.55958 12.107 1.55176 12.0882C1.55176 10.1197 1.55176 8.15114 1.55176 6.18259Z" fill="#303030"/>
<path d="M4.71354 4.98526C5.1123 4.98526 5.49737 4.98526 5.89873 4.98526C5.89873 4.93347 5.89873 4.88948 5.89873 4.8455C5.89873 4.43432 5.89775 4.02345 5.89906 3.61227C5.90004 3.33399 6.06795 3.17082 6.36074 3.17051C7.59745 3.16895 8.83416 3.16895 10.0705 3.17051C10.3685 3.17082 10.5339 3.33461 10.5345 3.62287C10.5355 4.07118 10.5348 4.51917 10.5348 4.98432C10.9316 4.98432 11.3229 4.98432 11.7207 4.98432C11.7207 7.75621 11.7207 10.5112 11.7207 13.2744C9.3829 13.2744 7.05164 13.2744 4.71289 13.2744C4.71354 10.5125 4.71354 7.75746 4.71354 4.98526ZM9.69623 3.98351C8.70374 3.98351 7.72298 3.98351 6.74255 3.98351C6.74255 4.32076 6.74255 4.64708 6.74255 4.97528C7.73113 4.97528 8.71189 4.97528 9.69623 4.97528C9.69623 4.64178 9.69623 4.31857 9.69623 3.98351Z" fill="#303030"/>
<path d="M12.5762 4.96497C12.9951 4.98805 13.4135 4.96777 13.8126 5.04265C14.4389 5.16026 14.8784 5.71121 14.8804 6.32267C14.8862 8.19545 14.8872 10.0682 14.8804 11.941C14.8778 12.6554 14.287 13.2369 13.5367 13.2759C13.2211 13.2925 12.9039 13.2787 12.5762 13.2787C12.5762 10.5184 12.5762 7.76025 12.5762 4.96497Z" fill="#303030"/>
</svg>
