<svg width="19" height="19" viewBox="0 0 19 19" fill="none" xmlns="http://www.w3.org/2000/svg">
<g clip-path="url(#clip0_6725_27870)">
<path d="M2.68967 1.26565C2.60867 1.34665 2.58167 3.07465 2.58167 8.50165C2.58167 14.8646 2.59967 15.6476 2.72567 15.7736C2.84267 15.8996 3.27467 15.9176 6.10067 15.9176H9.33167L9.55667 16.3766C9.88067 17.0156 10.4927 17.5916 11.2037 17.9246C11.7617 18.1946 11.8787 18.2126 12.7517 18.2126C13.6157 18.2126 13.7417 18.1856 14.2367 17.9516C14.9297 17.6096 15.6677 16.8716 15.9737 16.2146C16.3157 15.4676 16.3607 14.2076 16.0817 13.4606C15.8207 12.7676 15.2717 12.1016 14.6327 11.7056L14.1107 11.3726L14.1017 8.24065V5.11765H12.2207C10.5827 5.11765 10.3307 5.09965 10.2227 4.96465C10.1237 4.85665 10.0877 4.37965 10.0697 2.98465L10.0427 1.15765H6.41567C3.72467 1.15765 2.77067 1.18464 2.68967 1.26565ZM8.23367 4.32565C8.40467 4.49665 8.36867 4.91965 8.17067 5.02765C7.93667 5.14465 5.41667 5.14465 5.18267 5.02765C4.98467 4.91965 4.94867 4.49665 5.11967 4.32565C5.19167 4.25365 5.66867 4.21765 6.67667 4.21765C7.68467 4.21765 8.16167 4.25365 8.23367 4.32565ZM11.5097 7.07065C11.7077 7.25065 11.7167 7.48465 11.5277 7.67365C11.4107 7.79965 10.9877 7.81765 8.30567 7.81765C6.02867 7.81765 5.20067 7.79065 5.11967 7.70965C4.95767 7.54765 4.98467 7.12465 5.17367 7.01665C5.26367 6.95365 6.46067 6.91765 8.33267 6.91765C11.0057 6.91765 11.3567 6.93565 11.5097 7.07065ZM11.4017 9.73465C11.7077 9.88765 11.7527 10.2746 11.4737 10.4636C11.3027 10.5896 10.8797 10.6076 8.34167 10.6076C5.80367 10.6076 5.38067 10.5896 5.20967 10.4636C4.93067 10.2746 4.97567 9.88765 5.28167 9.73465C5.45267 9.65365 6.24467 9.61765 8.34167 9.61765C10.4387 9.61765 11.2307 9.65365 11.4017 9.73465ZM13.4717 12.3716C13.8227 12.4796 14.0657 12.6326 14.4167 12.9746C15.4427 14.0006 15.4427 15.3956 14.4257 16.4216C13.3997 17.4386 12.0047 17.4386 10.9787 16.4126C10.3307 15.7556 10.0967 14.9366 10.3217 14.1176C10.4567 13.6136 10.9067 12.9836 11.3027 12.7136C12.0497 12.2186 12.6437 12.1286 13.4717 12.3716ZM8.86367 12.5156C8.99867 12.6506 8.99867 13.0646 8.86367 13.1996C8.71067 13.3526 5.27267 13.3526 5.11967 13.1996C4.95767 13.0376 4.98467 12.6146 5.17367 12.5066C5.40767 12.3716 8.72867 12.3806 8.86367 12.5156Z" fill="#303030"/>
<path d="M13.5616 13.5507C13.4896 13.5777 13.1746 13.8387 12.8686 14.1447L12.3196 14.6847L12.0676 14.4867C11.6086 14.1267 11.0416 14.3157 11.0416 14.8287C11.0416 14.9997 11.1856 15.2067 11.5636 15.5847C12.3106 16.3227 12.3916 16.3137 13.4896 15.2157C14.0386 14.6667 14.3716 14.2617 14.3716 14.1447C14.3716 13.7757 13.8946 13.4337 13.5616 13.5507Z" fill="#303030"/>
<path d="M11.0416 2.66965V4.21765H12.5266C13.3456 4.21765 14.0116 4.19065 14.0116 4.14565C14.0116 4.10965 13.3456 3.41665 12.5266 2.59765L11.0416 1.11265V2.66965Z" fill="#303030"/>
</g>
<defs>
<clipPath id="clip0_6725_27870">
<rect width="18" height="18" fill="white" transform="translate(0.421631 0.707642)"/>
</clipPath>
</defs>
</svg>
