<svg width="13" height="21" viewBox="0 0 13 21" fill="none" xmlns="http://www.w3.org/2000/svg">
<path d="M4.20042 0.894348C5.77524 0.894348 7.35006 0.894348 8.92488 0.894348C9.96493 1.1041 10.3828 1.87553 10.3502 2.80933C10.3147 3.86917 10.3421 4.93103 10.3421 5.99188C10.3421 6.06146 10.3421 6.13104 10.3421 6.21675C10.7315 6.21675 11.0995 6.19961 11.4635 6.22281C11.7075 6.23894 11.9678 6.26919 12.1853 6.36903C12.7557 6.63121 12.9895 7.11223 12.9895 7.72837C12.9865 11.165 12.9875 14.6007 12.9875 18.0374C12.9875 18.0959 12.9854 18.1544 12.9824 18.2128C12.9417 18.9318 12.4029 19.4744 11.675 19.5298C11.5865 19.5369 11.4981 19.545 11.3994 19.554C11.3994 19.8797 11.4035 20.1853 11.3984 20.4908C11.3933 20.753 11.2673 20.8872 11.0172 20.8902C10.5058 20.8952 9.99339 20.8962 9.48201 20.8902C9.24513 20.8872 9.12414 20.7601 9.11296 20.5241C9.10788 20.4263 9.11093 20.3285 9.11093 20.2317C9.11093 20.0068 9.11093 19.7829 9.11093 19.556C7.39479 19.556 5.71221 19.556 4.01132 19.556C4.01132 19.8616 4.01234 20.154 4.01132 20.4455C4.00929 20.7803 3.89847 20.8922 3.56501 20.8932C3.11259 20.8942 2.65916 20.8942 2.20674 20.8932C1.83871 20.8932 1.72586 20.7813 1.72484 20.4152C1.72382 20.1308 1.72484 19.8465 1.72484 19.555C1.60487 19.545 1.50829 19.5359 1.41069 19.5298C1.13314 19.5127 0.889138 19.4098 0.673605 19.2404C0.279138 18.9248 0.133754 18.5093 0.134771 18.0172C0.138838 14.5936 0.136804 11.1701 0.137821 7.74753C0.137821 7.68299 0.138838 7.61744 0.142904 7.5529C0.176454 6.93979 0.556688 6.44566 1.15754 6.28634C1.38731 6.22583 1.63639 6.22684 1.87734 6.21877C2.17522 6.20768 2.47412 6.21575 2.78319 6.21575C2.78319 6.1139 2.78319 6.04331 2.78319 5.97171C2.78319 4.83926 2.78421 3.70681 2.78319 2.57437C2.78319 2.11957 2.92146 1.71822 3.23967 1.38444C3.50096 1.10914 3.83849 0.978046 4.20042 0.894348ZM3.86187 6.20365C5.66646 6.20365 7.45783 6.20365 9.26343 6.20365C9.26648 6.12902 9.27156 6.06549 9.27156 6.00196C9.27156 4.87657 9.27258 3.75219 9.27156 2.6268C9.27156 2.14881 9.07534 1.95621 8.58836 1.95621C7.23823 1.95621 5.88707 1.95621 4.53694 1.95621C4.05097 1.95621 3.85272 2.14982 3.85272 2.6268C3.85171 3.75219 3.85272 4.87657 3.85272 6.00196C3.85272 6.06549 3.85882 6.12902 3.86187 6.20365Z" fill="currentColor"/>
</svg>
