<svg width="13" height="16" viewBox="0 0 13 16" fill="none" xmlns="http://www.w3.org/2000/svg">
<path d="M9.6915 15.4779C9.27281 15.3148 8.86454 15.1309 8.50335 14.8562C7.37077 13.9942 6.7792 12.8458 6.74061 11.413C6.72633 10.8714 6.73753 10.3295 6.7383 9.7876C6.73868 9.52192 6.83824 9.38341 7.08868 9.29889C7.92452 9.01639 8.75919 8.72998 9.5985 8.45804C9.71812 8.4193 9.87093 8.4193 9.99056 8.45804C10.8295 8.72998 11.6638 9.016 12.4992 9.29968C12.7527 9.38576 12.8473 9.52153 12.8481 9.78956C12.8488 10.3021 12.8496 10.8147 12.8481 11.3269C12.8427 13.2207 11.7217 14.8183 9.95737 15.4478C9.93538 15.4556 9.91493 15.4682 9.89409 15.4783C9.82694 15.4779 9.75903 15.4779 9.6915 15.4779ZM9.35616 11.8418C9.27821 11.7354 9.21107 11.6407 9.14045 11.5483C8.97606 11.3328 8.71559 11.2897 8.5157 11.4427C8.32391 11.5894 8.29111 11.8543 8.44315 12.0691C8.58631 12.2714 8.73179 12.4722 8.88036 12.6705C9.03896 12.8818 9.25506 12.9284 9.48042 12.7914C9.99751 12.4784 10.5142 12.1646 11.0228 11.8379C11.1116 11.7808 11.1872 11.6689 11.2212 11.566C11.2794 11.3895 11.2188 11.2267 11.0676 11.1136C10.9067 10.9931 10.7353 10.9943 10.5667 11.0976C10.1665 11.3414 9.7679 11.5883 9.35616 11.8418Z" fill="#F23844"/>
<path d="M6.28736 13.4316C5.01624 13.4316 3.76712 13.4316 2.48906 13.4316C2.48906 13.5994 2.49678 13.7587 2.48713 13.9172C2.47517 14.1194 2.32737 14.2767 2.13675 14.3092C1.93994 14.3429 1.75086 14.2478 1.67136 14.0666C1.64474 14.0056 1.62969 13.9359 1.62622 13.869C1.61888 13.7133 1.67059 13.5306 1.60654 13.4081C1.54788 13.2962 1.36227 13.2578 1.24342 13.1722C0.849038 12.8873 0.631397 12.4964 0.630625 12.0046C0.625994 9.71991 0.625609 7.43525 0.630239 5.15058C0.631783 4.38641 1.21332 3.77563 1.96618 3.72319C2.03333 3.7185 2.10124 3.71459 2.16839 3.71459C3.76056 3.7142 5.35274 3.71654 6.9453 3.71302C7.52065 3.71146 7.97677 3.92627 8.28355 4.42867C8.42132 4.65404 8.48306 4.90251 8.48306 5.16701C8.48306 6.04073 8.4846 6.91485 8.47997 7.78857C8.47959 7.8363 8.43791 7.9126 8.39816 7.92669C7.86602 8.11372 7.3308 8.29214 6.79596 8.47213C6.78322 8.47644 6.76779 8.47252 6.73807 8.47252C6.73807 8.41892 6.73807 8.36727 6.73807 8.31523C6.73807 7.54402 6.74 6.77242 6.73692 6.00121C6.73537 5.63459 6.37727 5.42134 6.07898 5.60485C5.93504 5.69367 5.86944 5.82866 5.86944 5.9973C5.86905 6.36354 5.86944 6.72938 5.86944 7.09562C5.86944 8.47722 5.87291 9.85882 5.8679 11.2404C5.8652 11.9615 5.98289 12.6572 6.2507 13.3263C6.26112 13.3529 6.26922 13.3799 6.28736 13.4316ZM3.24077 8.60869C3.24077 8.31092 3.24077 8.01316 3.24077 7.7154C3.24077 7.13944 3.24347 6.56348 3.23923 5.98752C3.2373 5.70189 3.01696 5.50977 2.74606 5.54498C2.52263 5.57394 2.37329 5.76253 2.37291 6.02704C2.37175 7.74514 2.37214 9.46324 2.37329 11.1817C2.37329 11.2396 2.38101 11.2991 2.39683 11.3547C2.44893 11.5378 2.62065 11.6665 2.80665 11.6677C2.99766 11.6689 3.1771 11.5351 3.22379 11.3457C3.24116 11.276 3.24 11.2005 3.24 11.1277C3.24116 10.2877 3.24077 9.44837 3.24077 8.60869ZM4.12445 8.60243C4.12445 9.43702 4.12445 10.2716 4.12445 11.1066C4.12445 11.1602 4.1233 11.2142 4.12793 11.2674C4.14645 11.4807 4.31315 11.6477 4.52385 11.6661C4.72798 11.6841 4.92479 11.5405 4.97379 11.3316C4.98807 11.2705 4.99232 11.206 4.99232 11.1434C4.99309 9.44954 4.99347 7.75609 4.99232 6.06225C4.99232 5.99456 4.98807 5.92452 4.97071 5.85957C4.90048 5.59194 4.60064 5.45968 4.35907 5.58959C4.18774 5.68154 4.12291 5.83257 4.1233 6.02547C4.126 6.88433 4.12445 7.74357 4.12445 8.60243Z" fill="#F23844"/>
<path d="M6.28861 2.82599C6.00383 2.82599 5.72676 2.82599 5.43464 2.82599C5.43464 2.3412 5.43464 1.86032 5.43464 1.36887C4.84964 1.36887 4.27891 1.36887 3.6912 1.36887C3.6912 1.84897 3.6912 2.32907 3.6912 2.82208C3.39831 2.82208 3.12163 2.82208 2.82643 2.82208C2.82411 2.78139 2.81909 2.73482 2.81909 2.68826C2.81832 2.26373 2.81678 1.83919 2.81909 1.41465C2.82257 0.836345 3.1799 0.479891 3.75449 0.479108C4.29936 0.478326 4.84423 0.477543 5.38949 0.479499C5.92202 0.481064 6.29247 0.849257 6.29787 1.38687C6.30212 1.82589 6.29903 2.26529 6.29826 2.7043C6.29826 2.74187 6.29247 2.77982 6.28861 2.82599Z" fill="#F23844"/>
</svg>
