<svg width="13" height="16" viewBox="0 0 13 16" fill="none" xmlns="http://www.w3.org/2000/svg">
<path d="M9.28232 15.2335C8.86363 15.0703 8.45536 14.8864 8.09417 14.6118C6.96159 13.7498 6.37002 12.6014 6.33143 11.1685C6.31715 10.627 6.32835 10.0851 6.32912 9.54315C6.3295 9.27748 6.42906 9.13896 6.6795 9.05445C7.51534 8.77194 8.35001 8.48553 9.18932 8.21359C9.30894 8.17486 9.46176 8.17486 9.58138 8.21359C10.4203 8.48553 11.2546 8.77155 12.09 9.05523C12.3436 9.14131 12.4381 9.27708 12.4389 9.54511C12.4397 10.0577 12.4404 10.5703 12.4389 11.0824C12.4335 12.9762 11.3125 14.5738 9.54819 15.2034C9.5262 15.2112 9.50575 15.2237 9.48491 15.2339C9.41776 15.2335 9.34985 15.2335 9.28232 15.2335ZM8.94698 11.5974C8.86903 11.4909 8.80189 11.3962 8.73127 11.3039C8.56688 11.0883 8.30641 11.0453 8.10652 11.1983C7.91473 11.345 7.88193 11.6099 8.03397 11.8247C8.17713 12.027 8.32261 12.2277 8.47118 12.4261C8.62978 12.6374 8.84588 12.6839 9.07124 12.547C9.58833 12.234 10.105 11.9202 10.6136 11.5934C10.7024 11.5363 10.778 11.4244 10.812 11.3215C10.8702 11.145 10.8097 10.9823 10.6584 10.8692C10.4975 10.7487 10.3261 10.7499 10.1575 10.8532C9.75735 11.0969 9.35872 11.3438 8.94698 11.5974Z" fill="#003556"/>
<path d="M5.87818 13.1871C4.60706 13.1871 3.35794 13.1871 2.07988 13.1871C2.07988 13.355 2.0876 13.5142 2.07795 13.6727C2.06599 13.875 1.91819 14.0323 1.72757 14.0648C1.53076 14.0984 1.34168 14.0033 1.26219 13.8222C1.23556 13.7611 1.22051 13.6915 1.21704 13.6246C1.2097 13.4689 1.26141 13.2861 1.19736 13.1637C1.1387 13.0517 0.953089 13.0134 0.834235 12.9277C0.439858 12.6429 0.222217 12.252 0.221445 11.7601C0.216815 9.47547 0.216429 7.1908 0.22106 4.90613C0.222603 4.14196 0.804136 3.53118 1.557 3.47875C1.62415 3.47405 1.69206 3.47014 1.75921 3.47014C3.35138 3.46975 4.94356 3.4721 6.53612 3.46858C7.11147 3.46701 7.56759 3.68182 7.87437 4.18422C8.01214 4.4096 8.07388 4.65806 8.07388 4.92256C8.07388 5.79629 8.07542 6.6704 8.07079 7.54412C8.07041 7.59186 8.02873 7.66816 7.98898 7.68224C7.45684 7.86928 6.92162 8.0477 6.38678 8.22769C6.37404 8.23199 6.35861 8.22808 6.32889 8.22808C6.32889 8.17447 6.32889 8.12282 6.32889 8.07078C6.32889 7.29957 6.33082 6.52798 6.32774 5.75677C6.32619 5.39014 5.96809 5.17689 5.6698 5.3604C5.52586 5.44922 5.46026 5.58421 5.46026 5.75285C5.45987 6.11909 5.46026 6.48493 5.46026 6.85117C5.46026 8.23277 5.46373 9.61437 5.45872 10.996C5.45602 11.7171 5.57371 12.4128 5.84152 13.0819C5.85194 13.1085 5.86004 13.1355 5.87818 13.1871ZM2.83159 8.36424C2.83159 8.06648 2.83159 7.76872 2.83159 7.47095C2.83159 6.89499 2.83429 6.31903 2.83005 5.74307C2.82812 5.45744 2.60778 5.26532 2.33688 5.30054C2.11345 5.32949 1.96412 5.51809 1.96373 5.78259C1.96257 7.50069 1.96296 9.21879 1.96412 10.9373C1.96412 10.9952 1.97183 11.0547 1.98765 11.1102C2.03975 11.2933 2.21147 11.4221 2.39747 11.4232C2.58848 11.4244 2.76792 11.2906 2.81461 11.1012C2.83198 11.0316 2.83082 10.9561 2.83082 10.8833C2.83198 10.0432 2.83159 9.20392 2.83159 8.36424ZM3.71527 8.35798C3.71527 9.19258 3.71527 10.0272 3.71527 10.8622C3.71527 10.9158 3.71412 10.9698 3.71875 11.023C3.73727 11.2362 3.90397 11.4033 4.11467 11.4217C4.3188 11.4397 4.51561 11.2961 4.56461 11.0871C4.57889 11.0261 4.58314 10.9615 4.58314 10.8989C4.58391 9.2051 4.58429 7.51165 4.58314 5.81781C4.58314 5.75012 4.57889 5.68008 4.56153 5.61512C4.4913 5.34749 4.19146 5.21524 3.94989 5.34514C3.77856 5.43709 3.71373 5.58813 3.71412 5.78103C3.71682 6.63988 3.71527 7.49913 3.71527 8.35798Z" fill="#003556"/>
<path d="M5.87894 2.58155C5.59416 2.58155 5.31709 2.58155 5.02497 2.58155C5.02497 2.09675 5.02497 1.61587 5.02497 1.12443C4.43997 1.12443 3.86924 1.12443 3.28153 1.12443C3.28153 1.60453 3.28153 2.08462 3.28153 2.57763C2.98864 2.57763 2.71196 2.57763 2.41676 2.57763C2.41444 2.53694 2.40943 2.49038 2.40943 2.44382C2.40865 2.01928 2.40711 1.59474 2.40943 1.17021C2.4129 0.591899 2.77023 0.235445 3.34482 0.234662C3.88969 0.23388 4.43457 0.233097 4.97983 0.235054C5.51235 0.236619 5.8828 0.604811 5.88821 1.14243C5.89245 1.58144 5.88936 2.02084 5.88859 2.45986C5.88859 2.49742 5.8828 2.53537 5.87894 2.58155Z" fill="#003556"/>
</svg>
