<svg width="19" height="15" viewBox="0 0 19 15" fill="none" xmlns="http://www.w3.org/2000/svg">
<path d="M18.9242 2.05026C18.2502 2.34886 17.5352 2.54486 16.8031 2.63174C17.5657 2.17471 18.1512 1.45099 18.4269 0.588674C17.702 1.01884 16.9089 1.32191 16.0819 1.48481C15.4082 0.767127 14.4485 0.318604 13.3863 0.318604C11.3468 0.318604 9.69329 1.97207 9.69329 4.01142C9.69329 4.30089 9.72598 4.58271 9.78891 4.85306C6.71977 4.699 3.99868 3.22884 2.17723 0.994588C1.85942 1.54 1.67731 2.17443 1.67731 2.85112C1.67731 4.13235 2.32932 5.26263 3.32016 5.9249C2.73372 5.90653 2.16018 5.74814 1.64743 5.46295C1.64722 5.47842 1.64722 5.49389 1.64722 5.50942C1.64722 7.29867 2.92016 8.79126 4.60948 9.13052C4.06568 9.27841 3.49526 9.30006 2.94181 9.1938C3.41171 10.6609 4.77556 11.7286 6.39148 11.7584C5.12762 12.7489 3.53525 13.3393 1.80514 13.3393C1.50701 13.3393 1.21311 13.3218 0.924194 13.2877C2.55847 14.3355 4.49959 14.9468 6.58505 14.9468C13.3777 14.9468 17.0921 9.31966 17.0921 4.43969C17.0921 4.27952 17.0886 4.12026 17.0814 3.96192C17.8044 3.43927 18.4284 2.79193 18.9242 2.05026Z" fill="#55ACEE"/>
</svg>
