<svg width="13" height="16" viewBox="0 0 13 16" fill="none" xmlns="http://www.w3.org/2000/svg">
<path d="M1.39062 15.7262C1.19171 15.7262 1.00095 15.6472 0.860295 15.5065C0.719643 15.3659 0.640625 15.1751 0.640625 14.9762V1.4762C0.640625 1.27728 0.719643 1.08652 0.860295 0.945866C1.00095 0.805214 1.19171 0.726196 1.39062 0.726196H11.8906C12.0895 0.726196 12.2803 0.805214 12.421 0.945866C12.5616 1.08652 12.6406 1.27728 12.6406 1.4762V14.9762C12.6406 15.1751 12.5616 15.3659 12.421 15.5065C12.2803 15.6472 12.0895 15.7262 11.8906 15.7262H1.39062ZM8.89062 11.2262L12.6406 8.2262L8.89062 5.2262V7.4762H4.39062V8.9762H8.89062V11.2262Z" fill="#303030"/>
</svg>
