<svg width="21" height="14" viewBox="0 0 21 14" fill="none" xmlns="http://www.w3.org/2000/svg">
<path d="M0.562012 6.9755C0.871341 6.43284 1.17781 5.89018 1.48714 5.3503C1.62175 5.11376 1.74205 5.06645 2.01987 5.13324C3.16267 5.40875 4.3026 5.68982 5.44827 5.95975C5.55711 5.9848 5.69745 5.97645 5.79769 5.93193C6.42495 5.65642 7.04647 5.36422 7.66799 5.07758C7.71954 5.05254 7.7711 5.02471 7.8427 4.98853C7.76537 4.93566 7.70236 4.89391 7.64221 4.85217C6.46504 4.07018 5.29074 3.28263 4.1107 2.50621C3.90162 2.36985 3.80997 2.20844 3.8472 1.96633C3.97036 1.20661 4.53746 0.633336 5.55424 0.894926C6.1729 1.05355 6.76864 1.30123 7.37012 1.52664C8.78215 2.05538 10.1942 2.59526 11.6033 3.13514C11.7408 3.18801 11.8525 3.18523 11.9871 3.12122C13.6655 2.35593 15.3468 1.59899 17.0223 0.83092C17.6639 0.538718 18.3255 0.40514 19.0301 0.488627C20.3304 0.644467 20.952 1.87728 20.3018 3.00156C19.9925 3.53587 19.5399 3.93382 18.9757 4.19541C17.5092 4.87722 16.0342 5.54232 14.562 6.21578C14.4245 6.27978 14.2842 6.34101 14.1066 6.42171C14.2842 5.91245 14.4475 5.44214 14.6107 4.97183C14.6394 4.88835 14.6995 4.7993 14.6852 4.72138C14.668 4.62119 14.6164 4.49875 14.5362 4.44865C14.4245 4.3763 14.2928 4.42361 14.2183 4.54327C14.1754 4.61284 14.1524 4.69355 14.1238 4.77147C13.1987 7.44859 12.2736 10.1257 11.3456 12.8001C11.2367 13.1117 11.105 13.4151 10.8472 13.646C10.6582 13.8186 10.3832 13.852 10.1627 13.7184C10.1168 13.6906 10.0767 13.6071 10.0825 13.5542C10.1512 12.7667 10.2285 11.9791 10.3059 11.1916C10.4176 10.045 10.5293 8.89847 10.641 7.75471C10.6811 7.34562 10.7298 6.93654 10.7527 6.52746C10.7584 6.43284 10.6983 6.29926 10.6209 6.24082C10.472 6.12673 10.2715 6.24082 10.2486 6.44954C10.1913 6.95324 10.134 7.45694 10.0997 7.96064C10.0853 8.16657 10.0166 8.27789 9.81324 8.36972C7.93149 9.21571 6.0526 10.0756 4.17658 10.93C3.82715 11.0886 3.67249 11.0329 3.50923 10.6962C3.2801 10.2203 3.05383 9.74446 2.82756 9.26859C2.68435 8.96804 2.74164 8.82055 3.05383 8.67862C3.19417 8.61461 3.33452 8.54783 3.5121 8.4699C3.42903 8.43094 3.36889 8.40312 3.30874 8.37807C2.52682 8.06361 1.74491 7.75471 0.968722 7.43189C0.819786 7.37345 0.696627 7.25657 0.562012 7.16752C0.562012 7.10351 0.562012 7.03951 0.562012 6.9755Z" fill="black"/>
</svg>
