<svg width="19" height="19" viewBox="0 0 19 19" fill="none" xmlns="http://www.w3.org/2000/svg">
<path d="M17.1527 9.61773C16.997 9.84511 16.8574 10.0855 16.683 10.2976C15.7416 11.4418 14.6419 12.3969 13.3125 13.0699C12.4053 13.5292 11.4486 13.8218 10.4333 13.918C8.46084 14.1051 6.67706 13.5814 5.04322 12.4916C3.98262 11.7842 3.09802 10.8923 2.3273 9.88269C2.13712 9.63384 2.13673 9.36428 2.32577 9.11619C3.21535 7.95168 4.25448 6.95051 5.52444 6.2051C6.57469 5.58891 7.70009 5.19742 8.91752 5.082C10.6898 4.91444 12.3267 5.32663 13.8493 6.22734C15.1086 6.97198 16.137 7.97047 17.0177 9.12884C17.0752 9.20438 17.1086 9.29832 17.1531 9.38345C17.1527 9.46167 17.1527 9.53989 17.1527 9.61773ZM9.70089 12.6442C11.4628 12.6182 12.8328 11.1975 12.814 9.41604C12.7964 7.73887 11.3424 6.33279 9.65104 6.35733C7.8711 6.38302 6.50758 7.79063 6.52484 9.58437C6.54094 11.2681 7.99572 12.6695 9.70089 12.6442Z" fill="#8F9098"/>
<path d="M11.3643 9.50232C11.3581 10.4414 10.582 11.2025 9.63954 11.1937C8.7212 11.1849 7.97157 10.4168 7.97656 9.4889C7.98154 8.55522 8.76261 7.79678 9.70971 7.80598C10.6204 7.8148 11.3704 8.5836 11.3643 9.50232Z" fill="#8F9098"/>
</svg>
