<svg width="19" height="19" viewBox="0 0 19 19" fill="none" xmlns="http://www.w3.org/2000/svg">
<path d="M13.5921 5.85255C13.9674 5.85255 14.3298 5.85206 14.6922 5.85255C16.1163 5.85595 17.1379 6.8592 17.1394 8.26238C17.1419 10.2893 17.1429 12.3167 17.1389 14.3437C17.1364 15.5483 16.3345 16.4898 15.1416 16.6975C15.0092 16.7204 14.872 16.7243 14.7367 16.7243C11.3419 16.7258 7.9472 16.7277 4.55246 16.7243C3.3669 16.7233 2.42328 15.9648 2.19367 14.836C2.15664 14.6531 2.14726 14.4624 2.14726 14.2751C2.1438 12.3936 2.1443 10.5121 2.14578 8.6307C2.14627 8.13929 2.12603 7.64594 2.16257 7.15696C2.25638 5.88855 2.92299 5.00597 4.12534 4.56127C6.63572 3.63392 9.15597 2.73333 11.6738 1.82399C12.492 1.52866 13.3146 1.92373 13.5338 2.71971C13.5768 2.8754 13.5891 3.04326 13.5901 3.20528C13.5951 4.07862 13.5921 4.95245 13.5921 5.85255ZM4.13374 5.83163C4.57962 5.83163 4.98551 5.83163 5.39139 5.83163C7.62723 5.83163 9.86307 5.83163 12.0989 5.83163C12.3646 5.83163 12.4085 5.78784 12.4085 5.52413C12.409 4.74761 12.409 3.97061 12.4085 3.19409C12.408 2.9007 12.3127 2.83551 12.0322 2.93719C9.53915 3.83924 7.04605 4.74129 4.55345 5.64528C4.41865 5.69442 4.29026 5.76205 4.13374 5.83163Z" fill="#303030"/>
</svg>
