<svg width="19" height="19" viewBox="0 0 19 19" fill="none" xmlns="http://www.w3.org/2000/svg">
<g clip-path="url(#clip0_582_870)">
<path d="M1.30832 9.50074C1.3079 11.0131 1.70615 12.4898 2.46342 13.7914L1.2359 18.2385L5.82253 17.0452C7.09112 17.7304 8.5125 18.0895 9.9569 18.0896H9.9607C14.7289 18.0896 18.6104 14.2396 18.6124 9.50751C18.6134 7.21446 17.7142 5.05823 16.0806 3.436C14.4472 1.8139 12.2749 0.920114 9.96035 0.919067C5.19154 0.919067 1.31036 4.76884 1.30839 9.50074" fill="url(#paint0_linear_582_870)"/>
<path d="M0.999429 9.49801C0.998937 11.0648 1.41146 12.5943 2.19573 13.9425L0.924194 18.549L5.67528 17.3129C6.98436 18.0211 8.45825 18.3945 9.95801 18.3951H9.96188C14.9012 18.3951 18.9221 14.4066 18.9242 9.50513C18.925 7.12968 17.9935 4.89594 16.3015 3.21559C14.6093 1.53545 12.3593 0.609497 9.96188 0.608521C5.02173 0.608521 1.00147 4.59643 0.999499 9.49801H0.999429ZM3.8288 13.7103L3.65141 13.4309C2.90567 12.2543 2.51206 10.8947 2.51262 9.49857C2.51424 5.4245 5.85577 2.10992 9.96469 2.10992C11.9545 2.11075 13.8246 2.88043 15.2311 4.27689C16.6376 5.6735 17.4115 7.53001 17.411 9.50457C17.4092 13.5786 14.0676 16.8936 9.96188 16.8936H9.95893C8.62208 16.8929 7.31096 16.5367 6.16754 15.8635L5.89543 15.7034L3.07604 16.4369L3.8288 13.7102V13.7103Z" fill="url(#paint1_linear_582_870)"/>
<path d="M7.72188 5.78168C7.55412 5.4117 7.37756 5.40424 7.21802 5.39775C7.08738 5.39217 6.93804 5.39259 6.78884 5.39259C6.63949 5.39259 6.39684 5.44833 6.19174 5.67054C5.98643 5.89296 5.4079 6.43045 5.4079 7.52363C5.4079 8.61689 6.21037 9.67338 6.32224 9.82177C6.43425 9.96989 7.87144 12.2851 10.1476 13.1757C12.0393 13.9159 12.4242 13.7687 12.8348 13.7315C13.2454 13.6946 14.1598 13.1942 14.3463 12.6753C14.533 12.1565 14.533 11.7118 14.477 11.6189C14.421 11.5263 14.2717 11.4707 14.0478 11.3597C13.8237 11.2485 12.7228 10.711 12.5175 10.6368C12.3122 10.5627 12.163 10.5257 12.0136 10.7482C11.8643 10.9704 11.4354 11.4707 11.3047 11.6189C11.1742 11.7674 11.0434 11.7859 10.8196 11.6748C10.5955 11.5633 9.87429 11.329 9.01866 10.5721C8.35294 9.98307 7.9035 9.25575 7.77286 9.03326C7.64222 8.81112 7.75887 8.6907 7.87116 8.57998C7.97177 8.48042 8.09517 8.32052 8.20725 8.19082C8.31891 8.06105 8.35617 7.96847 8.43084 7.82028C8.50559 7.67196 8.46818 7.54219 8.41228 7.43105C8.35617 7.31991 7.92101 6.22107 7.72188 5.78175" fill="white"/>
</g>
<defs>
<linearGradient id="paint0_linear_582_870" x1="9.92417" y1="18.2385" x2="9.92417" y2="0.919067" gradientUnits="userSpaceOnUse">
<stop stop-color="#1FAF38"/>
<stop offset="1" stop-color="#60D669"/>
</linearGradient>
<linearGradient id="paint1_linear_582_870" x1="9.92419" y1="18.549" x2="9.92419" y2="0.608521" gradientUnits="userSpaceOnUse">
<stop stop-color="#F9F9F9"/>
<stop offset="1" stop-color="white"/>
</linearGradient>
<clipPath id="clip0_582_870">
<rect width="18" height="18" fill="white" transform="translate(0.924194 0.608521)"/>
</clipPath>
</defs>
</svg>
