<svg width="18" height="19" viewBox="0 0 18 19" fill="none" xmlns="http://www.w3.org/2000/svg">
<path d="M12.4173 9.62048C10.1244 9.62048 7.85766 9.62048 5.56181 9.62048C5.56181 9.45482 5.5653 9.29263 5.56122 9.13102C5.53966 8.256 4.97386 7.52816 4.12719 7.28343C4.11204 7.27881 4.09689 7.27246 4.08115 7.26842C3.9786 7.2436 3.82535 7.25111 3.78514 7.18819C3.73095 7.10392 3.76008 6.96424 3.7595 6.8488C3.75834 5.99398 3.75018 5.13916 3.76416 4.28434C3.76824 4.01652 3.79738 3.73947 3.87546 3.48551C4.07008 2.85348 4.55839 2.56489 5.19121 2.48119C5.33397 2.46215 5.47964 2.45522 5.62416 2.45522C7.87048 2.45349 10.1168 2.45003 12.3631 2.45926C12.6376 2.46041 12.9202 2.5014 13.1847 2.57354C13.768 2.73285 14.0728 3.1542 14.1783 3.72562C14.2097 3.89647 14.2173 4.07367 14.2185 4.24798C14.222 5.18245 14.2179 6.11692 14.2231 7.0514C14.2237 7.17607 14.1922 7.21705 14.0611 7.23841C13.1399 7.39021 12.4593 8.16595 12.4191 9.09754C12.4115 9.26608 12.4173 9.4352 12.4173 9.62048Z" fill="#B7E3FF"/>
<path d="M8.98572 15.5671C7.26965 15.5671 5.55359 15.5677 3.83753 15.5666C3.53044 15.5666 3.22569 15.544 2.94424 15.4055C2.46409 15.1695 2.28986 14.7487 2.27996 14.254C2.26481 13.5268 2.27413 12.7989 2.27355 12.0711C2.27297 11.1153 2.26889 10.1589 2.27471 9.20302C2.27996 8.38976 2.92385 7.80102 3.72157 7.86855C4.40042 7.9257 4.91087 8.49942 4.91262 9.21976C4.91611 10.399 4.91378 11.5776 4.91378 12.7568C4.91378 13.1429 5.01692 13.2439 5.41141 13.2439C7.80341 13.2439 10.1948 13.2439 12.5868 13.2439C12.9883 13.2439 13.0868 13.1452 13.0868 12.7435C13.0868 11.5695 13.085 10.3961 13.0874 9.22207C13.0891 8.59062 13.4475 8.09943 14.0255 7.92166C14.786 7.68789 15.5872 8.18255 15.7072 8.96233C15.7241 9.072 15.7264 9.18455 15.7264 9.29595C15.7276 10.8469 15.7311 12.3978 15.7235 13.9481C15.7224 14.1848 15.6961 14.4272 15.6373 14.6557C15.498 15.1977 15.1128 15.4736 14.5663 15.5417C14.4177 15.5602 14.2668 15.5648 14.117 15.5648C12.4074 15.5677 10.6965 15.5671 8.98572 15.5671Z" fill="#B7E3FF"/>
<path d="M5.57294 12.5678C5.57294 11.8099 5.57294 11.059 5.57294 10.2988C7.84723 10.2988 10.1128 10.2988 12.39 10.2988C12.39 11.0532 12.39 11.8041 12.39 12.5678C10.1221 12.5678 7.85714 12.5678 5.57294 12.5678Z" fill="#B7E3FF"/>
<path d="M13.0761 16.2207C13.3028 16.2207 13.5202 16.2207 13.7486 16.2207C13.7486 16.6299 13.7486 17.0345 13.7486 17.4507C13.526 17.4507 13.3051 17.4507 13.0761 17.4507C13.0761 17.0392 13.0761 16.634 13.0761 16.2207Z" fill="#B7E3FF"/>
<path d="M4.90411 17.4538C4.67802 17.4538 4.46125 17.4538 4.23633 17.4538C4.23633 17.0405 4.23633 16.6359 4.23633 16.2227C4.46067 16.2227 4.67744 16.2227 4.90411 16.2227C4.90411 16.629 4.90411 17.0342 4.90411 17.4538Z" fill="#B7E3FF"/>
</svg>
