<svg width="19" height="19" viewBox="0 0 19 19" fill="none" xmlns="http://www.w3.org/2000/svg">
<path d="M9.30641 1.88869C10.0271 1.88869 10.7214 1.98244 11.3894 2.16994C12.0574 2.35744 12.6843 2.62111 13.2703 2.96095C13.8562 3.3008 14.3894 3.71388 14.8699 4.20021C15.3504 4.68654 15.7605 5.21681 16.1004 5.79103C16.4402 6.36525 16.7068 6.9922 16.9002 7.67189C17.0935 8.35158 17.1873 9.04884 17.1814 9.76369C17.1814 10.4844 17.0877 11.1787 16.9002 11.8467C16.7127 12.5147 16.449 13.1416 16.1091 13.7276C15.7693 14.3135 15.3562 14.8467 14.8699 15.3272C14.3836 15.8076 13.8533 16.2178 13.2791 16.5576C12.7048 16.8975 12.0779 17.1641 11.3982 17.3574C10.7185 17.5508 10.0213 17.6445 9.30641 17.6387C8.58571 17.6387 7.89137 17.5449 7.2234 17.3574C6.55543 17.1699 5.92848 16.9063 5.34254 16.5664C4.75661 16.2266 4.2234 15.8135 3.74293 15.3272C3.26247 14.8408 2.85231 14.3106 2.51247 13.7363C2.17262 13.1621 1.90602 12.5352 1.71266 11.8555C1.5193 11.1758 1.42555 10.4785 1.43141 9.76369C1.43141 9.04298 1.52516 8.34865 1.71266 7.68068C1.90016 7.01271 2.16383 6.38576 2.50368 5.79982C2.84352 5.21388 3.25661 4.68068 3.74293 4.20021C4.22926 3.71974 4.75954 3.30958 5.33375 2.96974C5.90797 2.6299 6.53493 2.3633 7.21461 2.16994C7.8943 1.97658 8.59157 1.88283 9.30641 1.88869ZM9.30641 16.5137C9.9275 16.5137 10.5252 16.4346 11.0994 16.2764C11.6736 16.1182 12.2097 15.8897 12.7078 15.5908C13.2058 15.292 13.6629 14.9404 14.0789 14.5361C14.4949 14.1319 14.8464 13.6777 15.1336 13.1738C15.4207 12.6699 15.6463 12.1309 15.8103 11.5567C15.9744 10.9824 16.0564 10.3848 16.0564 9.76369C16.0564 9.14259 15.9773 8.54494 15.8191 7.97072C15.6609 7.3965 15.4324 6.86037 15.1336 6.36232C14.8347 5.86427 14.4832 5.40724 14.0789 4.99123C13.6746 4.57521 13.2205 4.22365 12.7166 3.93654C12.2127 3.64943 11.6736 3.42384 11.0994 3.25978C10.5252 3.09572 9.9275 3.01369 9.30641 3.01369C8.68532 3.01369 8.08766 3.09279 7.51344 3.25099C6.93922 3.40919 6.40309 3.63771 5.90504 3.93654C5.407 4.23537 4.94997 4.58693 4.53395 4.99123C4.11793 5.39552 3.76637 5.84962 3.47926 6.35353C3.19215 6.85744 2.96657 7.3965 2.8025 7.97072C2.63844 8.54494 2.55641 9.14259 2.55641 9.76369C2.55641 10.3848 2.63551 10.9824 2.79372 11.5567C2.95192 12.1309 3.18043 12.667 3.47926 13.1651C3.77809 13.6631 4.12965 14.1201 4.53395 14.5361C4.93825 14.9522 5.39235 15.3037 5.89625 15.5908C6.40016 15.8779 6.93922 16.1035 7.51344 16.2676C8.08766 16.4317 8.68532 16.5137 9.30641 16.5137ZM9.30641 6.38869C9.7693 6.38869 10.2058 6.47658 10.616 6.65236C11.0261 6.82814 11.3836 7.0713 11.6882 7.38185C11.9929 7.6924 12.2332 8.04982 12.4089 8.45412C12.5847 8.85841 12.6756 9.29494 12.6814 9.76369C12.6814 10.2266 12.5935 10.6631 12.4177 11.0733C12.242 11.4834 11.9988 11.8408 11.6882 12.1455C11.3777 12.4502 11.0203 12.6904 10.616 12.8662C10.2117 13.042 9.77516 13.1328 9.30641 13.1387C8.84352 13.1387 8.407 13.0508 7.99684 12.875C7.58668 12.6992 7.22926 12.4561 6.92457 12.1455C6.61989 11.835 6.37965 11.4776 6.20387 11.0733C6.02809 10.669 5.93727 10.2324 5.93141 9.76369C5.93141 9.3008 6.0193 8.86427 6.19508 8.45412C6.37086 8.04396 6.61403 7.68654 6.92457 7.38185C7.23512 7.07716 7.59254 6.83693 7.99684 6.66115C8.40114 6.48537 8.83766 6.39455 9.30641 6.38869Z" fill="#003556"/>
</svg>
