<svg width="19" height="19" viewBox="0 0 19 19" fill="none" xmlns="http://www.w3.org/2000/svg">
<path d="M13.1214 9.62048C10.8285 9.62048 8.56176 9.62048 6.26591 9.62048C6.26591 9.45482 6.2694 9.29263 6.26532 9.13102C6.24376 8.256 5.67796 7.52816 4.83129 7.28343C4.81614 7.27881 4.80099 7.27246 4.78526 7.26842C4.6827 7.2436 4.52945 7.25111 4.48924 7.18819C4.43505 7.10392 4.46419 6.96424 4.4636 6.8488C4.46244 5.99398 4.45428 5.13916 4.46827 4.28434C4.47234 4.01652 4.50148 3.73947 4.57956 3.48551C4.77418 2.85348 5.26249 2.56489 5.89531 2.48119C6.03807 2.46215 6.18375 2.45522 6.32826 2.45522C8.57458 2.45349 10.8209 2.45003 13.0672 2.45926C13.3417 2.46041 13.6243 2.5014 13.8888 2.57354C14.4721 2.73285 14.7769 3.1542 14.8824 3.72562C14.9138 3.89647 14.9214 4.07367 14.9226 4.24798C14.9261 5.18245 14.922 6.11692 14.9272 7.0514C14.9278 7.17607 14.8963 7.21705 14.7652 7.23841C13.844 7.39021 13.1634 8.16595 13.1232 9.09754C13.1156 9.26608 13.1214 9.4352 13.1214 9.62048Z" fill="#FF9DC6"/>
<path d="M9.68982 15.5671C7.97375 15.5671 6.25769 15.5677 4.54163 15.5666C4.23454 15.5666 3.92979 15.544 3.64834 15.4055C3.1682 15.1695 2.99397 14.7487 2.98406 14.254C2.96891 13.5268 2.97823 12.7989 2.97765 12.0711C2.97707 11.1153 2.97299 10.1589 2.97882 9.20302C2.98406 8.38976 3.62795 7.80102 4.42567 7.86855C5.10452 7.9257 5.61497 8.49942 5.61672 9.21976C5.62021 10.399 5.61788 11.5776 5.61788 12.7568C5.61788 13.1429 5.72102 13.2439 6.11551 13.2439C8.50751 13.2439 10.8989 13.2439 13.2909 13.2439C13.6924 13.2439 13.7909 13.1452 13.7909 12.7435C13.7909 11.5695 13.7891 10.3961 13.7915 9.22207C13.7932 8.59062 14.1516 8.09943 14.7296 7.92166C15.4901 7.68789 16.2913 8.18255 16.4113 8.96233C16.4282 9.072 16.4305 9.18455 16.4305 9.29595C16.4317 10.8469 16.4352 12.3978 16.4276 13.9481C16.4265 14.1848 16.4002 14.4272 16.3414 14.6557C16.2021 15.1977 15.817 15.4736 15.2704 15.5417C15.1218 15.5602 14.9709 15.5648 14.8211 15.5648C13.1115 15.5677 11.4006 15.5671 9.68982 15.5671Z" fill="#FF9DC6"/>
<path d="M6.27704 12.5678C6.27704 11.8099 6.27704 11.059 6.27704 10.2988C8.55133 10.2988 10.8169 10.2988 13.0941 10.2988C13.0941 11.0532 13.0941 11.8041 13.0941 12.5678C10.8262 12.5678 8.56124 12.5678 6.27704 12.5678Z" fill="#FF9DC6"/>
<path d="M13.7802 16.2207C14.0069 16.2207 14.2243 16.2207 14.4527 16.2207C14.4527 16.6299 14.4527 17.0345 14.4527 17.4507C14.2301 17.4507 14.0092 17.4507 13.7802 17.4507C13.7802 17.0392 13.7802 16.634 13.7802 16.2207Z" fill="#FF9DC6"/>
<path d="M5.60821 17.4538C5.38212 17.4538 5.16535 17.4538 4.94043 17.4538C4.94043 17.0405 4.94043 16.6359 4.94043 16.2227C5.16477 16.2227 5.38154 16.2227 5.60821 16.2227C5.60821 16.629 5.60821 17.0342 5.60821 17.4538Z" fill="#FF9DC6"/>
</svg>
