<svg width="25" height="24" viewBox="0 0 25 24" fill="none" xmlns="http://www.w3.org/2000/svg">
<path d="M12.8173 7.38671C12.8173 10.3385 12.8173 13.2566 12.8173 16.2122C13.0382 16.2122 13.2544 16.2077 13.4699 16.2129C14.6366 16.2407 15.6071 16.9691 15.9334 18.0591C15.9395 18.0786 15.948 18.0981 15.9534 18.1183C15.9865 18.2503 15.9765 18.4476 16.0604 18.4994C16.1727 18.5692 16.359 18.5317 16.5129 18.5324C17.6526 18.5339 18.7924 18.5444 19.9322 18.5264C20.2892 18.5212 20.6587 18.4836 20.9973 18.3831C21.84 18.1326 22.2248 17.504 22.3364 16.6893C22.3618 16.5055 22.371 16.318 22.371 16.1319C22.3733 13.2401 22.3779 10.3483 22.3656 7.45647C22.3641 7.10315 22.3094 6.73933 22.2132 6.39876C22.0008 5.64787 21.439 5.25554 20.6771 5.11976C20.4493 5.07925 20.2131 5.0695 19.9806 5.068C18.7347 5.0635 17.4887 5.06875 16.2427 5.062C16.0765 5.06125 16.0219 5.10176 15.9934 5.27054C15.791 6.45653 14.7567 7.3327 13.5146 7.38446C13.2898 7.39421 13.0643 7.38671 12.8173 7.38671Z" fill="#8F9098"/>
<path d="M4.88811 11.8044C4.88811 14.0136 4.88734 16.2228 4.88888 18.432C4.88888 18.8273 4.91889 19.2196 5.10359 19.5819C5.41835 20.2001 5.97938 20.4243 6.63892 20.4371C7.6086 20.4566 8.57905 20.4446 9.54951 20.4454C10.8239 20.4461 12.0992 20.4514 13.3736 20.4439C14.4579 20.4371 15.2429 19.6082 15.1529 18.5812C15.0767 17.7073 14.3117 17.0502 13.3513 17.0479C11.779 17.0434 10.2075 17.0464 8.63523 17.0464C8.12038 17.0464 7.9857 16.9137 7.9857 16.4058C7.9857 13.3265 7.9857 10.2478 7.9857 7.16849C7.9857 6.65164 8.1173 6.52486 8.65294 6.52486C10.2183 6.52486 11.7829 6.52711 13.3482 6.52411C14.1901 6.52186 14.845 6.06052 15.0821 5.31637C15.3938 4.33743 14.7342 3.30598 13.6945 3.15145C13.5483 3.12969 13.3982 3.12669 13.2497 3.12669C11.1818 3.12519 9.11392 3.12069 7.0468 3.13044C6.73127 3.13194 6.40805 3.1657 6.10329 3.24146C5.38064 3.42075 5.01278 3.9166 4.92197 4.62024C4.89734 4.81152 4.89119 5.00581 4.89119 5.1986C4.88734 7.39953 4.88811 9.60197 4.88811 11.8044Z" fill="#8F9098"/>
<path d="M8.88734 16.1979C9.89781 16.1979 10.899 16.1979 11.9126 16.1979C11.9126 13.27 11.9126 10.3535 11.9126 7.42189C10.9067 7.42189 9.90551 7.42189 8.88734 7.42189C8.88734 10.3415 8.88734 13.2573 8.88734 16.1979Z" fill="#8F9098"/>
<path d="M4.01782 6.53857C4.01782 6.24677 4.01782 5.96696 4.01782 5.6729C3.47218 5.6729 2.9327 5.6729 2.37783 5.6729C2.37783 5.95946 2.37783 6.24377 2.37783 6.53857C2.92654 6.53857 3.4668 6.53857 4.01782 6.53857Z" fill="#8F9098"/>
<path d="M2.37385 17.0589C2.37385 17.3499 2.37385 17.629 2.37385 17.9186C2.92487 17.9186 3.46436 17.9186 4.01538 17.9186C4.01538 17.6297 4.01538 17.3507 4.01538 17.0589C3.47359 17.0589 2.93334 17.0589 2.37385 17.0589Z" fill="#8F9098"/>
</svg>
