<svg width="25" height="25" viewBox="0 0 25 25" fill="none" xmlns="http://www.w3.org/2000/svg">
<path d="M12.5781 8.35373C12.5781 11.411 12.5781 14.4333 12.5781 17.4944C12.7989 17.4944 13.0152 17.4898 13.2307 17.4952C14.3974 17.5239 15.3678 18.2783 15.6941 19.4072C15.7003 19.4274 15.7087 19.4476 15.7141 19.4686C15.7472 19.6054 15.7372 19.8097 15.8211 19.8633C15.9335 19.9356 16.1197 19.8967 16.2736 19.8975C17.4134 19.899 18.5531 19.9099 19.6929 19.8913C20.05 19.8858 20.4194 19.847 20.758 19.7429C21.6007 19.4834 21.9855 18.8323 22.0971 17.9885C22.1225 17.7982 22.1317 17.604 22.1317 17.4113C22.134 14.4162 22.1387 11.4211 22.1263 8.42599C22.1248 8.06005 22.0702 7.68323 21.974 7.3305C21.7616 6.55279 21.1998 6.14645 20.4379 6.00582C20.2101 5.96387 19.9738 5.95377 19.7414 5.95221C18.4954 5.94755 17.2495 5.95299 16.0035 5.946C15.8373 5.94522 15.7826 5.98718 15.7541 6.16199C15.5517 7.39033 14.5174 8.29779 13.2753 8.3514C13.0506 8.3615 12.8251 8.35373 12.5781 8.35373Z" fill="#FFDCEB"/>
<path d="M4.64885 12.9292C4.64885 15.2173 4.64808 17.5054 4.64962 19.7935C4.64962 20.2029 4.67963 20.6092 4.86433 20.9845C5.1791 21.6247 5.74013 21.857 6.39966 21.8702C7.36935 21.8904 8.3398 21.878 9.31025 21.8788C10.5847 21.8795 11.8599 21.885 13.1343 21.8772C14.2187 21.8702 15.0037 21.0117 14.9136 19.9481C14.8374 19.0429 14.0725 18.3623 13.112 18.36C11.5397 18.3553 9.96825 18.3584 8.39598 18.3584C7.88112 18.3584 7.74644 18.2209 7.74644 17.6949C7.74644 14.5056 7.74644 11.3171 7.74644 8.12772C7.74644 7.59241 7.87804 7.4611 8.41368 7.46111C9.97902 7.46111 11.5436 7.46344 13.1089 7.46033C13.9509 7.458 14.6058 6.98018 14.8428 6.20946C15.1545 5.19555 14.495 4.12726 13.4553 3.96721C13.309 3.94468 13.159 3.94157 13.0104 3.94157C10.9425 3.94002 8.87466 3.93536 6.80755 3.94546C6.49201 3.94701 6.16879 3.98197 5.86403 4.06044C5.14139 4.24613 4.77352 4.75969 4.68271 5.48846C4.65808 5.68658 4.65193 5.8878 4.65193 6.08748C4.64808 8.36702 4.64885 10.6481 4.64885 12.9292Z" fill="#FFDCEB"/>
<path d="M8.64809 17.4796C9.65856 17.4796 10.6598 17.4796 11.6733 17.4796C11.6733 14.4472 11.6733 11.4264 11.6733 8.39015C10.6675 8.39015 9.66625 8.39015 8.64809 8.39015C8.64809 11.414 8.64809 14.434 8.64809 17.4796Z" fill="#FFDCEB"/>
<path d="M3.77881 7.47528C3.77881 7.17305 3.77881 6.88325 3.77881 6.57869C3.23317 6.57869 2.69369 6.57869 2.13881 6.57869C2.13881 6.87548 2.13881 7.16994 2.13881 7.47528C2.68753 7.47528 3.22778 7.47528 3.77881 7.47528Z" fill="#FFDCEB"/>
<path d="M2.13459 18.3713C2.13459 18.6728 2.13459 18.9618 2.13459 19.2617C2.68562 19.2617 3.2251 19.2617 3.77612 19.2617C3.77612 18.9626 3.77612 18.6736 3.77612 18.3713C3.23433 18.3713 2.69408 18.3713 2.13459 18.3713Z" fill="#FFDCEB"/>
</svg>
