<svg width="25" height="25" viewBox="0 0 25 25" fill="none" xmlns="http://www.w3.org/2000/svg">
<path d="M13.4198 7.96814C13.4198 11.0254 13.4198 14.0477 13.4198 17.1088C13.6407 17.1088 13.857 17.1042 14.0725 17.1096C15.2392 17.1383 16.2096 17.8928 16.5359 19.0216C16.5421 19.0418 16.5505 19.062 16.5559 19.083C16.589 19.2198 16.579 19.4241 16.6629 19.4777C16.7753 19.55 16.9615 19.5111 17.1154 19.5119C18.2552 19.5134 19.3949 19.5243 20.5347 19.5057C20.8918 19.5002 21.2612 19.4614 21.5998 19.3573C22.4425 19.0978 22.8273 18.4467 22.9389 17.603C22.9643 17.4126 22.9735 17.2184 22.9735 17.0257C22.9758 14.0306 22.9805 11.0355 22.9681 8.04039C22.9666 7.67445 22.912 7.29764 22.8158 6.94491C22.6034 6.16719 22.0416 5.76085 21.2797 5.62023C21.0519 5.57827 20.8156 5.56817 20.5832 5.56662C19.3372 5.56196 18.0913 5.5674 16.8453 5.5604C16.6791 5.55963 16.6244 5.60158 16.5959 5.77639C16.3935 7.00473 15.3592 7.9122 14.1171 7.96581C13.8924 7.97591 13.6669 7.96814 13.4198 7.96814Z" fill="#B7E3FF"/>
<path d="M5.49065 12.5436C5.49065 14.8317 5.48988 17.1198 5.49142 19.4079C5.49142 19.8173 5.52143 20.2236 5.70613 20.5989C6.02089 21.2391 6.58192 21.4714 7.24146 21.4846C8.21114 21.5048 9.18159 21.4924 10.152 21.4932C11.4265 21.4939 12.7017 21.4994 13.9761 21.4916C15.0605 21.4846 15.8455 20.6261 15.7554 19.5625C15.6792 18.6573 14.9143 17.9767 13.9538 17.9744C12.3815 17.9697 10.81 17.9729 9.23777 17.9729C8.72292 17.9729 8.58824 17.8353 8.58824 17.3093C8.58824 14.12 8.58824 10.9315 8.58824 7.74213C8.58824 7.20681 8.71984 7.07551 9.25547 7.07551C10.8208 7.07551 12.3854 7.07784 13.9507 7.07474C14.7927 7.0724 15.4476 6.59459 15.6846 5.82386C15.9963 4.80996 15.3368 3.74167 14.2971 3.58162C14.1508 3.55909 14.0008 3.55598 13.8522 3.55598C11.7843 3.55443 9.71646 3.54976 7.64934 3.55986C7.33381 3.56142 7.01058 3.59638 6.70583 3.67485C5.98318 3.86054 5.61532 4.3741 5.52451 5.10286C5.49988 5.30098 5.49372 5.50221 5.49372 5.70188C5.48988 7.98142 5.49065 10.2625 5.49065 12.5436Z" fill="#B7E3FF"/>
<path d="M9.48988 17.094C10.5004 17.094 11.5016 17.094 12.5151 17.094C12.5151 14.0616 12.5151 11.0409 12.5151 8.00457C11.5093 8.00457 10.508 8.00457 9.48988 8.00457C9.48988 11.0284 9.48988 14.0484 9.48988 17.094Z" fill="#B7E3FF"/>
<path d="M4.62061 7.08971C4.62061 6.78748 4.62061 6.49769 4.62061 6.19313C4.07497 6.19313 3.53548 6.19313 2.98061 6.19313C2.98061 6.48992 2.98061 6.78438 2.98061 7.08971C3.52933 7.08971 4.06958 7.08971 4.62061 7.08971Z" fill="#B7E3FF"/>
<path d="M2.97639 17.9858C2.97639 18.2872 2.97639 18.5762 2.97639 18.8761C3.52741 18.8761 4.06689 18.8761 4.61792 18.8761C4.61792 18.577 4.61792 18.288 4.61792 17.9858C4.07613 17.9858 3.53588 17.9858 2.97639 17.9858Z" fill="#B7E3FF"/>
</svg>
