<svg width="25" height="25" viewBox="0 0 25 25" fill="none" xmlns="http://www.w3.org/2000/svg">
<path d="M12.5781 7.91055C12.5781 10.9678 12.5781 13.9901 12.5781 17.0512C12.7989 17.0512 13.0152 17.0466 13.2307 17.052C14.3974 17.0808 15.3678 17.8352 15.6941 18.9641C15.7003 18.9843 15.7087 19.0045 15.7141 19.0254C15.7472 19.1622 15.7372 19.3665 15.8211 19.4201C15.9335 19.4924 16.1197 19.4535 16.2736 19.4543C17.4134 19.4559 18.5531 19.4667 19.6929 19.4481C20.05 19.4427 20.4194 19.4038 20.758 19.2997C21.6007 19.0402 21.9855 18.3891 22.0971 17.5454C22.1225 17.355 22.1317 17.1608 22.1317 16.9681C22.134 13.973 22.1387 10.9779 22.1263 7.98281C22.1248 7.61687 22.0702 7.24006 21.974 6.88733C21.7616 6.10961 21.1998 5.70327 20.4379 5.56264C20.2101 5.52069 19.9738 5.51059 19.7414 5.50904C18.4954 5.50437 17.2495 5.50981 16.0035 5.50282C15.8373 5.50204 15.7826 5.544 15.7541 5.71881C15.5517 6.94715 14.5174 7.85461 13.2753 7.90822C13.0506 7.91832 12.8251 7.91055 12.5781 7.91055Z" fill="#FF80B5"/>
<path d="M4.64885 12.486C4.64885 14.7741 4.64808 17.0622 4.64962 19.3503C4.64962 19.7597 4.67963 20.1661 4.86433 20.5413C5.1791 21.1815 5.74013 21.4138 6.39966 21.427C7.36935 21.4472 8.3398 21.4348 9.31025 21.4356C10.5847 21.4364 11.8599 21.4418 13.1343 21.434C14.2187 21.427 15.0037 20.5685 14.9136 19.5049C14.8374 18.5998 14.0725 17.9192 13.112 17.9168C11.5397 17.9122 9.96825 17.9153 8.39598 17.9153C7.88112 17.9153 7.74644 17.7778 7.74644 17.2518C7.74644 14.0624 7.74644 10.8739 7.74644 7.68454C7.74644 7.14923 7.87804 7.01793 8.41368 7.01793C9.97902 7.01793 11.5436 7.02026 13.1089 7.01715C13.9509 7.01482 14.6058 6.537 14.8428 5.76628C15.1545 4.75238 14.495 3.68409 13.4553 3.52404C13.309 3.5015 13.159 3.4984 13.0104 3.4984C10.9425 3.49684 8.87466 3.49218 6.80755 3.50228C6.49201 3.50383 6.16879 3.5388 5.86403 3.61727C5.14139 3.80296 4.77352 4.31651 4.68271 5.04528C4.65808 5.2434 4.65193 5.44463 4.65193 5.6443C4.64808 7.92384 4.64885 10.2049 4.64885 12.486Z" fill="#FF80B5"/>
<path d="M8.64809 17.0364C9.65856 17.0364 10.6598 17.0364 11.6733 17.0364C11.6733 14.004 11.6733 10.9832 11.6733 7.94697C10.6675 7.94697 9.66625 7.94697 8.64809 7.94697C8.64809 10.9708 8.64809 13.9908 8.64809 17.0364Z" fill="#FF80B5"/>
<path d="M3.77881 7.0321C3.77881 6.72988 3.77881 6.44008 3.77881 6.13552C3.23317 6.13552 2.69369 6.13552 2.13881 6.13552C2.13881 6.43231 2.13881 6.72677 2.13881 7.0321C2.68753 7.0321 3.22778 7.0321 3.77881 7.0321Z" fill="#FF80B5"/>
<path d="M2.13459 17.9282C2.13459 18.2296 2.13459 18.5186 2.13459 18.8185C2.68562 18.8185 3.2251 18.8185 3.77612 18.8185C3.77612 18.5194 3.77612 18.2304 3.77612 17.9282C3.23433 17.9282 2.69408 17.9282 2.13459 17.9282Z" fill="#FF80B5"/>
</svg>
