<svg width="18" height="19" viewBox="0 0 18 19" fill="none" xmlns="http://www.w3.org/2000/svg">
<path d="M12.4173 9.12243C10.1244 9.12243 7.85766 9.12243 5.56181 9.12243C5.56181 8.95678 5.5653 8.79459 5.56122 8.63297C5.53966 7.75795 4.97386 7.03011 4.12719 6.78538C4.11204 6.78076 4.09689 6.77441 4.08115 6.77037C3.9786 6.74555 3.82535 6.75306 3.78514 6.69015C3.73095 6.60588 3.76008 6.46619 3.7595 6.35076C3.75834 5.49593 3.75018 4.64111 3.76416 3.78629C3.76824 3.51848 3.79738 3.24142 3.87546 2.98746C4.07008 2.35544 4.55839 2.06684 5.19121 1.98315C5.33397 1.9641 5.47964 1.95717 5.62416 1.95717C7.87048 1.95544 10.1168 1.95198 12.3631 1.96121C12.6376 1.96237 12.9202 2.00335 13.1847 2.0755C13.768 2.2348 14.0728 2.65615 14.1783 3.22757C14.2097 3.39842 14.2173 3.57562 14.2185 3.74993C14.222 4.6844 14.2179 5.61888 14.2231 6.55335C14.2237 6.67802 14.1922 6.719 14.0611 6.74036C13.1399 6.89216 12.4593 7.66791 12.4191 8.59949C12.4115 8.76803 12.4173 8.93715 12.4173 9.12243Z" fill="#003556"/>
<path d="M8.98572 15.0691C7.26965 15.0691 5.55359 15.0697 3.83753 15.0685C3.53044 15.0685 3.22569 15.046 2.94424 14.9075C2.46409 14.6714 2.28986 14.2506 2.27996 13.756C2.26481 13.0287 2.27413 12.3009 2.27355 11.573C2.27297 10.6172 2.26889 9.6608 2.27471 8.70497C2.27996 7.89171 2.92385 7.30298 3.72157 7.37051C4.40042 7.42765 4.91087 8.00138 4.91262 8.72171C4.91611 9.90092 4.91378 11.0795 4.91378 12.2587C4.91378 12.6449 5.01692 12.7459 5.41141 12.7459C7.80341 12.7459 10.1948 12.7459 12.5868 12.7459C12.9883 12.7459 13.0868 12.6472 13.0868 12.2455C13.0868 11.0715 13.085 9.89803 13.0874 8.72402C13.0891 8.09257 13.4475 7.60138 14.0255 7.42361C14.786 7.18985 15.5872 7.6845 15.7072 8.46429C15.7241 8.57395 15.7264 8.6865 15.7264 8.7979C15.7276 10.3488 15.7311 11.8997 15.7235 13.4501C15.7224 13.6867 15.6961 13.9291 15.6373 14.1577C15.498 14.6997 15.1128 14.9756 14.5663 15.0437C14.4177 15.0622 14.2668 15.0668 14.117 15.0668C12.4074 15.0697 10.6965 15.0691 8.98572 15.0691Z" fill="#003556"/>
<path d="M5.57294 12.0697C5.57294 11.3119 5.57294 10.5609 5.57294 9.80078C7.84723 9.80078 10.1128 9.80078 12.39 9.80078C12.39 10.5552 12.39 11.3061 12.39 12.0697C10.1221 12.0697 7.85714 12.0697 5.57294 12.0697Z" fill="#003556"/>
<path d="M13.0761 15.7227C13.3028 15.7227 13.5202 15.7227 13.7486 15.7227C13.7486 16.1319 13.7486 16.5365 13.7486 16.9527C13.526 16.9527 13.3051 16.9527 13.0761 16.9527C13.0761 16.5411 13.0761 16.1359 13.0761 15.7227Z" fill="#003556"/>
<path d="M4.90411 16.9558C4.67802 16.9558 4.46125 16.9558 4.23633 16.9558C4.23633 16.5425 4.23633 16.1379 4.23633 15.7246C4.46067 15.7246 4.67744 15.7246 4.90411 15.7246C4.90411 16.131 4.90411 16.5361 4.90411 16.9558Z" fill="#003556"/>
</svg>
