<svg width="19" height="19" viewBox="0 0 19 19" fill="none" xmlns="http://www.w3.org/2000/svg">
<path d="M12.429 9.62048C10.1361 9.62048 7.86938 9.62048 5.57352 9.62048C5.57352 9.45482 5.57702 9.29263 5.57294 9.13102C5.55138 8.256 4.98558 7.52816 4.13891 7.28343C4.12376 7.27881 4.10861 7.27246 4.09287 7.26842C3.99032 7.2436 3.83707 7.25111 3.79686 7.18819C3.74267 7.10392 3.7718 6.96424 3.77122 6.8488C3.77006 5.99398 3.7619 5.13916 3.77588 4.28434C3.77996 4.01652 3.8091 3.73947 3.88718 3.48551C4.0818 2.85348 4.57011 2.56489 5.20292 2.48119C5.34569 2.46215 5.49136 2.45522 5.63587 2.45522C7.8822 2.45349 10.1285 2.45003 12.3748 2.45926C12.6493 2.46041 12.9319 2.5014 13.1965 2.57354C13.7797 2.73285 14.0845 3.1542 14.19 3.72562C14.2214 3.89647 14.229 4.07367 14.2302 4.24798C14.2337 5.18245 14.2296 6.11692 14.2348 7.0514C14.2354 7.17607 14.204 7.21705 14.0728 7.23841C13.1516 7.39021 12.471 8.16595 12.4308 9.09754C12.4232 9.26608 12.429 9.4352 12.429 9.62048Z" fill="#8F9098"/>
<path d="M8.99744 15.5671C7.28137 15.5671 5.56531 15.5677 3.84925 15.5666C3.54216 15.5666 3.23741 15.544 2.95596 15.4055C2.47581 15.1695 2.30158 14.7487 2.29168 14.254C2.27653 13.5268 2.28585 12.7989 2.28527 12.0711C2.28469 11.1153 2.28061 10.1589 2.28643 9.20302C2.29168 8.38976 2.93557 7.80102 3.73329 7.86855C4.41214 7.9257 4.92259 8.49942 4.92433 9.21976C4.92783 10.399 4.9255 11.5776 4.9255 12.7568C4.9255 13.1429 5.02864 13.2439 5.42313 13.2439C7.81513 13.2439 10.2065 13.2439 12.5985 13.2439C13 13.2439 13.0985 13.1452 13.0985 12.7435C13.0985 11.5695 13.0968 10.3961 13.0991 9.22207C13.1008 8.59062 13.4592 8.09943 14.0372 7.92166C14.7977 7.68789 15.5989 8.18255 15.7189 8.96233C15.7358 9.072 15.7382 9.18455 15.7382 9.29595C15.7393 10.8469 15.7428 12.3978 15.7352 13.9481C15.7341 14.1848 15.7079 14.4272 15.649 14.6557C15.5097 15.1977 15.1246 15.4736 14.578 15.5417C14.4294 15.5602 14.2785 15.5648 14.1287 15.5648C12.4191 15.5677 10.7083 15.5671 8.99744 15.5671Z" fill="#8F9098"/>
<path d="M5.58466 12.5678C5.58466 11.8099 5.58466 11.059 5.58466 10.2988C7.85895 10.2988 10.1245 10.2988 12.4017 10.2988C12.4017 11.0532 12.4017 11.8041 12.4017 12.5678C10.1338 12.5678 7.86886 12.5678 5.58466 12.5678Z" fill="#8F9098"/>
<path d="M13.0879 16.2207C13.3145 16.2207 13.5319 16.2207 13.7603 16.2207C13.7603 16.6299 13.7603 17.0345 13.7603 17.4507C13.5377 17.4507 13.3169 17.4507 13.0879 17.4507C13.0879 17.0392 13.0879 16.634 13.0879 16.2207Z" fill="#8F9098"/>
<path d="M4.91583 17.4538C4.68974 17.4538 4.47297 17.4538 4.24805 17.4538C4.24805 17.0405 4.24805 16.6359 4.24805 16.2227C4.47239 16.2227 4.68915 16.2227 4.91583 16.2227C4.91583 16.629 4.91583 17.0342 4.91583 17.4538Z" fill="#8F9098"/>
</svg>
