<svg width="48" height="26" viewBox="0 0 48 26" fill="none" xmlns="http://www.w3.org/2000/svg">
<path d="M3.41942 25.8203C1.88123 25.8203 0.634277 24.4451 0.634277 22.7488L0.634276 3.07156C0.634276 1.37519 1.88123 2.9611e-06 3.41942 2.88695e-06L44.2682 9.1777e-07C45.8063 8.43619e-07 47.0533 1.37519 47.0533 3.07156L47.0533 22.7487C47.0533 24.4451 45.8063 25.8203 44.2682 25.8203L3.41942 25.8203Z" fill="#FFDCEB"/>
<path d="M39.2495 23.2146L39.2495 2.60721L42.6799 2.60721C43.9617 2.60721 45.0009 3.75319 45.0009 5.16684L45.0009 20.655C45.0009 22.0686 43.9617 23.2146 42.6799 23.2146L39.2495 23.2146Z" fill="#FFBAD7"/>
</svg>
