<svg width="19" height="19" viewBox="0 0 19 19" fill="none" xmlns="http://www.w3.org/2000/svg">
<path d="M12.8814 8.68609C10.5885 8.68609 8.32177 8.68609 6.02592 8.68609C6.02592 8.52044 6.02941 8.35824 6.02533 8.19663C6.00377 7.32161 5.43797 6.59377 4.5913 6.34904C4.57615 6.34442 4.561 6.33807 4.54527 6.33403C4.44271 6.30921 4.28946 6.31672 4.24925 6.2538C4.19506 6.16953 4.2242 6.02985 4.22361 5.91442C4.22245 5.05959 4.21429 4.20477 4.22827 3.34995C4.23235 3.08214 4.26149 2.80508 4.33957 2.55112C4.53419 1.9191 5.0225 1.6305 5.65532 1.54681C5.79808 1.52776 5.94376 1.52083 6.08827 1.52083C8.33459 1.5191 10.5809 1.51564 12.8272 1.52487C13.1017 1.52603 13.3843 1.56701 13.6489 1.63916C14.2321 1.79846 14.5369 2.21981 14.6424 2.79123C14.6738 2.96208 14.6814 3.13928 14.6826 3.31359C14.6861 4.24806 14.682 5.18254 14.6872 6.11701C14.6878 6.24168 14.6563 6.28266 14.5252 6.30402C13.604 6.45582 12.9234 7.23157 12.8832 8.16315C12.8756 8.33169 12.8814 8.50081 12.8814 8.68609Z" fill="#FFDCEB"/>
<path d="M9.44983 14.633C7.73376 14.633 6.0177 14.6336 4.30164 14.6324C3.99455 14.6324 3.6898 14.6099 3.40835 14.4714C2.9282 14.2353 2.75398 13.8146 2.74407 13.3199C2.72892 12.5927 2.73824 11.8648 2.73766 11.137C2.73708 10.1811 2.733 9.22474 2.73883 8.26891C2.74407 7.45565 3.38796 6.86691 4.18568 6.93444C4.86453 6.99158 5.37498 7.56531 5.37673 8.28565C5.38022 9.46485 5.37789 10.6435 5.37789 11.8227C5.37789 12.2088 5.48103 12.3098 5.87552 12.3098C8.26752 12.3098 10.6589 12.3098 13.0509 12.3098C13.4524 12.3098 13.5509 12.2111 13.5509 11.8094C13.5509 10.6354 13.5492 9.46196 13.5515 8.28796C13.5532 7.65651 13.9116 7.16532 14.4896 6.98754C15.2501 6.75378 16.0513 7.24843 16.1713 8.02822C16.1882 8.13789 16.1905 8.25044 16.1905 8.36184C16.1917 9.91275 16.1952 11.4637 16.1876 13.014C16.1865 13.2506 16.1602 13.4931 16.1014 13.7216C15.9621 14.2636 15.577 14.5395 15.0304 14.6076C14.8818 14.6261 14.7309 14.6307 14.5811 14.6307C12.8715 14.6336 11.1606 14.633 9.44983 14.633Z" fill="#FFDCEB"/>
<path d="M6.03711 11.6337C6.03711 10.8758 6.03711 10.1249 6.03711 9.36472C8.3114 9.36472 10.577 9.36472 12.8542 9.36472C12.8542 10.1191 12.8542 10.87 12.8542 11.6337C10.5863 11.6337 8.32131 11.6337 6.03711 11.6337Z" fill="#FFDCEB"/>
<path d="M13.5403 15.2856C13.767 15.2856 13.9843 15.2856 14.2127 15.2856C14.2127 15.6948 14.2127 16.0994 14.2127 16.5155C13.9901 16.5155 13.7693 16.5155 13.5403 16.5155C13.5403 16.104 13.5403 15.6988 13.5403 15.2856Z" fill="#FFDCEB"/>
<path d="M5.36822 16.5187C5.14213 16.5187 4.92536 16.5187 4.70044 16.5187C4.70044 16.1054 4.70044 15.7008 4.70044 15.2875C4.92478 15.2875 5.14155 15.2875 5.36822 15.2875C5.36822 15.6939 5.36822 16.0991 5.36822 16.5187Z" fill="#FFDCEB"/>
</svg>
