<svg width="22" height="22" viewBox="0 0 22 22" fill="none" xmlns="http://www.w3.org/2000/svg">
<path d="M10.7515 0.680664C7.97709 0.714136 5.32578 1.83113 3.36385 3.79305C1.40193 5.75498 0.284937 8.40629 0.251465 11.1807C0.284937 13.955 1.40193 16.6064 3.36385 18.5683C5.32578 20.5302 7.97709 21.6472 10.7515 21.6807C13.5258 21.6472 16.1772 20.5302 18.1391 18.5683C20.101 16.6064 21.218 13.955 21.2515 11.1807C21.218 8.40629 20.101 5.75498 18.1391 3.79305C16.1772 1.83113 13.5258 0.714136 10.7515 0.680664ZM16.7515 11.9307H11.5015V17.1807H10.0015V11.9307H4.75146V10.4307H10.0015V5.18066H11.5015V10.4307H16.7515V11.9307Z" fill="white"/>
</svg>
