<svg width="365" height="293" viewBox="0 0 365 293" fill="none" xmlns="http://www.w3.org/2000/svg">
<g filter="url(#filter0_d_9658_2356)">
<rect x="10" y="10" width="345" height="273" rx="15" fill="url(#paint0_linear_9658_2356)"/>
</g>
<path fill-rule="evenodd" clip-rule="evenodd" d="M354.774 184.581V267.898C354.774 276.183 348.059 282.898 339.774 282.898H252.146C245.087 271.621 241 258.246 241 243.904C241 203.64 273.211 171 312.946 171C328.546 171 342.987 176.032 354.774 184.581Z" fill="#9343FB"/>
<path fill-rule="evenodd" clip-rule="evenodd" d="M355 221.481V267.882C355 276.167 348.284 282.882 340 282.882H290.054C285.587 275.84 283 267.487 283 258.529C283 233.384 303.384 213 328.529 213C338.402 213 347.541 216.142 355 221.481Z" fill="#6B1FD1"/>
<g clip-path="url(#clip0_9658_2356)">
<path d="M84.9141 52.175C77.8047 53.4875 72.5219 58.8907 71.4609 65.9454C70.6953 71.0641 72.4016 76.1938 76.0984 79.8907C78.45 82.2422 81.075 83.6641 84.3891 84.3969C85.9641 84.7469 89.3437 84.7469 90.9516 84.3969C97.4812 82.975 102.305 78.1407 103.737 71.5782C104.033 70.2547 104.033 66.4704 103.748 65.125C103.267 62.8719 102.261 60.5532 100.97 58.7485C100.161 57.611 98.3891 55.8391 97.2516 55.0297C95.4906 53.7719 93.1828 52.7547 90.9844 52.2735C89.8141 52.011 86.1062 51.9454 84.9141 52.175ZM88.5672 56.9985C89.1906 57.4688 89.2891 57.7313 89.3219 59.011L89.3656 60.2032H90.6672C92.1219 60.2032 92.4937 60.3016 92.9969 60.8485C93.2484 61.111 93.325 61.3079 93.3687 61.7891C93.4125 62.3032 93.3797 62.4563 93.1391 62.8172C92.6469 63.561 92.4609 63.5938 89.2672 63.5938C86.0953 63.5938 85.8875 63.6375 85.4937 64.3704C85.1 65.1141 85.3625 66.0766 86.0734 66.4594C86.3687 66.6235 86.6969 66.6563 87.8125 66.6563C88.6 66.6563 89.4094 66.7219 89.7266 66.8094C91.9469 67.4 93.3906 69.2704 93.3906 71.5672C93.3906 73.6344 92.0672 75.4829 90.1094 76.1391L89.3984 76.3797L89.3437 77.6157C89.3 78.5672 89.2453 78.9172 89.0812 79.1469C88.5891 79.8907 87.5281 80.1204 86.8281 79.6391C86.1281 79.1688 86.0078 78.8954 85.975 77.6485L85.9312 76.5219L84.5531 76.4782C83 76.4235 82.6391 76.3032 82.2125 75.7125C81.8625 75.2094 81.8625 74.2907 82.2125 73.7875C82.7156 73.0875 82.8469 73.0657 86.1719 73C89.4094 72.9454 89.475 72.9344 89.825 72.3329C90.0766 71.8954 90.0547 71.0204 89.7703 70.6594C89.3656 70.1563 89.0266 70.0469 87.725 70.0469C86.2703 70.0469 85.5594 69.9157 84.6953 69.511C82.2453 68.3625 81.2062 65.3985 82.4094 62.9922C83.0219 61.7891 84.1594 60.8157 85.3734 60.4657L85.9531 60.3016V59.2297C85.9531 58.3547 85.9969 58.0922 86.2047 57.6875C86.6531 56.7907 87.8234 56.4516 88.5672 56.9985Z" fill="white"/>
<path d="M48.3391 80.3064L48 80.6345V91.6704V102.706L48.3391 103.034L48.6672 103.352L51.4672 103.384C54.3547 103.417 54.6828 103.384 55.0547 102.98C55.1422 102.87 56.4328 98.5282 57.9094 93.3329C60.8078 83.1392 60.7312 83.4673 60.2609 82.5267C59.8234 81.6735 59.2109 81.3564 56.8594 80.7767C54.7594 80.2626 53.5125 80.0985 50.9859 80.0329L48.6672 79.9673L48.3391 80.3064Z" fill="white"/>
<path d="M63.8374 84.572C63.8046 84.8017 62.7108 88.7611 61.3983 93.3767C60.0858 97.9923 59.0358 101.788 59.0577 101.809C59.178 101.93 63.7827 103.888 65.7843 104.664C69.8858 106.294 73.4515 107.388 76.0436 107.836C77.9796 108.164 80.1015 108.022 82.5405 107.388C89.289 105.638 100.336 100.333 103.376 97.3907C104 96.7782 104 96.7782 104 96.1329C104 95.3236 103.737 94.722 103.125 94.1095C101.987 92.972 99.8436 92.5236 97.678 92.972C95.9499 93.322 94.2765 93.9345 88.6327 96.2751C84.0608 98.1673 82.4311 98.6376 80.4843 98.6376C79.0515 98.6267 77.6405 98.3314 75.814 97.6532C74.1733 97.0407 70.6296 95.1923 71.4061 95.3564C72.4015 95.5642 76.6233 96.1111 78.4061 96.2642C83.339 96.6798 85.3296 95.8814 85.3405 93.4532C85.3515 92.3923 85.0452 91.6923 84.2686 90.9486C82.9671 89.7345 80.7358 88.9798 76.3499 88.3126L74.8843 88.0939L73.3968 87.2298C72.5765 86.7595 71.6358 86.2345 71.3077 86.0704C69.689 85.2611 67.4796 84.6048 65.5546 84.3751C65.0186 84.3095 64.4171 84.2329 64.2311 84.2001C63.903 84.1564 63.8811 84.1673 63.8374 84.572Z" fill="white"/>
</g>
<defs>
<filter id="filter0_d_9658_2356" x="0" y="0" width="365" height="293" filterUnits="userSpaceOnUse" color-interpolation-filters="sRGB">
<feFlood flood-opacity="0" result="BackgroundImageFix"/>
<feColorMatrix in="SourceAlpha" type="matrix" values="0 0 0 0 0 0 0 0 0 0 0 0 0 0 0 0 0 0 127 0" result="hardAlpha"/>
<feOffset/>
<feGaussianBlur stdDeviation="5"/>
<feComposite in2="hardAlpha" operator="out"/>
<feColorMatrix type="matrix" values="0 0 0 0 0 0 0 0 0 0 0 0 0 0 0 0 0 0 0.25 0"/>
<feBlend mode="normal" in2="BackgroundImageFix" result="effect1_dropShadow_9658_2356"/>
<feBlend mode="normal" in="SourceGraphic" in2="effect1_dropShadow_9658_2356" result="shape"/>
</filter>
<linearGradient id="paint0_linear_9658_2356" x1="-9.00001" y1="-2.81428" x2="420.641" y2="294.229" gradientUnits="userSpaceOnUse">
<stop stop-color="#9747FF"/>
<stop offset="1" stop-color="#540BBA"/>
</linearGradient>
<clipPath id="clip0_9658_2356">
<rect width="56" height="56" fill="white" transform="translate(48 52)"/>
</clipPath>
</defs>
</svg>
