<svg width="25" height="25" viewBox="0 0 25 25" fill="none" xmlns="http://www.w3.org/2000/svg">
<path fill-rule="evenodd" clip-rule="evenodd" d="M22.1125 12.5C22.1125 18.0228 17.6354 22.5 12.1125 22.5C6.5897 22.5 2.11255 18.0228 2.11255 12.5C2.11255 6.97715 6.5897 2.5 12.1125 2.5C17.6354 2.5 22.1125 6.97715 22.1125 12.5ZM9.027 8.6381C9.24274 8.46573 9.55736 8.50088 9.72974 8.71662L12.1125 11.6988L14.4954 8.71662C14.6677 8.50088 14.9824 8.46573 15.1981 8.6381C15.4138 8.81048 15.449 9.1251 15.2766 9.34084L12.7526 12.4998L15.2765 15.6587C15.4489 15.8745 15.4137 16.1891 15.198 16.3615C14.9823 16.5339 14.6677 16.4987 14.4953 16.283L12.1125 13.3008L9.72982 16.283C9.55745 16.4987 9.24282 16.5339 9.02709 16.3615C8.81135 16.1891 8.7762 15.8745 8.94857 15.6587L11.4725 12.4998L8.94849 9.34084C8.77611 9.1251 8.81127 8.81048 9.027 8.6381Z" fill="#003556"/>
</svg>
