<svg width="25" height="25" viewBox="0 0 25 25" fill="none" xmlns="http://www.w3.org/2000/svg">
<path fill-rule="evenodd" clip-rule="evenodd" d="M12.1125 22.4806C17.6354 22.4806 22.1125 18.0034 22.1125 12.4806C22.1125 6.95774 17.6354 2.48059 12.1125 2.48059C6.5897 2.48059 2.11255 6.95774 2.11255 12.4806C2.11255 18.0034 6.5897 22.4806 12.1125 22.4806ZM17.5066 9.43358C17.7006 9.23702 17.6985 8.92045 17.5019 8.72649C17.3054 8.53254 16.9888 8.53465 16.7948 8.73121L10.3792 15.2331L7.35308 13.205C7.12369 13.0512 6.8131 13.1126 6.65936 13.3419C6.50562 13.5713 6.56695 13.8819 6.79634 14.0357L10.1661 16.2941L10.5098 16.5245L10.8004 16.23L17.5066 9.43358Z" fill="#003556"/>
</svg>
