<svg width="21" height="21" viewBox="0 0 21 21" fill="none" xmlns="http://www.w3.org/2000/svg">
<path d="M11.8511 2.6525V0.583496H9.85107V2.6525C8.09137 2.87718 6.45604 3.67967 5.20164 4.93407C3.94725 6.18846 3.14476 7.82379 2.92007 9.5835H0.851074V11.5835H2.92007C3.14443 13.3433 3.94681 14.9788 5.20127 16.2333C6.45573 17.4878 8.09124 18.2901 9.85107 18.5145V20.5835H11.8511V18.5145C13.611 18.2903 15.2466 17.488 16.5011 16.2335C17.7556 14.979 18.5579 13.3434 18.7821 11.5835H20.8511V9.5835H18.7821C18.5577 7.82366 17.7553 6.18815 16.5009 4.93369C15.2464 3.67923 13.6109 2.87685 11.8511 2.6525ZM10.8511 16.5835C7.54207 16.5835 4.85107 13.8925 4.85107 10.5835C4.85107 7.2745 7.54207 4.5835 10.8511 4.5835C14.1601 4.5835 16.8511 7.2745 16.8511 10.5835C16.8511 13.8925 14.1601 16.5835 10.8511 16.5835Z" fill="white"/>
</svg>
