<svg width="18" height="19" viewBox="0 0 18 19" fill="none" xmlns="http://www.w3.org/2000/svg">
<path d="M1 10.1233H7C7.55 10.1233 8 9.67329 8 9.12329V1.12329C8 0.573291 7.55 0.123291 7 0.123291H1C0.45 0.123291 0 0.573291 0 1.12329V9.12329C0 9.67329 0.45 10.1233 1 10.1233ZM1 18.1233H7C7.55 18.1233 8 17.6733 8 17.1233V13.1233C8 12.5733 7.55 12.1233 7 12.1233H1C0.45 12.1233 0 12.5733 0 13.1233V17.1233C0 17.6733 0.45 18.1233 1 18.1233ZM11 18.1233H17C17.55 18.1233 18 17.6733 18 17.1233V9.12329C18 8.57329 17.55 8.12329 17 8.12329H11C10.45 8.12329 10 8.57329 10 9.12329V17.1233C10 17.6733 10.45 18.1233 11 18.1233ZM10 1.12329V5.12329C10 5.67329 10.45 6.12329 11 6.12329H17C17.55 6.12329 18 5.67329 18 5.12329V1.12329C18 0.573291 17.55 0.123291 17 0.123291H11C10.45 0.123291 10 0.573291 10 1.12329Z" fill="#003556"/>
</svg>
