<svg width="25" height="25" viewBox="0 0 25 25" fill="none" xmlns="http://www.w3.org/2000/svg">
<path d="M20.432 6.96563C20.5727 7.10625 20.6523 7.29609 20.6523 7.49531V21.9492C20.6523 22.3641 20.3172 22.6992 19.9023 22.6992H4.90234C4.4875 22.6992 4.15234 22.3641 4.15234 21.9492V2.44922C4.15234 2.03437 4.4875 1.69922 4.90234 1.69922H14.8563C15.0555 1.69922 15.2477 1.77891 15.3883 1.91953L20.432 6.96563ZM18.9227 7.83984L14.5117 3.42891V7.83984H18.9227ZM15.2434 15.135C14.8877 15.1233 14.5094 15.1507 14.0798 15.2044C13.5102 14.853 13.1268 14.3705 12.8545 13.6615L12.8795 13.5588L12.9086 13.4374C13.0094 13.0125 13.0635 12.7024 13.0797 12.3898C13.0919 12.1538 13.0788 11.936 13.0368 11.7342C12.9595 11.2985 12.6512 11.0437 12.2629 11.028C11.9008 11.0133 11.568 11.2155 11.4829 11.5289C11.3444 12.0356 11.4255 12.7024 11.7191 13.8396C11.3451 14.7314 10.8508 15.777 10.5191 16.3601C10.0764 16.5884 9.73164 16.796 9.44195 17.0262C9.05992 17.3302 8.82133 17.6426 8.7557 17.9707C8.72383 18.1228 8.77187 18.3216 8.88133 18.4845C9.00555 18.6691 9.19258 18.7891 9.41687 18.8065C9.98289 18.8503 10.6785 18.2667 11.4466 16.9488C11.5237 16.923 11.6052 16.8959 11.7048 16.8621L11.9838 16.7679C12.1602 16.7084 12.2882 16.6657 12.4148 16.6247C12.9632 16.4461 13.378 16.3334 13.7554 16.2691C14.4112 16.6202 15.1691 16.8504 15.6796 16.8504C16.101 16.8504 16.3858 16.632 16.4887 16.2881C16.5789 15.9863 16.5074 15.6361 16.3134 15.4425C16.1127 15.2454 15.7438 15.1512 15.2434 15.135ZM9.43117 18.1448V18.1364L9.43422 18.1284C9.46851 18.0398 9.51253 17.9552 9.56547 17.8762C9.66578 17.722 9.80383 17.5598 9.97492 17.3871C10.0668 17.2945 10.1624 17.2043 10.2747 17.103C10.2998 17.0805 10.4601 16.9378 10.4901 16.9097L10.7519 16.6659L10.5616 16.969C10.2728 17.4293 10.0117 17.7607 9.78813 17.9768C9.70586 18.0565 9.63344 18.1151 9.57484 18.1528C9.5555 18.1657 9.53503 18.1769 9.51367 18.1861C9.50406 18.1901 9.49563 18.1924 9.48719 18.1931C9.47828 18.1943 9.46923 18.193 9.46094 18.1896C9.45212 18.1859 9.44458 18.1797 9.43929 18.1717C9.43399 18.1638 9.43117 18.1544 9.43117 18.1448ZM12.3829 13.0289L12.3299 13.1227L12.2971 13.02C12.2245 12.7896 12.171 12.4425 12.1562 12.1294C12.1394 11.7731 12.1677 11.5594 12.2802 11.5594C12.4382 11.5594 12.5106 11.8125 12.5162 12.1934C12.5214 12.528 12.4687 12.8763 12.3827 13.0289H12.3829ZM12.2467 14.3991L12.2826 14.3041L12.3316 14.3932C12.6055 14.891 12.9611 15.3063 13.352 15.5958L13.4364 15.6581L13.3335 15.6792C12.9508 15.7584 12.5943 15.8775 12.1068 16.0741C12.1577 16.0535 11.6001 16.2818 11.459 16.3359L11.3359 16.383L11.4016 16.2687C11.691 15.7648 11.9584 15.1596 12.2465 14.3991H12.2467ZM15.9409 16.1864C15.7567 16.2591 15.3602 16.1941 14.662 15.896L14.4848 15.8205L14.677 15.8065C15.223 15.7659 15.6098 15.7959 15.8352 15.8784C15.9313 15.9136 15.9953 15.9579 16.0237 16.0085C16.0386 16.0325 16.0436 16.0613 16.0377 16.0889C16.0317 16.1165 16.0153 16.1407 15.9918 16.1564C15.9769 16.1695 15.9596 16.1797 15.9409 16.1864Z" fill="white"/>
</svg>
