<svg width="748" height="293" viewBox="0 0 748 293" fill="none" xmlns="http://www.w3.org/2000/svg">
<g filter="url(#filter0_d_9658_2354)">
<path d="M10 22.0441C10 15.3923 16.7622 10 25.1037 10H722.896C731.238 10 738 15.3923 738 22.0441V270.956C738 277.608 731.238 283 722.896 283H25.1037C16.7622 283 10 277.608 10 270.956V22.0441Z" fill="url(#paint0_linear_9658_2354)"/>
</g>
<path fill-rule="evenodd" clip-rule="evenodd" d="M737.774 184.581V267.898C737.774 276.183 731.059 282.898 722.774 282.898H635.146C628.087 271.621 624 258.246 624 243.904C624 203.64 656.211 171 695.946 171C711.546 171 725.987 176.032 737.774 184.581Z" fill="#97018D"/>
<path fill-rule="evenodd" clip-rule="evenodd" d="M738 221.481V267.882C738 276.167 731.284 282.882 723 282.882H673.054C668.587 275.84 666 267.487 666 258.529C666 233.384 686.384 213 711.529 213C721.402 213 730.541 216.142 738 221.481Z" fill="#B903AD"/>
<path opacity="0.1" d="M280 131.762C280 184.229 237.467 226.762 185 226.762C132.533 226.762 90 184.229 90 131.762C90 79.2947 132.533 36.7617 185 36.7617C237.467 36.7617 280 79.2947 280 131.762Z" fill="white"/>
<path opacity="0.1" d="M261.547 46.4022C275.038 43.2426 286.891 55.8727 282.881 69.1363L227.753 251.512C223.743 264.775 206.879 268.725 197.397 258.621L67.0197 119.69C57.5377 109.586 62.5494 93.0066 76.0407 89.847L261.547 46.4022Z" fill="white"/>
<path fill-rule="evenodd" clip-rule="evenodd" d="M171.56 109.306C169.743 110.206 169.57 112.785 171.079 116.479C172.407 119.732 175.152 123.388 177.611 125.178C178.108 125.54 178.515 125.871 178.514 125.914C178.514 125.957 178.034 126.259 177.448 126.586C172.524 129.331 166.768 134.966 162.459 141.259C155.473 151.464 152.638 161.705 154.615 169.598C156.125 175.629 160.947 180.254 168.203 182.632C172.744 184.12 177.548 184.794 184.901 184.974C197.494 185.282 206.706 182.841 211.923 177.812C214.614 175.218 216.14 172.26 216.773 168.415C217.121 166.303 216.978 162.412 216.462 159.926C216.003 157.711 214.766 153.966 213.721 151.628C209.051 141.171 199.708 130.686 191.204 126.356L189.562 125.52L190.852 124.173C193.75 121.149 196.664 115.66 197.296 112.037C197.533 110.679 197.438 109.658 197.052 109.414C196.056 108.781 193.501 109.197 186.831 111.076C184.417 111.756 183.913 111.851 182.673 111.856C181.081 111.863 180.206 111.616 177.253 110.33C174.077 108.948 172.762 108.711 171.56 109.306ZM186.427 139.687C186.909 140.117 187.128 140.838 187.128 141.996V143.084L188.279 143.349C190.955 143.964 193.068 145.507 194.062 147.575C194.934 149.387 194.76 150.422 193.476 151.061C192.429 151.582 191.362 150.984 190.895 149.612C190.483 148.404 189.062 147.281 187.657 147.053L187.123 146.966L187.163 150.499L187.203 154.031L188.539 154.386C192.358 155.398 194.44 157.312 194.891 160.225C195.479 164.022 192.772 167.371 188.445 168.198L187.162 168.443L187.1 169.717C187.032 171.123 186.792 171.667 186.074 172.038C185.216 172.481 184.071 172.153 183.616 171.333C183.502 171.126 183.424 170.448 183.421 169.622L183.416 168.254L182.784 168.098C179.625 167.313 177.225 165.236 176.284 162.472C175.946 161.48 175.937 161.376 176.143 160.787C176.446 159.915 177.176 159.43 178.043 159.525C178.89 159.618 179.434 160.15 179.851 161.296C180.044 161.823 180.433 162.471 180.795 162.865C181.427 163.553 183.085 164.474 183.302 164.258C183.367 164.192 183.403 162.539 183.381 160.584L183.341 157.03L182.003 156.585C180.128 155.96 179.037 155.374 178.045 154.458C177.029 153.52 176.492 152.499 176.31 151.164C175.801 147.434 178.185 144.343 182.341 143.345L183.416 143.087V141.707C183.416 140.41 183.44 140.3 183.826 139.868C184.492 139.123 185.698 139.039 186.427 139.687ZM182.285 147.246C181.558 147.504 180.524 148.353 180.219 148.944C180.098 149.177 180 149.722 180 150.154C180.001 151.302 180.347 151.771 181.66 152.407C183.484 153.291 183.335 153.498 183.382 150.013C183.427 146.631 183.5 146.815 182.285 147.246ZM187.128 161.259V164.671L187.611 164.58C190.185 164.09 191.579 162.505 191.144 160.561C190.912 159.528 190.19 158.907 188.513 158.3C187.825 158.051 187.231 157.847 187.195 157.847C187.158 157.847 187.128 159.383 187.128 161.259Z" fill="white"/>
<defs>
<filter id="filter0_d_9658_2354" x="0" y="0" width="748" height="293" filterUnits="userSpaceOnUse" color-interpolation-filters="sRGB">
<feFlood flood-opacity="0" result="BackgroundImageFix"/>
<feColorMatrix in="SourceAlpha" type="matrix" values="0 0 0 0 0 0 0 0 0 0 0 0 0 0 0 0 0 0 127 0" result="hardAlpha"/>
<feOffset/>
<feGaussianBlur stdDeviation="5"/>
<feComposite in2="hardAlpha" operator="out"/>
<feColorMatrix type="matrix" values="0 0 0 0 0 0 0 0 0 0 0 0 0 0 0 0 0 0 0.25 0"/>
<feBlend mode="normal" in2="BackgroundImageFix" result="effect1_dropShadow_9658_2354"/>
<feBlend mode="normal" in="SourceGraphic" in2="effect1_dropShadow_9658_2354" result="shape"/>
</filter>
<linearGradient id="paint0_linear_9658_2354" x1="-29.2697" y1="-22.5191" x2="707.721" y2="412.707" gradientUnits="userSpaceOnUse">
<stop stop-color="#930089"/>
<stop offset="1" stop-color="#C203B5"/>
</linearGradient>
</defs>
</svg>
