<svg width="25" height="25" viewBox="0 0 25 25" fill="none" xmlns="http://www.w3.org/2000/svg">
<path d="M9.60352 12.4605C9.60352 9.36096 9.60352 6.26072 9.60352 3.16113C9.60352 2.59131 9.8199 2.40377 10.3779 2.50803C13.5018 3.089 16.6243 3.6739 19.7475 4.25684C20.3658 4.37224 20.9842 4.48634 21.6012 4.60568C22.055 4.69355 22.1684 4.83715 22.1684 5.30992C22.1684 8.16427 22.1684 11.0186 22.1684 13.8736C22.1684 16.507 22.1684 19.141 22.1684 21.7744C22.1684 22.3147 22.0045 22.4806 21.4701 22.4806C17.7403 22.4806 14.0106 22.4806 10.2815 22.4806C9.76482 22.4806 9.60352 22.3206 9.60352 21.8098C9.60352 18.6932 9.60352 15.5765 9.60352 12.4605ZM18.3829 10.7432C18.6111 10.7432 18.84 10.7432 19.0682 10.7432C19.0846 10.7432 19.101 10.7439 19.1173 10.7426C19.4419 10.7242 19.6327 10.5452 19.6511 10.2226C19.6629 10.0114 19.6622 9.79832 19.6518 9.58652C19.636 9.25932 19.4531 9.06588 19.1291 9.05801C18.64 9.04621 18.1502 9.04621 17.661 9.05801C17.3364 9.06588 17.1541 9.25867 17.1384 9.58652C17.1286 9.7898 17.1292 9.99438 17.1377 10.1983C17.1522 10.5465 17.3456 10.7327 17.6977 10.7419C17.9259 10.7478 18.1548 10.7426 18.3829 10.7432ZM13.3726 7.40101V7.3997C13.6172 7.3997 13.8624 7.40954 14.1063 7.39708C14.4335 7.38003 14.6126 7.18921 14.6204 6.86398C14.6257 6.66005 14.625 6.45612 14.6204 6.25219C14.6132 5.92827 14.4329 5.72368 14.1109 5.7145C13.6139 5.70073 13.1155 5.70008 12.6185 5.71516C12.3005 5.72499 12.1208 5.93548 12.1136 6.26006C12.1097 6.4476 12.111 6.63513 12.113 6.82267C12.1175 7.19971 12.3044 7.38986 12.6874 7.3997C12.9156 7.40626 13.1444 7.40101 13.3726 7.40101ZM13.3398 10.7432C13.5765 10.7432 13.8126 10.7432 14.0493 10.7432C14.0657 10.7432 14.0821 10.7432 14.0985 10.7426C14.4237 10.7216 14.6119 10.5354 14.6204 10.2154C14.6263 10.0036 14.6263 9.79111 14.6204 9.57931C14.6119 9.27768 14.4408 9.07375 14.1437 9.06392C13.6303 9.04687 13.1162 9.04687 12.6028 9.06326C12.2959 9.0731 12.1221 9.28096 12.1143 9.59571C12.1097 9.79111 12.1103 9.98717 12.1136 10.1832C12.1195 10.5327 12.3084 10.7308 12.6552 10.7426C12.8828 10.7491 13.1116 10.7426 13.3398 10.7432ZM18.3803 20.7895C18.617 20.7895 18.8531 20.7895 19.0898 20.7895C19.1062 20.7895 19.1226 20.7895 19.139 20.7882C19.4413 20.7685 19.6282 20.6006 19.6478 20.3003C19.6636 20.0649 19.6642 19.8269 19.6465 19.5915C19.6249 19.2958 19.4321 19.1141 19.1318 19.1082C18.6426 19.099 18.1528 19.099 17.6636 19.1082C17.3528 19.1141 17.16 19.3017 17.1404 19.6105C17.1266 19.8295 17.1272 20.0512 17.139 20.2708C17.1561 20.598 17.3423 20.7764 17.6702 20.7875C17.9069 20.7954 18.1436 20.7888 18.3803 20.7895ZM18.402 14.1038V14.1051C18.6301 14.1051 18.859 14.1051 19.0872 14.1051C19.1036 14.1051 19.12 14.1044 19.1364 14.1038C19.4387 14.0861 19.6268 13.9202 19.6478 13.6192C19.6642 13.3838 19.6642 13.1458 19.6478 12.9104C19.6268 12.612 19.4327 12.431 19.1357 12.4264C18.6465 12.4192 18.1567 12.4199 17.6676 12.4258C17.3567 12.4297 17.1613 12.6133 17.1423 12.9228C17.1279 13.1504 17.1279 13.3799 17.143 13.6074C17.1633 13.9195 17.3515 14.092 17.6689 14.1018C17.9121 14.1097 18.1574 14.1038 18.402 14.1038ZM18.3895 17.446C18.6341 17.446 18.8793 17.4525 19.1232 17.4447C19.4505 17.4342 19.6341 17.2552 19.6518 16.9253C19.6629 16.7142 19.6629 16.5011 19.6518 16.2893C19.6334 15.9549 19.4386 15.77 19.099 15.7654C18.6262 15.7595 18.1528 15.7588 17.68 15.766C17.3449 15.7713 17.1541 15.9634 17.139 16.3017C17.1299 16.505 17.1299 16.7096 17.139 16.9135C17.1548 17.2552 17.3397 17.4355 17.68 17.4453C17.9161 17.4512 18.1528 17.446 18.3895 17.446ZM13.3555 14.1031V14.1018C13.6165 14.1018 13.8781 14.111 14.1385 14.0992C14.425 14.0861 14.6067 13.9005 14.6185 13.6153C14.6276 13.3871 14.627 13.1582 14.6191 12.93C14.6093 12.6356 14.4198 12.4337 14.1286 12.4278C13.6231 12.4179 13.1169 12.4179 12.6113 12.4278C12.3215 12.433 12.1267 12.6369 12.1149 12.9281C12.1064 13.1477 12.1071 13.3687 12.1143 13.5884C12.1241 13.8979 12.3116 14.0887 12.6211 14.1005C12.8664 14.1103 13.111 14.1031 13.3555 14.1031ZM13.3641 17.446C13.6086 17.446 13.8539 17.4525 14.0978 17.4447C14.429 17.4335 14.6106 17.2506 14.6198 16.9247C14.6257 16.7129 14.6257 16.5004 14.6198 16.2886C14.6112 15.9804 14.4244 15.7752 14.1195 15.7686C13.6224 15.7575 13.1241 15.7582 12.627 15.768C12.3123 15.7745 12.1215 15.9837 12.1136 16.3037C12.1084 16.5076 12.1084 16.7116 12.1136 16.9155C12.1221 17.242 12.3051 17.4322 12.6297 17.444C12.8742 17.4525 13.1195 17.4453 13.3641 17.446Z" fill="#003556"/>
<path d="M7.91574 14.4132C7.91574 20.1206 7.91574 19.2708 7.91574 21.6989C7.91574 22.354 7.78787 22.4799 7.12297 22.4799C5.65941 22.4799 4.19584 22.4805 2.73162 22.4799C2.22934 22.4799 2.05688 22.3061 2.05688 21.7999C2.05688 17.1554 2.05688 12.5103 2.05688 7.86584C2.05688 7.41011 2.19852 7.24946 2.66408 7.16291C4.16568 6.88292 5.66662 6.60292 7.16756 6.32096C7.67968 6.22457 7.91508 6.41014 7.91508 6.93078C7.91705 9.42514 7.91574 11.9195 7.91574 14.4132ZM4.99713 10.7425C5.24171 10.7425 5.48695 10.7503 5.73088 10.7405C6.04366 10.7281 6.2371 10.5458 6.25611 10.2389C6.26988 10.0114 6.26988 9.78185 6.25546 9.55432C6.23644 9.25727 6.05087 9.06843 5.75121 9.0599C5.25417 9.04679 4.75583 9.04679 4.25879 9.05925C3.94405 9.06712 3.76438 9.25662 3.74864 9.57071C3.73749 9.78251 3.7388 9.99496 3.74733 10.2068C3.7611 10.5458 3.94864 10.7307 4.28764 10.7412C4.5237 10.749 4.76042 10.7425 4.99713 10.7425ZM5.01352 12.4244C4.76894 12.4244 4.52436 12.4198 4.27977 12.4257C3.95454 12.4336 3.76503 12.6146 3.74864 12.9411C3.73815 13.1608 3.73749 13.3818 3.74995 13.6014C3.76766 13.9188 3.94798 14.0958 4.26666 14.1017C4.75583 14.1103 5.24499 14.1103 5.73481 14.1017C6.04563 14.0965 6.23775 13.9109 6.25677 13.6021C6.26988 13.3824 6.26923 13.1614 6.25742 12.9418C6.24037 12.6205 6.043 12.4336 5.72301 12.4257C5.48695 12.4198 5.25024 12.4244 5.01352 12.4244Z" fill="#003556"/>
</svg>
