<svg width="180" height="142" viewBox="0 0 180 142" fill="none" xmlns="http://www.w3.org/2000/svg">
<path d="M68.0111 120.923C68.5333 120.721 69.0889 121.102 69.0889 121.663V125.69C69.3667 124.591 69.7444 123.648 70.2333 122.874C70.7222 122.1 71.2444 121.517 71.8111 121.125C72.3778 120.732 72.9 120.541 73.3889 120.541C73.8889 120.541 74.2667 120.71 74.5111 121.057C74.7555 121.405 74.8889 121.865 74.8889 122.426V125.668C75.1667 124.568 75.5444 123.626 76.0333 122.863C76.5222 122.089 77.0444 121.517 77.6 121.125C78.1555 120.732 78.6889 120.541 79.1889 120.541C79.6889 120.541 80.0667 120.71 80.3111 121.046C80.5555 121.383 80.6889 121.842 80.6889 122.426V132.892C80.6889 133.262 80.7667 133.565 80.9222 133.789C81.0778 134.013 81.3 134.125 81.5778 134.125C81.7889 134.125 82 134.058 82.2222 133.912C82.4444 133.778 82.6222 133.598 82.7667 133.408L83.0444 133.666C82.8555 134.081 82.5778 134.417 82.2111 134.698C81.8444 134.978 81.3889 135.113 80.8778 135.113C80.2889 135.113 79.8111 134.899 79.4333 134.484C79.0667 134.069 78.8778 133.464 78.8778 132.667V122.931C78.8778 122.628 78.8222 122.392 78.7 122.224C78.5778 122.056 78.4222 121.977 78.2222 121.977C77.8111 121.977 77.3444 122.291 76.8111 122.931C76.2778 123.57 75.8222 124.445 75.4444 125.555C75.0667 126.666 74.8778 127.911 74.8778 129.28V134.069C74.8778 134.406 74.6667 134.709 74.3555 134.821L74.1222 134.899C73.6111 135.09 73.0667 134.698 73.0667 134.148V122.942C73.0667 122.639 73.0111 122.403 72.9111 122.235C72.8111 122.067 72.6667 121.988 72.4778 121.988C72.0667 121.988 71.6 122.302 71.0555 122.942C70.5111 123.581 70.0555 124.456 69.6778 125.567C69.3 126.677 69.1111 127.922 69.1111 129.291V134.081C69.1111 134.417 68.9 134.72 68.5889 134.832L68.3444 134.922C67.8333 135.101 67.2889 134.72 67.2889 134.17V121.753C67.2889 121.427 67.4889 121.125 67.8 121.012L68.0111 120.923Z" fill="#003556"/>
<path d="M90.0778 134.025C89.4222 134.698 88.5667 135.035 87.5111 135.035C86.7333 135.035 86.1444 134.754 85.7333 134.205C85.3222 133.655 85.1222 132.971 85.1222 132.141V123.245C85.1222 122.898 85.0444 122.617 84.9 122.393C84.7556 122.168 84.5222 122.056 84.2111 122.056C84.0111 122.056 83.8 122.124 83.5667 122.258C83.3333 122.393 83.1667 122.539 83.0444 122.718L82.7667 122.483C82.9333 122.101 83.2222 121.765 83.6 121.473C83.9889 121.181 84.3667 121.036 84.7556 121.036C85.4333 121.036 85.9778 121.282 86.3667 121.776C86.7556 122.269 86.9444 122.83 86.9444 123.47V131.389C86.9444 132.118 87.0333 132.735 87.2 133.229C87.3667 133.722 87.7444 133.98 88.3222 133.98C89.0667 133.98 89.6889 133.61 90.1778 132.859C90.6667 132.107 91.0222 131.232 91.2444 130.245C91.4667 129.247 91.5778 128.383 91.5778 127.643V122.112C91.5778 121.776 91.7889 121.473 92.1 121.361L92.3333 121.271C92.8556 121.08 93.4 121.462 93.4 122.023V134.552C93.4 135.439 93.2111 136.269 92.8444 137.02C92.4778 137.772 91.9444 138.377 91.2556 138.826C90.5667 139.275 89.7667 139.499 88.8556 139.499C88.1333 139.499 87.4667 139.353 86.8778 139.073C86.3444 138.815 86.2333 138.108 86.6889 137.727L86.8222 137.615C87.1556 137.334 87.6333 137.39 87.9333 137.716C88.0556 137.861 88.2 137.996 88.3667 138.131C88.7556 138.456 89.1778 138.613 89.6333 138.613C90.0889 138.613 90.4667 138.49 90.7667 138.232C91.0667 137.985 91.2778 137.671 91.4 137.312C91.5222 136.953 91.5889 136.616 91.5889 136.314V131.479H91.5333C91.2222 132.5 90.7333 133.352 90.0778 134.025Z" fill="#003556"/>
<path d="M166.044 21.1794C165.9 21.2018 165.778 21.2243 165.655 21.2355C165.622 21.2355 165.578 21.2467 165.567 21.2018C165.555 21.157 165.6 21.1458 165.622 21.1233C165.711 21.0785 165.811 21.0224 165.9 20.9775C165.955 20.9439 166.011 20.9102 165.989 20.8429C165.922 20.6634 165.911 20.4615 165.8 20.3045C165.755 20.2372 165.711 20.1811 165.633 20.1362C165.533 20.0801 165.5 19.9679 165.455 19.8782C165.4 19.7436 165.311 19.6987 165.167 19.7436C165.078 19.766 164.944 19.8558 164.889 19.7548C164.855 19.6987 165.022 19.6539 165.1 19.609C165.222 19.5417 165.244 19.4856 165.167 19.3622C164.933 18.9808 164.8 18.5546 164.567 18.1732C164.5 18.061 164.433 18.0273 164.311 18.0498C164.222 18.061 164.133 18.0834 164.044 18.0947C164.022 18.0947 163.989 18.1059 163.978 18.0722C163.967 18.0386 164 18.0161 164.022 18.0049C164.1 17.96 164.178 17.9152 164.255 17.8815C164.333 17.8479 164.344 17.7918 164.311 17.7133C164.289 17.6572 164.267 17.6011 164.233 17.545C164.111 17.3655 164.111 17.1524 164.111 16.9505C164.111 16.8944 164.111 16.8383 164.078 16.7934C163.444 15.6829 162.822 14.5724 162.189 13.4507C162.189 13.4395 162.178 13.4282 162.178 13.4282C161.844 12.8786 162.022 12.9235 161.389 12.7328C161.333 12.7103 161.278 12.6879 161.222 12.6543C161.178 12.6318 161.078 12.6206 161.1 12.5645C161.122 12.486 161.211 12.5196 161.267 12.5309C161.478 12.5645 161.689 12.6094 161.9 12.6543C162.033 12.6879 162.144 12.6655 162.267 12.6094C162.489 12.4972 162.689 12.5421 162.867 12.7216C163.011 12.8786 163.155 13.0469 163.289 13.2151C164.144 14.2359 164.989 15.2679 165.844 16.2887C166.455 17.0178 167.067 17.7469 167.678 18.4873C167.744 18.577 167.833 18.6443 167.9 18.734C167.978 18.8574 168.067 18.8462 168.178 18.7789C168.5 18.5658 168.855 18.3975 169.233 18.319C169.589 18.2405 170.078 18.4648 170.2 18.7565C170.367 19.1827 170.233 19.6539 169.867 19.8782C169.755 19.9455 169.622 19.9567 169.489 19.9904C169.378 20.024 169.211 20.024 169.178 20.1362C169.144 20.2484 169.3 20.3269 169.378 20.3942C169.544 20.5288 169.722 20.6522 169.9 20.7756C170.144 20.9439 170.567 20.9999 170.844 20.8878C171.689 20.5512 172.533 20.2259 173.378 19.8894C174.3 19.5193 175.233 19.1603 176.178 18.8462C177.167 18.5209 178.189 18.42 179.222 18.4873C179.389 18.4985 179.555 18.5321 179.722 18.5882C180.011 18.678 180.089 18.9023 179.911 19.1379C179.711 19.4183 179.455 19.6426 179.2 19.8558C178.789 20.2035 178.355 20.54 177.911 20.8541C177.622 21.0672 177.3 21.2467 176.967 21.3813C175.689 21.9198 174.389 22.4133 173.089 22.8957C172.811 22.9966 172.522 23.1088 172.244 23.2098C171.689 23.4004 171.267 23.8716 171.167 24.4549C171.133 24.668 171.1 24.8923 171.055 25.1055C171.033 25.2064 171.1 25.1952 171.155 25.1728C171.278 25.1167 171.389 25.0606 171.511 24.9933C171.955 24.7353 172.622 24.9821 172.8 25.4644C172.922 25.801 172.822 26.115 172.522 26.3282C172.311 26.474 172.078 26.5974 171.844 26.6871C171.411 26.8442 171.1 27.2368 171.122 27.6967C171.144 28.2688 171.178 28.8296 171.2 29.4017C171.233 30.2318 171.255 31.0619 171.3 31.892C171.333 32.6211 171.367 33.3614 171.455 34.0905C171.478 34.3037 171.478 34.5168 171.478 34.7299C171.489 35.0104 171.367 35.2011 171.111 35.302C170.911 35.3918 170.767 35.5264 170.667 35.7171C170.578 35.8741 170.467 36.0087 170.344 36.1433C170.322 36.177 170.278 36.2106 170.244 36.177C170.2 36.1433 170.244 36.0984 170.255 36.0648C170.333 35.919 170.411 35.7619 170.489 35.6161C170.578 35.4591 170.589 35.3132 170.544 35.1338C170.4 34.5505 170.278 33.9559 170.133 33.3726C169.989 32.7669 169.844 32.15 169.7 31.5442C169.689 31.5218 169.689 31.4993 169.678 31.4657C169.633 31.2077 169.611 30.9385 169.4 30.759C169.255 30.6356 169.244 30.4561 169.211 30.2879C169.155 30.0635 169.155 30.0523 168.933 30.1421C168.878 30.1645 168.822 30.1869 168.755 30.1981C168.722 30.2094 168.667 30.2318 168.655 30.1757C168.644 30.1308 168.689 30.1084 168.722 30.086C168.811 30.0187 168.9 29.9626 169 29.8953C169.067 29.8504 169.089 29.7943 169.055 29.7158C168.922 29.3232 168.855 28.9081 168.744 28.5155C168.678 28.2688 168.667 28.2575 168.422 28.3248C168.367 28.3361 168.267 28.3809 168.244 28.3248C168.211 28.2575 168.311 28.2239 168.355 28.1902C168.611 28.0108 168.611 28.0108 168.511 27.7191C168.489 27.6406 168.5 27.5845 168.533 27.506C168.589 27.3938 168.522 27.2592 168.478 27.147C168.333 26.7432 168.289 26.7208 167.889 26.8329C167.844 26.8442 167.778 26.889 167.744 26.8217C167.722 26.7656 167.789 26.7432 167.833 26.7096C167.933 26.6422 168.044 26.5862 168.133 26.4852C167.9 26.4516 167.889 26.2384 167.789 26.1038C167.622 25.857 167.5 25.5878 167.355 25.3186C167.333 25.2737 167.322 25.2289 167.322 25.184C166.567 25.5093 165.8 25.8122 165.033 26.0926C164.022 26.4516 163 26.7993 161.955 27.0349C161.678 27.1022 161.389 27.1022 161.1 27.1358C160.8 27.1807 160.8 27.1807 160.789 27.4835C160.733 28.4146 160.7 29.3568 160.633 30.2879C160.611 30.658 160.611 31.0394 160.589 31.4096C160.567 31.69 160.522 31.7573 160.278 31.8246C160.189 31.8471 160.144 31.8246 160.122 31.7349C159.989 31.2077 159.855 30.6805 159.722 30.1645C159.5 29.3232 159.333 28.4707 159.078 27.6406C159.033 27.506 158.989 27.3714 158.989 27.2255C158.989 27.1695 158.967 27.1582 158.922 27.1582C158.889 27.1582 158.867 27.1582 158.833 27.1695C158.755 27.1919 158.678 27.2031 158.633 27.1246C158.589 27.0461 158.633 26.9788 158.689 26.9227C158.8 26.8217 158.767 26.7208 158.711 26.6086C158.433 26.0589 158.122 25.5093 157.833 24.9709C157.455 24.2642 157.089 23.5575 156.711 22.8508C156.7 22.8396 156.7 22.8171 156.689 22.8059C156.511 22.5367 156.533 22.5255 156.855 22.4133C156.922 22.3909 156.978 22.4021 157.033 22.4582C157.555 22.9742 158.089 23.4677 158.6 23.995C158.9 24.2978 159.211 24.6007 159.522 24.8923C159.844 25.2064 160.355 25.285 160.733 25.0382C161.033 24.8363 161.378 24.6904 161.7 24.5222C162.478 24.1296 163.289 23.8155 164.089 23.479C164.555 23.2883 165.033 23.1088 165.5 22.9405C165.967 22.7723 166.233 22.2787 166.122 21.7964C166.089 21.6393 166.044 21.4823 166 21.3365C165.955 21.3252 166 21.2692 166.044 21.1794Z" fill="#003556"/>
<path d="M43.3667 3.00624C46.2556 4.57666 48.6222 6.53969 50.4667 8.88411C50.9333 9.46741 51.8667 9.13089 51.8667 8.37933V1.80599C51.8667 1.36851 52.2222 1.00956 52.6556 1.00956H72.2889C72.7222 1.00956 73.0778 1.36851 73.0778 1.80599V70.7813C73.0778 77.2088 71.8111 83.0418 69.2889 88.2578C66.7667 93.4739 62.9222 97.6355 57.7444 100.72C52.5778 103.805 46.1444 105.353 38.4444 105.353C28.1889 105.353 19.8667 102.908 13.5 98.0281C7.36667 93.3168 3.75556 87.0015 2.68889 79.0821C2.62222 78.5997 3 78.1735 3.47778 78.1735H22.9556C23.3111 78.1735 23.6111 78.409 23.7111 78.7568C24.4444 81.1573 25.9667 83.0754 28.2667 84.5C30.7444 86.048 33.8111 86.822 37.4444 86.822C41.8333 86.822 45.3222 85.5432 47.9333 82.9969C50.5444 80.4506 51.8444 76.3787 51.8444 70.7813V63.3554C51.8444 62.5926 50.9 62.2785 50.4222 62.8731C48.5333 65.2399 46.1444 67.2254 43.2778 68.8407C39.6333 70.8934 35.3778 71.9142 30.5 71.9142C24.7889 71.9142 19.6222 70.4335 14.9889 67.4722C10.3556 64.5108 6.68889 60.2931 4.01111 54.819C1.34444 49.3338 0 43.0072 0 35.8281C0 28.649 1.34444 22.3449 4.03333 16.9157C6.72222 11.4865 10.3778 7.31369 15.0111 4.38597C19.6444 1.45825 24.8222 0 30.5222 0C35.4111 0 39.6889 0.998341 43.3667 3.00624ZM47.4667 23.2984C44.0444 19.6976 39.7444 18.1945 34.5778 18.789C33.1333 18.9573 31.7111 19.3723 30.4111 20.0341C24.5333 23.0067 21.6 28.2676 21.6 35.8169C21.6 41.1675 23.0667 45.3965 26 48.5373C28.9333 51.667 32.5111 53.2374 36.7333 53.2374C40.9556 53.2374 44.5333 51.6894 47.4667 48.6046C50.4 45.5199 51.8667 41.3022 51.8667 35.9515C51.8667 30.6121 50.4 26.3943 47.4667 23.2984Z" fill="url(#paint0_linear_6396_2286)"/>
<path d="M133.689 42.9287C132.978 45.2619 131.878 47.2474 130.356 48.8515C127.5 51.8577 124.044 53.3608 119.989 53.3608C116.911 53.3608 114.233 52.4971 111.944 50.7696C103.978 52.4634 95.5555 52.8673 87.0555 51.1847C87.6 52.4971 88.2 53.7759 88.9 54.9985C92 60.4277 96.2667 64.6006 101.678 67.5283C107.1 70.456 113.2 71.9143 119.978 71.9143C126.756 71.9143 132.9 70.456 138.4 67.5283C143.9 64.6006 148.244 60.4053 151.433 54.9425C154.622 49.4684 156.211 43.1418 156.211 35.9628C156.211 33.4613 156.011 31.072 155.622 28.7725C150.2 33.1136 142.622 38.4418 133.689 42.9287Z" fill="url(#paint1_linear_6396_2286)"/>
<path d="M106.033 39.227C105.922 38.1838 105.844 37.0957 105.844 35.9515C105.844 30.2755 107.211 25.9457 109.944 22.9843C112.678 20.0229 116.111 18.5422 120.244 18.5422C124.3 18.5422 127.711 20.0453 130.478 23.0516C133.178 25.9793 134.556 30.1522 134.622 35.5477C141.5 33.652 148.489 30.8813 155.289 26.944C154.511 23.3545 153.267 20.0229 151.511 16.9718C148.367 11.4978 144.067 7.30247 138.611 4.38597C133.144 1.45825 127.022 0 120.244 0C113.456 0 107.344 1.45825 101.878 4.38597C96.4222 7.31369 92.1111 11.509 88.9778 16.9718C85.8333 22.4459 84.2667 28.7724 84.2667 35.9515C84.2667 36.389 84.2889 36.804 84.3 37.2415C89.3556 38.1838 96.9889 39.2157 106.033 39.227Z" fill="url(#paint2_linear_6396_2286)"/>
<path d="M115.011 39.3167C115.011 39.3167 91.8777 45.1834 78.6111 36.0525C78.6111 36.0637 87.8111 46.3949 115.011 39.3167Z" fill="#003556"/>
<path d="M112.833 41.089C112.833 41.089 103.844 43.826 97.3445 42.9735C97.3445 42.9847 103.256 43.1866 112.833 41.089Z" fill="#003556"/>
<path d="M43.7111 122.157C44.5111 122.572 45.1444 123.099 45.6 123.716V122.549C45.6 122.112 45.9555 121.753 46.3889 121.753H47.6111C48.0444 121.753 48.4 122.112 48.4 122.549V135.528C48.4 136.773 48.1444 137.883 47.6222 138.859C47.1 139.835 46.3555 140.598 45.3666 141.159C44.3889 141.72 43.2111 142 41.8444 142C40.0222 142 38.5111 141.574 37.3111 140.71C36.4 140.059 35.7889 139.229 35.4777 138.231C35.3222 137.726 35.7222 137.21 36.2444 137.21H37.4777C37.7666 137.21 38.0555 137.356 38.1777 137.614C38.4222 138.13 38.8222 138.568 39.3777 138.915C40.0666 139.353 40.8889 139.566 41.8555 139.566C42.9777 139.566 43.8777 139.218 44.5777 138.534C45.2666 137.85 45.6111 136.84 45.6111 135.528V133.262C45.1444 133.901 44.5 134.44 43.7 134.877C42.9 135.315 41.9777 135.528 40.9555 135.528C39.7889 135.528 38.7222 135.225 37.7555 134.63C36.7889 134.036 36.0222 133.194 35.4666 132.118C34.9111 131.041 34.6222 129.829 34.6222 128.461C34.6222 127.103 34.9 125.892 35.4666 124.849C36.0222 123.794 36.7889 122.987 37.7555 122.403C38.7222 121.82 39.7889 121.528 40.9555 121.528C41.9777 121.528 42.9 121.742 43.7111 122.157ZM45.0222 126.083C44.6444 125.398 44.1444 124.871 43.5222 124.512C42.9 124.153 42.2333 123.974 41.5222 123.974C40.8111 123.974 40.1444 124.153 39.5222 124.501C38.9 124.849 38.4 125.376 38.0222 126.049C37.6444 126.733 37.4444 127.541 37.4444 128.472C37.4444 129.403 37.6333 130.222 38.0222 130.929C38.4 131.635 38.9111 132.174 39.5333 132.544C40.1555 132.914 40.8222 133.094 41.5222 133.094C42.2333 133.094 42.9 132.914 43.5222 132.555C44.1444 132.196 44.6444 131.669 45.0222 130.973C45.4 130.278 45.6 129.459 45.6 128.528C45.6 127.586 45.4 126.767 45.0222 126.083Z" fill="url(#paint3_linear_6396_2286)"/>
<path d="M54.4444 134.653C53.4222 134.069 52.6222 133.251 52.0333 132.196C51.4444 131.142 51.1555 129.908 51.1555 128.517C51.1555 127.137 51.4555 125.914 52.0555 124.849C52.6555 123.783 53.4777 122.964 54.5111 122.392C55.5555 121.82 56.7111 121.528 58 121.528C59.2777 121.528 60.4444 121.82 61.4889 122.392C62.5333 122.964 63.3444 123.783 63.9555 124.849C64.5555 125.914 64.8555 127.137 64.8555 128.517C64.8555 129.897 64.5444 131.119 63.9333 132.185C63.3111 133.251 62.4777 134.081 61.4111 134.653C60.3444 135.236 59.1777 135.528 57.8888 135.528C56.6111 135.528 55.4666 135.236 54.4444 134.653ZM59.8889 132.578C60.5111 132.23 61.0222 131.714 61.4111 131.03C61.8 130.345 62 129.504 62 128.517C62 127.53 61.8111 126.7 61.4444 126.015C61.0666 125.331 60.5777 124.826 59.9555 124.479C59.3333 124.131 58.6666 123.963 57.9555 123.963C57.2444 123.963 56.5777 124.131 55.9666 124.479C55.3555 124.826 54.8777 125.331 54.5111 126.015C54.1555 126.7 53.9777 127.53 53.9777 128.517C53.9777 129.975 54.3444 131.108 55.0889 131.904C55.8333 132.701 56.7555 133.094 57.8777 133.094C58.5889 133.094 59.2666 132.925 59.8889 132.578Z" fill="url(#paint4_linear_6396_2286)"/>
<path d="M100.6 124.041C100.167 124.041 99.8111 124.4 99.8111 124.837V131.545C99.8111 132.05 99.9334 132.42 100.167 132.645C100.4 132.869 100.8 132.981 101.378 132.981H102.289C102.722 132.981 103.078 133.34 103.078 133.778V134.518C103.078 134.955 102.722 135.314 102.289 135.314H100.889C99.6334 135.314 98.6778 135.023 98.0111 134.428C97.3445 133.834 97.0111 132.88 97.0111 131.545V124.837C97.0111 124.4 96.6556 124.041 96.2222 124.041C95.7889 124.041 95.4333 123.682 95.4333 123.245V122.56C95.4333 122.123 95.7889 121.764 96.2222 121.764C96.6556 121.764 97.0111 121.405 97.0111 120.967V119.195C97.0111 118.758 97.3667 118.399 97.8 118.399H99.0222C99.4556 118.399 99.8111 118.758 99.8111 119.195V120.967C99.8111 121.405 100.167 121.764 100.6 121.764H102.278C102.711 121.764 103.067 122.123 103.067 122.56V123.245C103.067 123.682 102.711 124.041 102.278 124.041H100.6Z" fill="url(#paint5_linear_6396_2286)"/>
<path d="M110.022 122.113C110.467 121.855 110.967 121.686 111.522 121.597C112 121.518 112.422 121.911 112.422 122.393V124.435H111.711C110.622 124.435 109.8 124.715 109.233 125.276C108.678 125.837 108.389 126.801 108.389 128.181V134.519C108.389 134.956 108.033 135.315 107.6 135.315H106.411C105.978 135.315 105.622 134.956 105.622 134.519V122.561C105.622 122.124 105.978 121.765 106.411 121.765H107.6C108.033 121.765 108.389 122.124 108.389 122.561V123.728C108.811 123.032 109.356 122.494 110.022 122.113Z" fill="url(#paint6_linear_6396_2286)"/>
<path d="M115.133 119.442C114.789 119.094 114.622 118.668 114.622 118.163C114.622 117.658 114.789 117.232 115.133 116.884C115.478 116.537 115.9 116.368 116.4 116.368C116.889 116.368 117.3 116.537 117.645 116.884C117.989 117.232 118.156 117.658 118.156 118.163C118.156 118.668 117.989 119.094 117.645 119.442C117.3 119.79 116.889 119.958 116.4 119.958C115.889 119.958 115.467 119.79 115.133 119.442ZM117.767 122.549V134.507C117.767 134.944 117.411 135.303 116.978 135.303H115.789C115.356 135.303 115 134.944 115 134.507V122.549C115 122.112 115.356 121.753 115.789 121.753H116.978C117.411 121.753 117.767 122.112 117.767 122.549Z" fill="url(#paint7_linear_6396_2286)"/>
<path d="M126.122 122.168C126.933 121.741 127.856 121.528 128.878 121.528C130.044 121.528 131.111 121.82 132.078 122.403C133.044 122.987 133.8 123.805 134.356 124.849C134.911 125.903 135.189 127.103 135.189 128.461C135.189 129.818 134.911 131.041 134.356 132.117C133.8 133.194 133.044 134.024 132.078 134.63C131.111 135.225 130.044 135.528 128.878 135.528C127.856 135.528 126.944 135.314 126.144 134.899C125.9 134.765 125.667 134.63 125.444 134.473C124.911 134.103 124.2 134.473 124.2 135.124V140.945C124.2 141.383 123.844 141.742 123.411 141.742H122.222C121.789 141.742 121.433 141.383 121.433 140.945V122.549C121.433 122.112 121.789 121.753 122.222 121.753H123.411C123.844 121.753 124.2 122.112 124.2 122.549V123.738C124.667 123.121 125.311 122.594 126.122 122.168ZM131.789 126.049C131.411 125.365 130.9 124.849 130.278 124.501C129.656 124.153 128.978 123.974 128.267 123.974C127.567 123.974 126.911 124.153 126.278 124.512C125.656 124.871 125.144 125.398 124.767 126.083C124.389 126.767 124.189 127.586 124.189 128.517C124.189 129.448 124.378 130.267 124.767 130.962C125.144 131.658 125.656 132.185 126.278 132.544C126.9 132.903 127.567 133.082 128.267 133.082C128.978 133.082 129.656 132.903 130.278 132.533C130.9 132.162 131.411 131.624 131.789 130.917C132.167 130.211 132.367 129.392 132.367 128.461C132.356 127.53 132.167 126.722 131.789 126.049Z" fill="url(#paint8_linear_6396_2286)"/>
<defs>
<linearGradient id="paint0_linear_6396_2286" x1="0" y1="52.6781" x2="73.0882" y2="52.6781" gradientUnits="userSpaceOnUse">
<stop stop-color="#FF0000"/>
<stop offset="1" stop-color="#BC0000"/>
</linearGradient>
<linearGradient id="paint1_linear_6396_2286" x1="87.0619" y1="50.3377" x2="156.226" y2="50.3377" gradientUnits="userSpaceOnUse">
<stop stop-color="#FF0000"/>
<stop offset="1" stop-color="#BC0000"/>
</linearGradient>
<linearGradient id="paint2_linear_6396_2286" x1="84.2546" y1="19.6163" x2="155.287" y2="19.6163" gradientUnits="userSpaceOnUse">
<stop stop-color="#FF0000"/>
<stop offset="1" stop-color="#BC0000"/>
</linearGradient>
<linearGradient id="paint3_linear_6396_2286" x1="34.6064" y1="131.765" x2="48.3988" y2="131.765" gradientUnits="userSpaceOnUse">
<stop stop-color="#FF0000"/>
<stop offset="1" stop-color="#BC0000"/>
</linearGradient>
<linearGradient id="paint4_linear_6396_2286" x1="51.1521" y1="128.53" x2="64.8468" y2="128.53" gradientUnits="userSpaceOnUse">
<stop stop-color="#FF0000"/>
<stop offset="1" stop-color="#BC0000"/>
</linearGradient>
<linearGradient id="paint5_linear_6396_2286" x1="95.4176" y1="126.845" x2="103.069" y2="126.845" gradientUnits="userSpaceOnUse">
<stop stop-color="#FF0000"/>
<stop offset="1" stop-color="#BC0000"/>
</linearGradient>
<linearGradient id="paint6_linear_6396_2286" x1="105.628" y1="128.449" x2="112.427" y2="128.449" gradientUnits="userSpaceOnUse">
<stop stop-color="#FF0000"/>
<stop offset="1" stop-color="#BC0000"/>
</linearGradient>
<linearGradient id="paint7_linear_6396_2286" x1="114.619" y1="125.837" x2="118.153" y2="125.837" gradientUnits="userSpaceOnUse">
<stop stop-color="#FF0000"/>
<stop offset="1" stop-color="#BC0000"/>
</linearGradient>
<linearGradient id="paint8_linear_6396_2286" x1="121.418" y1="131.642" x2="135.185" y2="131.642" gradientUnits="userSpaceOnUse">
<stop stop-color="#FF0000"/>
<stop offset="1" stop-color="#BC0000"/>
</linearGradient>
</defs>
</svg>
