<svg width="25" height="25" viewBox="0 0 25 25" fill="none" xmlns="http://www.w3.org/2000/svg">
<path fill-rule="evenodd" clip-rule="evenodd" d="M6.45239 2.1084C5.65674 2.1084 4.89368 2.42447 4.33107 2.98708C3.76846 3.54969 3.45239 4.31275 3.45239 5.1084V19.1084C3.45239 19.904 3.76846 20.6671 4.33107 21.2297C4.89368 21.7923 5.65674 22.1084 6.45239 22.1084H12.4524C13.248 22.1084 14.0111 21.7923 14.5737 21.2297C15.1363 20.6671 15.4524 19.904 15.4524 19.1084V5.1084C15.4524 4.31275 15.1363 3.54969 14.5737 2.98708C14.0111 2.42447 13.248 2.1084 12.4524 2.1084H6.45239ZM16.7454 7.4014C16.9329 7.21393 17.1872 7.10861 17.4524 7.10861C17.7176 7.10861 17.9719 7.21393 18.1594 7.4014L22.1594 11.4014C22.3469 11.5889 22.4522 11.8432 22.4522 12.1084C22.4522 12.3736 22.3469 12.6279 22.1594 12.8154L18.1594 16.8154C17.9708 16.9976 17.7182 17.0984 17.456 17.0961C17.1938 17.0938 16.943 16.9886 16.7576 16.8032C16.5722 16.6178 16.467 16.367 16.4647 16.1048C16.4624 15.8426 16.5632 15.59 16.7454 15.4014L19.0384 13.1084H10.4524C10.1872 13.1084 9.93282 13.003 9.74529 12.8155C9.55775 12.628 9.45239 12.3736 9.45239 12.1084C9.45239 11.8432 9.55775 11.5888 9.74529 11.4013C9.93282 11.2138 10.1872 11.1084 10.4524 11.1084H19.0384L16.7454 8.8154C16.5579 8.62787 16.4526 8.37356 16.4526 8.1084C16.4526 7.84323 16.5579 7.58893 16.7454 7.4014Z" fill="#003556"/>
</svg>
