<svg width="365" height="291" viewBox="0 0 365 291" fill="none" xmlns="http://www.w3.org/2000/svg">
<g filter="url(#filter0_d_9658_2359)">
<rect x="10" y="10" width="345" height="271" rx="15" fill="url(#paint0_linear_9658_2359)"/>
</g>
<path fill-rule="evenodd" clip-rule="evenodd" d="M354.775 182.581V265.898C354.775 274.183 348.059 280.898 339.775 280.898H252.146C245.087 269.621 241 256.246 241 241.904C241 201.64 273.211 169 312.946 169C328.546 169 342.988 174.032 354.775 182.581Z" fill="#2F039D"/>
<path fill-rule="evenodd" clip-rule="evenodd" d="M355 219.481V265.882C355 274.167 348.284 280.882 340 280.882H290.054C285.587 273.84 283 265.487 283 256.529C283 231.384 303.384 211 328.529 211C338.402 211 347.541 214.142 355 219.481Z" fill="#3803BD"/>
<path d="M65.5375 48.7201C64.8922 49.1138 64.75 49.4967 64.75 50.8201V52.0013H60.7688C57.1703 52.0013 56.7219 52.0232 56.1203 52.2092C54.5125 52.7123 53.1453 54.0904 52.675 55.7092C52.5328 56.1904 52.5 56.9013 52.5 59.406V62.5013H77H101.5V59.406C101.5 56.9013 101.467 56.1904 101.325 55.7092C100.855 54.0904 99.4875 52.7123 97.8797 52.2092C97.2781 52.0232 96.8297 52.0013 93.2313 52.0013H89.25V50.8201C89.25 49.4967 89.1078 49.1138 88.4625 48.7201C87.9703 48.4248 87.0297 48.4248 86.5375 48.7201C85.8922 49.1138 85.75 49.4967 85.75 50.8201V52.0013H77H68.25V50.8201C68.25 49.8467 68.2172 49.5951 68.0312 49.2888C67.7031 48.7638 67.2109 48.5013 66.5 48.5013C66.0953 48.5013 65.7781 48.567 65.5375 48.7201Z" fill="white"/>
<path d="M52.5 79.5967C52.5 91.6935 52.5219 93.2576 52.675 93.7935C53.1453 95.4123 54.5125 96.7904 56.1203 97.2935C56.7656 97.4904 57.4656 97.5013 77 97.5013C96.5344 97.5013 97.2344 97.4904 97.8797 97.2935C99.4875 96.7904 100.855 95.4123 101.325 93.7935C101.478 93.2576 101.5 91.6935 101.5 79.5967V66.0013H77H52.5V79.5967ZM86.5156 73.242C87.0297 73.5045 87.5 74.2045 87.5 74.7185C87.5 75.4295 87.2812 75.6482 80.9156 81.0951C77.4703 84.0592 74.5063 86.5748 74.3203 86.6842C73.9266 86.9357 73.1719 86.9576 72.7563 86.7388C72.2422 86.4654 66.7406 80.8545 66.6531 80.5154C66.5437 80.056 66.6641 79.3998 66.9266 79.0388C67.3422 78.4592 68.3375 78.1748 68.9391 78.481C69.0703 78.5467 70.175 79.5857 71.3781 80.7888L73.5875 82.9763L78.925 78.3935C81.8672 75.8779 84.4703 73.6576 84.7109 73.4717C85.3891 72.9467 85.8047 72.892 86.5156 73.242Z" fill="white"/>
<defs>
<filter id="filter0_d_9658_2359" x="0" y="0" width="365" height="291" filterUnits="userSpaceOnUse" color-interpolation-filters="sRGB">
<feFlood flood-opacity="0" result="BackgroundImageFix"/>
<feColorMatrix in="SourceAlpha" type="matrix" values="0 0 0 0 0 0 0 0 0 0 0 0 0 0 0 0 0 0 127 0" result="hardAlpha"/>
<feOffset/>
<feGaussianBlur stdDeviation="5"/>
<feComposite in2="hardAlpha" operator="out"/>
<feColorMatrix type="matrix" values="0 0 0 0 0 0 0 0 0 0 0 0 0 0 0 0 0 0 0.25 0"/>
<feBlend mode="normal" in2="BackgroundImageFix" result="effect1_dropShadow_9658_2359"/>
<feBlend mode="normal" in="SourceGraphic" in2="effect1_dropShadow_9658_2359" result="shape"/>
</filter>
<linearGradient id="paint0_linear_9658_2359" x1="10" y1="-8.40123" x2="383.569" y2="259.576" gradientUnits="userSpaceOnUse">
<stop stop-color="#260085"/>
<stop offset="1" stop-color="#3803BD"/>
</linearGradient>
</defs>
</svg>
