<svg width="25" height="25" viewBox="0 0 25 25" fill="none" xmlns="http://www.w3.org/2000/svg">
<path d="M7.20005 2.07495C6.92349 2.2437 6.86255 2.40776 6.86255 2.97495V3.4812H5.1563C3.61411 3.4812 3.42192 3.49058 3.16411 3.57026C2.47505 3.78589 1.88911 4.37651 1.68755 5.07026C1.62661 5.27651 1.61255 5.5812 1.61255 6.65464V7.9812H12.1125H22.6125V6.65464C22.6125 5.5812 22.5985 5.27651 22.5375 5.07026C22.336 4.37651 21.75 3.78589 21.061 3.57026C20.8032 3.49058 20.611 3.4812 19.0688 3.4812H17.3625V2.97495C17.3625 2.40776 17.3016 2.2437 17.025 2.07495C16.8141 1.94839 16.411 1.94839 16.2 2.07495C15.9235 2.2437 15.8625 2.40776 15.8625 2.97495V3.4812H12.1125H8.36255V2.97495C8.36255 2.55776 8.34849 2.44995 8.2688 2.3187C8.12817 2.0937 7.91724 1.9812 7.61255 1.9812C7.43911 1.9812 7.30317 2.00933 7.20005 2.07495Z" fill="#003556"/>
<path d="M1.61255 15.3078C1.61255 20.4921 1.62192 21.1625 1.68755 21.3921C1.88911 22.0859 2.47505 22.6765 3.16411 22.8921C3.44067 22.9765 3.74067 22.9812 12.1125 22.9812C20.4844 22.9812 20.7844 22.9765 21.061 22.8921C21.75 22.6765 22.336 22.0859 22.5375 21.3921C22.6032 21.1625 22.6125 20.4921 22.6125 15.3078V9.4812H12.1125H1.61255V15.3078ZM16.1907 12.5843C16.411 12.6968 16.6125 12.9968 16.6125 13.2171C16.6125 13.5218 16.5188 13.6156 13.7907 15.95C12.3141 17.2203 11.0438 18.2984 10.9641 18.3453C10.7954 18.4531 10.4719 18.4625 10.2938 18.3687C10.0735 18.2515 7.71567 15.8468 7.67817 15.7015C7.6313 15.5046 7.68286 15.2234 7.79536 15.0687C7.97349 14.8203 8.40005 14.6984 8.65786 14.8296C8.71411 14.8578 9.18755 15.3031 9.70317 15.8187L10.65 16.7562L12.9375 14.7921C14.1985 13.714 15.3141 12.7625 15.4172 12.6828C15.7079 12.4578 15.886 12.4343 16.1907 12.5843Z" fill="#003556"/>
</svg>
