<svg width="49" height="49" viewBox="0 0 49 49" fill="none" xmlns="http://www.w3.org/2000/svg">
<circle cx="24.832" cy="24.4092" r="24" fill="#003556"/>
<path d="M33.1087 29.1657C33.5903 29.9109 34.1702 30.5879 34.8328 31.1782C34.9812 31.3092 35.0663 31.4977 35.0663 31.6957V31.9865C35.0663 32.7236 34.4687 33.3212 33.7316 33.3212H15.9323C15.1952 33.3212 14.5977 32.7236 14.5977 31.9865V31.6957C14.5977 31.4977 14.6827 31.3092 14.8312 31.1782C15.4838 30.5859 16.0544 29.9091 16.5278 29.1657C17.0537 28.1371 17.369 27.0139 17.455 25.8618V24.6799C17.455 24.4864 17.6147 24.3311 17.8081 24.3366C17.9939 24.3417 18.1419 24.4939 18.1419 24.6799L18.1419 25.8874L18.14 25.913C18.0471 27.1562 17.7069 28.3684 17.1393 29.4784L17.1245 29.5072L17.1072 29.5346C16.6009 30.3296 15.9908 31.0534 15.2928 31.6868L15.2857 31.6933L15.2845 31.6957V31.9984C15.2845 32.3496 15.5692 32.6343 15.9204 32.6343H33.7316C34.0894 32.6343 34.3794 32.3443 34.3794 31.9865V31.699C34.3794 31.6959 34.3781 31.693 34.3758 31.691C33.6672 31.0596 33.0469 30.3356 32.5318 29.5384L32.513 29.5093L32.4972 29.4784C31.9296 28.3684 31.5893 27.1562 31.4965 25.913L31.4946 25.8874V22.467C31.4987 20.8249 30.9031 19.2378 29.8195 18.0039C28.736 16.7701 27.2392 15.9743 25.6104 15.7662C25.3319 15.7155 24.6114 15.647 23.9575 15.779C22.3433 16.0021 20.8646 16.8027 19.7953 18.0324C18.726 19.2621 18.1386 20.8377 18.1419 22.4673L18.1419 22.4687L18.1419 22.9767C18.1419 23.1677 17.9862 23.3219 17.7953 23.3202C17.6068 23.3184 17.455 23.1652 17.455 22.9767V22.4687C17.4514 20.673 18.0987 18.9368 19.277 17.5817C20.2574 16.4541 21.5503 15.654 22.9818 15.2754C23.6588 15.1201 25.3238 14.8974 26.5676 15.2493C28.0212 15.6149 29.3376 16.4141 30.3357 17.5507C31.5296 18.9104 32.186 20.6592 32.1815 22.4687V25.8618C32.2675 27.0139 32.5827 28.1371 33.1087 29.1657Z" fill="white"/>
<path d="M26.0805 14.4566C26.0805 13.767 25.5214 13.208 24.8318 13.208C24.1422 13.208 23.5832 13.767 23.5832 14.4566C23.5832 14.7735 23.7013 15.0629 23.8958 15.2831H22.958C22.8464 15.0303 22.7844 14.7507 22.7844 14.4566C22.7844 13.3259 23.7011 12.4092 24.8318 12.4092C25.9626 12.4092 26.8793 13.3259 26.8793 14.4566C26.8793 14.7507 26.8173 15.0303 26.7057 15.2831H25.7679C25.9624 15.0629 26.0805 14.7735 26.0805 14.4566Z" fill="white"/>
<path d="M24.832 35.7879C25.9161 35.7879 26.7949 34.9091 26.7949 33.825C26.7949 33.4826 26.7073 33.1607 26.5532 32.8805H27.2381C27.3531 33.173 27.4162 33.4916 27.4162 33.825C27.4162 35.2522 26.2592 36.4092 24.832 36.4092C23.4048 36.4092 22.2478 35.2522 22.2478 33.825C22.2478 33.4916 22.3109 33.173 22.4258 32.8805H23.1108C22.9567 33.1607 22.869 33.4826 22.869 33.825C22.869 34.9091 23.7479 35.7879 24.832 35.7879Z" fill="white"/>
</svg>
