<svg width="365" height="293" viewBox="0 0 365 293" fill="none" xmlns="http://www.w3.org/2000/svg">
<g filter="url(#filter0_d_9658_2355)">
<rect x="10" y="10" width="345" height="273" rx="15" fill="url(#paint0_linear_9658_2355)"/>
</g>
<path fill-rule="evenodd" clip-rule="evenodd" d="M354.774 184.581V267.898C354.774 276.183 348.059 282.898 339.774 282.898H252.146C245.087 271.621 241 258.246 241 243.904C241 203.64 273.211 171 312.946 171C328.546 171 342.987 176.032 354.774 184.581Z" fill="#44595F"/>
<path fill-rule="evenodd" clip-rule="evenodd" d="M355 221.481V267.882C355 276.167 348.284 282.882 340 282.882H290.054C285.587 275.84 283 267.487 283 258.529C283 233.384 303.384 213 328.529 213C338.402 213 347.541 216.142 355 221.481Z" fill="#22292C"/>
<path fill-rule="evenodd" clip-rule="evenodd" d="M74.1692 58.1368C73.5725 58.762 73.0842 59.3008 73.0842 59.334C73.0842 59.3673 73.8126 60.079 74.7027 60.9156C75.5928 61.7522 76.3211 62.475 76.3211 62.522C76.3211 62.5734 76.076 62.5837 75.705 62.5476C75.0281 62.4819 73.3607 62.6064 72.0812 62.8183C65.6755 63.879 60.0707 67.9464 57.1752 73.6358C55.5822 76.7659 54.9014 79.8427 55.0114 83.4141C55.1058 86.4785 55.7136 88.8983 57.0803 91.6509C61.6996 100.954 72.6002 105.299 82.5168 101.789C83.8051 101.334 85.6187 100.426 86.855 99.6184C92.0192 96.2454 95.2632 90.9458 95.931 84.7918C96.0654 83.5532 95.9948 80.88 95.795 79.647C95.6237 78.5892 95.2135 77.0067 94.8306 75.927C94.1586 74.032 92.7432 71.568 91.3876 69.9332C90.433 68.782 88.2498 66.7508 88.079 66.8548C88.0359 66.881 87.5207 67.5119 86.9343 68.2567L85.8679 69.611L86.4514 70.1114C92.9994 75.7281 94.2701 85.0302 89.4552 92.1001C87.6348 94.7731 84.8964 96.9521 81.8182 98.1772C77.3566 99.9529 72.4167 99.7632 68.0238 97.6475C65.2932 96.3324 62.8221 94.1288 61.2163 91.577C58.0102 86.4821 57.7846 80.3026 60.6107 74.9836C62.7598 70.9385 66.6752 67.8679 71.1564 66.7131C71.7212 66.5676 72.5911 66.3879 73.0896 66.3139C73.9634 66.1842 76.3211 66.1233 76.3211 66.2305C76.3211 66.2594 75.6544 66.9688 74.8395 67.8071C74.0246 68.6455 73.3458 69.3648 73.3312 69.4056C73.3021 69.4872 75.4868 71.5693 75.6018 71.5693C75.7144 71.5693 82.7494 64.2792 82.7494 64.1624C82.7494 64.1051 81.3338 62.73 79.6036 61.1068C77.8735 59.4836 76.1871 57.8955 75.856 57.5777L75.2542 57L74.1692 58.1368ZM74.224 74.5283C74.224 75.5096 74.2606 75.4511 73.5706 75.5714C72.6492 75.7321 71.4339 76.3272 70.7271 76.9637C69.5017 78.0673 69.1131 79.963 69.7619 81.6719C70.0128 82.3328 70.8585 83.1948 71.5996 83.5452C72.339 83.8947 73.621 84.208 74.999 84.3759C77.8627 84.725 78.9654 85.2437 78.9654 86.2421C78.9654 87.1196 78.3215 87.7188 77.0649 88.0106C76.4289 88.1583 75.1308 88.1609 74.4975 88.0159C73.3642 87.7562 72.2889 87.0638 71.9302 86.3625C71.8254 86.1578 71.7265 85.9756 71.7103 85.9577C71.6941 85.9399 71.0222 86.1986 70.2171 86.5329C69.1711 86.9669 68.7532 87.1826 68.7532 87.288C68.7532 87.369 68.9585 87.7643 69.2095 88.1662C69.791 89.0971 70.6512 89.873 71.6253 90.3449C72.3321 90.6872 73.5861 91.0668 74.0103 91.0668C74.2127 91.0668 74.2187 91.0929 74.2438 92.0776L74.2696 93.0885L75.888 93.113L77.5065 93.1375V92.0675V90.9974L77.9396 90.9375C79.6155 90.7059 81.2994 89.5996 81.9524 88.3011C82.3366 87.537 82.4621 86.874 82.4066 85.9004C82.3332 84.61 81.9023 83.7064 81.0169 82.9859C80.0547 82.203 78.8146 81.8175 75.9564 81.4131C73.6988 81.0936 73.1876 80.9192 72.8997 80.3704C72.4648 79.5416 73.1582 78.6799 74.4792 78.4076C76.1253 78.0683 77.9321 78.5126 78.8071 79.4715L79.2045 79.9071L80.588 79.2757L81.9716 78.6442L81.7222 78.1941C81.3769 77.571 80.572 76.7252 79.9401 76.3215C79.4437 76.0043 78.8024 75.7544 77.894 75.5241L77.5065 75.4259V74.5308V73.6358H75.8652H74.224V74.5283Z" fill="white"/>
<defs>
<filter id="filter0_d_9658_2355" x="0" y="0" width="365" height="293" filterUnits="userSpaceOnUse" color-interpolation-filters="sRGB">
<feFlood flood-opacity="0" result="BackgroundImageFix"/>
<feColorMatrix in="SourceAlpha" type="matrix" values="0 0 0 0 0 0 0 0 0 0 0 0 0 0 0 0 0 0 127 0" result="hardAlpha"/>
<feOffset/>
<feGaussianBlur stdDeviation="5"/>
<feComposite in2="hardAlpha" operator="out"/>
<feColorMatrix type="matrix" values="0 0 0 0 0 0 0 0 0 0 0 0 0 0 0 0 0 0 0.25 0"/>
<feBlend mode="normal" in2="BackgroundImageFix" result="effect1_dropShadow_9658_2355"/>
<feBlend mode="normal" in="SourceGraphic" in2="effect1_dropShadow_9658_2355" result="shape"/>
</filter>
<linearGradient id="paint0_linear_9658_2355" x1="-8.60996" y1="-22.5191" x2="428.238" y2="99.7371" gradientUnits="userSpaceOnUse">
<stop stop-color="#485F66"/>
<stop offset="1" stop-color="#101010"/>
</linearGradient>
</defs>
</svg>
