<svg width="25" height="25" viewBox="0 0 25 25" fill="none" xmlns="http://www.w3.org/2000/svg">
<path d="M20.3623 11.6885C19.8895 11.4809 19.3787 11.3739 18.8623 11.3744H5.3623C4.84598 11.3739 4.33519 11.4807 3.8623 11.688C3.19396 11.9803 2.62524 12.4609 2.22566 13.0712C1.82608 13.6815 1.61294 14.3949 1.6123 15.1244V20.3744C1.6123 20.5733 1.69132 20.7641 1.83197 20.9047C1.97263 21.0454 2.16339 21.1244 2.3623 21.1244C2.56122 21.1244 2.75198 21.0454 2.89263 20.9047C3.03329 20.7641 3.1123 20.5733 3.1123 20.3744V19.9994C3.11352 19.9003 3.15342 19.8056 3.22348 19.7356C3.29355 19.6655 3.38823 19.6256 3.4873 19.6244H20.7373C20.8364 19.6256 20.9311 19.6655 21.0011 19.7356C21.0712 19.8056 21.1111 19.9003 21.1123 19.9994V20.3744C21.1123 20.5733 21.1913 20.7641 21.332 20.9047C21.4726 21.0454 21.6634 21.1244 21.8623 21.1244C22.0612 21.1244 22.252 21.0454 22.3926 20.9047C22.5333 20.7641 22.6123 20.5733 22.6123 20.3744V15.1244C22.6116 14.395 22.3984 13.6816 21.9988 13.0715C21.5992 12.4613 21.0306 11.9807 20.3623 11.6885ZM17.7373 4.62439H6.4873C5.79111 4.62439 5.12343 4.90095 4.63115 5.39323C4.13887 5.88552 3.8623 6.5532 3.8623 7.24939V10.6244C3.86233 10.6534 3.8691 10.6821 3.88209 10.7081C3.89508 10.7341 3.91394 10.7567 3.93716 10.7741C3.96039 10.7916 3.98736 10.8034 4.01594 10.8087C4.04451 10.8139 4.07392 10.8125 4.10184 10.8044C4.51127 10.6846 4.93572 10.624 5.3623 10.6244H5.56059C5.60687 10.6247 5.65162 10.6079 5.68623 10.5771C5.72085 10.5464 5.74288 10.504 5.74809 10.458C5.78899 10.0915 5.96346 9.75295 6.23816 9.50695C6.51286 9.26095 6.86856 9.12476 7.2373 9.12439H9.8623C10.2313 9.12442 10.5873 9.26045 10.8623 9.50648C11.1373 9.75251 11.312 10.0913 11.3529 10.458C11.3581 10.504 11.3802 10.5464 11.4148 10.5771C11.4494 10.6079 11.4941 10.6247 11.5404 10.6244H12.687C12.7333 10.6247 12.778 10.6079 12.8126 10.5771C12.8473 10.5464 12.8693 10.504 12.8745 10.458C12.9154 10.0918 13.0896 9.75338 13.364 9.50742C13.6385 9.26145 13.9938 9.12511 14.3623 9.12439H16.9873C17.3563 9.12442 17.7123 9.26045 17.9873 9.50648C18.2623 9.75251 18.437 10.0913 18.4779 10.458C18.4831 10.504 18.5052 10.5464 18.5398 10.5771C18.5744 10.6079 18.6191 10.6247 18.6654 10.6244H18.8623C19.2889 10.6242 19.7134 10.685 20.1228 10.8049C20.1507 10.8129 20.1802 10.8144 20.2088 10.8091C20.2374 10.8038 20.2644 10.792 20.2876 10.7745C20.3109 10.757 20.3297 10.7343 20.3427 10.7082C20.3556 10.6822 20.3624 10.6535 20.3623 10.6244V7.24939C20.3623 6.5532 20.0857 5.88552 19.5935 5.39323C19.1012 4.90095 18.4335 4.62439 17.7373 4.62439Z" fill="#003556"/>
</svg>
