<svg width="365" height="293" viewBox="0 0 365 293" fill="none" xmlns="http://www.w3.org/2000/svg">
<g filter="url(#filter0_d_9658_2360)">
<rect x="10" y="10" width="345" height="273" rx="15" fill="url(#paint0_linear_9658_2360)"/>
</g>
<path fill-rule="evenodd" clip-rule="evenodd" d="M354.774 184.581V267.898C354.774 276.183 348.059 282.898 339.774 282.898H252.146C245.087 271.621 241 258.246 241 243.904C241 203.64 273.211 171 312.946 171C328.546 171 342.987 176.032 354.774 184.581Z" fill="#FF9118"/>
<path fill-rule="evenodd" clip-rule="evenodd" d="M355 221.481V267.882C355 276.167 348.284 282.882 340 282.882H290.054C285.587 275.84 283 267.487 283 258.529C283 233.384 303.384 213 328.529 213C338.402 213 347.541 216.142 355 221.481Z" fill="#FFA94B"/>
<path d="M54.5377 52.7386C54.2931 52.8498 53.8483 53.2056 53.537 53.5392L52.9811 54.1396L52.9366 60.5439L52.8699 66.9705L53.6927 66.4368C54.1152 66.1254 54.6044 65.8808 54.76 65.8808C54.9157 65.8808 55.316 65.6585 55.6718 65.3916C56.0053 65.1025 56.2277 65.0136 56.1387 65.1692C56.0053 65.3471 56.072 65.3916 56.2944 65.3027C56.5835 65.1915 56.6502 64.769 56.6502 63.1457C56.6502 61.4111 56.7169 61.0109 57.1617 60.3882C57.4285 59.988 57.8288 59.5877 58.0512 59.521C58.2513 59.4543 58.3625 59.2986 58.2958 59.1652C58.2068 59.0318 58.2513 58.9873 58.3625 59.054C58.4959 59.1429 59.0296 59.054 59.541 58.8761C60.0525 58.6982 61.5202 58.4536 62.8322 58.3202C65.4117 58.0756 70.0148 58.0978 69.8369 58.3646C69.7924 58.4758 70.0815 58.5648 70.4818 58.5648C70.8821 58.587 71.3713 58.6093 71.5492 58.6315C72.1273 58.676 73.973 59.8768 74.2621 60.3882C74.3955 60.6551 74.5734 61.2777 74.6401 61.7669L74.7736 62.6564L76.0633 62.7231L77.3309 62.7899V61.7892C77.3309 61.2332 77.442 60.7218 77.5755 60.6551C77.7089 60.5661 77.7534 60.366 77.6867 60.1881C77.6199 60.0102 77.6422 59.899 77.7311 59.9212C77.998 59.988 79.3544 59.2097 79.2433 59.0318C79.1988 58.9428 79.3767 58.8539 79.6213 58.8539C79.8881 58.8316 80.9333 58.6537 81.9562 58.4758C85.0249 57.9421 90.6287 58.1867 92.6746 58.9428C92.9859 59.054 93.3417 59.1207 93.4529 59.0762C93.5863 59.0318 93.9866 59.4098 94.3646 59.8768C94.965 60.6328 95.0762 60.9664 95.2096 62.612C95.2986 63.6349 95.2986 64.6133 95.2318 64.7912C95.1429 65.0803 95.81 65.4361 98.9455 66.7258C99.1678 66.8148 99.1678 55.7184 98.9677 54.6955C98.901 54.3397 98.5007 53.7171 98.0782 53.2945L97.3444 52.5607H76.1523C64.5222 52.5607 54.7823 52.6497 54.5377 52.7386Z" fill="white"/>
<path d="M70.1928 64.8579C70.1261 64.9246 69.1254 65.0358 67.9246 65.1025C66.746 65.1692 65.2561 65.3249 64.6112 65.4583C63.9663 65.5695 63.277 65.6807 63.0991 65.6807C62.5876 65.7029 58.3403 66.5924 58.0957 66.7258C57.9845 66.8148 57.7399 66.8815 57.562 66.926C56.6948 67.0371 55.3605 67.5486 55.4495 67.7043C55.5162 67.7932 55.4272 67.8154 55.2493 67.7487C55.0492 67.682 54.6489 67.9044 54.2931 68.2602C53.9596 68.5937 53.8039 68.7049 53.9596 68.4826C54.4043 67.9044 54.093 68.0378 53.2035 68.7939C52.781 69.1719 52.4919 69.5944 52.5809 69.7278C52.6476 69.8613 52.6031 69.8835 52.4697 69.7946C52.1806 69.6167 50.1125 73.6416 48.8673 76.866L48 79.112L48.0445 83.7818L48.0889 88.4516H49.7567H51.4245L51.4468 84.5601L51.469 80.6686L52.2028 80.1571L52.9367 79.6679H75.6409C92.3856 79.6679 98.5675 79.7346 99.2346 79.9347C99.7239 80.0682 100.191 80.1794 100.28 80.1571C100.347 80.1349 100.435 81.9361 100.458 84.1598C100.458 87.0729 100.547 88.2515 100.747 88.3849C101.058 88.585 103.171 88.6295 103.66 88.4294C103.971 88.3182 104.016 87.6956 104.016 83.7818C104.016 79.4455 103.993 79.1787 103.437 77.6888C103.082 76.7326 102.77 76.1767 102.615 76.2656C102.481 76.3546 102.437 76.2656 102.526 76.0655C102.681 75.643 101.392 72.5965 100.28 70.7285C99.2124 68.9273 97.3667 67.5931 95.2764 67.1039C95.0096 67.0371 93.831 66.7258 92.6746 66.4145C91.5183 66.1032 90.0062 65.8363 89.2946 65.8141C88.6052 65.7919 88.0938 65.7029 88.1382 65.6362C88.2494 65.4583 86.426 65.2137 83.7797 65.0358C81.2002 64.8579 70.3262 64.7245 70.1928 64.8579Z" fill="white"/>
<path d="M54.649 81.4469C54.2487 81.5581 53.7817 81.8027 53.626 82.0028C53.4259 82.2696 53.337 83.893 53.337 87.6511C53.3147 92.143 53.3592 92.988 53.6483 93.2326C53.9151 93.455 53.9818 93.455 53.9818 93.2104C53.9818 92.9658 54.0263 92.9658 54.1597 93.1881C54.3821 93.5217 57.1173 93.4772 57.3619 93.1214C57.4509 93.0102 57.5398 91.9206 57.5398 90.742V88.5628L75.8855 88.5183C90.9846 88.4516 94.2535 88.4961 94.3425 88.7407C94.4092 88.9186 94.4536 89.9193 94.4536 91.0089C94.4536 92.3876 94.5426 93.0325 94.765 93.2104C95.0541 93.455 97.5224 93.5217 98.3007 93.3216C98.6565 93.2104 98.6787 92.7656 98.6787 87.8734C98.6787 83.4482 98.6343 82.5143 98.3674 82.4253C98.1673 82.3586 98.1006 82.1585 98.1673 81.9361C98.2785 81.6692 98.2117 81.6248 97.9227 81.7359C97.7225 81.8249 97.5891 81.8027 97.6558 81.6915C97.7225 81.6025 97.2555 81.4469 96.6107 81.3579C94.8984 81.1578 55.5607 81.2467 54.649 81.4469Z" fill="white"/>
<defs>
<filter id="filter0_d_9658_2360" x="0" y="0" width="365" height="293" filterUnits="userSpaceOnUse" color-interpolation-filters="sRGB">
<feFlood flood-opacity="0" result="BackgroundImageFix"/>
<feColorMatrix in="SourceAlpha" type="matrix" values="0 0 0 0 0 0 0 0 0 0 0 0 0 0 0 0 0 0 127 0" result="hardAlpha"/>
<feOffset/>
<feGaussianBlur stdDeviation="5"/>
<feComposite in2="hardAlpha" operator="out"/>
<feColorMatrix type="matrix" values="0 0 0 0 0 0 0 0 0 0 0 0 0 0 0 0 0 0 0.25 0"/>
<feBlend mode="normal" in2="BackgroundImageFix" result="effect1_dropShadow_9658_2360"/>
<feBlend mode="normal" in="SourceGraphic" in2="effect1_dropShadow_9658_2360" result="shape"/>
</filter>
<linearGradient id="paint0_linear_9658_2360" x1="-0.499989" y1="-14.5143" x2="404.798" y2="257.559" gradientUnits="userSpaceOnUse">
<stop stop-color="#F78100"/>
<stop offset="1" stop-color="#FFA94B"/>
</linearGradient>
</defs>
</svg>
