<svg width="21" height="21" viewBox="0 0 21 21" fill="none" xmlns="http://www.w3.org/2000/svg">
<path d="M13.4518 3.4885V19.8335M7.31678 17.6785V1.3835M7.29678 1.3335L1.51678 3.3085C1.4077 3.3378 1.31175 3.40317 1.24456 3.49396C1.17738 3.58475 1.14291 3.69561 1.14678 3.8085V19.3085C1.14678 19.4411 1.19946 19.5683 1.29322 19.6621C1.38699 19.7558 1.51417 19.8085 1.64678 19.8085H1.81178L7.31178 17.6785L13.4618 19.8335L19.2418 17.8335C19.3509 17.8042 19.4468 17.7388 19.514 17.648C19.5812 17.5572 19.6156 17.4464 19.6118 17.3335V1.8335C19.6118 1.70089 19.5591 1.57371 19.4653 1.47994C19.3716 1.38617 19.2444 1.3335 19.1118 1.3335L18.9468 1.3685L13.4468 3.4635L7.29678 1.3335Z" stroke="white" stroke-width="2" stroke-linecap="round" stroke-linejoin="round"/>
</svg>
