<svg width="19" height="19" viewBox="0 0 19 19" fill="none" xmlns="http://www.w3.org/2000/svg">
<path d="M18.5301 8.68776C18.5301 8.77722 18.5301 8.85357 18.5301 8.93049C18.5301 11.241 18.5318 13.5515 18.5295 15.862C18.5284 17.2146 17.7069 18.2978 16.4448 18.5998C16.2125 18.6551 15.9672 18.6739 15.7275 18.6739C11.5358 18.6784 7.34472 18.6784 3.15304 18.6761C1.72014 18.675 0.621983 17.7611 0.379465 16.3731C0.352709 16.2204 0.349862 16.062 0.349862 15.9058C0.348155 13.5669 0.348724 11.2279 0.348724 8.88946C0.348724 8.82679 0.354417 8.76411 0.358402 8.68776C6.40994 8.68776 12.4524 8.68776 18.5301 8.68776Z" fill="#F23844"/>
<path d="M14.8958 3.21269C15.205 3.21269 15.4811 3.21098 15.7572 3.21269C17.3518 3.22351 18.5188 4.39386 18.5296 5.99211C18.5313 6.26846 18.5296 6.54481 18.5296 6.83483C12.4673 6.83483 6.42027 6.83483 0.370435 6.83483C0.264547 5.70779 0.367019 4.65311 1.30578 3.86167C1.76576 3.47365 2.29235 3.24687 2.89466 3.22123C3.24762 3.20585 3.60172 3.21838 3.982 3.21838C3.982 2.89702 3.982 2.6013 3.982 2.30558C3.982 2.01442 3.9803 1.72269 3.98257 1.43153C3.98656 0.890799 4.36058 0.493087 4.8701 0.48454C5.39555 0.475423 5.79007 0.858891 5.80145 1.41045C5.81227 1.92212 5.8043 2.43379 5.8043 2.94546C5.8043 3.02295 5.8043 3.10044 5.8043 3.19502C8.22947 3.19502 10.6387 3.19502 13.073 3.19502C13.073 3.0258 13.073 2.86455 13.073 2.70273C13.073 2.27652 13.0673 1.84975 13.0747 1.42355C13.0849 0.869717 13.4709 0.480551 13.9941 0.48397C14.5144 0.487389 14.8924 0.885671 14.8953 1.4395C14.8981 2.02126 14.8958 2.60301 14.8958 3.21269Z" fill="#F23844"/>
</svg>
