<svg width="16" height="13" viewBox="0 0 16 13" fill="none" xmlns="http://www.w3.org/2000/svg">
<path d="M3.55961 6.8164L5.05961 9.4189L3.16211 11.8039L0.537109 7.2589L3.55961 6.8164ZM11.7871 11.2939V9.2614C12.4471 8.9689 12.9121 8.3164 12.9121 7.5439C12.9121 7.1164 12.7621 6.7189 12.5146 6.4189L13.9921 5.5564C14.7496 5.1139 15.0121 4.1464 14.5696 3.3889L13.5346 1.5889C13.3236 1.22516 12.9773 0.95956 12.5713 0.849983C12.1653 0.740405 11.7325 0.795731 11.3671 1.0039L5.26961 4.5439C4.55711 4.9414 4.30961 5.8564 4.72211 6.5764L5.84711 8.5264C6.25961 9.2389 7.18211 9.4864 7.89461 9.0739L9.30461 8.2639C9.49211 8.7064 9.84461 9.0664 10.2871 9.2614V11.2939C10.2871 12.1189 10.9621 12.7939 11.7871 12.7939H15.5371V11.2939H11.7871Z" fill="#303030"/>
</svg>
