<svg width="16" height="14" viewBox="0 0 16 14" fill="none" xmlns="http://www.w3.org/2000/svg">
<path d="M6.59534 0.0429688L5.09534 1.54297V3.04297H2.84534C1.98284 3.04297 1.43534 3.79297 1.34534 4.54297L0.595339 12.043C0.505339 12.793 1.00034 13.543 2.09534 13.543H14.0953C15.1903 13.543 15.6853 12.793 15.5953 12.043L14.8453 4.54297C14.7553 3.79297 14.1403 3.04297 13.3453 3.04297H11.0953V1.54297L9.59534 0.0429688H6.59534ZM6.59534 1.54297H9.59534V3.04297H6.59534V1.54297ZM7.34534 5.29297H8.84534V7.54297H11.0953V9.04297H8.84534V11.293H7.34534V9.04297H5.09534V7.54297H7.34534V5.29297Z" fill="#303030"/>
</svg>
