<svg width="12" height="16" viewBox="0 0 12 16" fill="none" xmlns="http://www.w3.org/2000/svg">
<path d="M2.87004 15.2422C2.85244 15.234 2.83602 15.2231 2.81764 15.2184C2.27845 15.0827 1.96291 14.6842 1.96291 14.1285C1.96173 12.0208 1.96252 9.91309 1.96252 7.80537C1.96252 7.74711 1.96252 7.68884 1.96252 7.6298C1.76428 7.55198 1.5633 7.49098 1.37992 7.39634C1.18637 7.29663 0.996737 7.18088 0.827823 7.04401C0.508373 6.78475 0.349625 6.44689 0.35158 6.02339C0.358618 4.33057 0.354317 2.63736 0.35549 0.944534C0.35549 0.852639 0.36331 0.758789 0.381297 0.668849C0.428217 0.432269 0.641705 0.259037 0.881781 0.253171C1.12303 0.247305 1.34629 0.408806 1.40377 0.641867C1.42449 0.725941 1.4284 0.81549 1.4288 0.902693C1.43036 2.27838 1.4288 3.65446 1.43036 5.03015C1.43075 5.43331 1.75607 5.69101 2.11814 5.58112C2.33632 5.51504 2.48646 5.32617 2.49272 5.09349C2.49897 4.86434 2.49545 4.6348 2.49545 4.40565C2.49545 3.24465 2.49467 2.08325 2.49663 0.922245C2.49663 0.825266 2.50288 0.72555 2.52673 0.632482C2.5846 0.407242 2.80708 0.249652 3.04169 0.25278C3.27707 0.256299 3.48899 0.419364 3.54256 0.649297C3.56329 0.738455 3.56915 0.832696 3.56915 0.924591C3.57071 2.29559 3.56993 3.66658 3.57071 5.03758C3.57111 5.32304 3.72203 5.52325 3.97892 5.58816C4.28391 5.66559 4.59319 5.4556 4.62994 5.14355C4.63776 5.0759 4.63737 5.00707 4.63737 4.93903C4.63776 3.61184 4.63737 2.28503 4.63815 0.95783C4.63815 0.87532 4.64167 0.791637 4.65262 0.709909C4.68547 0.461988 4.88762 0.272332 5.13238 0.253562C5.38575 0.23401 5.61645 0.394337 5.68174 0.642649C5.70129 0.716947 5.70833 0.79672 5.70872 0.873756C5.71029 2.61546 5.70872 4.35716 5.71068 6.09926C5.71107 6.50242 5.52026 6.80626 5.22779 7.05887C4.94627 7.30171 4.61548 7.45422 4.26475 7.56762C4.21431 7.58365 4.16387 7.5993 4.10209 7.61885C4.10209 7.67868 4.10209 7.73655 4.10209 7.79443C4.10209 9.84857 4.08958 11.9027 4.10952 13.9565C4.11577 14.6001 3.84833 15.0866 3.19183 15.2422C3.0847 15.2422 2.97756 15.2422 2.87004 15.2422Z" fill="#303030"/>
<path d="M9.83875 15.2418C9.76446 15.2187 9.68899 15.1996 9.61666 15.1722C9.18264 15.0083 8.92614 14.6208 8.92614 14.1207C8.92497 12.4181 8.92575 10.7159 8.92575 9.01327C8.92575 8.95579 8.92575 8.89831 8.92575 8.82362C8.39673 8.82362 7.88216 8.82362 7.35822 8.82362C7.34884 8.69692 7.3371 8.58664 7.3328 8.47598C7.26829 6.81288 7.41296 5.17362 7.90719 3.57661C8.17385 2.71475 8.52967 1.89434 9.11187 1.19164C9.46026 0.771268 9.86886 0.425977 10.4167 0.302408C10.6211 0.256265 10.8374 0.26174 11.0665 0.242188C11.0665 0.337993 11.0665 0.390393 11.0665 0.442401C11.0665 4.98397 11.0665 9.52554 11.0665 14.0671C11.0665 14.6908 10.7893 15.0541 10.1844 15.2254C10.1758 15.2277 10.1688 15.2363 10.1609 15.2422C10.0534 15.2418 9.94588 15.2418 9.83875 15.2418Z" fill="#303030"/>
</svg>
