<svg width="16" height="16" viewBox="0 0 16 16" fill="none" xmlns="http://www.w3.org/2000/svg">
<path d="M7.75255 15.4782C3.64041 15.494 0.248974 12.1307 0.238307 8.02609C0.227639 3.85656 3.56616 0.496695 7.73804 0.478342C11.8399 0.460416 15.2292 3.84419 15.2382 7.96549C15.2472 12.1 11.8971 15.462 7.75255 15.4782ZM9.02114 4.64275C9.06039 3.59535 8.09434 2.94788 7.2085 3.33628C6.64056 3.58554 6.38411 4.11436 6.46988 4.81305C6.57015 5.62655 6.65464 6.44177 6.74596 7.25612C6.85263 8.20791 6.95589 9.16013 7.06598 10.1119C7.10567 10.4551 7.39028 10.6984 7.73292 10.7001C8.07684 10.7018 8.36188 10.4611 8.40967 10.1222C8.43485 9.94291 8.45277 9.76279 8.47282 9.58311C8.58547 8.57284 8.69812 7.563 8.80992 6.55274C8.88417 5.88648 8.95713 5.2198 9.02114 4.64275ZM7.73164 12.7471C8.11141 12.7513 8.41394 12.4547 8.41565 12.0765C8.41735 11.6941 8.12463 11.3958 7.7453 11.3924C7.36425 11.3889 7.06385 11.6834 7.06129 12.0625C7.0583 12.4436 7.35145 12.7428 7.73164 12.7471Z" fill="#F23844"/>
</svg>
