<svg width="61" height="61" viewBox="0 0 61 61" fill="none" xmlns="http://www.w3.org/2000/svg">
<g clip-path="url(#clip0_11299_3665)">
<path d="M26.5293 1.0665C21.2441 1.74619 16.5449 3.64462 12.2324 6.84384C10.4746 8.15634 7.54492 11.086 6.23242 12.8438C4.05273 15.7852 2.54102 18.7501 1.52148 22.1251C0.630859 25.0548 0.291016 27.5274 0.291016 30.8907C0.291016 34.254 0.630859 36.7267 1.52148 39.6563C2.98633 44.4727 5.37695 48.422 9.05664 52.1134C12.7598 55.8048 16.6973 58.1837 21.5371 59.6485C24.6191 60.586 27.2676 60.9376 30.9238 60.8673C33.2207 60.8321 33.4199 60.8087 33.8887 60.5626C34.627 60.1642 35.084 59.3907 35.084 58.5352C35.084 57.7032 34.9434 57.3165 34.4629 56.8126C33.8184 56.1329 33.5723 56.086 30.8301 56.086C27.6895 56.086 26.2832 55.922 23.7637 55.2657C19.5566 54.1524 15.6777 51.9024 12.4785 48.6915C8.69336 44.9063 6.37305 40.4532 5.35352 34.9923C5.06055 33.3985 5.06055 28.3829 5.35352 26.7892C6.37305 21.3282 8.69336 16.8751 12.4785 13.0899C16.2402 9.3165 20.7754 6.96103 26.1191 5.97665C27.502 5.73056 31.3691 5.62509 32.9512 5.80087C39.2676 6.49228 45.3965 9.71494 49.4395 14.4845C49.9082 15.0352 50.6582 16.0313 51.127 16.711L51.9707 17.9415L48.3613 18.0001C44.834 18.0587 44.7402 18.0704 44.3066 18.3282C42.8418 19.2423 42.9238 21.6095 44.4473 22.4181C44.9629 22.6876 44.9863 22.6876 49.4277 22.6876C54.3027 22.6876 54.584 22.6524 56.0254 21.9845C57.5605 21.2696 58.7559 20.0977 59.5176 18.5509C60.2441 17.0392 60.2793 16.7931 60.2793 11.9767C60.2793 7.80478 60.2676 7.629 60.0332 7.12509C59.8809 6.8204 59.5879 6.49228 59.3066 6.30478C58.8965 6.03525 58.709 5.98837 57.9355 5.98837C57.1621 5.98837 56.9746 6.03525 56.5645 6.30478C56.2832 6.49228 55.9902 6.8204 55.8379 7.12509C55.6035 7.61728 55.5918 7.8165 55.5918 11.1446V14.6485L55.0176 13.8165C53.4707 11.5548 50.623 8.57822 48.5254 7.0079C44.5176 3.99619 40.2168 2.14462 35.1426 1.23056C33.3379 0.902435 28.4629 0.808685 26.5293 1.0665Z" fill="white"/>
<path d="M29.1302 10.0426C28.8372 10.1949 28.4857 10.4996 28.3099 10.7691L27.9935 11.2496L27.9583 20.5074L27.9349 29.777L23.4935 34.2301C21.056 36.6793 18.9583 38.8707 18.8411 39.0934C18.431 39.9254 18.6771 41.3434 19.3333 41.9176C20.1185 42.609 21.349 42.7379 22.2044 42.2223C22.9661 41.777 32.2122 32.4606 32.4466 31.9215C32.599 31.5348 32.6224 30.234 32.6224 21.4918C32.6224 11.566 32.6224 11.5074 32.3763 10.9918C32.013 10.2418 31.3802 9.86681 30.4076 9.81993C29.7865 9.79649 29.5286 9.83165 29.1302 10.0426Z" fill="white"/>
<path d="M56.3174 34.7111C55.5206 35.1095 55.2393 35.6017 54.7589 37.4415C54.3604 39.0118 54.3604 39.4923 54.7354 40.2423C55.4854 41.6837 57.7589 41.8478 58.7315 40.5236C59.212 39.8556 59.8682 37.2892 59.7628 36.4689C59.5753 34.8165 57.8526 33.9376 56.3174 34.7111Z" fill="white"/>
<path d="M51.8072 45.1173C51.2447 45.3282 51.0572 45.4923 50.0845 46.6525C49.065 47.8712 48.9009 48.1407 48.7838 48.7384C48.6314 49.547 48.8658 50.297 49.4283 50.8712C50.2134 51.6564 51.2681 51.797 52.3111 51.2814C52.7916 51.0353 54.6314 48.8204 54.8423 48.2111C55.2525 47.0978 54.7486 45.7853 53.7056 45.2462C53.2252 44.9884 52.3111 44.9298 51.8072 45.1173Z" fill="white"/>
<path d="M41.916 53.3203C39.9121 54.3047 39.4199 54.8555 39.4199 56.1211C39.4199 57.4688 40.416 58.4648 41.7402 58.4648C42.3379 58.4648 42.584 58.3828 43.9668 57.6797C45.8301 56.7305 46.123 56.4023 46.1934 55.207C46.2871 53.7539 45.291 52.6875 43.8379 52.6875C43.3105 52.6875 42.9941 52.793 41.916 53.3203Z" fill="white"/>
</g>
<defs>
<clipPath id="clip0_11299_3665">
<rect width="60" height="60" fill="white" transform="translate(0.279297 0.890625)"/>
</clipPath>
</defs>
</svg>
