<svg width="22" height="22" viewBox="0 0 22 22" fill="none" xmlns="http://www.w3.org/2000/svg">
<path d="M11.2285 0.699219C8.45414 0.732691 5.80283 1.84968 3.8409 3.81161C1.87898 5.77353 0.761988 8.42484 0.728516 11.1992C0.761988 13.9736 1.87898 16.6249 3.8409 18.5868C5.80283 20.5488 8.45414 21.6657 11.2285 21.6992C14.0029 21.6657 16.6542 20.5488 18.6161 18.5868C20.5781 16.6249 21.695 13.9736 21.7285 11.1992C21.695 8.42484 20.5781 5.77353 18.6161 3.81161C16.6542 1.84968 14.0029 0.732691 11.2285 0.699219ZM17.2285 11.9492H11.9785V17.1992H10.4785V11.9492H5.22852V10.4492H10.4785V5.19922H11.9785V10.4492H17.2285V11.9492Z" fill="white"/>
</svg>
