<svg width="37" height="37" viewBox="0 0 37 37" fill="none" xmlns="http://www.w3.org/2000/svg">
<path d="M8.08375 4.15072L0.724379 7.37572L0.696254 13.0757C0.677504 16.7038 0.705629 19.0663 0.771254 19.5726C1.23063 23.257 2.64625 26.7538 4.88688 29.7351C7.23063 32.8476 10.69 35.3788 14.1775 36.5413C15.5369 36.9913 15.7431 36.9913 16.9619 36.5976C17.5431 36.4101 18.2181 36.157 18.4713 36.0445L18.94 35.8382L18.4338 35.0132C17.8244 34.0007 17.2619 32.5851 16.9806 31.3382C16.69 30.007 16.6806 27.8976 16.9806 26.5195C17.965 21.8882 21.4994 18.3163 26.1213 17.257C27.2275 17.0038 29.1494 16.9101 30.19 17.0695L30.6775 17.1445L30.6588 12.2601L30.6306 7.36635L23.2244 4.14135C19.1556 2.36947 15.7431 0.916344 15.6306 0.92572C15.5275 0.92572 12.1338 2.38822 8.08375 4.15072Z" fill="#003556"/>
<path d="M27.115 21.0164C24.5556 21.5601 22.5212 23.1445 21.4337 25.432C20.8994 26.5757 20.74 27.1945 20.6744 28.5257C20.6369 29.3976 20.6556 29.8382 20.7775 30.4476C21.4244 33.6445 23.74 36.0257 26.9275 36.7757C27.8275 36.982 29.5994 36.9632 30.565 36.7289C33.49 36.0257 35.7869 33.7289 36.49 30.8039C36.7431 29.7445 36.7431 28.0664 36.49 27.007C35.815 24.1664 33.6025 21.9164 30.7244 21.1195C29.9462 20.9132 27.9119 20.8476 27.115 21.0164ZM29.6369 23.9695C30.3306 24.3257 30.865 25.1695 30.865 25.9101C30.865 26.482 30.6587 26.932 30.1712 27.4101C29.4681 28.1226 28.6994 28.282 27.865 27.907C26.3931 27.2414 26.0462 25.5164 27.1619 24.4007C27.8462 23.707 28.8025 23.5476 29.6369 23.9695ZM30.49 30.2226C31.7744 30.5507 32.7775 31.1601 33.0212 31.7507C33.1244 32.0039 33.1056 32.0601 32.815 32.4164C32.1306 33.2789 30.9025 34.0007 29.74 34.2539C28.5775 34.4976 27.4525 34.3382 26.29 33.7664C25.5494 33.4007 24.4244 32.4351 24.34 32.0882C24.1619 31.3757 25.4087 30.5414 27.265 30.1289C28.0619 29.9507 29.6181 29.9882 30.49 30.2226Z" fill="#003556"/>
</svg>
