<svg width="302" height="140" viewBox="0 0 302 140" fill="none" xmlns="http://www.w3.org/2000/svg">
<g filter="url(#filter0_d_12234_78)">
<rect x="10" y="10" width="281.241" height="120" rx="15" fill="url(#paint0_linear_12234_78)"/>
</g>
<path fill-rule="evenodd" clip-rule="evenodd" d="M290.861 69.3391V114.71C290.861 122.994 284.146 129.71 275.861 129.71H227.844C223.51 122.785 221 114.572 221 105.765C221 81.0421 240.779 61 265.177 61C274.756 61 283.624 64.0896 290.861 69.3391Z" fill="#05B85A"/>
<path fill-rule="evenodd" clip-rule="evenodd" d="M291.211 92.2079V114.91C291.211 123.194 284.495 129.91 276.211 129.91H251.331C248.588 125.586 247 120.457 247 114.957C247 99.5166 259.517 87 274.957 87C281.019 87 286.63 88.9295 291.211 92.2079Z" fill="#07CB64"/>
<path d="M80.0474 44.9526V35.0826H84.3734C85.4468 35.0826 86.2728 35.3113 86.8514 35.7686C87.4301 36.2166 87.7194 36.842 87.7194 37.6446C87.7194 38.242 87.5421 38.746 87.1874 39.1566C86.8328 39.5673 86.3428 39.8426 85.7174 39.9826V39.7726C86.4361 39.8753 86.9914 40.1366 87.3834 40.5566C87.7848 40.9673 87.9854 41.5133 87.9854 42.1946C87.9854 43.072 87.6821 43.7533 87.0754 44.2386C86.4688 44.7146 85.6241 44.9526 84.5414 44.9526H80.0474ZM81.7834 43.5806H84.3314C84.9381 43.5806 85.4094 43.4686 85.7454 43.2446C86.0814 43.0113 86.2494 42.6333 86.2494 42.1106C86.2494 41.5786 86.0814 41.2006 85.7454 40.9766C85.4094 40.7433 84.9381 40.6266 84.3314 40.6266H81.7834V43.5806ZM81.7834 39.2686H84.0654C84.7094 39.2686 85.1854 39.152 85.4934 38.9186C85.8108 38.676 85.9694 38.3213 85.9694 37.8546C85.9694 37.388 85.8108 37.038 85.4934 36.8046C85.1854 36.562 84.7094 36.4406 84.0654 36.4406H81.7834V39.2686ZM89.3315 40.0106C89.3315 38.9746 89.5181 38.0786 89.8915 37.3226C90.2741 36.5666 90.8201 35.9833 91.5295 35.5726C92.2388 35.1526 93.0835 34.9426 94.0635 34.9426C95.0341 34.9426 95.8741 35.1526 96.5835 35.5726C97.2928 35.9833 97.8388 36.5666 98.2215 37.3226C98.6135 38.0786 98.8095 38.97 98.8095 39.9966C98.8095 41.0326 98.6135 41.9333 98.2215 42.6986C97.8388 43.4546 97.2928 44.0426 96.5835 44.4626C95.8741 44.8826 95.0341 45.0926 94.0635 45.0926C93.0835 45.0926 92.2388 44.8826 91.5295 44.4626C90.8295 44.0426 90.2881 43.4546 89.9055 42.6986C89.5228 41.9333 89.3315 41.0373 89.3315 40.0106ZM91.2215 40.0106C91.2215 41.1213 91.4595 41.9893 91.9355 42.6146C92.4115 43.24 93.1208 43.5526 94.0635 43.5526C94.9781 43.5526 95.6828 43.24 96.1775 42.6146C96.6721 41.9893 96.9195 41.1213 96.9195 40.0106C96.9195 38.8906 96.6721 38.0226 96.1775 37.4066C95.6921 36.7906 94.9875 36.4826 94.0635 36.4826C93.1208 36.4826 92.4115 36.7906 91.9355 37.4066C91.4595 38.0226 91.2215 38.8906 91.2215 40.0106ZM100.291 40.0106C100.291 38.9746 100.478 38.0786 100.851 37.3226C101.234 36.5666 101.78 35.9833 102.489 35.5726C103.198 35.1526 104.043 34.9426 105.023 34.9426C105.994 34.9426 106.834 35.1526 107.543 35.5726C108.252 35.9833 108.798 36.5666 109.181 37.3226C109.573 38.0786 109.769 38.97 109.769 39.9966C109.769 41.0326 109.573 41.9333 109.181 42.6986C108.798 43.4546 108.252 44.0426 107.543 44.4626C106.834 44.8826 105.994 45.0926 105.023 45.0926C104.043 45.0926 103.198 44.8826 102.489 44.4626C101.789 44.0426 101.248 43.4546 100.865 42.6986C100.482 41.9333 100.291 41.0373 100.291 40.0106ZM102.181 40.0106C102.181 41.1213 102.419 41.9893 102.895 42.6146C103.371 43.24 104.08 43.5526 105.023 43.5526C105.938 43.5526 106.642 43.24 107.137 42.6146C107.632 41.9893 107.879 41.1213 107.879 40.0106C107.879 38.8906 107.632 38.0226 107.137 37.4066C106.652 36.7906 105.947 36.4826 105.023 36.4826C104.08 36.4826 103.371 36.7906 102.895 37.4066C102.419 38.0226 102.181 38.8906 102.181 40.0106ZM111.573 44.9526V35.0826H113.379V39.4506H113.407L117.705 35.0826H119.889L114.737 40.2206L114.751 39.4366L120.225 44.9526H117.971L113.407 40.3886H113.379V44.9526H111.573ZM120.837 44.9526V35.0826H122.643V44.9526H120.837ZM124.755 44.9526V35.0826H126.113L131.839 42.4886H131.475V35.0826H133.155V44.9526H131.797L126.085 37.5466H126.435V44.9526H124.755ZM140.024 45.0926C138.913 45.0926 137.98 44.8873 137.224 44.4766C136.468 44.066 135.898 43.4826 135.516 42.7266C135.133 41.9706 134.942 41.0746 134.942 40.0386C134.942 38.9933 135.147 38.0926 135.558 37.3366C135.968 36.5713 136.556 35.9833 137.322 35.5726C138.096 35.1526 139.025 34.9426 140.108 34.9426C140.826 34.9426 141.456 35.0406 141.998 35.2366C142.539 35.4233 143.015 35.6986 143.426 36.0626L142.824 37.4626C142.525 37.2293 142.24 37.0426 141.97 36.9026C141.699 36.7626 141.419 36.6646 141.13 36.6086C140.84 36.5433 140.504 36.5106 140.122 36.5106C139.039 36.5106 138.218 36.8186 137.658 37.4346C137.107 38.0413 136.832 38.914 136.832 40.0526C136.832 41.1913 137.093 42.0593 137.616 42.6566C138.148 43.254 138.978 43.5526 140.108 43.5526C140.49 43.5526 140.873 43.5153 141.256 43.4406C141.648 43.366 142.03 43.2586 142.404 43.1186L142.068 43.8746V40.9206H139.758V39.6046H143.566V44.3506C143.108 44.584 142.562 44.766 141.928 44.8966C141.293 45.0273 140.658 45.0926 140.024 45.0926ZM149.011 45.0926C148.218 45.0926 147.485 44.9946 146.813 44.7986C146.15 44.5933 145.581 44.3133 145.105 43.9586L145.665 42.5446C145.982 42.7686 146.314 42.96 146.659 43.1186C147.004 43.268 147.373 43.3846 147.765 43.4686C148.157 43.5433 148.572 43.5806 149.011 43.5806C149.748 43.5806 150.28 43.4593 150.607 43.2166C150.934 42.974 151.097 42.6566 151.097 42.2646C151.097 41.9193 150.985 41.658 150.761 41.4806C150.537 41.294 150.136 41.14 149.557 41.0186L147.975 40.6966C147.07 40.51 146.393 40.1973 145.945 39.7586C145.497 39.32 145.273 38.732 145.273 37.9946C145.273 37.3786 145.436 36.842 145.763 36.3846C146.09 35.9273 146.547 35.5726 147.135 35.3206C147.723 35.0686 148.409 34.9426 149.193 34.9426C149.893 34.9426 150.542 35.0453 151.139 35.2506C151.736 35.4466 152.236 35.7313 152.637 36.1046L152.077 37.4486C151.676 37.1126 151.237 36.8653 150.761 36.7066C150.285 36.5386 149.753 36.4546 149.165 36.4546C148.502 36.4546 147.984 36.5853 147.611 36.8466C147.247 37.0986 147.065 37.4486 147.065 37.8966C147.065 38.242 147.177 38.5173 147.401 38.7226C147.634 38.928 148.026 39.0866 148.577 39.1986L150.145 39.5066C151.078 39.6933 151.769 40.0013 152.217 40.4306C152.665 40.8506 152.889 41.42 152.889 42.1386C152.889 42.7266 152.73 43.2446 152.413 43.6926C152.096 44.1313 151.648 44.4766 151.069 44.7286C150.49 44.9713 149.804 45.0926 149.011 45.0926Z" fill="white"/>
<path d="M55.31 29.5469C55.0334 29.7156 54.9725 29.8797 54.9725 30.4469V30.9531H53.2662C51.724 30.9531 51.5318 30.9625 51.274 31.0422C50.585 31.2578 49.999 31.8484 49.7975 32.5422C49.7365 32.7484 49.7225 33.0531 49.7225 34.1266V35.4531H60.2225H70.7225V34.1266C70.7225 33.0531 70.7084 32.7484 70.6475 32.5422C70.4459 31.8484 69.86 31.2578 69.1709 31.0422C68.9131 30.9625 68.7209 30.9531 67.1787 30.9531H65.4725V30.4469C65.4725 29.8797 65.4115 29.7156 65.135 29.5469C64.924 29.4203 64.5209 29.4203 64.31 29.5469C64.0334 29.7156 63.9725 29.8797 63.9725 30.4469V30.9531H60.2225H56.4725V30.4469C56.4725 30.0297 56.4584 29.9219 56.3787 29.7906C56.2381 29.5656 56.0272 29.4531 55.7225 29.4531C55.549 29.4531 55.4131 29.4813 55.31 29.5469Z" fill="white"/>
<path d="M49.7225 42.7797C49.7225 47.9641 49.7318 48.6344 49.7975 48.8641C49.999 49.5578 50.585 50.1484 51.274 50.3641C51.5506 50.4484 51.8506 50.4531 60.2225 50.4531C68.5943 50.4531 68.8943 50.4484 69.1709 50.3641C69.86 50.1484 70.4459 49.5578 70.6475 48.8641C70.7131 48.6344 70.7225 47.9641 70.7225 42.7797V36.9531H60.2225H49.7225V42.7797ZM64.3006 40.0562C64.5209 40.1687 64.7225 40.4688 64.7225 40.6891C64.7225 40.9937 64.6287 41.0875 61.9006 43.4219C60.424 44.6922 59.1537 45.7703 59.074 45.8172C58.9053 45.925 58.5818 45.9344 58.4037 45.8406C58.1834 45.7234 55.8256 43.3187 55.7881 43.1734C55.7412 42.9766 55.7928 42.6953 55.9053 42.5406C56.0834 42.2922 56.51 42.1703 56.7678 42.3016C56.824 42.3297 57.2975 42.775 57.8131 43.2906L58.76 44.2281L61.0475 42.2641C62.3084 41.1859 63.424 40.2344 63.5272 40.1547C63.8178 39.9297 63.9959 39.9062 64.3006 40.0562Z" fill="white"/>
<defs>
<filter id="filter0_d_12234_78" x="0" y="0" width="301.241" height="140" filterUnits="userSpaceOnUse" color-interpolation-filters="sRGB">
<feFlood flood-opacity="0" result="BackgroundImageFix"/>
<feColorMatrix in="SourceAlpha" type="matrix" values="0 0 0 0 0 0 0 0 0 0 0 0 0 0 0 0 0 0 127 0" result="hardAlpha"/>
<feOffset/>
<feGaussianBlur stdDeviation="5"/>
<feComposite in2="hardAlpha" operator="out"/>
<feColorMatrix type="matrix" values="0 0 0 0 0 0 0 0 0 0 0 0 0 0 0 0 0 0 0.25 0"/>
<feBlend mode="normal" in2="BackgroundImageFix" result="effect1_dropShadow_12234_78"/>
<feBlend mode="normal" in="SourceGraphic" in2="effect1_dropShadow_12234_78" result="shape"/>
</filter>
<linearGradient id="paint0_linear_12234_78" x1="-5.48865" y1="4.36735" x2="190.294" y2="255.399" gradientUnits="userSpaceOnUse">
<stop stop-color="#03A751"/>
<stop offset="1" stop-color="#07CB64"/>
</linearGradient>
</defs>
</svg>
