<svg width="25" height="25" viewBox="0 0 25 25" fill="none" xmlns="http://www.w3.org/2000/svg">
<path fill-rule="evenodd" clip-rule="evenodd" d="M12.2298 19.737H10.3326C10.3326 19.8021 10.333 19.8656 10.3334 19.9279C10.3343 20.0645 10.3351 20.1956 10.3316 20.3265C10.3291 20.4246 10.3271 20.5228 10.3251 20.621C10.3189 20.9318 10.3127 21.2428 10.2893 21.552C10.2538 22.0189 10.0508 22.2744 9.63448 22.3665C9.34281 22.431 9.04227 22.473 8.74486 22.4782C8.63207 22.4803 8.51907 22.4832 8.40598 22.4861C7.89391 22.4992 7.37991 22.5123 6.87432 22.4506C6.00088 22.3441 5.36745 21.514 5.33771 20.5429C5.33088 20.3238 5.3315 20.1044 5.33212 19.885C5.33264 19.7022 5.33316 19.5193 5.32936 19.3364C5.3278 19.2598 5.2991 19.1649 5.25214 19.1125C4.86708 18.6848 4.70637 18.1684 4.70689 17.5732C4.70879 15.4264 4.70848 13.2797 4.70817 11.1329L4.70794 8.71762V8.43383C4.61691 8.48404 4.52703 8.53339 4.4381 8.5822L4.43806 8.58222L4.43803 8.58224C4.12327 8.75504 3.82055 8.92123 3.52196 9.09581C3.48021 9.11999 3.46091 9.22706 3.46039 9.29556C3.4583 9.7696 3.4583 10.2436 3.4583 10.7177C3.4583 11.1917 3.4583 11.6657 3.45621 12.1398C3.45413 12.6147 3.14524 12.9054 2.72782 12.8386C2.43459 12.7914 2.21649 12.5611 2.21388 12.2319C2.20397 11.0397 2.20605 9.84759 2.21232 8.65545C2.21388 8.36418 2.38972 8.19149 2.61303 8.06945C2.81765 7.95723 3.02189 7.8443 3.22611 7.73138C3.66088 7.49098 4.09558 7.25062 4.53367 7.01719C4.67298 6.94293 4.71315 6.85486 4.71159 6.68965C4.71104 6.6249 4.71021 6.56013 4.70938 6.49537V6.49537C4.70304 6.00118 4.6967 5.50737 4.81803 5.0203C5.18588 3.54725 6.37655 2.5088 7.76289 2.50477C9.25185 2.50014 10.7408 2.49726 12.2298 2.49707C13.7187 2.49726 15.2077 2.50014 16.6966 2.50477C18.083 2.5088 19.2736 3.54725 19.6415 5.0203C19.7628 5.50737 19.7565 6.00118 19.7501 6.49538C19.7493 6.56013 19.7485 6.6249 19.7479 6.68965C19.7464 6.85486 19.7865 6.94293 19.9258 7.01719C20.3639 7.25059 20.7985 7.49093 21.2333 7.7313L21.2333 7.73133L21.2334 7.7314C21.4377 7.84432 21.6419 7.95724 21.8465 8.06945C22.0698 8.19149 22.2456 8.36418 22.2472 8.65545C22.2535 9.84759 22.2555 11.0397 22.2456 12.2319C22.243 12.5611 22.0249 12.7914 21.7317 12.8386C21.3143 12.9054 21.0054 12.6147 21.0033 12.1398C21.0012 11.6658 21.0012 11.1918 21.0012 10.7178C21.0012 10.2437 21.0012 9.76965 20.9991 9.29556C20.9986 9.22706 20.9793 9.11999 20.9376 9.09581C20.6389 8.92121 20.3362 8.75501 20.0214 8.5822C19.9325 8.53339 19.8426 8.48404 19.7516 8.43383V8.71762L19.7513 11.1317C19.751 13.2789 19.7507 15.426 19.7526 17.5732C19.7531 18.1684 19.5924 18.6848 19.2074 19.1125C19.1604 19.1649 19.1317 19.2598 19.1301 19.3364C19.1264 19.5193 19.1269 19.7022 19.1274 19.885V19.885V19.8851C19.128 20.1045 19.1286 20.3238 19.1218 20.5429C19.0921 21.514 18.4586 22.3441 17.5852 22.4506C17.0796 22.5123 16.5656 22.4992 16.0535 22.4861C15.9404 22.4832 15.8274 22.4803 15.7146 22.4782C15.4172 22.473 15.1167 22.431 14.825 22.3665C14.4087 22.2744 14.2057 22.0189 14.1702 21.552C14.1468 21.2428 14.1406 20.9318 14.1344 20.621L14.1344 20.6206C14.1324 20.5225 14.1305 20.4245 14.128 20.3265C14.1244 20.1956 14.1252 20.0645 14.1261 19.9279C14.1265 19.8656 14.1269 19.8021 14.1269 19.737H12.2298ZM14.5831 15.5915C14.2638 15.6802 14.1005 15.8995 14.0979 16.223C14.0942 16.7066 14.4167 16.9938 14.8398 16.8827L15.1 16.8147C15.834 16.6227 16.5679 16.4307 17.301 16.2351C17.6804 16.1338 17.8854 15.7982 17.803 15.4332C17.7075 15.0101 17.3981 14.8167 17.001 14.9267C16.6406 15.0263 16.28 15.1251 15.9193 15.2238C15.4739 15.3458 15.0283 15.4678 14.5831 15.5915ZM10.1427 16.223C10.1401 15.8995 9.97677 15.6802 9.65744 15.5915C9.21239 15.4678 8.76701 15.3459 8.32166 15.2239L8.32164 15.2239L8.32161 15.2239L8.32121 15.2238L8.32047 15.2236L8.31973 15.2234L8.31914 15.2233C7.9592 15.1247 7.59928 15.0262 7.23957 14.9267C6.8425 14.8167 6.53309 15.0101 6.43761 15.4332C6.35517 15.7982 6.56023 16.1338 6.93955 16.2351C7.67254 16.4307 8.40636 16.6226 9.14027 16.8146L9.14049 16.8146L9.14079 16.8147L9.40073 16.8827C9.82389 16.9938 10.1463 16.7066 10.1427 16.223ZM6.00183 11.6223C6.03311 11.6352 6.06255 11.6473 6.09237 11.6582C7.70672 12.2453 9.36177 12.5953 11.0596 12.7024C11.4436 12.7267 11.826 12.7387 12.207 12.7385C12.588 12.7387 12.9704 12.7267 13.3544 12.7024C15.0522 12.5953 16.7072 12.2453 18.3216 11.6582C18.3514 11.6473 18.3809 11.6352 18.4121 11.6223C18.4323 11.614 18.4532 11.6054 18.4755 11.5966C18.4755 11.2392 18.4755 10.8825 18.4756 10.5264C18.4757 8.92891 18.4759 7.34303 18.4729 5.75676C18.4724 5.62264 18.4468 5.48506 18.4171 5.35382C18.2131 4.45352 17.5196 3.83874 16.677 3.81457C16.4342 3.80754 16.1912 3.80882 15.9482 3.8101C15.8527 3.81061 15.7571 3.81111 15.6616 3.81111L12.7565 3.81072L12.207 3.81064L11.6575 3.81072L8.75235 3.81111C8.65683 3.81111 8.5613 3.81061 8.46579 3.8101C8.22272 3.80882 7.97972 3.80754 7.73699 3.81457C6.89433 3.83874 6.2009 4.45352 5.99689 5.35382C5.96715 5.48506 5.94158 5.62264 5.94106 5.75676C5.93807 7.34332 5.93823 8.9295 5.93838 10.5273C5.93842 10.8831 5.93845 11.2395 5.93845 11.5966C5.96074 11.6054 5.98167 11.614 6.00183 11.6223Z" fill="#003556"/>
</svg>
