<svg width="19" height="18" viewBox="0 0 19 18" fill="none" xmlns="http://www.w3.org/2000/svg">
<path d="M2.49512 6.70051C2.56151 6.43658 2.64404 6.18037 2.82378 5.96207C3.12089 5.60127 3.50677 5.38999 3.98398 5.36331C4.34822 5.34296 4.71466 5.3591 5.09173 5.3591C5.09173 8.46378 5.09173 11.566 5.09173 14.6875C4.90026 14.6875 4.70696 14.6924 4.51365 14.6865C4.26092 14.6788 3.99975 14.6974 3.75693 14.643C3.07577 14.4896 2.66275 14.0677 2.52079 13.4079C2.51603 13.3858 2.50392 13.3654 2.49512 13.3444C2.49512 11.1297 2.49512 8.91513 2.49512 6.70051Z" fill="#303030"/>
<path d="M6.05249 5.35346C6.50109 5.35346 6.93429 5.35346 7.38583 5.35346C7.38583 5.29519 7.38583 5.24571 7.38583 5.19622C7.38583 4.73364 7.38473 4.27141 7.3862 3.80884C7.3873 3.49577 7.5762 3.31221 7.90559 3.31186C9.29689 3.31011 10.6882 3.31011 12.0791 3.31186C12.4144 3.31221 12.6003 3.49647 12.6011 3.82077C12.6022 4.32511 12.6014 4.82911 12.6014 5.3524C13.0478 5.3524 13.488 5.3524 13.9355 5.3524C13.9355 8.47077 13.9355 11.5702 13.9355 14.6787C11.3055 14.6787 8.68286 14.6787 6.05176 14.6787C6.05249 11.5716 6.05249 8.47217 6.05249 5.35346ZM11.658 4.22649C10.5415 4.22649 9.43811 4.22649 8.33512 4.22649C8.33512 4.60589 8.33512 4.973 8.33512 5.34222C9.44728 5.34222 10.5506 5.34222 11.658 5.34222C11.658 4.96704 11.658 4.60343 11.658 4.22649Z" fill="#303030"/>
<path d="M14.8975 5.33057C15.3688 5.35654 15.8394 5.33373 16.2884 5.41796C16.993 5.55027 17.4875 6.17009 17.4897 6.85799C17.4963 8.96486 17.4974 11.0717 17.4897 13.1786C17.4867 13.9823 16.8221 14.6365 15.9781 14.6804C15.623 14.699 15.2661 14.6836 14.8975 14.6836C14.8975 11.5782 14.8975 8.47526 14.8975 5.33057Z" fill="#303030"/>
</svg>
