<svg width="302" height="140" viewBox="0 0 302 140" fill="none" xmlns="http://www.w3.org/2000/svg">
<g filter="url(#filter0_d_12234_80)">
<rect x="10" y="10" width="281.241" height="120" rx="15" fill="url(#paint0_linear_12234_80)"/>
</g>
<path fill-rule="evenodd" clip-rule="evenodd" d="M291.071 69.3641V114.916C291.071 123.2 284.355 129.916 276.071 129.916H227.865C223.517 122.97 221 114.733 221 105.9C221 81.1023 240.838 61 265.31 61C274.918 61 283.812 64.0989 291.071 69.3641Z" fill="#CA2606"/>
<path fill-rule="evenodd" clip-rule="evenodd" d="M291.21 92.0902V114.906C291.21 123.19 284.494 129.906 276.21 129.906H251.211C248.46 125.568 246.867 120.424 246.867 114.907C246.867 99.4209 259.421 86.8667 274.907 86.8667C280.988 86.8667 286.616 88.802 291.21 92.0902Z" fill="#E22500"/>
<path d="M85.0047 45.0926C83.978 45.0926 83.096 44.8873 82.3587 44.4766C81.6307 44.0566 81.0707 43.4686 80.6787 42.7126C80.2867 41.9473 80.0907 41.0466 80.0907 40.0106C80.0907 38.9746 80.2867 38.0786 80.6787 37.3226C81.0707 36.5666 81.6307 35.9833 82.3587 35.5726C83.096 35.1526 83.978 34.9426 85.0047 34.9426C85.6953 34.9426 86.316 35.0406 86.8667 35.2366C87.4267 35.4326 87.9073 35.722 88.3087 36.1046L87.7207 37.5326C87.282 37.178 86.8573 36.926 86.4467 36.7766C86.0453 36.618 85.5833 36.5386 85.0607 36.5386C84.062 36.5386 83.2967 36.842 82.7647 37.4486C82.242 38.046 81.9807 38.9 81.9807 40.0106C81.9807 41.1213 82.242 41.98 82.7647 42.5866C83.2967 43.1933 84.062 43.4966 85.0607 43.4966C85.5833 43.4966 86.0453 43.422 86.4467 43.2726C86.8573 43.114 87.282 42.8526 87.7207 42.4886L88.3087 43.9166C87.9073 44.29 87.4267 44.5793 86.8667 44.7846C86.316 44.99 85.6953 45.0926 85.0047 45.0926ZM88.6396 44.9526L93.1056 35.0826H94.6176L99.1396 44.9526H97.3056L96.1016 42.1806L96.8296 42.6706H90.9076L91.6636 42.1806L90.4596 44.9526H88.6396ZM93.8476 37.0146L91.8736 41.6906L91.5096 41.2566H96.2136L95.9196 41.6906L93.9036 37.0146H93.8476ZM100.172 44.9526V35.0826H101.53L107.256 42.4886H106.892V35.0826H108.572V44.9526H107.214L101.502 37.5466H101.852V44.9526H100.172ZM115.272 45.0926C114.245 45.0926 113.363 44.8873 112.626 44.4766C111.898 44.0566 111.338 43.4686 110.946 42.7126C110.554 41.9473 110.358 41.0466 110.358 40.0106C110.358 38.9746 110.554 38.0786 110.946 37.3226C111.338 36.5666 111.898 35.9833 112.626 35.5726C113.363 35.1526 114.245 34.9426 115.272 34.9426C115.963 34.9426 116.583 35.0406 117.134 35.2366C117.694 35.4326 118.175 35.722 118.576 36.1046L117.988 37.5326C117.549 37.178 117.125 36.926 116.714 36.7766C116.313 36.618 115.851 36.5386 115.328 36.5386C114.329 36.5386 113.564 36.842 113.032 37.4486C112.509 38.046 112.248 38.9 112.248 40.0106C112.248 41.1213 112.509 41.98 113.032 42.5866C113.564 43.1933 114.329 43.4966 115.328 43.4966C115.851 43.4966 116.313 43.422 116.714 43.2726C117.125 43.114 117.549 42.8526 117.988 42.4886L118.576 43.9166C118.175 44.29 117.694 44.5793 117.134 44.7846C116.583 44.99 115.963 45.0926 115.272 45.0926ZM120.204 44.9526V35.0826H126.854V36.4966H121.94V39.2266H126.532V40.6546H121.94V43.5246H126.854V44.9526H120.204ZM128.47 44.9526V35.0826H130.276V43.4266H134.924V44.9526H128.47ZM136.244 44.9526V35.0826H138.05V43.4266H142.698V44.9526H136.244ZM144.018 44.9526V35.0826H150.668V36.4966H145.754V39.2266H150.346V40.6546H145.754V43.5246H150.668V44.9526H144.018ZM152.284 44.9526V35.0826H155.868C156.998 35.0826 157.95 35.2786 158.724 35.6706C159.508 36.0533 160.101 36.6133 160.502 37.3506C160.904 38.0786 161.104 38.9653 161.104 40.0106C161.104 41.0466 160.904 41.9333 160.502 42.6706C160.101 43.408 159.508 43.9726 158.724 44.3646C157.95 44.7566 156.998 44.9526 155.868 44.9526H152.284ZM154.09 43.4546H155.756C156.951 43.4546 157.838 43.17 158.416 42.6006C158.995 42.0313 159.284 41.168 159.284 40.0106C159.284 38.844 158.995 37.9806 158.416 37.4206C157.838 36.8513 156.951 36.5666 155.756 36.5666H154.09V43.4546Z" fill="white"/>
<path fill-rule="evenodd" clip-rule="evenodd" d="M70.5878 39.9526C70.5878 45.4755 66.1106 49.9526 60.5878 49.9526C55.0649 49.9526 50.5878 45.4755 50.5878 39.9526C50.5878 34.4298 55.0649 29.9526 60.5878 29.9526C66.1106 29.9526 70.5878 34.4298 70.5878 39.9526ZM57.5022 36.091C57.718 35.9186 58.0326 35.9538 58.205 36.1695L60.5878 39.1517L62.9706 36.1695C63.143 35.9538 63.4576 35.9186 63.6733 36.091C63.8891 36.2634 63.9242 36.578 63.7518 36.7937L61.2278 39.9527L63.7517 43.1116C63.9241 43.3274 63.889 43.642 63.6732 43.8144C63.4575 43.9867 63.1429 43.9516 62.9705 43.7358L60.5878 40.7537L58.205 43.7358C58.0327 43.9516 57.718 43.9867 57.5023 43.8144C57.2866 43.642 57.2514 43.3274 57.4238 43.1116L59.9478 39.9527L57.4237 36.7937C57.2513 36.578 57.2865 36.2634 57.5022 36.091Z" fill="white"/>
<defs>
<filter id="filter0_d_12234_80" x="0" y="0" width="301.241" height="140" filterUnits="userSpaceOnUse" color-interpolation-filters="sRGB">
<feFlood flood-opacity="0" result="BackgroundImageFix"/>
<feColorMatrix in="SourceAlpha" type="matrix" values="0 0 0 0 0 0 0 0 0 0 0 0 0 0 0 0 0 0 127 0" result="hardAlpha"/>
<feOffset/>
<feGaussianBlur stdDeviation="5"/>
<feComposite in2="hardAlpha" operator="out"/>
<feColorMatrix type="matrix" values="0 0 0 0 0 0 0 0 0 0 0 0 0 0 0 0 0 0 0.25 0"/>
<feBlend mode="normal" in2="BackgroundImageFix" result="effect1_dropShadow_12234_80"/>
<feBlend mode="normal" in="SourceGraphic" in2="effect1_dropShadow_12234_80" result="shape"/>
</filter>
<linearGradient id="paint0_linear_12234_80" x1="-1.82028" y1="-1.11112" x2="209.27" y2="243.625" gradientUnits="userSpaceOnUse">
<stop stop-color="#AD250A"/>
<stop offset="1" stop-color="#E22500"/>
</linearGradient>
</defs>
</svg>
