<svg width="19" height="18" viewBox="0 0 19 18" fill="none" xmlns="http://www.w3.org/2000/svg">
<path d="M8.22405 1.5C9.40516 1.5 10.5863 1.5 11.7674 1.5C12.5474 1.65731 12.8608 2.23589 12.8364 2.93623C12.8097 3.73111 12.8303 4.52751 12.8303 5.32315C12.8303 5.37533 12.8303 5.42752 12.8303 5.4918C13.1224 5.4918 13.3984 5.47895 13.6714 5.49634C13.8544 5.50844 14.0496 5.53113 14.2127 5.60601C14.6405 5.80265 14.8159 6.16341 14.8159 6.62551C14.8136 9.20302 14.8143 11.7798 14.8143 14.3573C14.8143 14.4011 14.8128 14.445 14.8105 14.4889C14.78 15.0281 14.3759 15.435 13.83 15.4766C13.7636 15.4819 13.6973 15.488 13.6233 15.4948C13.6233 15.7391 13.6264 15.9682 13.6226 16.1974C13.6187 16.394 13.5242 16.4946 13.3366 16.4969C12.9531 16.5007 12.5688 16.5014 12.1852 16.4969C12.0076 16.4946 11.9168 16.3993 11.9085 16.2223C11.9046 16.149 11.9069 16.0756 11.9069 16.003C11.9069 15.8343 11.9069 15.6664 11.9069 15.4963C10.6198 15.4963 9.35789 15.4963 8.08222 15.4963C8.08222 15.7254 8.08299 15.9448 8.08222 16.1633C8.0807 16.4144 7.99759 16.4984 7.74749 16.4991C7.40817 16.4999 7.0681 16.4999 6.72878 16.4991C6.45276 16.4991 6.36812 16.4152 6.36736 16.1407C6.3666 15.9274 6.36736 15.7141 6.36736 15.4955C6.27738 15.488 6.20495 15.4811 6.13175 15.4766C5.92358 15.4638 5.74058 15.3866 5.57893 15.2596C5.28308 15.0228 5.17405 14.7112 5.17481 14.3421C5.17786 11.7745 5.17633 9.2068 5.1771 6.63988C5.1771 6.59148 5.17786 6.54232 5.18091 6.49392C5.20607 6.03408 5.49125 5.66349 5.94188 5.54399C6.11421 5.49861 6.30102 5.49937 6.48173 5.49332C6.70515 5.485 6.92932 5.49105 7.16112 5.49105C7.16112 5.41466 7.16112 5.36172 7.16112 5.30802C7.16112 4.45869 7.16188 3.60935 7.16112 2.76001C7.16112 2.41892 7.26482 2.11791 7.50349 1.86757C7.69945 1.66109 7.9526 1.56277 8.22405 1.5ZM7.97014 5.48197C9.32357 5.48197 10.6671 5.48197 12.0213 5.48197C12.0236 5.42601 12.0274 5.37836 12.0274 5.33071C12.0274 4.48667 12.0282 3.64338 12.0274 2.79934C12.0274 2.44085 11.8802 2.29639 11.515 2.29639C10.5024 2.29639 9.48904 2.29639 8.47644 2.29639C8.11196 2.29639 7.96327 2.44161 7.96327 2.79934C7.96251 3.64338 7.96327 4.48667 7.96327 5.33071C7.96327 5.37836 7.96785 5.42601 7.97014 5.48197Z" fill="#303030"/>
</svg>
