<svg width="302" height="140" viewBox="0 0 302 140" fill="none" xmlns="http://www.w3.org/2000/svg">
<g filter="url(#filter0_d_12234_79)">
<rect x="10" y="10" width="281.241" height="120" rx="15" fill="url(#paint0_linear_12234_79)"/>
</g>
<path fill-rule="evenodd" clip-rule="evenodd" d="M291.071 69.3641V114.916C291.071 123.2 284.355 129.916 276.071 129.916H227.865C223.517 122.97 221 114.733 221 105.9C221 81.1023 240.838 61 265.31 61C274.918 61 283.812 64.0989 291.071 69.3641Z" fill="#2F039D"/>
<path fill-rule="evenodd" clip-rule="evenodd" d="M291.21 92.0902V114.906C291.21 123.19 284.494 129.906 276.21 129.906H251.211C248.46 125.568 246.867 120.424 246.867 114.907C246.867 99.4209 259.421 86.8667 274.907 86.8667C280.988 86.8667 286.616 88.802 291.21 92.0902Z" fill="#3803BD"/>
<path d="M84.6437 45.0926C83.6171 45.0926 82.7351 44.8873 81.9977 44.4766C81.2697 44.0566 80.7097 43.4686 80.3177 42.7126C79.9257 41.9473 79.7297 41.0466 79.7297 40.0106C79.7297 38.9746 79.9257 38.0786 80.3177 37.3226C80.7097 36.5666 81.2697 35.9833 81.9977 35.5726C82.7351 35.1526 83.6171 34.9426 84.6437 34.9426C85.3344 34.9426 85.9551 35.0406 86.5057 35.2366C87.0657 35.4326 87.5464 35.722 87.9477 36.1046L87.3597 37.5326C86.9211 37.178 86.4964 36.926 86.0857 36.7766C85.6844 36.618 85.2224 36.5386 84.6997 36.5386C83.7011 36.5386 82.9357 36.842 82.4037 37.4486C81.8811 38.046 81.6197 38.9 81.6197 40.0106C81.6197 41.1213 81.8811 41.98 82.4037 42.5866C82.9357 43.1933 83.7011 43.4966 84.6997 43.4966C85.2224 43.4966 85.6844 43.422 86.0857 43.2726C86.4964 43.114 86.9211 42.8526 87.3597 42.4886L87.9477 43.9166C87.5464 44.29 87.0657 44.5793 86.5057 44.7846C85.9551 44.99 85.3344 45.0926 84.6437 45.0926ZM88.9392 40.0106C88.9392 38.9746 89.1259 38.0786 89.4992 37.3226C89.8819 36.5666 90.4279 35.9833 91.1372 35.5726C91.8466 35.1526 92.6912 34.9426 93.6712 34.9426C94.6419 34.9426 95.4819 35.1526 96.1912 35.5726C96.9006 35.9833 97.4466 36.5666 97.8292 37.3226C98.2212 38.0786 98.4172 38.97 98.4172 39.9966C98.4172 41.0326 98.2212 41.9333 97.8292 42.6986C97.4466 43.4546 96.9006 44.0426 96.1912 44.4626C95.4819 44.8826 94.6419 45.0926 93.6712 45.0926C92.6912 45.0926 91.8466 44.8826 91.1372 44.4626C90.4372 44.0426 89.8959 43.4546 89.5132 42.6986C89.1306 41.9333 88.9392 41.0373 88.9392 40.0106ZM90.8292 40.0106C90.8292 41.1213 91.0672 41.9893 91.5432 42.6146C92.0192 43.24 92.7286 43.5526 93.6712 43.5526C94.5859 43.5526 95.2906 43.24 95.7852 42.6146C96.2799 41.9893 96.5272 41.1213 96.5272 40.0106C96.5272 38.8906 96.2799 38.0226 95.7852 37.4066C95.2999 36.7906 94.5952 36.4826 93.6712 36.4826C92.7286 36.4826 92.0192 36.7906 91.5432 37.4066C91.0672 38.0226 90.8292 38.8906 90.8292 40.0106ZM100.235 44.9526V35.0826H101.817L105.443 43.2446H105.009L108.635 35.0826H110.203V44.9526H108.565V37.6306H109.069L105.751 44.9526H104.673L101.355 37.6306H101.873V44.9526H100.235ZM112.342 44.9526V35.0826H116.724C117.807 35.0826 118.633 35.344 119.202 35.8666C119.772 36.3893 120.056 37.108 120.056 38.0226C120.056 38.928 119.772 39.6466 119.202 40.1786C118.633 40.7106 117.807 40.9766 116.724 40.9766H114.148V44.9526H112.342ZM114.148 39.5486H116.514C117.112 39.5486 117.56 39.418 117.858 39.1566C118.157 38.886 118.306 38.508 118.306 38.0226C118.306 37.5373 118.157 37.164 117.858 36.9026C117.56 36.632 117.112 36.4966 116.514 36.4966H114.148V39.5486ZM121.607 44.9526V35.0826H123.413V43.4266H128.061V44.9526H121.607ZM129.381 44.9526V35.0826H136.031V36.4966H131.117V39.2266H135.709V40.6546H131.117V43.5246H136.031V44.9526H129.381ZM139.902 44.9526V36.5666H136.64V35.0826H144.97V36.5666H141.708V44.9526H139.902ZM146.186 44.9526V35.0826H152.836V36.4966H147.922V39.2266H152.514V40.6546H147.922V43.5246H152.836V44.9526H146.186ZM154.453 44.9526V35.0826H158.037C159.166 35.0826 160.118 35.2786 160.893 35.6706C161.677 36.0533 162.269 36.6133 162.671 37.3506C163.072 38.0786 163.273 38.9653 163.273 40.0106C163.273 41.0466 163.072 41.9333 162.671 42.6706C162.269 43.408 161.677 43.9726 160.893 44.3646C160.118 44.7566 159.166 44.9526 158.037 44.9526H154.453ZM156.259 43.4546H157.925C159.119 43.4546 160.006 43.17 160.585 42.6006C161.163 42.0313 161.453 41.168 161.453 40.0106C161.453 38.844 161.163 37.9806 160.585 37.4206C160.006 36.8513 159.119 36.5666 157.925 36.5666H156.259V43.4546Z" fill="white"/>
<path fill-rule="evenodd" clip-rule="evenodd" d="M60.5354 49.9526C66.0582 49.9526 70.5354 45.4755 70.5354 39.9526C70.5354 34.4298 66.0582 29.9526 60.5354 29.9526C55.0126 29.9526 50.5354 34.4298 50.5354 39.9526C50.5354 45.4755 55.0126 49.9526 60.5354 49.9526ZM65.9295 36.9056C66.1235 36.7091 66.1213 36.3925 65.9248 36.1985C65.7282 36.0046 65.4116 36.0067 65.2177 36.2033L58.802 42.7052L55.7759 40.677C55.5465 40.5233 55.236 40.5846 55.0822 40.814C54.9285 41.0434 54.9898 41.354 55.2192 41.5077L58.589 43.7662L58.9327 43.9965L59.2233 43.702L65.9295 36.9056Z" fill="white"/>
<defs>
<filter id="filter0_d_12234_79" x="0" y="0" width="301.241" height="140" filterUnits="userSpaceOnUse" color-interpolation-filters="sRGB">
<feFlood flood-opacity="0" result="BackgroundImageFix"/>
<feColorMatrix in="SourceAlpha" type="matrix" values="0 0 0 0 0 0 0 0 0 0 0 0 0 0 0 0 0 0 127 0" result="hardAlpha"/>
<feOffset/>
<feGaussianBlur stdDeviation="5"/>
<feComposite in2="hardAlpha" operator="out"/>
<feColorMatrix type="matrix" values="0 0 0 0 0 0 0 0 0 0 0 0 0 0 0 0 0 0 0.25 0"/>
<feBlend mode="normal" in2="BackgroundImageFix" result="effect1_dropShadow_12234_79"/>
<feBlend mode="normal" in="SourceGraphic" in2="effect1_dropShadow_12234_79" result="shape"/>
</filter>
<linearGradient id="paint0_linear_12234_79" x1="10" y1="1.85185" x2="178.088" y2="223.831" gradientUnits="userSpaceOnUse">
<stop stop-color="#260085"/>
<stop offset="1" stop-color="#3803BD"/>
</linearGradient>
</defs>
</svg>
