<svg width="25" height="25" viewBox="0 0 25 25" fill="none" xmlns="http://www.w3.org/2000/svg">
<path d="M11.7251 2.59863C11.4321 2.73535 11.2056 2.93066 10.9634 3.25878C10.7017 3.61424 10.522 3.76659 10.2017 3.91893C9.96731 4.03221 9.91653 4.04002 9.53763 4.04002C9.15092 4.04002 9.11185 4.0283 8.81498 3.89549C8.40874 3.7119 8.20562 3.66112 7.89703 3.65721C7.50641 3.65721 7.25641 3.75877 6.99469 4.01658C6.74079 4.27049 6.6197 4.54783 6.5611 4.99704C6.46736 5.71578 6.27986 6.11031 5.88143 6.40718C5.6119 6.61421 5.34237 6.71186 4.93222 6.75874C4.33457 6.82514 4.01035 6.96576 3.74083 7.26654C3.36192 7.68451 3.33068 8.25481 3.65098 8.97746C3.80723 9.34074 3.81504 9.36808 3.81504 9.76261C3.81504 10.1415 3.80723 10.1923 3.69395 10.4306C3.54552 10.7431 3.36192 10.954 3.03771 11.1845C2.7174 11.411 2.44397 11.7118 2.33069 11.9618C2.19397 12.247 2.19397 12.6688 2.33069 12.954C2.44397 13.204 2.70959 13.4969 3.0338 13.7235C3.35411 13.954 3.54552 14.1727 3.69395 14.4852C3.80723 14.7235 3.81504 14.7743 3.81504 15.1532C3.81504 15.5438 3.80723 15.5789 3.67051 15.8758C3.48692 16.2782 3.43614 16.4774 3.43614 16.7938C3.43224 17.1336 3.52989 17.411 3.7252 17.6297C4.00254 17.9461 4.32676 18.0828 4.9869 18.1609C5.39315 18.2078 5.71736 18.3445 5.98689 18.5867C6.31501 18.8758 6.46345 19.2234 6.56501 19.9461C6.65095 20.5203 6.90094 20.9265 7.29547 21.1297C7.46734 21.2156 7.53375 21.2273 7.91656 21.2273C8.33843 21.2234 8.35405 21.2234 8.73686 21.0554C9.06498 20.9109 9.17826 20.8797 9.44388 20.864C10.0962 20.8289 10.5454 21.0711 10.9946 21.6961C11.6353 22.5984 12.4282 22.7468 13.1157 22.0984C13.2368 21.9851 13.4126 21.7859 13.5024 21.657C13.9321 21.0593 14.3774 20.8289 15.0219 20.864C15.2876 20.8797 15.4008 20.9109 15.729 21.0554C16.1118 21.2234 16.1274 21.2273 16.5493 21.2273C16.9282 21.2273 17.0024 21.2156 17.1704 21.1297C17.5649 20.9265 17.8149 20.5242 17.9008 19.9461C17.9867 19.3601 18.0297 19.2039 18.1586 18.9891C18.4399 18.5086 18.8852 18.2313 19.4789 18.1609C20.1391 18.0828 20.4633 17.9461 20.7406 17.6297C20.9359 17.411 21.0336 17.1336 21.0297 16.7938C21.0297 16.4774 20.9789 16.2782 20.7953 15.8758C20.6586 15.5789 20.6508 15.5438 20.6508 15.1532C20.6508 14.7704 20.6586 14.7235 20.7797 14.4696C20.9242 14.161 21.0883 13.9735 21.432 13.7313C21.7484 13.5008 22.0219 13.204 22.1351 12.954C22.2094 12.7977 22.2328 12.6884 22.2328 12.4579C22.2328 11.9618 22.0219 11.6337 21.4086 11.1649C21.0414 10.8876 20.9281 10.7509 20.7719 10.4267C20.6586 10.1923 20.6508 10.1415 20.6508 9.76261C20.6508 9.36808 20.6586 9.34074 20.8148 8.97746C21.1351 8.25481 21.1039 7.68451 20.725 7.26654C20.4555 6.96576 20.1313 6.82514 19.5336 6.75874C19.1235 6.71186 18.8539 6.61421 18.5844 6.40718C18.186 6.11031 17.9985 5.71578 17.9047 4.99704C17.8461 4.54783 17.725 4.27049 17.4711 4.01658C17.311 3.85643 17.1938 3.77831 17.0375 3.72752C16.725 3.62206 16.3422 3.63768 15.9946 3.76268C15.8383 3.81737 15.5805 3.91112 15.4282 3.9658C15.0376 4.10643 14.6313 4.0908 14.2602 3.91502C13.9438 3.76659 13.768 3.61424 13.5024 3.25878C13.1118 2.73144 12.7251 2.49707 12.2329 2.49707C12.0024 2.49707 11.897 2.52051 11.7251 2.59863ZM10.3189 7.26654C10.7798 7.37201 11.2407 7.75872 11.4634 8.22747C11.5806 8.47747 11.5884 8.51653 11.5884 8.9423C11.5884 9.36808 11.5806 9.40714 11.4634 9.65714C11.2954 10.0087 10.9712 10.3329 10.6118 10.5087C10.3501 10.6376 10.3228 10.6415 9.88919 10.6415C9.4556 10.6415 9.42826 10.6376 9.16654 10.5087C8.80717 10.3329 8.48296 10.0087 8.31499 9.65714C8.1978 9.40714 8.18999 9.36808 8.18999 8.9423C8.18999 8.51653 8.1978 8.47747 8.31499 8.22747C8.68217 7.45795 9.47122 7.07514 10.3189 7.26654ZM15.7797 7.82513C16.061 8.03606 16.1704 8.14153 16.1469 8.17278C16.1274 8.20012 14.5532 10.2978 12.647 12.8407L9.18607 17.4578L8.73686 17.1219C8.43608 16.8953 8.29936 16.7703 8.3189 16.7391C8.33843 16.7156 9.91263 14.618 11.8189 12.0751C14.2837 8.78606 15.2993 7.46185 15.3305 7.4892C15.3579 7.50873 15.5571 7.66107 15.7797 7.82513ZM15.0063 14.2977C15.4672 14.4032 15.9282 14.7899 16.1508 15.2586C16.268 15.5086 16.2758 15.5477 16.2758 15.9735C16.2758 16.3992 16.268 16.4383 16.1508 16.6883C15.9829 17.0399 15.6586 17.3641 15.2993 17.5399C15.0376 17.6688 15.0102 17.6727 14.5766 17.6727C14.143 17.6727 14.1157 17.6688 13.854 17.5399C13.4946 17.3641 13.1704 17.0399 13.0024 16.6883C12.8852 16.4383 12.8774 16.3992 12.8774 15.9735C12.8774 15.5477 12.8852 15.5086 13.0024 15.2586C13.3696 14.4891 14.1587 14.1063 15.0063 14.2977Z" fill="#003556"/>
<path d="M9.74853 8.35646C9.46338 8.41896 9.30322 8.62989 9.30322 8.93458C9.30322 9.32129 9.49463 9.50879 9.88915 9.50879C10.1665 9.50879 10.2954 9.44238 10.4126 9.24707C10.4985 9.11036 10.4946 8.77052 10.4087 8.62208C10.2837 8.41505 9.99853 8.29787 9.74853 8.35646Z" fill="#003556"/>
<path d="M14.436 15.3877C14.1509 15.4502 13.9907 15.6611 13.9907 15.9658C13.9907 16.3525 14.1821 16.54 14.5767 16.54C14.854 16.54 14.9829 16.4736 15.1001 16.2783C15.186 16.1416 15.1821 15.8018 15.0962 15.6533C14.9712 15.4463 14.686 15.3291 14.436 15.3877Z" fill="#003556"/>
</svg>
