<svg width="25" height="25" viewBox="0 0 25 25" fill="none" xmlns="http://www.w3.org/2000/svg">
<path d="M4.22949 13.4971H10.2295C10.7795 13.4971 11.2295 13.0471 11.2295 12.4971V4.49707C11.2295 3.94707 10.7795 3.49707 10.2295 3.49707H4.22949C3.67949 3.49707 3.22949 3.94707 3.22949 4.49707V12.4971C3.22949 13.0471 3.67949 13.4971 4.22949 13.4971ZM4.22949 21.4971H10.2295C10.7795 21.4971 11.2295 21.0471 11.2295 20.4971V16.4971C11.2295 15.9471 10.7795 15.4971 10.2295 15.4971H4.22949C3.67949 15.4971 3.22949 15.9471 3.22949 16.4971V20.4971C3.22949 21.0471 3.67949 21.4971 4.22949 21.4971ZM14.2295 21.4971H20.2295C20.7795 21.4971 21.2295 21.0471 21.2295 20.4971V12.4971C21.2295 11.9471 20.7795 11.4971 20.2295 11.4971H14.2295C13.6795 11.4971 13.2295 11.9471 13.2295 12.4971V20.4971C13.2295 21.0471 13.6795 21.4971 14.2295 21.4971ZM13.2295 4.49707V8.49707C13.2295 9.04707 13.6795 9.49707 14.2295 9.49707H20.2295C20.7795 9.49707 21.2295 9.04707 21.2295 8.49707V4.49707C21.2295 3.94707 20.7795 3.49707 20.2295 3.49707H14.2295C13.6795 3.49707 13.2295 3.94707 13.2295 4.49707Z" fill="#003556"/>
</svg>
