<svg width="25" height="25" viewBox="0 0 25 25" fill="none" xmlns="http://www.w3.org/2000/svg">
<g clip-path="url(#clip0_13412_1016)">
<path fill-rule="evenodd" clip-rule="evenodd" d="M11.5676 16.6183C11.7551 16.8058 12.0094 16.9111 12.2746 16.9111C12.5398 16.9111 12.7941 16.8058 12.9816 16.6183L18.6386 10.9613C18.8208 10.7727 18.9215 10.5201 18.9193 10.2579C18.917 9.99575 18.8118 9.74494 18.6264 9.55953C18.441 9.37412 18.1902 9.26895 17.928 9.26667C17.6658 9.26439 17.4132 9.36519 17.2246 9.54735L12.2746 14.4973L7.32459 9.54735C7.13599 9.36519 6.88339 9.26439 6.62119 9.26667C6.359 9.26895 6.10818 9.37412 5.92278 9.55953C5.73737 9.74494 5.6322 9.99575 5.62992 10.2579C5.62764 10.5201 5.72844 10.7727 5.91059 10.9613L11.5676 16.6183Z" fill="#003556"/>
</g>
<defs>
<clipPath id="clip0_13412_1016">
<rect width="24" height="24" fill="white" transform="matrix(1 0 0 -1 0.274414 24.9111)"/>
</clipPath>
</defs>
</svg>
