<svg width="25" height="25" viewBox="0 0 25 25" fill="none" xmlns="http://www.w3.org/2000/svg">
<g clip-path="url(#clip0_10391_3052)">
<path d="M16.0508 0.572264C13.0039 1.13476 10.7398 3.45039 10.2851 6.47383C9.95701 8.66758 10.6883 10.866 12.2726 12.4504C13.2805 13.4582 14.4055 14.0676 15.8258 14.3816C16.5008 14.5316 17.9492 14.5316 18.6383 14.3816C21.4367 13.7723 23.5039 11.7004 24.118 8.88789C24.2445 8.3207 24.2445 6.69883 24.1226 6.12226C23.9164 5.15664 23.4851 4.16289 22.932 3.38945C22.5851 2.90195 21.8258 2.14258 21.3383 1.7957C20.5836 1.25664 19.5945 0.820702 18.6523 0.614451C18.1508 0.501951 16.5617 0.473826 16.0508 0.572264ZM17.6164 2.63945C17.8836 2.84101 17.9258 2.95351 17.9398 3.50195L17.9586 4.01289H18.5164C19.1398 4.01289 19.2992 4.05508 19.5148 4.28945C19.6226 4.40195 19.6555 4.48633 19.6742 4.69258C19.693 4.91289 19.6789 4.97851 19.5758 5.1332C19.3648 5.45195 19.2851 5.46601 17.9164 5.46601C16.557 5.46601 16.468 5.48476 16.2992 5.79883C16.1305 6.11758 16.243 6.53008 16.5476 6.69414C16.6742 6.76445 16.8148 6.77851 17.293 6.77851C17.6305 6.77851 17.9773 6.80664 18.1133 6.84414C19.0648 7.09726 19.6836 7.89883 19.6836 8.8832C19.6836 9.76914 19.1164 10.5613 18.2773 10.8426L17.9726 10.9457L17.9492 11.4754C17.9305 11.8832 17.907 12.0332 17.8367 12.1316C17.6258 12.4504 17.1711 12.5488 16.8711 12.3426C16.5711 12.141 16.5195 12.0238 16.5055 11.4895L16.4867 11.0066L15.8961 10.9879C15.2305 10.9645 15.0758 10.9129 14.893 10.6598C14.7429 10.4441 14.7429 10.0504 14.893 9.83476C15.1086 9.53476 15.1648 9.52539 16.5898 9.49726C17.9773 9.47383 18.0055 9.46914 18.1555 9.21133C18.2633 9.02383 18.2539 8.64883 18.132 8.49414C17.9586 8.27851 17.8133 8.23164 17.2555 8.23164C16.632 8.23164 16.3273 8.17539 15.957 8.00195C14.907 7.50976 14.4617 6.23945 14.9773 5.2082C15.2398 4.69258 15.7273 4.27539 16.2476 4.12539L16.4961 4.05508V3.5957C16.4961 3.2207 16.5148 3.1082 16.6039 2.93476C16.7961 2.55039 17.2976 2.40508 17.6164 2.63945Z" fill="#003556"/>
<path d="M0.375781 12.6282L0.230469 12.7689V17.4985V22.2282L0.375781 22.3689L0.516406 22.5048L1.71641 22.5189C2.95391 22.5329 3.09453 22.5189 3.25391 22.3454C3.29141 22.2985 3.84453 20.4376 4.47734 18.211C5.71953 13.8423 5.68672 13.9829 5.48516 13.5798C5.29766 13.2142 5.03516 13.0782 4.02734 12.8298C3.12734 12.6095 2.59297 12.5392 1.51016 12.511L0.516406 12.4829L0.375781 12.6282Z" fill="#003556"/>
<path d="M7.01794 14.4565C7.00388 14.5549 6.53513 16.2518 5.97263 18.2299C5.41013 20.2081 4.96013 21.8346 4.9695 21.844C5.02107 21.8956 6.9945 22.7346 7.85232 23.0674C9.61013 23.7659 11.1383 24.2346 12.2492 24.4268C13.0789 24.5674 13.9883 24.5065 15.0336 24.2346C17.9258 23.4846 22.6601 21.2112 23.9633 19.9502C24.2304 19.6877 24.2304 19.6877 24.2304 19.4112C24.2304 19.0643 24.1179 18.8065 23.8554 18.544C23.3679 18.0565 22.4492 17.8643 21.5211 18.0565C20.7804 18.2065 20.0633 18.469 17.6445 19.4721C15.6851 20.2831 14.9867 20.4846 14.1523 20.4846C13.5383 20.4799 12.9336 20.3534 12.1508 20.0627C11.4476 19.8002 9.92888 19.0081 10.2617 19.0784C10.6883 19.1674 12.4976 19.4018 13.2617 19.4674C15.3758 19.6456 16.2289 19.3034 16.2336 18.2627C16.2383 17.8081 16.107 17.5081 15.7742 17.1893C15.2164 16.669 14.2601 16.3456 12.3804 16.0596L11.7523 15.9659L11.1148 15.5956C10.7633 15.394 10.3601 15.169 10.2195 15.0987C9.52575 14.7518 8.57888 14.4706 7.75388 14.3721C7.52419 14.344 7.26638 14.3112 7.18669 14.2971C7.04607 14.2784 7.03669 14.2831 7.01794 14.4565Z" fill="#003556"/>
</g>
<defs>
<clipPath id="clip0_10391_3052">
<rect width="24" height="24" fill="white" transform="translate(0.230469 0.49707)"/>
</clipPath>
</defs>
</svg>
