<svg width="25" height="25" viewBox="0 0 25 25" fill="none" xmlns="http://www.w3.org/2000/svg">
<path d="M2.22949 12.3405C2.53882 11.7978 2.84529 11.2552 3.15462 10.7153C3.28923 10.4788 3.40953 10.4314 3.68735 10.4982C4.83015 10.7737 5.97008 11.0548 7.11575 11.3247C7.22459 11.3498 7.36493 11.3414 7.46518 11.2969C8.09243 11.0214 8.71395 10.7292 9.33547 10.4426C9.38703 10.4175 9.43858 10.3897 9.51018 10.3535C9.43285 10.3006 9.36984 10.2589 9.30969 10.2172C8.13252 9.43517 6.95822 8.64762 5.77819 7.8712C5.5691 7.73484 5.47745 7.57343 5.51468 7.33132C5.63784 6.5716 6.20495 5.99833 7.22172 6.25992C7.84038 6.41854 8.43612 6.66622 9.0376 6.89163C10.4496 7.42037 11.8617 7.96025 13.2708 8.50013C13.4083 8.553 13.52 8.55022 13.6546 8.48621C15.333 7.72092 17.0143 6.96398 18.6898 6.19591C19.3314 5.90371 19.993 5.77013 20.6976 5.85362C21.9979 6.00946 22.6194 7.24227 21.9693 8.36655C21.6599 8.90086 21.2074 9.29881 20.6432 9.5604C19.1767 10.2422 17.7017 10.9073 16.2295 11.5808C16.092 11.6448 15.9517 11.706 15.7741 11.7867C15.9517 11.2774 16.1149 10.8071 16.2782 10.3368C16.3068 10.2533 16.367 10.1643 16.3527 10.0864C16.3355 9.98618 16.2839 9.86374 16.2037 9.81364C16.092 9.74129 15.9603 9.7886 15.8858 9.90826C15.8428 9.97783 15.8199 10.0585 15.7913 10.1365C14.8662 12.8136 13.941 15.4907 13.0131 18.165C12.9042 18.4767 12.7725 18.7801 12.5147 19.011C12.3257 19.1836 12.0507 19.217 11.8302 19.0834C11.7843 19.0556 11.7442 18.9721 11.75 18.9192C11.8187 18.1317 11.896 17.3441 11.9734 16.5565C12.0851 15.41 12.1968 14.2635 12.3085 13.1197C12.3486 12.7106 12.3973 12.3015 12.4202 11.8925C12.4259 11.7978 12.3658 11.6643 12.2884 11.6058C12.1395 11.4917 11.939 11.6058 11.9161 11.8145C11.8588 12.3182 11.8015 12.8219 11.7671 13.3256C11.7528 13.5316 11.6841 13.6429 11.4807 13.7347C9.59897 14.5807 7.72009 15.4406 5.84406 16.295C5.49463 16.4536 5.33997 16.3979 5.17671 16.0612C4.94758 15.5853 4.72131 15.1095 4.49504 14.6336C4.35183 14.333 4.40912 14.1855 4.72131 14.0436C4.86165 13.9796 5.002 13.9128 5.17958 13.8349C5.09652 13.7959 5.03637 13.7681 4.97622 13.7431C4.19431 13.4286 3.41239 13.1197 2.6362 12.7969C2.48727 12.7384 2.36411 12.6216 2.22949 12.5325C2.22949 12.4685 2.22949 12.4045 2.22949 12.3405Z" fill="#003556"/>
</svg>
