<svg width="25" height="25" viewBox="0 0 25 25" fill="none" xmlns="http://www.w3.org/2000/svg">
<path d="M9.7207 12.477C9.7207 9.37744 9.7207 6.2772 9.7207 3.17761C9.7207 2.60779 9.93709 2.42025 10.4951 2.52451C13.619 3.10548 16.7415 3.69038 19.8647 4.27332C20.483 4.38872 21.1014 4.50282 21.7184 4.62216C22.1722 4.71003 22.2856 4.85363 22.2856 5.3264C22.2856 8.18075 22.2856 11.0351 22.2856 13.8901C22.2856 16.5235 22.2856 19.1575 22.2856 21.7909C22.2856 22.3312 22.1217 22.4971 21.5873 22.4971C17.8575 22.4971 14.1278 22.4971 10.3987 22.4971C9.88201 22.4971 9.7207 22.3371 9.7207 21.8263C9.7207 18.7096 9.7207 15.593 9.7207 12.477ZM18.5001 10.7597C18.7283 10.7597 18.9572 10.7597 19.1854 10.7597C19.2017 10.7597 19.2181 10.7603 19.2345 10.759C19.5591 10.7407 19.7499 10.5617 19.7683 10.2391C19.7801 10.0279 19.7794 9.8148 19.7689 9.603C19.7532 9.2758 19.5703 9.08236 19.2463 9.07449C18.7572 9.06269 18.2673 9.06269 17.7782 9.07449C17.4536 9.08236 17.2713 9.27514 17.2556 9.603C17.2457 9.80628 17.2464 10.0109 17.2549 10.2148C17.2693 10.563 17.4628 10.7492 17.8149 10.7584C18.0431 10.7643 18.2719 10.759 18.5001 10.7597ZM13.4898 7.41749V7.41618C13.7344 7.41618 13.9796 7.42602 14.2235 7.41356C14.5507 7.39651 14.7297 7.20569 14.7376 6.88046C14.7429 6.67653 14.7422 6.4726 14.7376 6.26867C14.7304 5.94475 14.5501 5.74016 14.2281 5.73098C13.7311 5.71721 13.2327 5.71656 12.7357 5.73164C12.4177 5.74147 12.238 5.95196 12.2308 6.27654C12.2269 6.46408 12.2282 6.65161 12.2301 6.83915C12.2347 7.21619 12.4216 7.40634 12.8046 7.41618C13.0327 7.42274 13.2616 7.41749 13.4898 7.41749ZM13.457 10.7597C13.6937 10.7597 13.9298 10.7597 14.1665 10.7597C14.1829 10.7597 14.1993 10.7597 14.2157 10.759C14.5409 10.7381 14.7291 10.5518 14.7376 10.2318C14.7435 10.02 14.7435 9.80759 14.7376 9.59579C14.7291 9.29416 14.5579 9.09023 14.2609 9.0804C13.7475 9.06335 13.2334 9.06335 12.72 9.07974C12.4131 9.08958 12.2393 9.29744 12.2315 9.61218C12.2269 9.80759 12.2275 10.0036 12.2308 10.1997C12.2367 10.5492 12.4255 10.7472 12.7724 10.759C13 10.7656 13.2288 10.759 13.457 10.7597ZM18.4975 20.806C18.7342 20.806 18.9703 20.806 19.207 20.806C19.2234 20.806 19.2398 20.806 19.2562 20.8047C19.5585 20.785 19.7453 20.6171 19.765 20.3168C19.7807 20.0814 19.7814 19.8434 19.7637 19.608C19.7421 19.3122 19.5493 19.1306 19.249 19.1247C18.7598 19.1155 18.27 19.1155 17.7808 19.1247C17.47 19.1306 17.2772 19.3181 17.2575 19.627C17.2438 19.846 17.2444 20.0676 17.2562 20.2873C17.2733 20.6145 17.4595 20.7929 17.7874 20.804C18.0241 20.8119 18.2608 20.8053 18.4975 20.806ZM18.5191 14.1203V14.1216C18.7473 14.1216 18.9762 14.1216 19.2044 14.1216C19.2208 14.1216 19.2372 14.1209 19.2536 14.1203C19.5558 14.1025 19.744 13.9367 19.765 13.6357C19.7814 13.4003 19.7814 13.1622 19.765 12.9268C19.744 12.6285 19.5499 12.4475 19.2529 12.4429C18.7637 12.4357 18.2739 12.4364 17.7847 12.4423C17.4739 12.4462 17.2785 12.6298 17.2595 12.9393C17.2451 13.1668 17.2451 13.3963 17.2602 13.6239C17.2805 13.936 17.4687 14.1085 17.7861 14.1183C18.0293 14.1262 18.2746 14.1203 18.5191 14.1203ZM18.5067 17.4625C18.7513 17.4625 18.9965 17.469 19.2404 17.4611C19.5676 17.4507 19.7512 17.2716 19.7689 16.9418C19.7801 16.7307 19.7801 16.5176 19.7689 16.3058C19.7506 15.9714 19.5558 15.7864 19.2162 15.7818C18.7434 15.7759 18.27 15.7753 17.7972 15.7825C17.4621 15.7877 17.2713 15.9799 17.2562 16.3182C17.247 16.5215 17.247 16.7261 17.2562 16.93C17.272 17.2716 17.4569 17.452 17.7972 17.4618C18.0333 17.4677 18.27 17.4625 18.5067 17.4625ZM13.4727 14.1196V14.1183C13.7337 14.1183 13.9953 14.1275 14.2557 14.1157C14.5422 14.1026 14.7238 13.917 14.7356 13.6317C14.7448 13.4036 14.7442 13.1747 14.7363 12.9465C14.7265 12.6521 14.537 12.4501 14.2458 12.4442C13.7403 12.4344 13.234 12.4344 12.7285 12.4442C12.4387 12.4495 12.2439 12.6534 12.2321 12.9445C12.2236 13.1642 12.2242 13.3852 12.2315 13.6049C12.2413 13.9144 12.4288 14.1052 12.7383 14.117C12.9836 14.1268 13.2281 14.1196 13.4727 14.1196ZM13.4813 17.4625C13.7258 17.4625 13.9711 17.469 14.215 17.4611C14.5461 17.45 14.7278 17.2671 14.737 16.9412C14.7429 16.7294 14.7429 16.5169 14.737 16.3051C14.7284 15.9969 14.5416 15.7917 14.2366 15.7851C13.7396 15.774 13.2413 15.7746 12.7442 15.7845C12.4295 15.791 12.2387 16.0002 12.2308 16.3202C12.2256 16.5241 12.2256 16.7281 12.2308 16.932C12.2393 17.2585 12.4223 17.4487 12.7468 17.4605C12.9914 17.469 13.2367 17.4618 13.4813 17.4625Z" fill="#003556"/>
<path d="M8.03268 14.4297C8.03268 20.1371 8.03268 19.2872 8.03268 21.7154C8.03268 22.3704 7.90482 22.4963 7.23992 22.4963C5.77635 22.4963 4.31278 22.497 2.84856 22.4963C2.34628 22.4963 2.17383 22.3226 2.17383 21.8164C2.17383 17.1719 2.17383 12.5268 2.17383 7.88232C2.17383 7.42659 2.31546 7.26594 2.78102 7.17939C4.28262 6.8994 5.78356 6.6194 7.2845 6.33744C7.79662 6.24105 8.03202 6.42662 8.03202 6.94726C8.03399 9.44162 8.03268 11.936 8.03268 14.4297ZM5.11407 10.759C5.35866 10.759 5.6039 10.7668 5.84782 10.757C6.1606 10.7445 6.35404 10.5622 6.37305 10.2554C6.38683 10.0278 6.38682 9.79833 6.3724 9.5708C6.35338 9.27375 6.16781 9.08491 5.86815 9.07638C5.37112 9.06327 4.87277 9.06327 4.37573 9.07573C4.06099 9.0836 3.88132 9.2731 3.86558 9.58719C3.85444 9.79899 3.85575 10.0114 3.86427 10.2232C3.87804 10.5622 4.06558 10.7472 4.40459 10.7576C4.64064 10.7655 4.87736 10.759 5.11407 10.759ZM5.13047 12.4409C4.88588 12.4409 4.6413 12.4363 4.39672 12.4422C4.07148 12.4501 3.88198 12.631 3.86558 12.9576C3.85509 13.1773 3.85444 13.3982 3.8669 13.6179C3.8846 13.9353 4.06492 14.1123 4.3836 14.1182C4.87277 14.1267 5.36194 14.1267 5.85176 14.1182C6.16257 14.113 6.35469 13.9274 6.37371 13.6186C6.38683 13.3989 6.38617 13.1779 6.37437 12.9582C6.35732 12.6369 6.15995 12.4501 5.83995 12.4422C5.6039 12.4363 5.36718 12.4409 5.13047 12.4409Z" fill="#003556"/>
</svg>
