<svg width="25" height="25" viewBox="0 0 25 25" fill="none" xmlns="http://www.w3.org/2000/svg">
<path d="M13.2305 9.49707H11.2305V7.49707H13.2305M13.2305 17.4971H11.2305V11.4971H13.2305M12.2305 2.49707C10.9172 2.49707 9.61689 2.75573 8.40363 3.25828C7.19038 3.76082 6.08799 4.49742 5.1594 5.426C3.28404 7.30137 2.23047 9.84491 2.23047 12.4971C2.23047 15.1492 3.28404 17.6928 5.1594 19.5681C6.08799 20.4967 7.19038 21.2333 8.40363 21.7359C9.61689 22.2384 10.9172 22.4971 12.2305 22.4971C14.8826 22.4971 17.4262 21.4435 19.3015 19.5681C21.1769 17.6928 22.2305 15.1492 22.2305 12.4971C22.2305 11.1839 21.9718 9.88349 21.4693 8.67024C20.9667 7.45698 20.2301 6.35459 19.3015 5.426C18.373 4.49742 17.2706 3.76082 16.0573 3.25828C14.844 2.75573 13.5437 2.49707 12.2305 2.49707Z" fill="#003556"/>
</svg>
