<svg width="302" height="140" viewBox="0 0 302 140" fill="none" xmlns="http://www.w3.org/2000/svg">
<g filter="url(#filter0_d_12234_81)">
<rect x="10" y="10" width="281.241" height="120" rx="15" fill="url(#paint0_linear_12234_81)"/>
</g>
<path d="M79.7254 44.9526V35.0826H84.1074C85.1901 35.0826 86.0161 35.344 86.5854 35.8666C87.1548 36.3893 87.4394 37.108 87.4394 38.0226C87.4394 38.928 87.1548 39.6466 86.5854 40.1786C86.0161 40.7106 85.1901 40.9766 84.1074 40.9766H81.5314V44.9526H79.7254ZM81.5314 39.5486H83.8974C84.4948 39.5486 84.9428 39.418 85.2414 39.1566C85.5401 38.886 85.6894 38.508 85.6894 38.0226C85.6894 37.5373 85.5401 37.164 85.2414 36.9026C84.9428 36.632 84.4948 36.4966 83.8974 36.4966H81.5314V39.5486ZM88.9896 44.9526V35.0826H95.6396V36.4966H90.7256V39.2266H95.3176V40.6546H90.7256V43.5246H95.6396V44.9526H88.9896ZM97.2558 44.9526V35.0826H98.6138L104.34 42.4886H103.976V35.0826H105.656V44.9526H104.298L98.5858 37.5466H98.9358V44.9526H97.2558ZM107.764 44.9526V35.0826H111.348C112.478 35.0826 113.43 35.2786 114.204 35.6706C114.988 36.0533 115.581 36.6133 115.982 37.3506C116.384 38.0786 116.584 38.9653 116.584 40.0106C116.584 41.0466 116.384 41.9333 115.982 42.6706C115.581 43.408 114.988 43.9726 114.204 44.3646C113.43 44.7566 112.478 44.9526 111.348 44.9526H107.764ZM109.57 43.4546H111.236C112.431 43.4546 113.318 43.17 113.896 42.6006C114.475 42.0313 114.764 41.168 114.764 40.0106C114.764 38.844 114.475 37.9806 113.896 37.4206C113.318 36.8513 112.431 36.5666 111.236 36.5666H109.57V43.4546ZM118.368 44.9526V35.0826H120.174V44.9526H118.368ZM122.287 44.9526V35.0826H123.645L129.371 42.4886H129.007V35.0826H130.687V44.9526H129.329L123.617 37.5466H123.967V44.9526H122.287ZM137.555 45.0926C136.444 45.0926 135.511 44.8873 134.755 44.4766C133.999 44.066 133.43 43.4826 133.047 42.7266C132.664 41.9706 132.473 41.0746 132.473 40.0386C132.473 38.9933 132.678 38.0926 133.089 37.3366C133.5 36.5713 134.088 35.9833 134.853 35.5726C135.628 35.1526 136.556 34.9426 137.639 34.9426C138.358 34.9426 138.988 35.0406 139.529 35.2366C140.07 35.4233 140.546 35.6986 140.957 36.0626L140.355 37.4626C140.056 37.2293 139.772 37.0426 139.501 36.9026C139.23 36.7626 138.95 36.6646 138.661 36.6086C138.372 36.5433 138.036 36.5106 137.653 36.5106C136.57 36.5106 135.749 36.8186 135.189 37.4346C134.638 38.0413 134.363 38.914 134.363 40.0526C134.363 41.1913 134.624 42.0593 135.147 42.6566C135.679 43.254 136.51 43.5526 137.639 43.5526C138.022 43.5526 138.404 43.5153 138.787 43.4406C139.179 43.366 139.562 43.2586 139.935 43.1186L139.599 43.8746V40.9206H137.289V39.6046H141.097V44.3506C140.64 44.584 140.094 44.766 139.459 44.8966C138.824 45.0273 138.19 45.0926 137.555 45.0926Z" fill="white"/>
<path fill-rule="evenodd" clip-rule="evenodd" d="M291.071 69.3641V114.916C291.071 123.2 284.355 129.916 276.071 129.916H227.865C223.517 122.97 221 114.733 221 105.9C221 81.1023 240.838 61 265.31 61C274.918 61 283.812 64.0989 291.071 69.3641Z" fill="#FF9118"/>
<path fill-rule="evenodd" clip-rule="evenodd" d="M291.21 92.0902V114.906C291.21 123.19 284.494 129.906 276.21 129.906H251.211C248.46 125.568 246.867 120.424 246.867 114.907C246.867 99.4209 259.421 86.8667 274.907 86.8667C280.988 86.8667 286.616 88.802 291.21 92.0902Z" fill="#FFA94B"/>
<path d="M59.9005 30.2026C54.516 30.2026 50.1505 34.5681 50.1505 39.9526C50.1505 45.3372 54.516 49.7026 59.9005 49.7026C65.285 49.7026 69.6505 45.3372 69.6505 39.9526C69.6505 34.5681 65.285 30.2026 59.9005 30.2026ZM64.4005 41.4526H59.9005C59.7016 41.4526 59.5108 41.3736 59.3702 41.233C59.2295 41.0923 59.1505 40.9015 59.1505 40.7026V33.9526C59.1505 33.7537 59.2295 33.563 59.3702 33.4223C59.5108 33.2817 59.7016 33.2026 59.9005 33.2026C60.0994 33.2026 60.2902 33.2817 60.4308 33.4223C60.5715 33.563 60.6505 33.7537 60.6505 33.9526V39.9526H64.4005C64.5994 39.9526 64.7902 40.0317 64.9308 40.1723C65.0715 40.313 65.1505 40.5037 65.1505 40.7026C65.1505 40.9015 65.0715 41.0923 64.9308 41.233C64.7902 41.3736 64.5994 41.4526 64.4005 41.4526Z" fill="white"/>
<defs>
<filter id="filter0_d_12234_81" x="0" y="0" width="301.241" height="140" filterUnits="userSpaceOnUse" color-interpolation-filters="sRGB">
<feFlood flood-opacity="0" result="BackgroundImageFix"/>
<feColorMatrix in="SourceAlpha" type="matrix" values="0 0 0 0 0 0 0 0 0 0 0 0 0 0 0 0 0 0 127 0" result="hardAlpha"/>
<feOffset/>
<feGaussianBlur stdDeviation="5"/>
<feComposite in2="hardAlpha" operator="out"/>
<feColorMatrix type="matrix" values="0 0 0 0 0.968627 0 0 0 0 0.505882 0 0 0 0 0 0 0 0 0.25 0"/>
<feBlend mode="normal" in2="BackgroundImageFix" result="effect1_dropShadow_12234_81"/>
<feBlend mode="normal" in="SourceGraphic" in2="effect1_dropShadow_12234_81" result="shape"/>
</filter>
<linearGradient id="paint0_linear_12234_81" x1="1.44049" y1="-0.775517" x2="189.402" y2="233.227" gradientUnits="userSpaceOnUse">
<stop stop-color="#F78100"/>
<stop offset="1" stop-color="#FFA94B"/>
</linearGradient>
</defs>
</svg>
