<svg width="51" height="51" viewBox="0 0 51 51" fill="none" xmlns="http://www.w3.org/2000/svg">
<path fill-rule="evenodd" clip-rule="evenodd" d="M25.6383 50.2295C39.4454 50.2295 50.6383 39.0366 50.6383 25.2295C50.6383 11.4224 39.4454 0.229492 25.6383 0.229492C11.8312 0.229492 0.638306 11.4224 0.638306 25.2295C0.638306 39.0366 11.8312 50.2295 25.6383 50.2295ZM26.0535 16.1695V18.9235L26.7362 18.8912C27.8111 18.8405 29.0381 18.6929 29.993 18.4945C30.2467 18.4438 30.4589 18.3976 30.4636 18.3884C30.4866 18.3653 29.9792 17.1613 29.7947 16.7923C29.0843 15.3853 28.0924 14.269 27.1099 13.7661C26.9115 13.6647 26.4548 13.5078 26.1826 13.4478L26.0535 13.4202V16.1695ZM24.8541 13.5078C23.5763 13.8492 22.363 15.044 21.4589 16.8338C21.2928 17.1706 20.7946 18.37 20.8131 18.3884C20.8177 18.3976 21.0299 18.4438 21.2836 18.4945C22.2385 18.6929 23.4656 18.8405 24.545 18.8912L25.2231 18.9235V16.1742C25.2231 14.6565 25.2093 13.4202 25.1908 13.4248C25.1678 13.4248 25.0202 13.4617 24.8541 13.5078ZM17.5563 16.5939C18.7926 15.4084 20.444 14.4488 22.1555 13.923C22.3861 13.8538 22.6075 13.7938 22.6537 13.7938C22.7136 13.7892 22.626 13.9137 22.363 14.1905C21.4266 15.1869 20.5824 16.5708 20.1626 17.7887C20.0842 18.024 20.0104 18.1716 19.9689 18.1716C19.6321 18.1716 17.1042 17.1936 17.1042 17.0644C17.1042 17.046 17.3072 16.8338 17.5563 16.5939ZM28.8259 14.0937C29.8777 15.1962 30.6988 16.5755 31.2339 18.1347C31.257 18.2039 31.3123 18.1947 31.7598 18.0609C32.6363 17.7934 34.1724 17.1614 34.1724 17.0645C34.1724 17.0092 33.3698 16.2526 32.9961 15.962C32.2027 15.33 31.2708 14.7718 30.3805 14.3936C29.79 14.1398 28.992 13.8631 28.706 13.8123L28.5215 13.7754L28.8259 14.0937ZM13.8474 24.3347C13.9765 22.1665 14.7792 20.0261 16.1723 18.1393L16.5183 17.6688L16.8689 17.8441C17.6208 18.2224 18.5527 18.5914 19.3692 18.8405L19.7705 18.9605L19.6367 19.4771C19.2308 21.0456 19.0186 22.4618 18.9217 24.3162L18.894 24.8605H16.3569H13.8151L13.8474 24.3347ZM34.5184 17.7934C33.8264 18.1486 32.7147 18.596 31.9074 18.8405L31.5061 18.9605L31.6399 19.4771C32.0458 21.0456 32.258 22.4618 32.3549 24.3162L32.3826 24.8605H34.9197H37.4615L37.4292 24.3347C37.3185 22.4756 36.6635 20.5058 35.6071 18.8636C35.4041 18.5453 34.8967 17.8349 34.7767 17.7011C34.7629 17.6873 34.6476 17.7242 34.5184 17.7934ZM19.7475 24.0625C19.7982 22.6048 20.0196 21.1609 20.4348 19.5648C20.5086 19.2741 20.5501 19.1865 20.6101 19.1865C20.6562 19.1865 20.8961 19.228 21.1452 19.2788C22.1924 19.4956 23.9084 19.6939 24.7526 19.6939H25.2231V22.2772V24.8605H22.4691H19.7198L19.7475 24.0625ZM30.113 19.2788C29.1719 19.4863 27.3636 19.6939 26.5286 19.6939H26.0535V22.2772V24.8605H28.8075H31.5568L31.5292 24.0625C31.4784 22.6048 31.257 21.1609 30.8418 19.5648L30.8291 19.5139C30.7889 19.353 30.7662 19.2624 30.7083 19.2209C30.6335 19.1673 30.4997 19.1959 30.1932 19.2616L30.1931 19.2616L30.113 19.2788ZM15.6972 31.6648C14.627 30.0087 13.9719 28.0436 13.8474 26.1384L13.8151 25.6448H16.3569H18.894L18.9217 26.1845C19.0232 28.0389 19.2492 29.5797 19.6367 31.0097C19.729 31.3603 19.7567 31.5172 19.7198 31.5264C19.6875 31.5356 19.3507 31.6463 18.9678 31.7755C18.2574 32.0062 17.5516 32.2968 16.9104 32.6151C16.7121 32.7166 16.546 32.795 16.5368 32.795C16.4999 32.795 15.9463 32.0523 15.6972 31.6648ZM19.7475 26.4381C19.7982 27.7759 19.9919 29.1275 20.3379 30.5345C20.444 30.9543 20.5363 31.3003 20.5409 31.3095C20.5501 31.3187 20.873 31.2634 21.2651 31.1849C22.3953 30.9635 23.3272 30.8528 24.6142 30.7836L25.2231 30.7513V28.2003V25.6447H22.4691H19.7198L19.7475 26.4381ZM26.0535 30.7513V28.2003V25.6447H28.8075H31.5568L31.5292 26.4381C31.4784 27.7759 31.2847 29.1275 30.9387 30.5345C30.8326 30.9543 30.7403 31.3003 30.7357 31.3095C30.7265 31.3187 30.4036 31.2634 30.0115 31.1849C28.8813 30.9635 27.9494 30.8528 26.667 30.7836L26.0535 30.7513ZM32.3549 26.1845C32.2534 28.0389 32.0274 29.5797 31.6399 31.0097C31.5476 31.3603 31.5199 31.5172 31.5568 31.5264C31.5891 31.5356 31.9259 31.6463 32.3088 31.7755C33.0192 32.0062 33.725 32.2968 34.3662 32.6151C34.5645 32.7166 34.7306 32.795 34.7398 32.795C34.7767 32.795 35.3303 32.0523 35.5794 31.6648C36.645 30.0133 37.3139 28.0205 37.4292 26.1384L37.4615 25.6448H34.9197H32.3826L32.3549 26.1845ZM22.4553 31.7847C23.0688 31.697 24.0376 31.6048 24.6234 31.5817C24.7208 31.5763 24.8307 31.5709 24.9218 31.5664L24.9221 31.5664L24.9241 31.5663C24.9875 31.5632 25.0415 31.5605 25.0755 31.5586L25.2231 31.5494V34.2988V37.0482L25.0294 37.0159C24.7019 36.9605 24.1575 36.7299 23.7931 36.49C22.912 35.9134 22.1647 35.0046 21.5142 33.7222C21.2559 33.2101 20.7762 32.0984 20.8085 32.0799C20.8407 32.0522 21.9248 31.8585 22.4553 31.7847ZM26.0535 34.2988V37.0482L26.2518 37.0159C26.5748 36.9605 27.1191 36.7299 27.4835 36.49C28.3646 35.9134 29.1119 35.0046 29.7624 33.7222C30.0207 33.2101 30.5005 32.103 30.4682 32.0799C30.4405 32.0568 29.1119 31.8216 28.6599 31.7616C28.0924 31.6832 27.2898 31.614 26.5517 31.5771L26.0535 31.5494V34.2988ZM17.1042 33.4362C17.1042 33.3347 18.2528 32.8365 19.2262 32.5136C19.5952 32.3937 19.9274 32.2922 19.9643 32.2922C20.0104 32.2876 20.0796 32.4167 20.1719 32.6889C20.3656 33.2609 20.9099 34.3496 21.2882 34.917C21.6803 35.5075 21.8648 35.7427 22.3584 36.2732C22.566 36.4947 22.7275 36.6884 22.7183 36.6976C22.686 36.7299 21.7818 36.4439 21.2882 36.2502C20.2088 35.8211 19.1431 35.203 18.2574 34.4972C17.7592 34.1005 17.1042 33.4962 17.1042 33.4362ZM31.2293 32.366C31.2062 32.4121 31.1601 32.532 31.1278 32.6335C30.7818 33.7314 29.9146 35.1938 29.0381 36.1533C28.9664 36.2313 28.8898 36.3152 28.8217 36.3898L28.821 36.3905C28.7405 36.4788 28.6717 36.5541 28.6368 36.5915L28.5215 36.7253L28.6598 36.693C28.7383 36.6745 29.0704 36.5684 29.4072 36.4577C30.6942 36.0333 31.9628 35.3414 33.0422 34.4787C33.5266 34.0912 34.1724 33.4962 34.1724 33.4362C34.1724 33.3301 32.7931 32.7442 31.8613 32.4536C31.5707 32.3613 31.317 32.2875 31.2985 32.2875C31.2847 32.2875 31.2524 32.3244 31.2293 32.366Z" fill="#3788BF"/>
</svg>
