<svg width="51" height="51" viewBox="0 0 51 51" fill="none" xmlns="http://www.w3.org/2000/svg">
<path fill-rule="evenodd" clip-rule="evenodd" d="M25.6383 50.2295C39.4454 50.2295 50.6383 39.0366 50.6383 25.2295C50.6383 11.4224 39.4454 0.229492 25.6383 0.229492C11.8312 0.229492 0.638306 11.4224 0.638306 25.2295C0.638306 39.0366 11.8312 50.2295 25.6383 50.2295ZM28.1995 36.428C29.5363 37.012 30.9249 37.2066 32.1968 35.9737L32.1838 35.9867C33.7801 34.5591 34.7404 32.6254 35.4802 30.6787C31.7685 29.1863 30.8081 23.8523 34.8572 21.4255C33.8839 20.0238 32.4044 19.2452 30.4447 19.0894C29.4008 19.0149 28.4256 19.3529 27.4585 19.6881C26.9106 19.878 26.3654 20.067 25.8116 20.1796C25.377 20.1466 24.9075 19.9713 24.3772 19.7734C23.6566 19.5045 22.8238 19.1937 21.8144 19.1413C14.6246 19.5047 13.6902 29.4458 20.0234 35.9737C21.1395 36.999 22.1259 37.2326 23.9947 36.428C25.4872 35.805 26.785 35.831 28.1995 36.428ZM25.6818 19.0635C25.4872 16.1694 27.8362 13.7815 30.5356 13.5479C30.9119 16.8962 27.4987 19.3879 25.6818 19.0635Z" fill="#303030"/>
</svg>
