<svg width="51" height="51" viewBox="0 0 51 51" fill="none" xmlns="http://www.w3.org/2000/svg">
<path fill-rule="evenodd" clip-rule="evenodd" d="M25.6383 50.2295C39.4454 50.2295 50.6383 39.0366 50.6383 25.2295C50.6383 11.4224 39.4454 0.229492 25.6383 0.229492C11.8312 0.229492 0.638306 11.4224 0.638306 25.2295C0.638306 39.0366 11.8312 50.2295 25.6383 50.2295ZM19.7754 10.793C19.5759 10.9582 19.4962 11.2545 19.593 11.4881C19.6329 11.5793 19.9919 11.9781 20.3964 12.3827C20.8066 12.7929 21.1371 13.1405 21.1371 13.1575C21.1371 13.1803 21.0004 13.3 20.8408 13.4253C19.3024 14.5934 18.3452 16.4736 18.3452 18.3197C18.3452 18.7584 18.3566 18.804 18.5104 18.975L18.6757 19.163L25.5358 19.1801C30.6011 19.1915 32.4301 19.1744 32.5497 19.1288C32.846 19.0034 32.9315 18.8268 32.9315 18.314C32.9315 16.5135 32.0141 14.6845 30.5042 13.4652C30.4346 13.4086 30.3674 13.3545 30.31 13.3083C30.2173 13.2336 30.1501 13.1795 30.1396 13.1689C30.1282 13.1575 30.4757 12.7872 30.9088 12.3542L31.7064 11.5565V11.2374C31.7064 10.9525 31.6893 10.9069 31.5355 10.7816C31.2905 10.5879 30.9657 10.5936 30.6751 10.8101C30.5555 10.9012 30.1111 11.3172 29.6951 11.7388L28.9373 12.5023L28.2878 12.2858C27.3192 11.9667 26.738 11.8756 25.6383 11.8756C24.533 11.8756 23.9233 11.9667 22.9775 12.2915L22.3393 12.508L21.8094 11.9667C21.5189 11.6704 21.0801 11.2545 20.8351 11.038C20.4534 10.6961 20.3679 10.6448 20.1742 10.6448C20.0147 10.6448 19.895 10.6904 19.7754 10.793ZM22.9433 15.6019C23.4504 15.9096 23.2225 16.7414 22.6356 16.7414C22.2425 16.7414 21.9975 16.5078 21.9918 16.1204C21.9918 15.9153 22.026 15.8412 22.1855 15.6817C22.4134 15.4537 22.6584 15.4253 22.9433 15.6019ZM29.0912 15.6817C29.2507 15.8412 29.2849 15.9153 29.2849 16.1204C29.2792 16.787 28.4245 16.9921 28.1169 16.3996C28.0086 16.1888 28.0086 16.0406 28.1169 15.8298C28.2251 15.6247 28.453 15.4936 28.7094 15.4879C28.8519 15.4879 28.9487 15.5392 29.0912 15.6817ZM14.938 20.3881C14.6018 20.4565 14.1574 20.7129 13.9465 20.9522C13.8497 21.0604 13.7015 21.294 13.6218 21.4707L13.4736 21.784V26.4562V31.1284L13.6218 31.4417C14.0377 32.3306 14.9949 32.7351 15.9579 32.4274C16.3795 32.2907 16.8581 31.8235 17.0233 31.3677C17.1487 31.0429 17.1487 31.0144 17.1487 26.4562C17.1487 21.9265 17.1487 21.8695 17.029 21.5447C16.7327 20.7357 15.7869 20.2115 14.938 20.3881ZM18.4877 20.5647C18.5674 20.4735 18.6928 20.3824 18.7612 20.371C18.8295 20.3596 21.9177 20.3425 25.6269 20.3368L26.4032 20.3362C32.1875 20.3313 32.6119 20.3309 32.7821 20.5387C32.7955 20.5552 32.8074 20.5729 32.8202 20.5921C32.8266 20.6016 32.8332 20.6115 32.8403 20.6217C32.9201 20.7413 32.9315 21.237 32.9315 25.9719C32.9315 29.1854 32.9087 31.2765 32.8745 31.4303C32.7605 31.9146 32.4699 32.4274 32.0825 32.8149C31.6723 33.2251 31.3418 33.4416 30.8689 33.6069L30.5669 33.7094L30.5384 36.0683L30.5099 38.4215L30.3561 38.7519C30.037 39.43 29.4216 39.8174 28.6524 39.8174C27.9288 39.8174 27.3363 39.4357 27.0001 38.7633L26.8634 38.4784L26.8463 36.1253L26.8292 33.7778H25.6383H24.4475L24.4304 36.1253C24.4133 38.3873 24.4076 38.4898 24.2937 38.7405C23.986 39.4072 23.3535 39.8174 22.6356 39.8174C21.8493 39.8174 21.2454 39.4414 20.9263 38.7576L20.7668 38.4215L20.7383 36.0683L20.7098 33.7094L20.4078 33.6069C19.9349 33.4359 19.5987 33.2251 19.2284 32.8434C18.8295 32.4445 18.6187 32.0969 18.4592 31.5728C18.3509 31.2138 18.3452 31.0429 18.3452 25.9719V20.7413L18.4877 20.5647ZM35.4784 20.4109C34.9713 20.559 34.5724 20.8895 34.3103 21.3852L34.1565 21.6701V26.4562V31.2423L34.3274 31.55C34.5496 31.9545 34.9713 32.3192 35.3644 32.4388C35.7747 32.5699 36.4527 32.5357 36.7775 32.3705C37.125 32.1881 37.4783 31.8178 37.6492 31.4531L37.8031 31.1284V26.4562C37.8031 21.8866 37.8031 21.7783 37.6891 21.5162C37.3187 20.6559 36.333 20.1659 35.4784 20.4109Z" fill="#4CAF50"/>
</svg>
