<svg width="81" height="81" viewBox="0 0 81 81" fill="none" xmlns="http://www.w3.org/2000/svg">
<g clip-path="url(#clip0_7818_7316)">
<path d="M45.016 1.10547C44.2972 1.63672 38.8597 7.10547 38.4847 7.68359C38.3285 7.91797 38.2347 8.38672 38.2347 8.93359C38.2347 9.48047 38.3285 9.94922 38.4847 10.1836C38.8597 10.7617 44.2972 16.2305 45.016 16.7617C45.516 17.1367 45.7816 17.2148 46.5003 17.2148C48.016 17.2148 48.8597 16.3711 48.8597 14.8711C48.8597 13.9336 48.7035 13.6211 47.7816 12.6211C47.3597 12.168 47.2972 12.043 47.5316 12.1055C47.7035 12.1523 48.2816 12.3086 48.8128 12.4492C52.7347 13.4336 57.2503 15.6836 60.5003 18.2773C67.0941 23.5273 71.3441 30.9492 72.5316 39.2773C72.8441 41.418 72.8285 45.793 72.516 48.0117C70.5316 62.2617 59.2035 73.5742 44.9378 75.5742C42.6097 75.9023 38.5316 75.9023 36.2191 75.5742C21.9378 73.5742 10.6253 62.2617 8.64097 48.0117C8.32847 45.793 8.32847 41.418 8.62534 39.2773C9.48472 33.2461 11.9691 27.6055 15.766 23.0742C17.1097 21.4648 19.4378 19.1836 20.8128 18.1367C23.1566 16.3398 26.766 14.3086 29.141 13.4648C30.3441 13.0273 30.9535 12.4805 31.2035 11.6367C31.6097 10.293 30.8753 8.99609 29.5003 8.62109C28.7035 8.41797 28.141 8.55859 25.6566 9.63672C16.0941 13.793 8.60972 22.0117 5.34409 31.9648C4.04722 35.9023 3.53159 39.2148 3.54722 43.6211C3.54722 49.6992 4.71909 54.793 7.31284 60.0273C9.31284 64.043 11.3753 66.8867 14.5003 69.9961C17.6253 73.0742 20.2816 74.9648 24.2503 76.918C28.1253 78.8242 32.266 80.043 36.391 80.4805C38.3441 80.6992 42.8128 80.6992 44.766 80.4805C51.4847 79.7617 58.4535 76.8711 63.7816 72.6211C65.2816 71.418 68.2191 68.4961 69.4378 66.9805C73.891 61.4492 76.6566 54.8086 77.4691 47.6992C77.7035 45.543 77.5785 39.6523 77.2347 37.6836C75.4691 27.4805 69.9535 18.793 61.5316 12.9648C57.8441 10.418 52.8285 8.24609 48.5472 7.37109C47.641 7.19922 46.7347 7.01172 46.5316 6.96484C46.1722 6.88672 46.2191 6.82422 47.2503 5.76172C48.7347 4.24609 48.8597 4.02734 48.8597 2.99609C48.8597 1.49609 48.016 0.652344 46.5003 0.652344C45.7816 0.652344 45.516 0.730469 45.016 1.10547Z" fill="#F4B626"/>
<path d="M38.5462 19.5584C32.7649 20.0115 27.2024 22.6834 23.1555 26.9334C21.3587 28.824 20.1399 30.5271 19.0305 32.7303C15.7024 39.2928 15.5774 47.2303 18.6868 53.8553C22.1399 61.199 29.1087 66.3553 37.1399 67.5271C38.6399 67.7459 42.4993 67.7615 44.0149 67.5428C54.593 66.0115 62.9993 57.6053 64.4993 47.0428C64.7493 45.199 64.7181 41.3396 64.4055 39.6365C63.5305 34.6678 61.3899 30.4334 57.9368 26.8396C52.9055 21.6209 45.8899 18.9803 38.5462 19.5584ZM41.2649 27.7459C42.0149 28.0584 42.5774 28.8865 42.718 29.8553L42.843 30.6834L43.7962 31.0428C45.8274 31.8084 46.7024 32.6053 46.7805 33.8084C46.8587 34.8865 46.468 35.5584 45.4837 35.9803C44.6712 36.3396 44.0774 36.2771 43.2337 35.7459C42.4055 35.2146 41.7337 35.0271 40.6712 35.0271C38.9837 35.0428 37.9524 35.7771 37.6868 37.1678C37.4055 38.699 38.4055 39.4646 42.8899 41.1365C43.7649 41.4646 44.8743 41.9803 45.343 42.2928C47.0774 43.449 48.2337 45.2615 48.5462 47.3553C48.9055 49.5896 47.9524 52.324 46.2024 54.0896C45.343 54.9646 43.9837 55.8553 43.218 56.0428C42.843 56.1365 42.7962 56.2303 42.718 57.1678C42.6243 58.4021 42.0774 59.199 41.0774 59.5584C40.4837 59.7615 40.3743 59.7459 39.6868 59.4646C38.6868 59.0584 38.2337 58.3709 38.2337 57.2928V56.4803L37.3274 56.2928C36.2024 56.074 34.1087 55.0896 33.343 54.4021C32.6555 53.8084 32.3899 53.0115 32.6087 52.2146C32.8118 51.5115 33.0305 51.2459 33.7024 50.824C34.4993 50.3396 34.9993 50.4178 36.6243 51.2303L38.093 51.9646H39.7649C41.1087 51.9803 41.5462 51.9178 41.9837 51.6834C43.3587 50.9646 44.0618 49.8396 44.0774 48.3709C44.0774 46.7459 43.468 46.1209 41.0462 45.2615C40.4055 45.0271 39.0149 44.4334 37.9837 43.9334C34.9368 42.4646 33.6712 41.0584 33.2493 38.6678C32.6712 35.4959 34.8118 31.9646 37.968 30.9178C38.1712 30.8396 38.2337 30.6365 38.2337 29.9959C38.2337 28.9334 38.6555 28.2303 39.5305 27.8396C40.3274 27.4803 40.5774 27.4646 41.2649 27.7459Z" fill="#F4B626"/>
</g>
<defs>
<clipPath id="clip0_7818_7316">
<rect width="80" height="80" fill="white" transform="translate(0.578125 0.652344)"/>
</clipPath>
</defs>
</svg>
