<svg width="25" height="25" viewBox="0 0 25 25" fill="none" xmlns="http://www.w3.org/2000/svg">
<path d="M9.93354 0.525194C7.02261 0.722069 5.35854 0.918945 4.63667 1.15332C3.83979 1.41113 3.05229 1.90332 2.35386 2.57363C1.43979 3.45957 0.92417 4.35488 0.694482 5.45644C0.563232 6.10332 0.43667 6.91895 0.338232 7.78613C0.216357 8.86895 0.216357 12.2299 0.338232 13.3174C0.450732 14.2971 0.628857 15.3939 0.77417 15.9611C1.21479 17.7002 2.86948 19.383 4.71167 19.9643C5.25073 20.133 6.78823 20.3486 8.16167 20.4471L8.62104 20.4799L8.91167 20.9299C9.76011 22.2518 10.9273 23.8549 11.2226 24.1174C11.5273 24.3846 11.8273 24.4971 12.2304 24.4971C12.6429 24.4971 12.9476 24.3799 13.257 24.0986C13.5148 23.8643 14.3304 22.758 15.1648 21.5158L15.8492 20.4893L16.7679 20.4096C18.2679 20.2736 19.3039 20.1096 19.8804 19.9174C21.3382 19.4346 22.7585 18.1596 23.4148 16.7393C23.7007 16.1205 23.9398 14.9674 24.1226 13.3174C24.2304 12.3705 24.2445 8.93457 24.146 7.99707C23.9914 6.52988 23.7523 5.20801 23.532 4.63613C23.0304 3.34238 21.7648 2.01113 20.4757 1.41582C19.7445 1.07832 19.1398 0.947069 17.621 0.77832C15.6382 0.567383 15.0335 0.534569 12.582 0.520508C11.2695 0.51582 10.0742 0.51582 9.93354 0.525194ZM13.7585 4.50019C15.507 4.87519 16.7023 6.05644 16.9179 7.61269C17.0023 8.22207 16.8804 8.92988 16.5992 9.48301C16.4445 9.77832 16.0601 10.2424 15.7085 10.5424C15.5351 10.6924 15.0664 11.0346 14.6679 11.3018C13.6367 11.9861 13.496 12.1643 13.496 12.8064C13.496 13.1721 13.3929 13.4674 13.182 13.7111C12.5867 14.4143 11.5273 14.2689 11.0726 13.4205C10.9554 13.2002 10.9273 12.1971 11.0304 11.7893C11.232 10.9877 11.7335 10.3971 12.746 9.75488C13.7398 9.13144 14.0351 8.86426 14.1757 8.46113C14.382 7.88457 14.157 7.35488 13.5945 7.08769C13.3039 6.95176 13.2523 6.94238 12.7695 6.94238C11.771 6.94238 11.232 7.30801 10.8898 8.20332C10.6414 8.85019 10.121 9.20644 9.49292 9.15957C8.78042 9.09863 8.28823 8.59238 8.25542 7.87988C8.24136 7.59863 8.26011 7.49082 8.37729 7.18613C8.79448 6.11738 9.64292 5.23613 10.6742 4.80488C11.0679 4.64551 11.607 4.49551 12.0523 4.43457C12.4554 4.37832 13.3507 4.41113 13.7585 4.50019ZM13.1679 15.5768C13.2617 15.633 13.3882 15.7689 13.4492 15.8814C13.5617 16.0689 13.5664 16.1252 13.5664 16.7861C13.5664 17.4189 13.5523 17.508 13.4632 17.6814C13.407 17.7893 13.2851 17.9252 13.1914 17.9814C12.8539 18.1924 11.607 18.1924 11.2695 17.9814C11.1757 17.9252 11.0539 17.7893 10.9976 17.6814C10.9085 17.508 10.8945 17.4189 10.8945 16.7861C10.8945 16.1533 10.9085 16.0643 10.9976 15.8908C11.1101 15.6846 11.2789 15.5486 11.5039 15.4924C11.5789 15.4736 11.9492 15.4596 12.3242 15.4643C12.9335 15.4736 13.0226 15.483 13.1679 15.5768Z" fill="#003556"/>
</svg>
