<svg width="81" height="81" viewBox="0 0 81 81" fill="none" xmlns="http://www.w3.org/2000/svg">
<g clip-path="url(#clip0_7818_7324)">
<path d="M51.0071 3.66846C43.9602 6.57471 44.0852 6.49658 44.429 7.51221C44.554 7.85596 44.9915 8.09033 47.2102 9.04346C48.6634 9.66846 49.8821 10.1997 49.9134 10.2466C50.0852 10.4185 48.6321 14.8716 47.5852 17.3716C43.0384 28.1216 35.1477 37.4341 24.5384 44.5278C21.2102 46.7622 14.1634 50.2466 10.7415 51.3716C9.39773 51.8091 8.53835 52.481 8.02273 53.5122C6.97585 55.5591 7.72585 57.8872 9.72585 58.7935C10.179 59.0122 10.7259 59.0903 11.7259 59.0903C13.3509 59.0903 14.3352 58.7622 18.7727 56.7466C22.1634 55.2153 23.0071 54.7935 25.2727 53.4966C33.1477 48.9966 40.3509 42.8091 46.1477 35.5591C50.5227 30.0903 54.5696 22.4028 56.9915 14.9497C57.2727 14.0903 57.5227 13.3716 57.5384 13.3403C57.554 13.3247 58.6946 13.7935 60.0696 14.4028C61.4446 14.9966 62.6946 15.4966 62.8352 15.4966C63.179 15.4966 63.8665 14.8091 63.8665 14.4653C63.8665 14.1685 58.804 1.82471 58.4602 1.30908C58.3352 1.12158 58.0852 0.965332 57.8821 0.965332C57.6946 0.980957 54.6009 2.18408 51.0071 3.66846Z" fill="#35C203"/>
<path d="M14.0242 2.99674C7.24296 4.43424 1.93046 9.88737 0.649212 16.6999C0.289837 18.6061 0.414837 22.403 0.883587 24.1374C1.71171 27.278 3.21171 29.8717 5.41484 32.0749C8.05546 34.6999 11.2273 36.3249 14.8367 36.903C16.5867 37.1842 20.3211 37.028 21.8836 36.6061C27.6492 35.0749 32.0867 30.9655 33.9617 25.4342C34.8211 22.9342 35.0711 19.2467 34.5555 16.5905C33.2586 9.74674 27.743 4.23112 20.8992 2.93424C19.118 2.59049 15.743 2.62174 14.0242 2.99674ZM18.2273 8.68424C18.3367 8.80924 18.4617 9.15299 18.5086 9.46549C18.5711 9.84049 18.6805 10.028 18.8523 10.028C19.2742 10.0436 20.4617 10.6374 21.1336 11.1999C22.0555 11.9342 22.7898 13.403 22.8992 14.653C22.9773 15.7936 22.8211 16.1217 22.1492 16.1217C21.5711 16.1217 21.3836 15.8561 21.2117 14.8249C21.1336 14.3405 20.993 13.7936 20.8836 13.5905C20.493 12.8092 19.243 11.7467 18.7117 11.7467C18.6023 11.7467 18.5555 12.9811 18.5555 15.4967C18.5555 18.9655 18.5711 19.2467 18.8367 19.2467C19.2742 19.2624 20.4461 19.8405 21.1336 20.4186C21.493 20.6999 22.0242 21.3874 22.3211 21.9342C22.8367 22.8717 22.8523 22.9811 22.8523 24.5592C22.8523 26.1374 22.8367 26.2467 22.3211 27.1842C22.0242 27.7311 21.493 28.4186 21.1336 28.6999C20.4617 29.2624 19.2742 29.8561 18.8523 29.8717C18.6961 29.8717 18.5555 30.0592 18.493 30.3717C18.368 31.028 18.1336 31.278 17.618 31.278C17.1023 31.278 16.868 31.028 16.743 30.3717C16.6805 30.0436 16.5555 29.8717 16.368 29.8717C16.2273 29.8717 15.6805 29.653 15.1492 29.3874C13.3992 28.5124 12.1492 26.653 12.1492 24.903C12.1492 24.0436 12.3367 23.778 12.9461 23.778C13.5086 23.778 13.6961 24.0436 13.868 25.1217C13.9461 25.6061 14.1961 26.2936 14.4148 26.6217C14.8055 27.2155 16.0711 28.153 16.4773 28.153C16.6336 28.153 16.6805 27.3874 16.6805 24.4186V20.6842L16.1492 20.5905C15.4461 20.4499 13.8523 19.4186 13.3523 18.7624C11.6805 16.5592 11.743 13.7155 13.493 11.7624C14.1648 11.0124 15.7898 10.028 16.368 10.028C16.5555 10.028 16.6648 9.85612 16.7273 9.46549C16.8523 8.73112 17.0867 8.46549 17.618 8.46549C17.8523 8.46549 18.1336 8.55924 18.2273 8.68424Z" fill="#35C203"/>
<path d="M15.5391 12.1997C15.1484 12.4653 14.6172 12.9653 14.3828 13.3247C13.9922 13.9185 13.9453 14.1216 13.9453 15.3403C13.9453 16.5591 13.9922 16.7622 14.3828 17.356C14.8047 17.9966 16.0547 18.9341 16.4766 18.9341C16.6328 18.9341 16.6797 18.1841 16.6797 15.3403C16.6797 12.4966 16.6328 11.7466 16.4766 11.7466C16.3672 11.7466 15.9453 11.9497 15.5391 12.1997Z" fill="#35C203"/>
<path d="M18.5547 24.5591C18.5547 26.9653 18.6016 28.1528 18.7109 28.1528C19.0391 28.1528 19.7266 27.6997 20.2266 27.1841C20.9141 26.481 21.2109 25.6841 21.2109 24.5591C21.2109 23.4341 20.9141 22.6372 20.2266 21.9341C19.7266 21.4185 19.0391 20.9653 18.7109 20.9653C18.6016 20.9653 18.5547 22.1528 18.5547 24.5591Z" fill="#35C203"/>
<path d="M63.5409 25.9966C60.7596 30.2153 58.4628 33.8716 58.4315 34.106C58.4003 34.3403 58.4471 34.6685 58.5409 34.856C58.7128 35.1685 58.8378 35.1841 61.2128 35.1841H63.7128V55.8872V76.5903H69.4159H75.119V55.8872V35.1841H77.5253C81.6659 35.1841 81.7753 35.5903 75.0565 25.9185L69.7596 18.3091H69.1815H68.5878L63.5409 25.9966Z" fill="#35C203"/>
<path d="M48.4297 47.8716C48.2891 48.0122 48.2422 51.4341 48.2422 62.3247V76.5903H53.9453H59.6484V62.3872C59.6484 49.6685 59.6172 48.1528 59.3984 47.9341C59.1953 47.7153 58.4766 47.6841 53.8828 47.6841C49.9922 47.6841 48.5703 47.731 48.4297 47.8716Z" fill="#35C203"/>
<path d="M32.8047 57.0903C32.6641 57.231 32.6172 59.6372 32.6172 66.9341V76.5903H38.3203H44.0234V66.9341C44.0234 59.6372 43.9766 57.231 43.8359 57.0903C43.5703 56.8247 33.0703 56.8247 32.8047 57.0903Z" fill="#35C203"/>
<path d="M17.3359 63.1841C17.1953 63.3247 17.1484 65.0435 17.1484 69.981V76.5903H22.8516H28.5547V70.0435C28.5547 64.2935 28.5234 63.4653 28.3047 63.2466C28.1016 63.0278 27.3828 62.9966 22.7891 62.9966C18.8984 62.9966 17.4766 63.0435 17.3359 63.1841Z" fill="#35C203"/>
<path d="M11.7124 78.6528C11.4468 78.9185 11.478 79.8091 11.7749 80.0903C11.9937 80.3091 15.2436 80.3403 45.1968 80.3403C75.1499 80.3403 78.3999 80.3091 78.6187 80.0903C78.9155 79.8091 78.9468 78.9185 78.6812 78.6528C78.4155 78.3872 11.978 78.3872 11.7124 78.6528Z" fill="#35C203"/>
</g>
<defs>
<clipPath id="clip0_7818_7324">
<rect width="80" height="80" fill="white" transform="translate(0.429688 0.652832)"/>
</clipPath>
</defs>
</svg>
