<svg width="21" height="21" viewBox="0 0 21 21" fill="none" xmlns="http://www.w3.org/2000/svg">
<path d="M20.2304 3.76352L17.7638 1.29685C17.5517 1.09471 17.27 0.981934 16.9771 0.981934C16.6842 0.981934 16.4024 1.09471 16.1904 1.29685L13.9971 3.49685H2.23043C1.87681 3.49685 1.53767 3.63733 1.28762 3.88738C1.03757 4.13743 0.897095 4.47657 0.897095 4.83019V19.4969C0.897095 19.8505 1.03757 20.1896 1.28762 20.4397C1.53767 20.6897 1.87681 20.8302 2.23043 20.8302H16.8971C17.2507 20.8302 17.5899 20.6897 17.8399 20.4397C18.09 20.1896 18.2304 19.8505 18.2304 19.4969V7.33685L20.2304 5.33685C20.4389 5.12811 20.5559 4.84518 20.5559 4.55019C20.5559 4.2552 20.4389 3.97226 20.2304 3.76352ZM10.7838 12.9169L7.99043 13.5369L8.65709 10.7702L15.0238 4.39019L17.1771 6.54352L10.7838 12.9169ZM17.8971 5.78352L15.7438 3.63019L16.9771 2.39685L19.1304 4.55019L17.8971 5.78352Z" fill="#003556"/>
</svg>
