<svg width="302" height="140" viewBox="0 0 302 140" fill="none" xmlns="http://www.w3.org/2000/svg">
<g filter="url(#filter0_d_12234_77)">
<rect x="10" y="10" width="281.241" height="120" rx="15" fill="url(#paint0_linear_12234_77)"/>
</g>
<path fill-rule="evenodd" clip-rule="evenodd" d="M291.071 69.3641V120.678C291.071 125.78 286.935 129.916 281.833 129.916H227.865C223.517 122.97 221 114.733 221 105.9C221 81.1023 240.838 61 265.31 61C274.918 61 283.812 64.0989 291.071 69.3641Z" fill="#97018D"/>
<path fill-rule="evenodd" clip-rule="evenodd" d="M291.21 92.0902V120.667C291.21 125.77 287.074 129.906 281.972 129.906H251.211C248.46 125.568 246.867 120.424 246.867 114.907C246.867 99.4209 259.421 86.8667 274.907 86.8667C280.988 86.8667 286.616 88.802 291.21 92.0902Z" fill="#B903AD"/>
<path d="M82.9017 44.9526V36.5666H79.6397V35.0826H87.9697V36.5666H84.7077V44.9526H82.9017ZM88.2621 40.0106C88.2621 38.9746 88.4488 38.0786 88.8221 37.3226C89.2048 36.5666 89.7508 35.9833 90.4601 35.5726C91.1695 35.1526 92.0141 34.9426 92.9941 34.9426C93.9648 34.9426 94.8048 35.1526 95.5141 35.5726C96.2235 35.9833 96.7695 36.5666 97.1521 37.3226C97.5441 38.0786 97.7401 38.97 97.7401 39.9966C97.7401 41.0326 97.5441 41.9333 97.1521 42.6986C96.7695 43.4546 96.2235 44.0426 95.5141 44.4626C94.8048 44.8826 93.9648 45.0926 92.9941 45.0926C92.0141 45.0926 91.1695 44.8826 90.4601 44.4626C89.7601 44.0426 89.2188 43.4546 88.8361 42.6986C88.4535 41.9333 88.2621 41.0373 88.2621 40.0106ZM90.1521 40.0106C90.1521 41.1213 90.3901 41.9893 90.8661 42.6146C91.3421 43.24 92.0515 43.5526 92.9941 43.5526C93.9088 43.5526 94.6135 43.24 95.1081 42.6146C95.6028 41.9893 95.8501 41.1213 95.8501 40.0106C95.8501 38.8906 95.6028 38.0226 95.1081 37.4066C94.6228 36.7906 93.9181 36.4826 92.9941 36.4826C92.0515 36.4826 91.3421 36.7906 90.8661 37.4066C90.3901 38.0226 90.1521 38.8906 90.1521 40.0106ZM101.266 44.9526V36.5666H98.0041V35.0826H106.334V36.5666H103.072V44.9526H101.266ZM105.364 44.9526L109.83 35.0826H111.342L115.864 44.9526H114.03L112.826 42.1806L113.554 42.6706H107.632L108.388 42.1806L107.184 44.9526H105.364ZM110.572 37.0146L108.598 41.6906L108.234 41.2566H112.938L112.644 41.6906L110.628 37.0146H110.572ZM116.896 44.9526V35.0826H118.702V43.4266H123.35V44.9526H116.896ZM128.452 44.9526V35.0826H130.258V44.9526H128.452ZM132.371 44.9526V35.0826H133.729L139.455 42.4886H139.091V35.0826H140.771V44.9526H139.413L133.701 37.5466H134.051V44.9526H132.371ZM147.471 45.0926C146.444 45.0926 145.562 44.8873 144.825 44.4766C144.097 44.0566 143.537 43.4686 143.145 42.7126C142.753 41.9473 142.557 41.0466 142.557 40.0106C142.557 38.9746 142.753 38.0786 143.145 37.3226C143.537 36.5666 144.097 35.9833 144.825 35.5726C145.562 35.1526 146.444 34.9426 147.471 34.9426C148.162 34.9426 148.782 35.0406 149.333 35.2366C149.893 35.4326 150.374 35.722 150.775 36.1046L150.187 37.5326C149.748 37.178 149.324 36.926 148.913 36.7766C148.512 36.618 148.05 36.5386 147.527 36.5386C146.528 36.5386 145.763 36.842 145.231 37.4486C144.708 38.046 144.447 38.9 144.447 40.0106C144.447 41.1213 144.708 41.98 145.231 42.5866C145.763 43.1933 146.528 43.4966 147.527 43.4966C148.05 43.4966 148.512 43.422 148.913 43.2726C149.324 43.114 149.748 42.8526 150.187 42.4886L150.775 43.9166C150.374 44.29 149.893 44.5793 149.333 44.7846C148.782 44.99 148.162 45.0926 147.471 45.0926ZM151.766 40.0106C151.766 38.9746 151.953 38.0786 152.326 37.3226C152.709 36.5666 153.255 35.9833 153.964 35.5726C154.674 35.1526 155.518 34.9426 156.498 34.9426C157.469 34.9426 158.309 35.1526 159.018 35.5726C159.728 35.9833 160.274 36.5666 160.656 37.3226C161.048 38.0786 161.244 38.97 161.244 39.9966C161.244 41.0326 161.048 41.9333 160.656 42.6986C160.274 43.4546 159.728 44.0426 159.018 44.4626C158.309 44.8826 157.469 45.0926 156.498 45.0926C155.518 45.0926 154.674 44.8826 153.964 44.4626C153.264 44.0426 152.723 43.4546 152.34 42.6986C151.958 41.9333 151.766 41.0373 151.766 40.0106ZM153.656 40.0106C153.656 41.1213 153.894 41.9893 154.37 42.6146C154.846 43.24 155.556 43.5526 156.498 43.5526C157.413 43.5526 158.118 43.24 158.612 42.6146C159.107 41.9893 159.354 41.1213 159.354 40.0106C159.354 38.8906 159.107 38.0226 158.612 37.4066C158.127 36.7906 157.422 36.4826 156.498 36.4826C155.556 36.4826 154.846 36.7906 154.37 37.4066C153.894 38.0226 153.656 38.8906 153.656 40.0106ZM163.062 44.9526V35.0826H164.644L168.27 43.2446H167.836L171.462 35.0826H173.03V44.9526H171.392V37.6306H171.896L168.578 44.9526H167.5L164.182 37.6306H164.7V44.9526H163.062ZM175.17 44.9526V35.0826H181.82V36.4966H176.906V39.2266H181.498V40.6546H176.906V43.5246H181.82V44.9526H175.17Z" fill="white"/>
<path fill-rule="evenodd" clip-rule="evenodd" d="M60.7528 30.2026C55.3678 30.2026 51.0028 34.5676 51.0028 39.9526C51.0028 45.3376 55.3678 49.7026 60.7528 49.7026C66.1378 49.7026 70.5028 45.3376 70.5028 39.9526C70.5028 34.5676 66.1378 30.2026 60.7528 30.2026ZM57.7528 35.4526C57.5539 35.4526 57.3631 35.5317 57.2224 35.6723C57.0818 35.813 57.0028 36.0037 57.0028 36.2026C57.0028 36.4015 57.0818 36.5923 57.2224 36.733C57.3631 36.8736 57.5539 36.9526 57.7528 36.9526H59.2528C60.2328 36.9526 61.0658 37.5786 61.3748 38.4526H57.7528C57.5539 38.4526 57.3631 38.5317 57.2224 38.6723C57.0818 38.813 57.0028 39.0037 57.0028 39.2026C57.0028 39.4015 57.0818 39.5923 57.2224 39.733C57.3631 39.8736 57.5539 39.9526 57.7528 39.9526H61.3748C61.2195 40.3913 60.9321 40.7711 60.5521 41.0398C60.1721 41.3084 59.7181 41.4526 59.2528 41.4526H57.7528C57.6045 41.4528 57.4597 41.4968 57.3364 41.5792C57.2132 41.6617 57.1172 41.7788 57.0605 41.9157C57.0038 42.0527 56.9889 42.2034 57.0178 42.3488C57.0467 42.4942 57.118 42.6277 57.2228 42.7326L60.2228 45.7326C60.2914 45.8063 60.3742 45.8654 60.4662 45.9064C60.5582 45.9474 60.6576 45.9695 60.7583 45.9712C60.859 45.973 60.959 45.9545 61.0524 45.9168C61.1458 45.879 61.2306 45.8229 61.3018 45.7517C61.373 45.6805 61.4292 45.5956 61.4669 45.5022C61.5046 45.4088 61.5231 45.3088 61.5214 45.2081C61.5196 45.1074 61.4976 45.0081 61.4566 44.9161C61.4156 44.8241 61.3565 44.7413 61.2828 44.6726L59.5528 42.9406C60.3631 42.8754 61.1303 42.5488 61.739 42.01C62.3477 41.4711 62.7649 40.7491 62.9278 39.9526H63.7528C63.9517 39.9526 64.1425 39.8736 64.2831 39.733C64.4238 39.5923 64.5028 39.4015 64.5028 39.2026C64.5028 39.0037 64.4238 38.813 64.2831 38.6723C64.1425 38.5317 63.9517 38.4526 63.7528 38.4526H62.9278C62.8171 37.9087 62.5865 37.3962 62.2528 36.9526H63.7528C63.9517 36.9526 64.1425 36.8736 64.2831 36.733C64.4238 36.5923 64.5028 36.4015 64.5028 36.2026C64.5028 36.0037 64.4238 35.813 64.2831 35.6723C64.1425 35.5317 63.9517 35.4526 63.7528 35.4526H57.7528Z" fill="white"/>
<defs>
<filter id="filter0_d_12234_77" x="0" y="0" width="301.241" height="140" filterUnits="userSpaceOnUse" color-interpolation-filters="sRGB">
<feFlood flood-opacity="0" result="BackgroundImageFix"/>
<feColorMatrix in="SourceAlpha" type="matrix" values="0 0 0 0 0 0 0 0 0 0 0 0 0 0 0 0 0 0 127 0" result="hardAlpha"/>
<feOffset/>
<feGaussianBlur stdDeviation="5"/>
<feComposite in2="hardAlpha" operator="out"/>
<feColorMatrix type="matrix" values="0 0 0 0 0 0 0 0 0 0 0 0 0 0 0 0 0 0 0.25 0"/>
<feBlend mode="normal" in2="BackgroundImageFix" result="effect1_dropShadow_12234_77"/>
<feBlend mode="normal" in="SourceGraphic" in2="effect1_dropShadow_12234_77" result="shape"/>
</filter>
<linearGradient id="paint0_linear_12234_77" x1="-5.17069" y1="-4.29411" x2="297.345" y2="152.716" gradientUnits="userSpaceOnUse">
<stop stop-color="#930089"/>
<stop offset="1" stop-color="#C203B5"/>
</linearGradient>
</defs>
</svg>
