<svg width="25" height="25" viewBox="0 0 25 25" fill="none" xmlns="http://www.w3.org/2000/svg">
<path d="M9.86803 2.49707C11.4428 2.49707 13.0177 2.49707 14.5925 2.49707C15.6325 2.70682 16.0504 3.47826 16.0178 4.41205C15.9823 5.47189 16.0097 6.53375 16.0097 7.5946C16.0097 7.66418 16.0097 7.73376 16.0097 7.81948C16.3991 7.81948 16.7671 7.80233 17.1311 7.82553C17.3751 7.84166 17.6354 7.87191 17.8529 7.97175C18.4233 8.23394 18.6571 8.71495 18.6571 9.33109C18.6541 12.7678 18.6551 16.2034 18.6551 19.6401C18.6551 19.6986 18.653 19.7571 18.65 19.8156C18.6093 20.5346 18.0705 21.0771 17.3426 21.1326C17.2541 21.1396 17.1657 21.1477 17.067 21.1568C17.067 21.4825 17.0711 21.788 17.066 22.0936C17.0609 22.3558 16.9349 22.4899 16.6848 22.4929C16.1734 22.4979 15.661 22.499 15.1496 22.4929C14.9127 22.4899 14.7917 22.3628 14.7806 22.1269C14.7755 22.029 14.7785 21.9312 14.7785 21.8344C14.7785 21.6095 14.7785 21.3857 14.7785 21.1588C13.0624 21.1588 11.3798 21.1588 9.67893 21.1588C9.67893 21.4643 9.67994 21.7568 9.67893 22.0482C9.67689 22.383 9.56608 22.4949 9.23261 22.4959C8.78019 22.4969 8.32676 22.4969 7.87434 22.4959C7.50631 22.4959 7.39346 22.384 7.39244 22.0179C7.39142 21.7336 7.39244 21.4492 7.39244 21.1578C7.27247 21.1477 7.17589 21.1386 7.07829 21.1326C6.80074 21.1154 6.55674 21.0126 6.34121 20.8431C5.94674 20.5275 5.80136 20.112 5.80237 19.6199C5.80644 16.1964 5.80441 12.7728 5.80542 9.35025C5.80542 9.28571 5.80644 9.22016 5.81051 9.15562C5.84406 8.54251 6.22429 8.04839 6.82514 7.88906C7.05491 7.82855 7.30399 7.82956 7.54494 7.82149C7.84282 7.8104 8.14172 7.81847 8.45079 7.81847C8.45079 7.71662 8.45079 7.64603 8.45079 7.57443C8.45079 6.44198 8.45181 5.30954 8.45079 4.17709C8.45079 3.72229 8.58906 3.32094 8.90728 2.98716C9.16856 2.71186 9.50609 2.58077 9.86803 2.49707ZM9.52948 7.80637C11.3341 7.80637 13.1254 7.80637 14.931 7.80637C14.9341 7.73175 14.9392 7.66822 14.9392 7.60469C14.9392 6.4793 14.9402 5.35491 14.9392 4.22952C14.9392 3.75154 14.7429 3.55893 14.256 3.55893C12.9058 3.55893 11.5547 3.55893 10.2045 3.55893C9.71858 3.55893 9.52033 3.75255 9.52033 4.22952C9.51931 5.35491 9.52033 6.4793 9.52033 7.60469C9.52033 7.66822 9.52643 7.73175 9.52948 7.80637Z" fill="#003556"/>
</svg>
