<svg width="25" height="25" viewBox="0 0 25 25" fill="none" xmlns="http://www.w3.org/2000/svg">
<path d="M10.6715 0.568121C9.62627 0.71315 8.68609 0.958197 7.76591 1.32327C7.17079 1.55832 7.03076 1.66834 7.03076 1.89338C7.03076 2.08342 7.7459 3.5387 7.90593 3.67873C7.98095 3.74374 8.07097 3.79375 8.11597 3.79375C8.16598 3.79375 8.43604 3.70374 8.72109 3.58871C9.86132 3.14363 10.9665 2.93859 12.2368 2.93859C13.7821 2.93859 15.0173 3.22364 16.4076 3.89377C19.2682 5.27404 21.2486 7.98458 21.7086 11.1502C21.8087 11.8453 21.8087 13.1506 21.7036 13.8307C21.5136 15.126 21.0235 16.4862 20.3784 17.4914L20.1783 17.8115L19.5132 17.1514C18.8781 16.5213 18.8431 16.4962 18.643 16.4962C18.498 16.4962 18.403 16.5263 18.333 16.5963C18.238 16.6913 18.233 16.7613 18.233 19.0968C18.233 21.4322 18.238 21.5022 18.333 21.5972C18.428 21.6923 18.498 21.6973 20.8235 21.6973C22.6588 21.6973 23.2339 21.6823 23.299 21.6323C23.429 21.5372 23.484 21.2872 23.409 21.1172C23.374 21.0371 23.0289 20.6621 22.6488 20.282L21.9487 19.5869L22.2087 19.2018C23.0389 17.9615 23.639 16.5713 23.9591 15.146C24.1541 14.2858 24.2341 13.5207 24.2341 12.4955C24.2341 11.0302 24.0741 10.015 23.629 8.66971C22.1837 4.31886 18.353 1.17324 13.7671 0.568121C13.0419 0.473103 11.3616 0.473103 10.6715 0.568121Z" fill="#003556"/>
<path d="M1.16454 3.35404C1.01951 3.46906 0.969503 3.6791 1.04952 3.85914C1.08953 3.94915 1.43459 4.32923 1.81467 4.7093L2.5098 5.39944L2.15974 5.93954C1.28456 7.2648 0.664443 8.83011 0.379387 10.4454C0.239359 11.2256 0.184349 13.0059 0.274366 13.8011C0.424396 15.1013 0.824474 16.5066 1.36958 17.6568C3.04991 21.1825 6.31055 23.663 10.1813 24.3482C10.9615 24.4882 12.7418 24.5432 13.537 24.4532C14.6322 24.3281 15.8274 24.0231 16.8326 23.618C17.5778 23.3129 17.5928 23.2079 17.0527 22.1577C16.6726 21.4176 16.5075 21.1975 16.3325 21.1975C16.2775 21.1975 16.0075 21.2876 15.7374 21.3976C15.0973 21.6526 14.2571 21.8727 13.532 21.9777C12.8168 22.0777 11.2415 22.0527 10.5664 21.9277C7.62581 21.3726 5.12532 19.5422 3.76505 16.9467C3.0199 15.5214 2.67984 14.1311 2.67984 12.4958C2.67984 11.0455 2.93989 9.82531 3.53 8.52005C3.66003 8.22499 4.05011 7.51485 4.22514 7.2448C4.26515 7.18479 4.40518 7.29981 4.94528 7.83492C5.59041 8.47004 5.62041 8.49504 5.82045 8.49504C5.96548 8.49504 6.0605 8.46504 6.13051 8.39503C6.22553 8.30001 6.23053 8.22999 6.23053 5.89454C6.23053 3.55908 6.22553 3.48906 6.13051 3.39404C6.0355 3.29903 5.96548 3.29403 3.64003 3.29403C1.80467 3.29403 1.22955 3.30903 1.16454 3.35404Z" fill="#003556"/>
<path d="M11.0615 6.1746C10.1963 6.32963 9.1961 6.75472 8.47596 7.27482C7.98087 7.62989 7.23072 8.40504 6.91566 8.87513C6.17051 10.0054 5.83044 11.1356 5.83044 12.4958C5.83044 13.8511 6.16551 14.9763 6.92066 16.1216C7.21572 16.5666 8.1509 17.5068 8.60599 17.8069C9.37114 18.312 10.2663 18.6721 11.1015 18.8221C11.6766 18.9221 12.7718 18.9221 13.3569 18.8171C15.3223 18.477 17.0777 17.1668 17.9778 15.3664C18.4329 14.4612 18.638 13.5661 18.638 12.4958C18.638 10.7005 18.0278 9.2352 16.7626 7.96495C15.7674 6.97476 14.6822 6.39965 13.3469 6.1696C12.8068 6.07458 11.5966 6.07958 11.0615 6.1746ZM12.4918 7.82993C12.5618 7.89494 12.5818 8.00996 12.5918 8.43505L12.6068 8.96015L12.8168 9.02016C13.547 9.2352 14.1221 9.95534 14.1721 10.7155C14.1921 11.0656 14.1871 11.0806 14.0571 11.1856C13.887 11.3206 13.782 11.3256 13.617 11.1956C13.522 11.1206 13.4769 11.0256 13.4569 10.8555C13.4019 10.4754 13.3319 10.2954 13.1369 10.0804C12.8968 9.81032 12.6318 9.69529 12.2417 9.69529C11.5116 9.69529 11.0315 10.1704 11.0315 10.8955C11.0315 11.2956 11.1415 11.5557 11.4165 11.8007C11.6566 12.0207 11.8166 12.0758 12.3817 12.1458C12.9068 12.2108 13.2669 12.3758 13.612 12.7159C13.747 12.8559 13.927 13.106 14.012 13.271C14.1421 13.546 14.1571 13.6161 14.1571 14.0962C14.1571 14.5362 14.1371 14.6613 14.0421 14.8663C13.807 15.3814 13.3919 15.7665 12.8718 15.9515L12.5818 16.0615V16.5716C12.5818 17.1468 12.5218 17.2618 12.2267 17.2618C11.9416 17.2618 11.8616 17.1167 11.8416 16.5416C11.8216 16.1316 11.8066 16.0315 11.7366 16.0115C10.8964 15.7315 10.3513 15.0813 10.2913 14.3012C10.2713 14.0011 10.2813 13.9461 10.3763 13.8511C10.4864 13.7411 10.6814 13.7161 10.8314 13.7961C10.9314 13.8511 11.0315 14.0912 11.0315 14.2912C11.0365 14.4712 11.1915 14.7963 11.3615 14.9663C11.8116 15.4164 12.6118 15.4214 13.0769 14.9813C13.3169 14.7513 13.4319 14.4762 13.4319 14.1062C13.4319 13.7411 13.3369 13.486 13.1169 13.256C12.8818 13.0059 12.7168 12.9409 12.1767 12.8709C11.8766 12.8309 11.5816 12.7559 11.4115 12.6809C11.0465 12.5108 10.6164 12.0808 10.4413 11.7107C10.3213 11.4506 10.3063 11.3606 10.3063 10.8955C10.3063 10.4254 10.3213 10.3404 10.4413 10.0954C10.5164 9.94534 10.6514 9.7303 10.7414 9.62528C10.9364 9.39023 11.4315 9.06017 11.6566 9.01516L11.8216 8.98515L11.8416 8.47005C11.8616 7.93995 11.9016 7.82493 12.1067 7.74491C12.2267 7.6949 12.3767 7.72991 12.4918 7.82993Z" fill="#003556"/>
</svg>
