<svg width="18" height="18" viewBox="0 0 18 18" fill="none" xmlns="http://www.w3.org/2000/svg">
<path fill-rule="evenodd" clip-rule="evenodd" d="M6.075 15.909C6.9875 16.303 7.9625 16.5 9 16.5C10.0375 16.5005 11.0125 16.3037 11.925 15.9097C12.8375 15.5157 13.6313 14.9812 14.3063 14.3062C14.9808 13.6312 15.515 12.8375 15.909 11.925C16.303 11.0125 16.5 10.0375 16.5 9C16.5005 7.9625 16.3038 6.9875 15.9098 6.075C15.5158 5.1625 14.9813 4.36875 14.3063 3.69375C13.6313 3.01925 12.8375 2.485 11.925 2.091C11.0125 1.697 10.0375 1.5 9 1.5C7.9625 1.5005 6.9875 1.6975 6.075 2.091C5.1625 2.4845 4.36875 3.01875 3.69375 3.69375C3.01925 4.36875 2.485 5.1625 2.091 6.075C1.697 6.9875 1.5 7.9625 1.5 9C1.5005 10.0375 1.6975 11.0125 2.091 11.925C2.4845 12.8375 3.01875 13.6312 3.69375 14.3062C4.36875 14.9807 5.1625 15.515 6.075 15.909ZM13.2562 13.2562C12.0938 14.4187 10.675 15 9 15C8.325 15.0005 7.675 14.8912 7.05 14.6722C6.425 14.4532 5.85 14.1375 5.325 13.725L6.75816 12.2918C7.0436 12.0064 7.0436 11.5436 6.75816 11.2582C6.47501 10.975 6.01674 10.9724 5.73039 11.2523L4.275 12.675C3.862 12.15 3.54625 11.575 3.32775 10.95C3.10925 10.325 3 9.675 3 9C3 7.325 3.58125 5.90625 4.74375 4.74375C5.90625 3.58125 7.325 3 9 3C9.675 3.0005 10.325 3.11 10.95 3.3285C11.575 3.547 12.15 3.8625 12.675 4.275L11.2443 5.73864C10.9688 6.02042 10.9714 6.47137 11.25 6.75C11.5286 7.02863 11.9796 7.03119 12.2614 6.75575L13.725 5.325C14.137 5.85 14.4525 6.425 14.6715 7.05C14.8905 7.675 15 8.325 15 9C15 10.675 14.4187 12.0938 13.2562 13.2562Z" fill="#303030"/>
</svg>
