<svg width="25" height="25" viewBox="0 0 25 25" fill="none" xmlns="http://www.w3.org/2000/svg">
<path d="M16.6172 17.4971V19.4971H2.61719V17.4971C2.61719 17.4971 2.61719 13.4971 9.61719 13.4971C16.6172 13.4971 16.6172 17.4971 16.6172 17.4971ZM13.1172 7.99712C13.1172 7.30489 12.9119 6.6282 12.5273 6.05263C12.1427 5.47706 11.5961 5.02845 10.9566 4.76354C10.317 4.49864 9.6133 4.42933 8.93437 4.56437C8.25544 4.69942 7.6318 5.03277 7.14231 5.52225C6.65283 6.01173 6.31949 6.63537 6.18444 7.31431C6.04939 7.99324 6.1187 8.69697 6.38361 9.33651C6.64852 9.97606 7.09712 10.5227 7.67269 10.9073C8.24826 11.2919 8.92495 11.4971 9.61719 11.4971C10.5454 11.4971 11.4357 11.1284 12.0921 10.472C12.7484 9.81562 13.1172 8.92538 13.1172 7.99712ZM16.5572 13.4971C17.1719 13.9729 17.675 14.5776 18.0309 15.2686C18.3868 15.9597 18.5869 16.7204 18.6172 17.4971V19.4971H22.6172V17.4971C22.6172 17.4971 22.6172 13.8671 16.5572 13.4971ZM15.6172 4.49712C14.9289 4.49329 14.2557 4.69908 13.6872 5.08712C14.2946 5.93586 14.6212 6.95341 14.6212 7.99712C14.6212 9.04084 14.2946 10.0584 13.6872 10.9071C14.2557 11.2952 14.9289 11.501 15.6172 11.4971C16.5454 11.4971 17.4357 11.1284 18.0921 10.472C18.7484 9.81562 19.1172 8.92538 19.1172 7.99712C19.1172 7.06887 18.7484 6.17863 18.0921 5.52225C17.4357 4.86587 16.5454 4.49712 15.6172 4.49712Z" fill="#003556"/>
</svg>
