<svg width="33" height="33" viewBox="0 0 33 33" fill="none" xmlns="http://www.w3.org/2000/svg">
<path d="M16.7172 16.6802C14.5954 16.6802 12.5606 15.8373 11.0603 14.337C9.56002 12.8367 8.71716 10.8019 8.71716 8.68018C8.71716 6.55844 9.56002 4.52361 11.0603 3.02332C12.5606 1.52303 14.5954 0.680176 16.7172 0.680176C18.8389 0.680176 20.8737 1.52303 22.374 3.02332C23.8743 4.52361 24.7172 6.55844 24.7172 8.68018C24.7172 10.8019 23.8743 12.8367 22.374 14.337C20.8737 15.8373 18.8389 16.6802 16.7172 16.6802ZM16.7172 22.6802C23.0892 22.6802 28.8072 23.8222 32.7172 28.8062V32.6802H0.717163V28.8062C4.62716 23.8202 10.3452 22.6802 16.7172 22.6802Z" fill="#003556"/>
</svg>
