<svg width="81" height="81" viewBox="0 0 81 81" fill="none" xmlns="http://www.w3.org/2000/svg">
<g clip-path="url(#clip0_7818_7299)">
<path d="M30.9453 1.60596C30.9453 2.49658 31.7266 4.74658 32.8359 7.05908C33.8047 9.05908 35.2891 11.5903 35.5234 11.5903C35.5859 11.5903 35.9922 11.4028 36.4297 11.1841C38.8828 9.94971 41.9141 9.88721 44.6172 11.0278L45.5547 11.4185L45.9141 10.9966C46.4922 10.3091 47.9453 7.80908 48.6797 6.23096C49.5859 4.27783 50.1953 2.37158 50.1328 1.63721C50.0859 1.09033 50.0391 1.04346 49.5859 0.996582C49.1797 0.949707 48.9453 1.07471 48.3672 1.60596C47.9609 1.98096 47.4609 2.57471 47.2578 2.93408C47.0391 3.30908 46.5859 3.85596 46.2266 4.16846C44.5234 5.71533 42.6797 5.71533 40.9609 4.16846L40.3359 3.59033L39.7422 4.16846C38.9766 4.91846 38.4453 5.18408 37.5078 5.29346C36.8672 5.37158 36.5859 5.30908 35.8516 4.94971C35.1484 4.60596 34.8203 4.30908 34.2422 3.48096C33.8516 2.91846 33.1953 2.12158 32.7891 1.69971C32.1797 1.10596 31.9297 0.965332 31.4922 0.965332C30.9609 0.965332 30.9453 0.980957 30.9453 1.60596Z" fill="#F78100"/>
<path d="M38.3817 12.9185C36.9598 13.4966 35.8348 14.3091 34.2879 15.8872C31.0692 19.1529 28.6629 23.9185 28.2567 27.856C28.0223 30.0747 28.2723 33.6372 28.7723 34.9498C29.8817 37.9185 33.8348 39.106 41.9442 38.8873C47.9285 38.731 50.7723 37.7935 52.1317 35.5435C52.8973 34.2779 53.0535 33.1998 53.0379 29.5591C53.0379 26.5279 53.0067 26.2779 52.616 24.9497C51.241 20.4185 47.8817 15.6841 44.6629 13.731C42.6004 12.481 40.1942 12.1685 38.3817 12.9185ZM41.4129 19.6841V20.4497L42.3192 20.6997C43.6785 21.0904 43.6942 21.106 43.3504 22.0435C43.1317 22.6529 43.0067 22.8247 42.8192 22.7466C41.8504 22.3247 41.241 22.1997 40.6004 22.2622C39.6473 22.3404 39.3817 22.5747 39.3817 23.3247C39.3817 24.0122 39.5848 24.1841 41.4129 25.0747C42.8035 25.7466 42.9598 25.856 43.5067 26.6529C44.2098 27.6997 43.9754 29.5122 43.0223 30.3716C42.866 30.5279 42.3973 30.7935 41.991 30.9654L41.2567 31.2935V32.1372V32.9966H40.4754H39.6942V32.1529V31.3247L39.1004 31.231C38.7567 31.1997 38.1629 31.0122 37.7567 30.8247C36.9598 30.481 36.9598 30.481 37.4442 29.3091L37.6473 28.8091L38.3035 29.1372C39.0067 29.481 40.2254 29.6529 40.866 29.4966C41.7879 29.2622 42.1629 28.3091 41.6317 27.5435C41.491 27.356 40.741 26.8872 39.9442 26.5279C38.2254 25.7154 37.4285 24.9341 37.2723 23.9029C37.0848 22.6841 37.8348 21.4497 39.0848 20.8872C39.6785 20.606 39.6942 20.5904 39.6942 19.7622V18.9341H40.5535H41.4129V19.6841Z" fill="#F78100"/>
<path d="M9.14844 25.2935C7.30469 25.9497 6.02344 27.0747 5.21094 28.7622C4.82031 29.5591 4.77344 29.7935 4.77344 31.356C4.77344 32.9028 4.82031 33.1685 5.19531 33.981C5.78906 35.231 7.02344 36.4966 8.27344 37.106C9.25781 37.5747 9.39844 37.606 11.1016 37.606C12.8047 37.606 12.9453 37.5747 13.9297 37.106C16.0234 36.0747 17.3359 34.1216 17.4766 31.8091C17.6328 28.9966 16.3203 26.7935 13.7734 25.606C12.4609 24.981 10.4141 24.856 9.14844 25.2935Z" fill="#F78100"/>
<path d="M67.8984 25.3091C66.0859 25.9341 64.7734 27.0747 63.9609 28.7622C63.5703 29.5591 63.5234 29.8091 63.5234 31.356C63.5234 32.9028 63.5703 33.1685 63.9453 33.981C64.5234 35.2153 65.7266 36.4341 67.0078 37.0747C68.0078 37.5903 68.1172 37.606 69.8516 37.606C71.5547 37.606 71.6953 37.5747 72.6797 37.106C73.9297 36.4966 75.1641 35.231 75.7578 33.981C76.1328 33.1685 76.1797 32.9028 76.1797 31.356C76.1797 29.8091 76.1328 29.5591 75.7578 28.7778C74.5859 26.3872 72.4141 25.0278 69.8203 25.0278C69.1641 25.0435 68.3516 25.1528 67.8984 25.3091Z" fill="#F78100"/>
<path d="M8.35156 40.6528C5.39844 41.4185 2.83594 43.4966 1.50781 46.1841C0.632812 47.9497 0.476562 48.8872 0.476562 52.5591V55.8091H11.1016H21.7266V52.5591C21.7266 48.8872 21.5703 47.9497 20.6953 46.1841C19.3516 43.4653 16.7891 41.4028 13.7891 40.6372C12.2422 40.2466 9.88281 40.2466 8.35156 40.6528Z" fill="#F78100"/>
<path d="M67.1016 40.6528C64.1484 41.4185 61.5859 43.4966 60.2578 46.1841C59.3828 47.9497 59.2266 48.8872 59.2266 52.5591V55.8091H69.8516H80.4766V52.5591C80.4766 48.8872 80.3203 47.9497 79.4453 46.1841C78.1016 43.4653 75.5391 41.4028 72.5391 40.6372C70.9922 40.2466 68.6328 40.2466 67.1016 40.6528Z" fill="#F78100"/>
<path d="M30.6328 41.4497C26.3672 42.9028 25.0859 43.3872 24.8203 43.6528C24.6328 43.8403 24.5391 44.1685 24.5391 44.6216C24.5391 45.1997 24.6172 45.3716 25.0234 45.7153C25.2891 45.9341 25.6641 46.1216 25.8516 46.1216C26.5078 46.1216 33.3516 43.5122 33.6328 43.1372C33.9766 42.731 33.9922 42.1841 33.6797 41.606C33.2734 40.8091 32.5859 40.7778 30.6328 41.4497Z" fill="#F78100"/>
<path d="M47.8364 41.5279C47.4302 42.0436 47.4145 42.8404 47.7895 43.2936C47.9458 43.4967 49.4927 44.2154 51.727 45.1217C55.1958 46.5279 55.4302 46.6061 55.977 46.4342C56.6958 46.2311 57.0395 45.7623 57.0395 45.0123C57.0395 43.8248 57.1333 43.8873 52.6489 42.2936C48.977 40.9967 48.3364 40.8873 47.8364 41.5279Z" fill="#F78100"/>
<path d="M39.8366 41.9809C39.2429 42.309 39.1179 42.8559 39.2116 44.684C39.3054 46.2153 39.3366 46.3246 39.7429 46.684C40.3523 47.1996 41.0085 47.1684 41.5866 46.6059C42.0085 46.1684 42.0398 46.0746 42.0398 44.9184C42.0241 43.4496 41.8366 42.4184 41.5398 42.1215C41.2116 41.7778 40.3054 41.6996 39.8366 41.9809Z" fill="#F78100"/>
<path d="M38.6786 50.606C36.9598 51.231 35.7098 52.2622 34.9754 53.6997C33.2879 56.9497 34.6317 60.856 37.9442 62.4185C38.9129 62.8872 39.1004 62.9185 40.6317 62.9185C42.7567 62.9028 43.6786 62.5591 45.0692 61.2622C48.3661 58.1841 47.5223 52.8247 43.4598 50.9028C42.5692 50.4966 42.2098 50.4185 40.9442 50.3872C39.8192 50.3403 39.2723 50.4028 38.6786 50.606Z" fill="#F78100"/>
<path d="M37.9766 65.9028C35.1328 66.6372 32.5391 68.6997 31.1797 71.2935C30.2266 73.1216 30.0078 74.3091 30.0078 77.8716V80.9653H40.7109H51.4141V78.2935C51.4141 76.8403 51.3359 75.1216 51.2422 74.5122C50.6172 70.4028 47.3203 66.8403 43.2891 65.8872C42.0078 65.5903 39.1328 65.5903 37.9766 65.9028Z" fill="#F78100"/>
</g>
<defs>
<clipPath id="clip0_7818_7299">
<rect width="80" height="80" fill="white" transform="translate(0.476562 0.965332)"/>
</clipPath>
</defs>
</svg>
