<svg width="81" height="81" viewBox="0 0 81 81" fill="none" xmlns="http://www.w3.org/2000/svg">
<g clip-path="url(#clip0_7818_7290)">
<path d="M53.2606 1.21533C43.1043 3.09033 35.5575 10.8091 34.0418 20.8872C32.9481 28.1997 35.3856 35.5278 40.6668 40.8091C44.0262 44.1685 47.7762 46.1997 52.5106 47.2466C54.7606 47.7466 59.5887 47.7466 61.8856 47.2466C71.2137 45.2153 78.1043 38.3091 80.1512 28.9341C80.5731 27.0435 80.5731 21.6372 80.1668 19.7153C79.4793 16.4966 78.0418 13.1841 76.1981 10.606C75.0418 8.98095 72.5106 6.4497 70.8856 5.29345C68.37 3.49658 65.0731 2.04345 61.9325 1.35595C60.2606 0.980953 54.9637 0.887203 53.2606 1.21533ZM58.4793 8.10595C59.37 8.77783 59.5106 9.15283 59.5575 10.981L59.62 12.6841H61.4793C63.5575 12.6841 64.0887 12.8247 64.8075 13.606C65.1668 13.981 65.2762 14.2622 65.3387 14.9497C65.4012 15.6841 65.3543 15.9028 65.0106 16.4185C64.3075 17.481 64.0418 17.5278 59.4793 17.5278C54.9481 17.5278 54.6512 17.5903 54.0887 18.6372C53.5262 19.6997 53.9012 21.0747 54.9168 21.6216C55.3387 21.856 55.8075 21.9028 57.4012 21.9028C58.5262 21.9028 59.6825 21.9966 60.1356 22.1216C63.3075 22.9653 65.37 25.6372 65.37 28.9185C65.37 31.8716 63.4793 34.5122 60.6825 35.4497L59.6668 35.7935L59.5887 37.5591C59.5262 38.9185 59.4481 39.4185 59.2137 39.7466C58.5106 40.8091 56.995 41.1372 55.995 40.4497C54.995 39.7778 54.8231 39.3872 54.7762 37.606L54.7137 35.9966L52.745 35.9341C50.5262 35.856 50.0106 35.6841 49.4012 34.8403C48.9012 34.1216 48.9012 32.8091 49.4012 32.0903C50.12 31.0903 50.3075 31.0591 55.0575 30.9653C59.6825 30.8872 59.7762 30.8716 60.2762 30.0122C60.6356 29.3872 60.6043 28.1372 60.1981 27.6216C59.62 26.9028 59.1356 26.7466 57.2762 26.7466C55.1981 26.7466 54.1825 26.5591 52.9481 25.981C49.4481 24.3403 47.9637 20.106 49.6825 16.6685C50.5575 14.9497 52.1825 13.5591 53.9168 13.0591L54.745 12.8247V11.2935C54.745 10.0435 54.8075 9.66845 55.1043 9.09033C55.745 7.80908 57.4168 7.3247 58.4793 8.10595Z" fill="#003556"/>
<path d="M1.01172 41.4029L0.527344 41.8716V57.6372V73.4029L1.01172 73.8716L1.48047 74.3247L5.48047 74.3716C9.60547 74.4185 10.0742 74.3716 10.6055 73.7935C10.7305 73.6372 12.5742 67.4341 14.6836 60.0122C18.8242 45.4497 18.7148 45.9185 18.043 44.5747C17.418 43.356 16.543 42.9029 13.1836 42.0747C10.1836 41.3404 8.40234 41.106 4.79297 41.0122L1.48047 40.9185L1.01172 41.4029Z" fill="#003556"/>
<path d="M23.1528 47.4968C23.1059 47.8249 21.5434 53.4811 19.6684 60.0749C17.7934 66.6686 16.2934 72.0905 16.3247 72.1218C16.4966 72.2936 23.0747 75.0905 25.9341 76.1999C31.7934 78.528 36.8872 80.0905 40.5903 80.7311C43.3559 81.1999 46.3872 80.9968 49.8716 80.0905C59.5122 77.5905 75.2934 70.0124 79.6372 65.8093C80.5278 64.9343 80.5278 64.9343 80.5278 64.0124C80.5278 62.8561 80.1528 61.9968 79.2778 61.1218C77.6528 59.4968 74.5903 58.8561 71.4966 59.4968C69.0278 59.9968 66.6372 60.8718 58.5747 64.2155C52.0434 66.9186 49.7153 67.5905 46.9341 67.5905C44.8872 67.5749 42.8716 67.153 40.2622 66.1843C37.9184 65.3093 32.8559 62.6686 33.9653 62.903C35.3872 63.1999 41.4184 63.9811 43.9653 64.1999C51.0122 64.7936 53.8559 63.653 53.8716 60.1843C53.8872 58.6686 53.4497 57.6686 52.3403 56.6061C50.4809 54.8718 47.2934 53.7936 41.0278 52.8405L38.9341 52.528L36.8091 51.2936C35.6372 50.6218 34.2934 49.8718 33.8247 49.6374C31.5122 48.4811 28.3559 47.5436 25.6059 47.2155C24.8403 47.1218 23.9809 47.0124 23.7153 46.9655C23.2466 46.903 23.2153 46.9186 23.1528 47.4968Z" fill="#003556"/>
</g>
<defs>
<clipPath id="clip0_7818_7290">
<rect width="80" height="80" fill="white" transform="translate(0.527344 0.965332)"/>
</clipPath>
</defs>
</svg>
